<svg width="538" height="679" xmlns="http://www.w3.org/2000/svg" xmlns:xlink="http://www.w3.org/1999/xlink" xml:space="preserve" overflow="hidden"><defs><clipPath id="clip0"><rect x="-1259" y="-97" width="538" height="679"/></clipPath><linearGradient x1="438.599" y1="-0.575" x2="438.599" y2="655.292" gradientUnits="userSpaceOnUse" spreadMethod="pad" id="fill1"><stop offset="0" stop-color="#FFFFFF"/><stop offset="0.238809" stop-color="#4B4692"/><stop offset="0.274296" stop-color="#403A78" stop-opacity="0.8"/><stop offset="0.395" stop-color="#131B2E"/><stop offset="0.582547" stop-color="#ADCCA9" stop-opacity="0.3"/><stop offset="0.622905" stop-color="#C1CEAA"/><stop offset="0.67" stop-color="#D9D1AC"/><stop offset="0.86" stop-color="#D4AF37"/><stop offset="1" stop-color="#C1B05A"/></linearGradient></defs><g clip-path="url(#clip0)" transform="translate(1259 97)"><path d="M522.947 0 522.947 2.58747 522.947 5.17498 522.947 7.76245 522.947 10.35 522.947 12.9374 522.947 15.5249 522.947 18.1124 522.947 125.865C522.947 139.551 513.86 152.605 497.927 161.826L25.2407 435.293C9.16243 444.595 0 457.765 0 471.573L0 474.067 0 476.845 0 479.62 0 482.21 0 484.799 0 487.386 0 489.973 0 611.507 0 613.812 0 616.687 0 619.561 0 622.147 0 624.734 0 627.324 0 629.91C0 657.019 34.6293 679 77.3464 679L557.316 679 557.316 678.569 77.3464 678.569C38.7015 678.569 6.73476 660.42 1.44702 636.82 8.41822 659.387 39.7496 676.413 77.3464 676.413L557.316 676.413 557.316 675.982 77.3464 675.982C38.7015 675.982 6.73476 657.834 1.44702 634.233 8.41822 656.798 39.7496 673.827 77.3464 673.827L557.088 673.827 557.088 673.396 77.3464 673.396C38.7272 673.396 6.77698 655.271 1.45754 631.692 8.439 654.235 39.676 671.237 77.2473 671.237L78.6326 671.237 80.0205 671.237 81.4117 671.237 82.8057 671.237 84.202 671.237 85.6013 671.237 87.0033 671.237 88.408 671.237 89.816 671.237 91.2261 671.237 92.6386 671.237 94.0544 671.237 95.4725 671.237 96.894 671.237 98.3173 671.237 99.7438 671.237 101.173 671.237 102.604 671.237 104.038 671.237 105.475 671.237 106.915 671.237 108.356 671.237 109.8 671.237 111.248 671.237 112.698 671.237 114.149 671.237 115.603 671.237 117.061 671.237 118.52 671.237 119.982 671.237 121.447 671.237 122.914 671.237 124.383 671.237 125.855 671.237 127.329 671.237 128.805 671.237 130.284 671.237 131.766 671.237 133.249 671.237 134.735 671.237 136.224 671.237 137.714 671.237 139.207 671.237 140.702 671.237 142.2 671.237 143.7 671.237 145.202 671.237 146.706 671.237 148.212 671.237 149.721 671.237 151.232 671.237 152.746 671.237 154.261 671.237 155.778 671.237 157.298 671.237 158.82 671.237 160.343 671.237 161.869 671.237 163.397 671.237 164.928 671.237 166.46 671.237 167.995 671.237 169.531 671.237 171.069 671.237 172.609 671.237 174.153 671.237 175.697 671.237 177.243 671.237 178.792 671.237 180.343 671.237 181.895 671.237 183.449 671.237 185.006 671.237 186.564 671.237 188.124 671.237 189.686 671.237 191.25 671.237 192.815 671.237 194.383 671.237 195.953 671.237 197.524 671.237 199.097 671.237 200.672 671.237 202.249 671.237 203.827 671.237 205.407 671.237 206.989 671.237 208.573 671.237 210.159 671.237 211.745 671.237 213.334 671.237 214.925 671.237 216.518 671.237 218.111 671.237 219.707 671.237 221.304 671.237 222.903 671.237 224.504 671.237 226.105 671.237 227.709 671.237 229.314 671.237 230.921 671.237 232.53 671.237 234.139 671.237 235.751 671.237 237.364 671.237 238.979 671.237 240.594 671.237 242.212 671.237 243.831 671.237 245.451 671.237 247.073 671.237 248.696 671.237 250.321 671.237 251.947 671.237 253.574 671.237 255.203 671.237 256.833 671.237 258.465 671.237 260.098 671.237 261.733 671.237 263.368 671.237 265.005 671.237 266.643 671.237 268.282 671.237 269.923 671.237 271.565 671.237 273.208 671.237 274.853 671.237 276.498 671.237 278.145 671.237 279.793 671.237 281.442 671.237 283.093 671.237 284.743 671.237 286.397 671.237 288.051 671.237 289.705 671.237 291.361 671.237 293.018 671.237 294.677 671.237 296.336 671.237 297.996 671.237 299.658 671.237 301.32 671.237 302.984 671.237 304.649 671.237 306.313 671.237 307.981 671.237 309.646 671.237 311.316 671.237 312.984 671.237 314.654 671.237 316.325 671.237 317.998 671.237 319.669 671.237 321.345 671.237 323.019 671.237 324.696 671.237 326.372 671.237 328.049 671.237 329.725 671.237 331.405 671.237 333.084 671.237 334.764 671.237 336.446 671.237 338.129 671.237 339.811 671.237 341.494 671.237 343.176 671.237 344.862 671.237 346.547 671.237 348.233 671.237 349.922 671.237 351.61 671.237 353.296 671.237 354.984 671.237 356.676 671.237 358.364 671.237 360.056 671.237 361.747 671.237 363.439 671.237 365.13 671.237 366.822 671.237 368.516 671.237 370.211 671.237 371.902 671.237 373.6 671.237 375.294 671.237 376.989 671.237 378.686 671.237 380.384 671.237 382.078 671.237 383.779 671.237 385.476 671.237 387.174 671.237 388.871 671.237 390.572 671.237 392.269 671.237 393.97 671.237 395.67 671.237 397.371 671.237 399.071 671.237 400.772 671.237 402.475 671.237 404.176 671.237 405.876 671.237 407.58 671.237 409.28 671.237 410.984 671.237 412.687 671.237 414.388 671.237 416.091 671.237 417.795 671.237 419.498 671.237 421.202 671.237 422.905 671.237 424.609 671.237 426.312 671.237 428.016 671.237 429.722 671.237 431.425 671.237 433.129 671.237 434.832 671.237 436.539 671.237 438.242 671.237 439.946 671.237 441.649 671.237 443.356 671.237 445.059 671.237 446.763 671.237 448.466 671.237 450.17 671.237 451.873 671.237 453.58 671.237 455.283 671.237 456.987 671.237 458.69 671.237 460.394 671.237 462.097 671.237 463.798 671.237 465.501 671.237 467.205 671.237 468.905 671.237 470.609 671.237 472.312 671.237 474.016 671.237 475.713 671.237 477.417 671.237 479.114 671.237 480.818 671.237 482.515 671.237 484.216 671.237 485.913 671.237 487.611 671.237 489.311 671.237 491.009 671.237 492.706 671.237 494.404 671.237 496.107 671.237 497.802 671.237 499.499 671.237 501.194 671.237 502.891 671.237 504.586 671.237 506.28 671.237 507.972 671.237 549.694 671.237 551.388 671.237 553.083 671.237 554.777 671.237 556.466 671.237 558.154 671.237 559.843 671.237 561.531 671.237 563.22 671.237 564.914 671.237 566.603 671.237 568.288 671.237 569.971 671.237 571.656 671.237 573.345 671.237 575.027 671.237 576.713 671.237 578.395 671.237 525.438 671.237 581.76 671.237 583.44 671.237 517.229 670.917 546.769 671.237 548.448 671.237 550.128 671.237 551.804 671.237 553.478 671.237 555.154 671.237 556.828 671.237 558.498 671.237 560.178 671.237 561.849 671.237 563.513 671.237 565.184 671.237 566.854 671.237 568.522 671.237 570.192 671.237 571.854 671.237 573.518 671.237 575.183 671.237 576.845 671.237 578.506 671.237 580.171 671.237 581.826 671.237 583.488 671.237 585.143 671.237 586.805 671.237 588.461 671.237 590.11 671.237 591.766 671.237 593.412 671.237 595.068 671.237 596.715 671.237 598.367 671.237 600.014 671.237 601.66 671.237 603.307 671.237 604.948 671.237 606.594 671.237 608.232 671.237 609.872 671.237 611.51 671.237 613.148 671.237 614.788 671.237 616.42 671.237 618.052 671.237 619.686 671.237 621.312 671.237 622.947 671.237 624.578 671.237 626.201 671.237 627.827 671.237 629.452 671.237 631.075 671.237 632.692 671.237 634.314 671.237 635.934 671.237 637.55 671.237 639.158 671.237 640.778 671.237 642.391 671.237 643.999 671.237 645.61 671.237 647.218 671.237 648.825 671.237 650.424 671.237 652.029 671.237 653.627 671.237 655.229 671.237 656.828 671.237 658.426 671.237 660.022 671.237 661.612 671.237 663.205 671.237 664.794 671.237 666.381 671.237 667.965 671.237 669.551 671.237 671.135 671.237 672.722 671.237 674.297 671.237 675.877 671.237 677.446 671.237 679.024 671.237 680.596 671.237 682.17 671.237 683.736 671.237 685.302 671.237 686.865 671.237 688.431 671.237 689.99 671.237 691.547 671.237 693.104 671.237 694.664 671.237 696.214 671.237 697.765 671.237 699.319 671.237 700.861 671.237 702.409 671.237 703.951 671.237 705.498 671.237 707.031 671.237 708.573 671.237 710.109 671.237 711.642 671.237 713.169 671.237 714.701 671.237 716.225 671.237 717.755 671.237 719.273 671.237 720.794 671.237 722.318 671.237 723.827 671.237 725.344 671.237 726.856 671.237 728.368 671.237 729.874 671.237 731.38 671.237 732.883 671.237 734.386 671.237 735.886 671.237 737.377 671.237 738.871 671.237 740.361 671.237 741.852 671.237 743.343 671.237 744.825 671.237 746.31 671.237 747.786 671.237 554.777 670.806 750.741 671.237 752.211 671.237 532.213 671.078 553.717 671.237 755.151 671.237 756.618 671.237 758.082 671.237 759.543 671.237 761.001 671.237 762.453 671.237 763.908 671.237 765.36 671.237 766.809 671.237 768.252 671.237 769.695 671.237 771.138 671.237 772.572 671.237 774.006 671.237 775.446 671.237 776.871 671.237 778.299 671.237 779.724 671.237 781.149 671.237 782.565 671.237 783.984 671.237 785.395 671.237 786.811 671.237 788.221 671.237 789.622 671.237 791.029 671.237 792.43 671.237 793.825 671.237 795.223 671.237 796.616 671.237 798.005 671.237 799.388 671.237 800.774 671.237 802.157 671.237 803.534 671.237 804.911 671.237 806.286 671.237 807.654 671.237 809.022 671.237 810.384 671.237 811.743 671.237 813.102 671.237 814.456 671.237 815.806 671.237 817.156 671.237 818.503 671.237 819.848 671.237 821.189 671.237 822.524 671.237 823.853 671.237 825.189 671.237 826.515 671.237 827.841 671.237 829.161 671.237 830.479 671.237 831.799 671.237 833.11 671.237 834.422 671.237 835.724 671.237 837.026 671.237 838.322 671.237 839.625 671.237 840.918 671.237 842.205 671.237 843.493 671.237 844.777 671.237 846.056 671.237 847.334 671.237 553.717 670.806 556.118 671.237 849.882 671.237 851.145 671.237 558.154 671.237 492.724 671.237 493.981 671.237 495.236 671.237 496.493 671.237 497.742 671.237 498.987 671.237 500.239 671.237 501.478 671.237 502.714 671.237 503.945 671.237 505.178 671.237 506.403 671.237 507.63 671.237 508.849 671.237 550.089 671.237 551.307 671.237 552.514 671.237 553.717 671.237 554.924 671.237 556.118 671.237 557.316 671.237 557.316 670.806 556.118 670.806 554.924 670.806 553.717 670.806 552.514 670.806 551.307 670.806 550.089 670.806 508.849 670.806 507.63 670.806 506.403 670.806 505.178 670.806 503.945 670.806 502.714 670.806 501.478 670.806 500.239 670.806 498.987 670.806 497.742 670.806 496.493 670.806 495.236 670.806 493.981 670.806 492.724 670.806 851.145 670.806 849.882 670.806 848.606 670.806 847.334 670.806 846.056 670.806 844.777 670.806 843.493 670.806 842.205 670.806 840.918 670.806 839.625 670.806 838.322 670.806 837.026 670.806 835.724 670.806 834.422 670.806 833.11 670.806 831.799 670.806 830.479 670.806 829.161 670.806 827.841 670.806 826.515 670.806 825.189 670.806 823.853 670.806 822.524 670.806 821.189 670.806 819.848 670.806 818.503 670.806 817.156 670.806 815.806 670.806 814.456 670.806 813.102 670.806 811.743 670.806 810.384 670.806 809.022 670.806 807.654 670.806 806.286 670.806 804.911 670.806 803.534 670.806 802.157 670.806 800.774 670.806 799.388 670.806 798.005 670.806 796.616 670.806 795.223 670.806 793.825 670.806 792.43 670.806 791.029 670.806 789.622 670.806 788.221 670.806 786.811 670.806 785.395 670.806 783.984 670.806 782.565 670.806 781.149 670.806 779.724 670.806 778.299 670.806 776.871 670.806 775.446 670.806 774.006 670.806 772.572 670.806 771.138 670.806 769.695 670.806 768.252 670.806 766.809 670.806 765.36 670.806 763.908 670.806 762.453 670.806 761.001 670.806 759.543 670.806 758.082 670.806 756.618 670.806 755.151 670.806 753.684 670.806 752.211 670.806 553.717 670.806 749.268 670.806 747.786 670.806 746.31 670.806 744.825 670.806 743.343 670.806 741.852 670.806 740.361 670.806 738.871 670.806 737.377 670.806 735.886 670.806 734.386 670.806 732.883 670.806 731.38 670.806 729.874 670.806 728.368 670.806 726.856 670.806 725.344 670.806 723.827 670.806 722.318 670.806 720.794 670.806 719.273 670.806 717.755 670.806 716.225 670.806 714.701 670.806 713.169 670.806 711.642 670.806 710.109 670.806 708.573 670.806 707.031 670.806 705.498 670.806 703.951 670.806 702.409 670.806 700.861 670.806 699.319 670.806 697.765 670.806 696.214 670.806 694.664 670.806 693.104 670.806 691.547 670.806 689.99 670.806 688.431 670.806 686.865 670.806 685.302 670.806 683.736 670.806 682.17 670.806 680.596 670.806 679.024 670.806 677.446 670.806 675.877 670.806 674.297 670.806 672.722 670.806 671.135 670.806 669.551 670.806 667.965 670.806 666.381 670.806 664.794 670.806 663.205 670.806 661.612 670.806 660.022 670.806 658.426 670.806 656.828 670.806 655.229 670.806 653.627 670.806 652.029 670.806 650.424 670.806 648.825 670.806 647.218 670.806 645.61 670.806 643.999 670.806 642.391 670.806 640.778 670.806 639.158 670.806 637.55 670.806 635.934 670.806 634.314 670.806 632.692 670.806 631.075 670.806 629.452 670.806 627.827 670.806 626.201 670.806 624.578 670.806 622.947 670.806 621.312 670.806 619.686 670.806 618.052 670.806 616.42 670.806 614.788 670.806 613.148 670.806 611.51 670.806 609.872 670.806 608.232 670.806 606.594 670.806 604.948 670.806 603.307 670.806 601.66 670.806 600.014 670.806 598.367 670.806 596.715 670.806 595.068 670.806 593.412 670.806 591.766 670.806 590.11 670.806 588.461 670.806 586.805 670.806 585.143 670.806 583.488 670.806 581.826 670.806 580.171 670.806 578.506 670.806 576.845 670.806 575.183 670.806 573.518 670.806 571.854 670.806 570.192 670.806 568.522 670.806 566.854 670.806 565.184 670.806 563.513 670.806 561.849 670.806 560.178 670.806 558.498 670.806 556.828 670.806 555.154 670.806 553.478 670.806 551.804 670.806 550.128 670.806 548.448 670.806 546.769 670.806 545.089 670.806 583.44 670.806 581.76 670.806 580.075 670.806 578.395 670.806 576.713 670.806 575.027 670.806 573.345 670.806 571.656 670.806 569.971 670.806 568.288 670.806 566.603 670.806 564.914 670.806 563.22 670.806 561.531 670.806 559.843 670.806 558.154 670.806 556.466 670.806 554.777 670.806 553.083 670.806 551.388 670.806 549.694 670.806 507.972 670.806 506.28 670.806 504.586 670.806 502.891 670.806 501.194 670.806 499.499 670.806 497.802 670.806 496.107 670.806 494.404 670.806 492.706 670.806 491.009 670.806 489.311 670.806 487.611 670.806 485.913 670.806 484.216 670.806 482.515 670.806 480.818 670.806 479.114 670.806 477.417 670.806 475.713 670.806 474.016 670.806 472.312 670.806 470.609 670.806 468.905 670.806 467.205 670.806 465.501 670.806 463.798 670.806 462.097 670.806 460.394 670.806 458.69 670.806 456.987 670.806 455.283 670.806 453.58 670.806 451.873 670.806 450.17 670.806 448.466 670.806 446.763 670.806 445.059 670.806 443.356 670.806 441.649 670.806 439.946 670.806 438.242 670.806 436.539 670.806 434.832 670.806 433.129 670.806 431.425 670.806 429.722 670.806 428.016 670.806 426.312 670.806 424.609 670.806 422.905 670.806 421.202 670.806 419.498 670.806 417.795 670.806 416.091 670.806 414.388 670.806 412.687 670.806 410.984 670.806 409.28 670.806 407.58 670.806 405.876 670.806 404.176 670.806 402.475 670.806 400.772 670.806 399.071 670.806 397.371 670.806 395.67 670.806 393.97 670.806 392.269 670.806 390.572 670.806 388.871 670.806 387.174 670.806 385.476 670.806 383.779 670.806 382.078 670.806 380.384 670.806 378.686 670.806 376.989 670.806 375.294 670.806 373.6 670.806 371.902 670.806 370.211 670.806 368.516 670.806 366.822 670.806 365.13 670.806 363.439 670.806 361.747 670.806 360.056 670.806 358.364 670.806 356.676 670.806 354.984 670.806 353.296 670.806 351.61 670.806 349.922 670.806 348.233 670.806 346.547 670.806 344.862 670.806 343.176 670.806 341.494 670.806 339.811 670.806 338.129 670.806 336.446 670.806 334.764 670.806 333.084 670.806 331.405 670.806 329.725 670.806 328.049 670.806 326.372 670.806 324.696 670.806 323.019 670.806 321.345 670.806 319.669 670.806 317.998 670.806 316.325 670.806 314.654 670.806 312.984 670.806 311.316 670.806 309.646 670.806 307.981 670.806 306.313 670.806 304.649 670.806 302.984 670.806 301.32 670.806 299.658 670.806 297.996 670.806 296.336 670.806 294.677 670.806 293.018 670.806 291.361 670.806 289.705 670.806 288.051 670.806 286.397 670.806 284.743 670.806 283.093 670.806 281.442 670.806 279.793 670.806 278.145 670.806 276.498 670.806 274.853 670.806 273.208 670.806 271.565 670.806 269.923 670.806 268.282 670.806 266.643 670.806 265.005 670.806 263.368 670.806 261.733 670.806 260.098 670.806 258.465 670.806 256.833 670.806 255.203 670.806 253.574 670.806 251.947 670.806 250.321 670.806 248.696 670.806 247.073 670.806 245.451 670.806 243.831 670.806 242.212 670.806 240.594 670.806 238.979 670.806 237.364 670.806 235.751 670.806 234.139 670.806 232.53 670.806 230.921 670.806 229.314 670.806 227.709 670.806 226.105 670.806 224.504 670.806 222.903 670.806 221.304 670.806 219.707 670.806 218.111 670.806 216.518 670.806 214.925 670.806 213.334 670.806 211.745 670.806 210.159 670.806 208.573 670.806 206.989 670.806 205.407 670.806 203.827 670.806 202.249 670.806 200.672 670.806 199.097 670.806 197.524 670.806 195.953 670.806 194.383 670.806 192.815 670.806 191.25 670.806 189.686 670.806 188.124 670.806 186.564 670.806 185.006 670.806 183.449 670.806 181.895 670.806 180.343 670.806 178.792 670.806 177.243 670.806 175.697 670.806 174.153 670.806 172.609 670.806 171.069 670.806 169.531 670.806 167.995 670.806 166.46 670.806 164.928 670.806 163.397 670.806 161.869 670.806 160.343 670.806 158.82 670.806 157.298 670.806 155.778 670.806 154.261 670.806 152.746 670.806 151.232 670.806 149.721 670.806 148.212 670.806 146.706 670.806 145.202 670.806 143.7 670.806 142.2 670.806 140.702 670.806 139.207 670.806 137.714 670.806 136.224 670.806 134.735 670.806 133.249 670.806 131.766 670.806 130.284 670.806 128.805 670.806 127.329 670.806 125.855 670.806 124.383 670.806 122.914 670.806 121.447 670.806 119.982 670.806 118.52 670.806 117.061 670.806 115.603 670.806 114.149 670.806 112.698 670.806 111.248 670.806 109.8 670.806 108.356 670.806 106.915 670.806 105.475 670.806 104.038 670.806 102.604 670.806 101.173 670.806 99.7438 670.806 98.3173 670.806 96.894 670.806 95.4725 670.806 94.0544 670.806 92.6386 670.806 91.2261 670.806 89.816 670.806 88.408 670.806 87.0033 670.806 85.6013 670.806 84.202 670.806 82.8057 670.806 81.4117 670.806 80.0205 670.806 78.6326 670.806 77.2473 670.806C38.5889 670.806 6.69554 652.648 1.43928 629.033 8.39502 651.612 39.7359 668.65 77.3464 668.65L557.543 668.65 557.543 668.219 77.3464 668.219C38.1809 668.219 5.87464 649.58 1.24789 625.515 7.80081 648.412 39.379 665.773 77.3464 665.773L556.864 665.773 556.864 665.345 77.3464 665.345C38.1809 665.345 5.87464 646.706 1.24789 622.638 7.80081 645.538 39.379 662.899 77.3464 662.899L557.543 662.899 557.543 662.468 77.3464 662.468C39.3365 662.468 7.78674 644.915 1.7291 621.881 9.22811 644.011 40.2349 660.6 77.3464 660.6L557.088 660.6 557.088 660.169 77.3464 660.169C35.0044 660.169 0.67947 638.38 0.67947 611.507L0.67947 489.973C0.67947 476.288 9.76143 463.232 25.6985 454.011L498.385 180.544C514.459 171.242 523.626 158.073 523.626 144.264L523.626 141.677 523.626 139.09 523.626 136.502 523.626 133.914 523.626 131.257 523.626 128.598 523.626 125.865 523.626 18.1124 523.626 15.5249 523.626 12.9374 523.626 10.35 523.626 7.76245 523.626 5.17498 523.626 2.58747 523.626 0 522.947 0ZM522.291 134.942C519.21 145.336 510.888 154.91 498.385 162.144L25.6985 435.614C12.5852 443.2 4.11295 453.382 1.52241 464.379 4.74797 454.211 12.9949 444.868 25.2654 437.775L497.9 164.573C511.364 156.789 519.947 146.269 522.291 134.942ZM498.358 164.892C510.804 157.698 519.106 148.188 522.237 137.857 519.815 149.083 511.271 159.5 497.915 167.224L25.2531 440.56C12.7023 447.817 4.36335 457.433 1.30432 467.866 3.60813 456.484 12.2007 445.91 25.723 438.093L498.358 164.892ZM522.237 140.516C519.112 150.843 510.807 160.35 498.373 167.543L25.7107 440.88C12.1954 448.694 3.60741 459.268 1.30432 470.645 4.36231 460.214 12.6968 450.601 25.2407 443.344L497.927 169.875C511.274 162.152 519.815 151.738 522.237 140.516ZM498.385 170.194C510.741 163.044 519.013 153.608 522.177 143.355 519.686 154.481 511.175 164.797 497.927 172.463L25.2407 445.931C12.8817 453.08 4.60909 462.516 1.44308 472.77 3.93628 461.645 12.448 451.328 25.6985 443.661L498.385 170.194ZM522.168 145.984C518.989 156.222 510.723 165.641 498.385 172.782L25.6985 446.251C12.4204 453.93 3.90075 464.277 1.42754 475.429 4.59118 465.139 12.9059 455.651 25.2944 448.487L261.583 311.783 497.873 175.081C511.109 167.424 519.654 157.103 522.168 145.984ZM498.329 175.4C510.717 168.233 519.031 158.751 522.195 148.46 519.725 159.613 511.205 169.956 497.927 177.638L25.2407 451.104C12.8987 458.247 4.63178 467.666 1.45612 477.902 3.9732 466.786 12.5173 456.463 25.7521 448.805L262.041 312.103 498.329 175.4ZM522.177 151.117C519.013 161.371 510.741 170.806 498.385 177.956L25.6985 451.424C12.448 459.094 3.93628 469.408 1.44308 480.533 4.60909 470.279 12.8817 460.843 25.2407 453.691L497.927 180.225C511.175 172.559 519.686 162.244 522.177 151.117Z" fill="url(#fill1)" fill-rule="evenodd" transform="matrix(1.00093 0 0 1 -1259 -97)"/></g></svg>