<svg width="4009" height="1392" xmlns="http://www.w3.org/2000/svg" xmlns:xlink="http://www.w3.org/1999/xlink" xml:space="preserve" overflow="hidden"><g transform="translate(-187 -652)"><path d="M2455 911.5C2455 817.888 2530.89 742 2624.5 742 2718.11 742 2794 817.888 2794 911.5 2794 1005.11 2718.11 1081 2624.5 1081 2530.89 1081 2455 1005.11 2455 911.5Z" stroke="#0A2342" stroke-width="18.3333" stroke-linejoin="round" stroke-miterlimit="10" fill="#0A2342" fill-rule="evenodd"/><text fill="#FFFFFF" font-family="Roboto,Roboto_MSFontService,sans-serif" font-weight="700" font-size="92" transform="matrix(1 0 0 1 2569.06 904)">Q1</text><text fill="#FFFFFF" fill-opacity="0.901961" font-family="Roboto,Roboto_MSFontService,sans-serif" font-weight="400" font-size="46" transform="matrix(1 0 0 1 2577.08 974)">Jan </text><text fill="#FFFFFF" fill-opacity="0.901961" font-family="Roboto,Roboto_MSFontService,sans-serif" font-weight="400" font-size="46" transform="matrix(1 0 0 1 2664.17 974)">-</text><text fill="#FFFFFF" fill-opacity="0.901961" font-family="Roboto,Roboto_MSFontService,sans-serif" font-weight="400" font-size="46" transform="matrix(1 0 0 1 2586.52 1028)">Mar</text><path d="M1901 1355.5C1901 1261.89 1976.89 1186 2070.5 1186 2164.11 1186 2240 1261.89 2240 1355.5 2240 1449.11 2164.11 1525 2070.5 1525 1976.89 1525 1901 1449.11 1901 1355.5Z" stroke="#0A2342" stroke-width="18.3333" stroke-linejoin="round" stroke-miterlimit="10" fill="#0A2342" fill-rule="evenodd"/><text fill="#FFFFFF" font-family="Roboto,Roboto_MSFontService,sans-serif" font-weight="700" font-size="92" transform="matrix(1 0 0 1 2006.48 1348)">Q4</text><text fill="#FFFFFF" fill-opacity="0.901961" font-family="Roboto,Roboto_MSFontService,sans-serif" font-weight="400" font-size="46" transform="matrix(1 0 0 1 2017.08 1418)">Oct </text><text fill="#FFFFFF" fill-opacity="0.901961" font-family="Roboto,Roboto_MSFontService,sans-serif" font-weight="400" font-size="46" transform="matrix(1 0 0 1 2099.01 1418)">-</text><text fill="#FFFFFF" fill-opacity="0.901961" font-family="Roboto,Roboto_MSFontService,sans-serif" font-weight="400" font-size="46" transform="matrix(1 0 0 1 2025.1 1472)">Dec</text><path d="M2413 1356C2413 1238.92 2507.69 1144 2624.5 1144 2741.31 1144 2836 1238.92 2836 1356 2836 1473.08 2741.31 1568 2624.5 1568 2507.69 1568 2413 1473.08 2413 1356Z" stroke="#D2A000" stroke-width="18.3333" stroke-linejoin="round" stroke-miterlimit="10" fill="#FFFFFF" fill-rule="evenodd"/><text fill="#0A2342" font-family="Roboto,Roboto_MSFontService,sans-serif" font-weight="700" font-size="50" transform="matrix(1 0 0 1 2526.25 1274)">ANNUAL</text><text fill="#0A2342" font-family="Roboto,Roboto_MSFontService,sans-serif" font-weight="700" font-size="50" transform="matrix(1 0 0 1 2507.34 1379)">BUSINESS</text><text fill="#0A2342" font-family="Roboto,Roboto_MSFontService,sans-serif" font-weight="700" font-size="50" transform="matrix(1 0 0 1 2549.17 1483)">CYCLE</text><path d="M2455 1799.5C2455 1705.89 2530.89 1630 2624.5 1630 2718.11 1630 2794 1705.89 2794 1799.5 2794 1893.11 2718.11 1969 2624.5 1969 2530.89 1969 2455 1893.11 2455 1799.5Z" stroke="#0A2342" stroke-width="18.3333" stroke-linejoin="round" stroke-miterlimit="10" fill="#0A2342" fill-rule="evenodd"/><text fill="#FFFFFF" font-family="Roboto,Roboto_MSFontService,sans-serif" font-weight="700" font-size="92" transform="matrix(1 0 0 1 2568.99 1792)">Q3</text><text fill="#FFFFFF" fill-opacity="0.901961" font-family="Roboto,Roboto_MSFontService,sans-serif" font-weight="400" font-size="46" transform="matrix(1 0 0 1 2539.77 1888)">Jul </text><text fill="#FFFFFF" fill-opacity="0.901961" font-family="Roboto,Roboto_MSFontService,sans-serif" font-weight="400" font-size="46" transform="matrix(1 0 0 1 2612.53 1888)">-</text><text fill="#FFFFFF" fill-opacity="0.901961" font-family="Roboto,Roboto_MSFontService,sans-serif" font-weight="400" font-size="46" transform="matrix(1 0 0 1 2636.59 1888)">Sep</text><path d="M2799.88 905.074 2819.64 905.536 2839.2 906.681 2858.47 908.488 2877.42 910.942 2896.03 914.025 2914.28 917.722 2932.15 922.015 2949.6 926.888 2966.62 932.325 2983.18 938.308 2999.27 944.822 3014.84 951.85 3029.89 959.375 3044.39 967.382 3058.3 975.855 3071.62 984.776 3084.32 994.13 3096.36 1003.9 3107.73 1014.07 3118.4 1024.63 3128.35 1035.56 3137.56 1046.83 3145.99 1058.45 3153.63 1070.39 3160.44 1082.62 3166.4 1095.15 3171.49 1107.95 3175.7 1121.06 3179.05 1137.62 3172.31 1138.98 3169 1122.61 3169.1 1122.98 3164.98 1110.16 3165.06 1110.38 3160.05 1097.8 3160.15 1098 3154.28 1085.68 3154.38 1085.87 3147.67 1073.82 3147.78 1074 3140.25 1062.24 3140.37 1062.41 3132.05 1050.95 3132.17 1051.11 3123.09 1039.97 3123.21 1040.12 3113.38 1029.33 3113.51 1029.46 3102.96 1019.02 3103.08 1019.14 3091.84 1009.08 3091.96 1009.19 3080.05 999.519 3080.17 999.617 3067.61 990.356 3067.73 990.445 3054.54 981.608 3054.67 981.688 3040.87 973.293 3041 973.365 3026.63 965.427 3026.75 965.493 3011.83 958.029 3011.95 958.088 2996.5 951.116 2996.62 951.169 2980.66 944.705 2980.79 944.752 2964.35 938.813 2964.47 938.854 2947.57 933.457 2947.69 933.493 2930.36 928.654 2930.48 928.685 2912.74 924.421 2912.86 924.448 2894.73 920.776 2894.85 920.798 2876.36 917.734 2876.48 917.752 2857.65 915.314 2857.77 915.327 2838.62 913.531 2838.74 913.54 2819.3 912.403 2819.42 912.408 2799.72 911.947ZM3198.1 1131.68 3179.39 1179.38 3152.45 1135.79Z" fill="#D2A000"/><path d="M2453.62 1818.91 2433.93 1818.35 2414.44 1817.07 2395.23 1815.1 2376.34 1812.44 2357.78 1809.12 2339.57 1805.16 2321.75 1800.57 2304.34 1795.37 2287.35 1789.58 2270.81 1783.21 2254.75 1776.28 2239.19 1768.81 2224.14 1760.81 2209.65 1752.31 2195.72 1743.31 2182.38 1733.84 2169.66 1723.92 2157.57 1713.55 2146.15 1702.76 2135.42 1691.56 2125.4 1679.97 2116.11 1668.01 2107.58 1655.7 2099.84 1643.04 2092.9 1630.06 2086.8 1616.78 2081.55 1603.22 2077.17 1589.33 2073.87 1573.41 2080.6 1572.02 2083.87 1587.76 2083.78 1587.42 2088.08 1601.05 2088 1600.84 2093.17 1614.21 2093.09 1614.01 2099.1 1627.1 2099.01 1626.91 2105.85 1639.71 2105.75 1639.54 2113.39 1652.02 2113.29 1651.86 2121.71 1664.02 2121.6 1663.87 2130.77 1675.68 2130.66 1675.54 2140.56 1687 2140.44 1686.87 2151.06 1697.94 2150.94 1697.82 2162.24 1708.49 2162.11 1708.38 2174.07 1718.65 2173.95 1718.54 2186.55 1728.37 2186.42 1728.28 2199.64 1737.66 2199.51 1737.58 2213.31 1746.49 2213.19 1746.41 2227.56 1754.85 2227.44 1754.78 2242.35 1762.7 2242.23 1762.64 2257.66 1770.05 2257.54 1769.99 2273.47 1776.87 2273.35 1776.82 2289.76 1783.14 2289.63 1783.09 2306.49 1788.84 2306.37 1788.8 2323.66 1793.97 2323.53 1793.93 2341.23 1798.49 2341.1 1798.46 2359.18 1802.39 2359.05 1802.37 2377.48 1805.66 2377.36 1805.64 2396.12 1808.28 2396 1808.26 2415.08 1810.23 2414.95 1810.21 2434.32 1811.48 2434.19 1811.48 2453.82 1812.04ZM2054.99 1579.9 2072.5 1531.74 2100.52 1574.64Z" fill="#D2A000"/><path d="M423.557-1.58726 440.054-0.302055 458.843 2.0935 477.288 5.13177 495.389 8.7989 513.122 13.0783 530.463 17.9535 547.388 23.4078 563.875 29.4249 579.9 35.9883 595.439 43.0816 610.469 50.6884 624.966 58.7925 638.906 67.3776 652.267 76.4276 665.024 85.9262 677.153 95.8574 688.631 106.205 699.433 116.953 709.535 128.085 718.913 139.586 727.543 151.438 735.399 163.626 742.456 176.132 748.691 188.941 754.077 202.034 758.589 215.394 762.202 229.004 764.892 242.845 766.634 256.898 767.396 271.024 760.531 271.395 759.775 257.387 759.796 257.625 758.084 243.808 758.121 244.041 755.476 230.43 755.528 230.656 751.973 217.269 752.039 217.486 747.599 204.339 747.676 204.547 742.374 191.656 742.462 191.852 736.321 179.235 736.418 179.42 729.461 167.092 729.565 167.265 721.817 155.245 721.927 155.406 713.411 143.708 713.526 143.858 704.265 132.501 704.383 132.638 694.401 121.638 694.522 121.765 683.842 111.138 683.964 111.255 672.61 101.018 672.734 101.125 660.73 91.2957 660.854 91.3932 648.223 81.9877 648.348 82.0766 635.112 73.1115 635.238 73.1925 621.422 64.6846 621.548 64.7581 607.176 56.724 607.301 56.7905 592.396 49.247 592.521 49.307 577.107 42.2707 577.231 42.3246 561.331 35.8122 561.455 35.8604 545.093 29.8887 545.217 29.9313 528.416 24.517 528.54 24.5544 511.323 19.7141 511.447 19.7464 493.838 15.4969 493.962 15.5244 475.985 11.8824 476.109 11.9051 457.787 8.88727 457.911 8.90537 439.268 6.52841 439.436 6.54562 423.023 5.26697ZM426.847 24.9381 382.081 0 428.891-20.8496Z" fill="#D2A000" transform="matrix(-1 0 0 1 2836.5 908.5)"/><path d="M430.194-0.946729 446.27 0.568527 464.903 3.31792 483.186 6.74452 501.119 10.8342 518.68 15.5693 535.846 20.9323 552.594 26.9056 568.902 33.4719 584.745 40.6134 600.102 48.3129 614.95 56.553 629.266 65.3162 643.027 74.5852 656.209 84.3428 668.79 94.5715 680.747 105.254 692.056 116.373 702.695 127.912 712.639 139.853 721.865 152.178 730.349 164.871 738.069 177.912 744.999 191.286 751.116 204.973 756.396 218.956 760.816 233.216 764.35 247.734 766.976 262.492 768.669 277.469 769.402 292.537 762.535 292.871 761.808 277.913 761.825 278.132 760.156 263.373 760.188 263.589 757.6 249.045 757.644 249.256 754.161 234.945 754.217 235.15 749.86 221.091 749.928 221.288 744.72 207.497 744.798 207.686 738.763 194.182 738.849 194.361 732.009 181.162 732.103 181.331 724.481 168.453 724.581 168.613 716.2 156.075 716.306 156.225 707.188 144.044 707.299 144.184 697.467 132.378 697.581 132.509 687.059 121.096 687.176 121.217 675.986 110.214 676.105 110.326 664.269 99.7516 664.391 99.8554 651.933 89.7264 652.056 89.8222 638.998 80.1565 639.122 80.2446 625.487 71.06 625.613 71.1408 611.424 62.4549 611.55 62.5288 596.829 54.3592 596.957 54.4265 581.727 46.791 581.855 46.852 566.14 39.7683 566.269 39.8232 550.091 33.3089 550.22 33.3579 533.601 27.4307 533.731 27.4741 516.695 22.1517 516.825 22.1896 499.395 17.4896 499.525 17.5221 481.723 13.4623 481.854 13.4895 463.702 10.0875 463.834 10.1096 445.356 7.38306 445.535 7.40472 429.549 5.89793ZM433.09 25.6235 388.694 0.0326706 435.804-20.1294Z" fill="#D2A000" transform="matrix(1 0 0 -1 2413.5 1816.5)"/><path d="M494.954-1.86759 499.773-1.68155 522.431 0.483733 544.704 3.47309 566.594 7.2687 588.073 11.8497 609.115 17.1954 629.691 23.2849 649.772 30.0974 669.332 37.6123 688.342 45.809 706.773 54.6667 724.599 64.1648 741.791 74.2829 758.321 85.0004 774.161 96.2967 789.282 108.152 803.656 120.544 817.256 133.455 830.052 146.862 842.015 160.747 853.118 175.087 863.331 189.863 872.625 205.054 880.972 220.638 888.341 236.595 894.703 252.903 900.03 269.541 904.292 286.486 907.46 303.716 909.506 321.209 910.394 338.827 903.527 339.173 902.645 321.668 902.664 321.895 900.645 304.626 900.679 304.849 897.551 287.839 897.598 288.055 893.39 271.324 893.45 271.533 888.188 255.101 888.26 255.303 881.974 239.191 882.055 239.383 874.773 223.613 874.863 223.794 866.611 208.386 866.709 208.557 857.517 193.533 857.621 193.693 847.515 179.072 847.625 179.222 836.634 165.027 836.748 165.166 824.9 151.416 825.018 151.546 812.341 138.263 812.461 138.382 798.983 125.587 799.105 125.698 784.853 113.411 784.977 113.513 769.98 101.755 770.105 101.849 754.391 90.6419 754.517 90.7275 738.113 80.092 738.24 80.1702 721.175 70.1268 721.302 70.198 703.604 60.7677 703.731 60.8323 685.427 52.036 685.555 52.0943 666.674 43.9529 666.802 44.0051 647.371 36.5396 647.499 36.586 627.546 29.8171 627.675 29.858 607.228 23.8067 607.357 23.8422 586.445 18.5294 586.575 18.5597 565.224 14.0063 565.354 14.0313 543.594 10.2582 543.724 10.2782 521.582 7.30635 521.712 7.32132 499.216 5.17154 499.411 5.18457 494.689 5.0023ZM498.531 24.6416 453.601 0 500.272-21.1586Z" fill="#8ED973" transform="matrix(-1 0 0 1 2915.5 851.5)"/><path d="M2589.5 708.5 2626 660.5 2662.5 708.5Z" stroke="#D2A000" stroke-width="6.875" stroke-miterlimit="8" fill="#D2A000" fill-rule="evenodd"/><path d="M3376.5 1375.5 3413 1327.5 3449.5 1375.5Z" stroke="#D2A000" stroke-width="6.875" stroke-miterlimit="8" fill="#D2A000" fill-rule="evenodd"/><path d="M1786.5 1375.5 1822.5 1327.5 1858.5 1375.5Z" stroke="#D2A000" stroke-width="6.875" stroke-miterlimit="8" fill="#D2A000" fill-rule="evenodd"/><path d="M2589.5 2040.5 2626 1991.5 2662.5 2040.5Z" stroke="#D2A000" stroke-width="6.875" stroke-miterlimit="8" fill="#D2A000" fill-rule="evenodd"/><path d="M3009 1355.5C3009 1261.89 3084.89 1186 3178.5 1186 3272.11 1186 3348 1261.89 3348 1355.5 3348 1449.11 3272.11 1525 3178.5 1525 3084.89 1525 3009 1449.11 3009 1355.5Z" stroke="#0A2342" stroke-width="18.3333" stroke-linejoin="round" stroke-miterlimit="10" fill="#0A2342" fill-rule="evenodd"/><text fill="#FFFFFF" font-family="Roboto,Roboto_MSFontService,sans-serif" font-weight="700" font-size="92" transform="matrix(1 0 0 1 3120.74 1348)">Q2</text><text fill="#FFFFFF" fill-opacity="0.901961" font-family="Roboto,Roboto_MSFontService,sans-serif" font-weight="400" font-size="46" transform="matrix(1 0 0 1 3087.51 1444)">Apr </text><text fill="#FFFFFF" fill-opacity="0.901961" font-family="Roboto,Roboto_MSFontService,sans-serif" font-weight="400" font-size="46" transform="matrix(1 0 0 1 3170.01 1444)">-</text><text fill="#FFFFFF" fill-opacity="0.901961" font-family="Roboto,Roboto_MSFontService,sans-serif" font-weight="400" font-size="46" transform="matrix(1 0 0 1 3194.07 1444)">Jun</text><text font-family="Roboto,Roboto_MSFontService,sans-serif" font-weight="400" font-size="73" transform="matrix(1 0 0 1 1917.78 744)">Learn</text><text font-family="Roboto,Roboto_MSFontService,sans-serif" font-weight="400" font-size="73" transform="matrix(1 0 0 1 3149.5 744)">Plan</text><text font-family="Roboto,Roboto_MSFontService,sans-serif" font-weight="400" font-size="73" transform="matrix(1 0 0 1 3092.21 1883)">Execute</text><text font-family="Roboto,Roboto_MSFontService,sans-serif" font-weight="400" font-size="73" transform="matrix(1 0 0 1 1867.08 1883)">Measure</text><rect x="190.5" y="660.5" width="1458" height="294" stroke="#D2A000" stroke-width="6.875" stroke-linejoin="round" stroke-miterlimit="10" fill="#FBEFBF"/><text font-family="Roboto,Roboto_MSFontService,sans-serif" font-weight="700" font-size="64" transform="matrix(1 0 0 1 251.925 786)">Category A: Strategic </text><text font-family="Roboto,Roboto_MSFontService,sans-serif" font-weight="700" font-size="64" transform="matrix(1 0 0 1 251.925 863)">Planning &amp; Budgeting</text><text font-family="Roboto,Roboto_MSFontService,sans-serif" font-weight="400" font-size="50" transform="matrix(1 0 0 1 950.197 731)">• Capability Gap Analysis</text><text font-family="Roboto,Roboto_MSFontService,sans-serif" font-weight="400" font-size="50" transform="matrix(1 0 0 1 950.197 814)">• Investment Prioritization</text><text font-family="Roboto,Roboto_MSFontService,sans-serif" font-weight="400" font-size="50" transform="matrix(1 0 0 1 950.197 897)">• Scenario Planning</text><rect x="190.5" y="1337.5" width="1458" height="294" stroke="#D2A000" stroke-width="6.875" stroke-linejoin="round" stroke-miterlimit="10" fill="#FBEFBF"/><text font-family="Roboto,Roboto_MSFontService,sans-serif" font-weight="700" font-size="64" transform="matrix(1 0 0 1 255.533 1460)">Category C: Integration </text><text font-family="Roboto,Roboto_MSFontService,sans-serif" font-weight="700" font-size="64" transform="matrix(1 0 0 1 255.533 1537)">of Ops &amp; Projects</text><rect x="190.5" y="998.5" width="1458" height="294" stroke="#D2A000" stroke-width="6.875" stroke-linejoin="round" stroke-miterlimit="10" fill="#FBEFBF"/><text font-family="Roboto,Roboto_MSFontService,sans-serif" font-weight="700" font-size="64" transform="matrix(1 0 0 1 283.515 1128)">Category B: Execution </text><text font-family="Roboto,Roboto_MSFontService,sans-serif" font-weight="700" font-size="64" transform="matrix(1 0 0 1 283.515 1205)">Oversight</text><rect x="190.5" y="1675.5" width="1458" height="294" stroke="#D2A000" stroke-width="6.875" stroke-linejoin="round" stroke-miterlimit="10" fill="#FBEFBF"/><text font-family="Roboto,Roboto_MSFontService,sans-serif" font-weight="700" font-size="64" transform="matrix(1 0 0 1 283.515 1756)">Category D: Quarterly </text><text font-family="Roboto,Roboto_MSFontService,sans-serif" font-weight="700" font-size="64" transform="matrix(1 0 0 1 283.515 1833)">&amp; Board</text><text font-family="Roboto,Roboto_MSFontService,sans-serif" font-weight="700" font-size="64" transform="matrix(1 0 0 1 512.682 1833)">-</text><text font-family="Roboto,Roboto_MSFontService,sans-serif" font-weight="700" font-size="64" transform="matrix(1 0 0 1 537.89 1833)">Level </text><text font-family="Roboto,Roboto_MSFontService,sans-serif" font-weight="700" font-size="64" transform="matrix(1 0 0 1 283.515 1910)">Reviews</text><text font-family="Roboto,Roboto_MSFontService,sans-serif" font-weight="400" font-size="50" transform="matrix(1 0 0 1 970.218 1410)">• </text><text font-family="Roboto,Roboto_MSFontService,sans-serif" font-weight="400" font-size="50" transform="matrix(1 0 0 1 1000.01 1410)">Automated Reports</text><text font-family="Roboto,Roboto_MSFontService,sans-serif" font-weight="400" font-size="50" transform="matrix(1 0 0 1 970.218 1495)">• Board Briefings</text><text font-family="Roboto,Roboto_MSFontService,sans-serif" font-weight="400" font-size="50" transform="matrix(1 0 0 1 970.218 1580)">• Historical Analysis</text><text font-family="Roboto,Roboto_MSFontService,sans-serif" font-weight="400" font-size="50" transform="matrix(1 0 0 1 970.218 1073)">• Dependency Monitoring</text><text font-family="Roboto,Roboto_MSFontService,sans-serif" font-weight="400" font-size="50" transform="matrix(1 0 0 1 970.218 1152)">• Resource Allocation</text><text font-family="Roboto,Roboto_MSFontService,sans-serif" font-weight="400" font-size="50" transform="matrix(1 0 0 1 976.023 1231)">• Real</text><text font-family="Roboto,Roboto_MSFontService,sans-serif" font-weight="400" font-size="50" transform="matrix(1 0 0 1 1103.21 1231)">-</text><text font-family="Roboto,Roboto_MSFontService,sans-serif" font-weight="400" font-size="50" transform="matrix(1 0 0 1 1116.96 1231)">time Tracking</text><text font-family="Roboto,Roboto_MSFontService,sans-serif" font-weight="400" font-size="50" transform="matrix(1 0 0 1 943.025 1753)">• Process Re</text><text font-family="Roboto,Roboto_MSFontService,sans-serif" font-weight="400" font-size="50" transform="matrix(1 0 0 1 1226.05 1753)">-</text><text font-family="Roboto,Roboto_MSFontService,sans-serif" font-weight="400" font-size="50" transform="matrix(1 0 0 1 1239.8 1753)">engineering</text><text font-family="Roboto,Roboto_MSFontService,sans-serif" font-weight="400" font-size="50" transform="matrix(1 0 0 1 943.025 1834)">• Impact Assessment</text><text font-family="Roboto,Roboto_MSFontService,sans-serif" font-weight="400" font-size="50" transform="matrix(1 0 0 1 946.962 1914)">• </text><text font-family="Roboto,Roboto_MSFontService,sans-serif" font-weight="400" font-size="50" transform="matrix(1 0 0 1 976.753 1914)">System Integration</text><path d="M1539.5 1455.5 1582 1390.5 1624.5 1455.5Z" stroke="#D2A000" stroke-width="6.875" stroke-miterlimit="8" fill="#D2A000" fill-rule="evenodd"/><text font-family="Calibri,Calibri_MSFontService,sans-serif" font-weight="700" font-size="83" transform="matrix(1 0 0 1 3551.8 948)">Targeting high</text><text font-family="Calibri,Calibri_MSFontService,sans-serif" font-weight="700" font-size="83" transform="matrix(1 0 0 1 4031.83 948)">-</text><text font-family="Calibri,Calibri_MSFontService,sans-serif" font-weight="700" font-size="83" transform="matrix(1 0 0 1 3551.8 1047)">value pain points</text><text fill="#0A2342" font-family="Calibri,Calibri_MSFontService,sans-serif" font-weight="700" font-size="83" transform="matrix(1 0 0 1 3551.8 1146)">across an </text><text fill="#0A2342" font-family="Calibri,Calibri_MSFontService,sans-serif" font-weight="700" font-size="83" transform="matrix(1 0 0 1 3551.8 1245)">integrated </text><text fill="#0A2342" font-family="Calibri,Calibri_MSFontService,sans-serif" font-weight="700" font-size="83" transform="matrix(1 0 0 1 3551.8 1344)">Annual Business </text><text fill="#0A2342" font-family="Calibri,Calibri_MSFontService,sans-serif" font-weight="700" font-size="83" transform="matrix(1 0 0 1 3551.8 1443)">Cycle of Projects </text><text fill="#0A2342" font-family="Calibri,Calibri_MSFontService,sans-serif" font-weight="700" font-size="83" transform="matrix(1 0 0 1 3551.8 1540)">and Operations</text></g></svg>