<svg width="538" height="1217" xmlns="http://www.w3.org/2000/svg" xmlns:xlink="http://www.w3.org/1999/xlink" xml:space="preserve" overflow="hidden"><defs><clipPath id="clip0"><rect x="-523" y="811" width="538" height="1217"/></clipPath><linearGradient x1="428.524" y1="599.407" x2="428.524" y2="1195.45" gradientUnits="userSpaceOnUse" spreadMethod="pad" id="fill1"><stop offset="0" stop-color="#FFFFFF"/><stop offset="0.238809" stop-color="#4B4692"/><stop offset="0.274296" stop-color="#403A78" stop-opacity="0.8"/><stop offset="0.395" stop-color="#131B2E"/><stop offset="0.582547" stop-color="#ADCCA9" stop-opacity="0.3"/><stop offset="0.622905" stop-color="#C1CEAA"/><stop offset="0.67" stop-color="#D9D1AC"/><stop offset="0.86" stop-color="#D4AF37"/><stop offset="1" stop-color="#C1B05A"/></linearGradient><linearGradient x1="252.952" y1="-0.522497" x2="252.952" y2="595.457" gradientUnits="userSpaceOnUse" spreadMethod="pad" id="fill2"><stop offset="0" stop-color="#FFFFFF"/><stop offset="0.238809" stop-color="#4B4692"/><stop offset="0.274296" stop-color="#403A78" stop-opacity="0.8"/><stop offset="0.395" stop-color="#131B2E"/><stop offset="0.582547" stop-color="#ADCCA9" stop-opacity="0.3"/><stop offset="0.622905" stop-color="#C1CEAA"/><stop offset="0.67" stop-color="#D9D1AC"/><stop offset="0.86" stop-color="#D4AF37"/><stop offset="1" stop-color="#C1B05A"/></linearGradient></defs><g clip-path="url(#clip0)" transform="translate(523 -811)"><path d="M505.179 599.93 505.179 602.28 505.179 604.634 505.179 606.984 505.179 609.335 505.179 611.686 505.179 614.039 505.179 616.39 505.179 714.313C505.179 726.753 496.921 738.615 482.441 746.995L52.867 995.521C38.2551 1003.97 29.9285 1015.94 29.9285 1028.49L29.9285 1030.76 29.9285 1033.28 29.9285 1035.8 29.9285 1038.16 29.9285 1040.51 29.9285 1042.86 29.9285 1045.21 29.9285 1155.66 29.9285 1157.76 29.9285 1160.37 29.9285 1162.98 29.9285 1165.33 29.9285 1167.68 29.9285 1170.04 29.9285 1172.39C29.9285 1197.02 61.3993 1217 100.22 1217L536.413 1217 536.413 1216.61 100.22 1216.61C65.1001 1216.61 36.0488 1200.11 31.2434 1178.67 37.579 1199.18 66.0527 1214.65 100.22 1214.65L536.413 1214.65 536.413 1214.26 100.22 1214.26C65.1001 1214.26 36.0488 1197.76 31.2434 1176.32 37.579 1196.82 66.0527 1212.3 100.22 1212.3L536.206 1212.3 536.206 1211.91 100.22 1211.91C65.1235 1211.91 36.0875 1195.44 31.2529 1174.01 37.5978 1194.49 65.9857 1209.94 100.13 1209.94L101.389 1209.94 102.651 1209.94 103.915 1209.94 105.182 1209.94 106.451 1209.94 107.722 1209.94 108.996 1209.94 110.273 1209.94 111.553 1209.94 112.834 1209.94 114.118 1209.94 115.404 1209.94 116.693 1209.94 117.985 1209.94 119.279 1209.94 120.575 1209.94 121.874 1209.94 123.174 1209.94 124.478 1209.94 125.783 1209.94 127.092 1209.94 128.402 1209.94 129.714 1209.94 131.03 1209.94 132.347 1209.94 133.666 1209.94 134.988 1209.94 136.312 1209.94 137.639 1209.94 138.968 1209.94 140.298 1209.94 141.632 1209.94 142.967 1209.94 144.304 1209.94 145.644 1209.94 146.986 1209.94 148.33 1209.94 149.676 1209.94 151.024 1209.94 152.375 1209.94 153.728 1209.94 155.082 1209.94 156.439 1209.94 157.798 1209.94 159.159 1209.94 160.522 1209.94 161.887 1209.94 163.253 1209.94 164.623 1209.94 165.994 1209.94 167.367 1209.94 168.743 1209.94 170.12 1209.94 171.499 1209.94 172.88 1209.94 174.263 1209.94 175.647 1209.94 177.034 1209.94 178.423 1209.94 179.814 1209.94 181.206 1209.94 182.601 1209.94 183.997 1209.94 185.395 1209.94 186.795 1209.94 188.197 1209.94 189.6 1209.94 191.006 1209.94 192.413 1209.94 193.823 1209.94 195.233 1209.94 196.646 1209.94 198.06 1209.94 199.476 1209.94 200.894 1209.94 202.314 1209.94 203.735 1209.94 205.158 1209.94 206.583 1209.94 208.009 1209.94 209.437 1209.94 210.866 1209.94 212.298 1209.94 213.731 1209.94 215.165 1209.94 216.601 1209.94 218.039 1209.94 219.478 1209.94 220.919 1209.94 222.361 1209.94 223.805 1209.94 225.251 1209.94 226.698 1209.94 228.147 1209.94 229.596 1209.94 231.048 1209.94 232.501 1209.94 233.956 1209.94 235.411 1209.94 236.869 1209.94 238.328 1209.94 239.788 1209.94 241.25 1209.94 242.713 1209.94 244.178 1209.94 245.644 1209.94 247.111 1209.94 248.579 1209.94 250.049 1209.94 251.52 1209.94 252.993 1209.94 254.467 1209.94 255.942 1209.94 257.418 1209.94 258.896 1209.94 260.375 1209.94 261.855 1209.94 263.337 1209.94 264.82 1209.94 266.304 1209.94 267.789 1209.94 269.275 1209.94 270.763 1209.94 272.251 1209.94 273.742 1209.94 275.233 1209.94 276.724 1209.94 278.218 1209.94 279.711 1209.94 281.208 1209.94 282.704 1209.94 284.203 1209.94 285.703 1209.94 287.202 1209.94 288.701 1209.94 290.203 1209.94 291.707 1209.94 293.209 1209.94 294.716 1209.94 296.221 1209.94 297.728 1209.94 299.236 1209.94 300.746 1209.94 302.256 1209.94 303.766 1209.94 305.278 1209.94 306.791 1209.94 308.304 1209.94 309.819 1209.94 311.332 1209.94 312.85 1209.94 314.366 1209.94 315.884 1209.94 317.402 1209.94 318.923 1209.94 320.441 1209.94 321.965 1209.94 323.486 1209.94 325.009 1209.94 326.533 1209.94 328.057 1209.94 329.58 1209.94 331.107 1209.94 332.633 1209.94 334.159 1209.94 335.689 1209.94 337.218 1209.94 338.747 1209.94 340.276 1209.94 341.805 1209.94 343.337 1209.94 344.868 1209.94 346.4 1209.94 347.935 1209.94 349.469 1209.94 351.001 1209.94 352.535 1209.94 354.073 1209.94 355.607 1209.94 357.144 1209.94 358.682 1209.94 360.219 1209.94 361.756 1209.94 363.293 1209.94 364.833 1209.94 366.373 1209.94 367.911 1209.94 369.453 1209.94 370.993 1209.94 372.533 1209.94 374.076 1209.94 375.618 1209.94 377.158 1209.94 378.704 1209.94 380.246 1209.94 381.789 1209.94 383.332 1209.94 384.877 1209.94 386.42 1209.94 387.965 1209.94 389.511 1209.94 391.056 1209.94 392.602 1209.94 394.147 1209.94 395.695 1209.94 397.24 1209.94 398.786 1209.94 400.334 1209.94 401.879 1209.94 403.427 1209.94 404.976 1209.94 406.521 1209.94 408.069 1209.94 409.617 1209.94 411.165 1209.94 412.713 1209.94 414.262 1209.94 415.81 1209.94 417.358 1209.94 418.906 1209.94 420.457 1209.94 422.005 1209.94 423.553 1209.94 425.101 1209.94 426.652 1209.94 428.2 1209.94 429.748 1209.94 431.296 1209.94 432.847 1209.94 434.395 1209.94 435.943 1209.94 437.491 1209.94 439.04 1209.94 440.588 1209.94 442.139 1209.94 443.687 1209.94 445.235 1209.94 446.783 1209.94 448.331 1209.94 449.879 1209.94 451.425 1209.94 452.973 1209.94 454.521 1209.94 456.066 1209.94 457.614 1209.94 459.162 1209.94 460.711 1209.94 462.253 1209.94 463.801 1209.94 465.344 1209.94 466.892 1209.94 468.435 1209.94 469.98 1209.94 471.523 1209.94 473.066 1209.94 474.611 1209.94 476.154 1209.94 477.696 1209.94 479.239 1209.94 480.787 1209.94 482.327 1209.94 483.87 1209.94 485.41 1209.94 486.952 1209.94 488.492 1209.94 490.032 1209.94 491.569 1209.94 529.486 1209.94 531.026 1209.94 532.566 1209.94 534.106 1209.94 535.641 1209.94 537.175 1209.94 538.71 1209.94 540.244 1209.94 541.779 1209.94 543.319 1209.94 544.853 1209.94 546.385 1209.94 547.914 1209.94 549.446 1209.94 550.98 1209.94 552.509 1209.94 554.041 1209.94 555.57 1209.94 507.442 1209.94 558.628 1209.94 560.155 1209.94 499.982 1209.65 526.828 1209.94 528.354 1209.94 529.881 1209.94 531.404 1209.94 532.925 1209.94 534.449 1209.94 535.97 1209.94 537.488 1209.94 539.014 1209.94 540.532 1209.94 542.045 1209.94 543.563 1209.94 545.082 1209.94 546.597 1209.94 548.115 1209.94 549.625 1209.94 551.138 1209.94 552.651 1209.94 554.161 1209.94 555.671 1209.94 557.184 1209.94 558.688 1209.94 560.198 1209.94 561.703 1209.94 563.213 1209.94 564.717 1209.94 566.217 1209.94 567.721 1209.94 569.218 1209.94 570.722 1209.94 572.219 1209.94 573.72 1209.94 575.217 1209.94 576.713 1209.94 578.21 1209.94 579.701 1209.94 581.197 1209.94 582.685 1209.94 584.176 1209.94 585.665 1209.94 587.153 1209.94 588.644 1209.94 590.127 1209.94 591.609 1209.94 593.095 1209.94 594.572 1209.94 596.058 1209.94 597.541 1209.94 599.015 1209.94 600.493 1209.94 601.97 1209.94 603.445 1209.94 604.914 1209.94 606.389 1209.94 607.861 1209.94 609.33 1209.94 610.791 1209.94 612.263 1209.94 613.729 1209.94 615.19 1209.94 616.654 1209.94 618.115 1209.94 619.576 1209.94 621.029 1209.94 622.487 1209.94 623.94 1209.94 625.396 1209.94 626.849 1209.94 628.302 1209.94 629.752 1209.94 631.197 1209.94 632.644 1209.94 634.089 1209.94 635.531 1209.94 636.97 1209.94 638.412 1209.94 639.851 1209.94 641.293 1209.94 642.725 1209.94 644.161 1209.94 645.587 1209.94 647.021 1209.94 648.449 1209.94 649.88 1209.94 651.303 1209.94 652.726 1209.94 654.146 1209.94 655.569 1209.94 656.987 1209.94 658.402 1209.94 659.816 1209.94 661.234 1209.94 662.643 1209.94 664.053 1209.94 665.465 1209.94 666.866 1209.94 668.273 1209.94 669.674 1209.94 671.08 1209.94 672.473 1209.94 673.875 1209.94 675.27 1209.94 676.663 1209.94 678.051 1209.94 679.444 1209.94 680.829 1209.94 682.219 1209.94 683.599 1209.94 684.981 1209.94 686.366 1209.94 687.737 1209.94 689.116 1209.94 690.49 1209.94 691.864 1209.94 693.233 1209.94 694.601 1209.94 695.967 1209.94 697.333 1209.94 698.696 1209.94 700.051 1209.94 701.409 1209.94 702.764 1209.94 704.119 1209.94 705.474 1209.94 706.82 1209.94 708.17 1209.94 709.511 1209.94 534.106 1209.55 712.197 1209.94 713.533 1209.94 513.6 1209.8 533.143 1209.94 716.204 1209.94 717.538 1209.94 718.868 1209.94 720.196 1209.94 721.521 1209.94 722.84 1209.94 724.163 1209.94 725.482 1209.94 726.799 1209.94 728.11 1209.94 729.422 1209.94 730.733 1209.94 732.036 1209.94 733.34 1209.94 734.648 1209.94 735.944 1209.94 737.241 1209.94 738.536 1209.94 739.831 1209.94 741.118 1209.94 742.408 1209.94 743.69 1209.94 744.977 1209.94 746.258 1209.94 747.531 1209.94 748.81 1209.94 750.083 1209.94 751.351 1209.94 752.622 1209.94 753.887 1209.94 755.149 1209.94 756.406 1209.94 757.666 1209.94 758.923 1209.94 760.175 1209.94 761.426 1209.94 762.675 1209.94 763.918 1209.94 765.162 1209.94 766.4 1209.94 767.635 1209.94 768.87 1209.94 770.1 1209.94 771.327 1209.94 772.554 1209.94 773.779 1209.94 775 1209.94 776.219 1209.94 777.432 1209.94 778.641 1209.94 779.854 1209.94 781.059 1209.94 782.265 1209.94 783.465 1209.94 784.662 1209.94 785.861 1209.94 787.053 1209.94 788.245 1209.94 789.428 1209.94 790.612 1209.94 791.79 1209.94 792.974 1209.94 794.149 1209.94 795.319 1209.94 796.489 1209.94 797.656 1209.94 798.818 1209.94 799.98 1209.94 533.143 1209.55 535.325 1209.94 802.295 1209.94 803.443 1209.94 537.175 1209.94 477.713 1209.94 478.855 1209.94 479.995 1209.94 481.138 1209.94 482.273 1209.94 483.404 1209.94 484.542 1209.94 485.668 1209.94 486.792 1209.94 487.91 1209.94 489.031 1209.94 490.144 1209.94 491.259 1209.94 492.367 1209.94 529.845 1209.94 530.953 1209.94 532.049 1209.94 533.143 1209.94 534.239 1209.94 535.325 1209.94 536.413 1209.94 536.413 1209.55 535.325 1209.55 534.239 1209.55 533.143 1209.55 532.049 1209.55 530.953 1209.55 529.845 1209.55 492.367 1209.55 491.259 1209.55 490.144 1209.55 489.031 1209.55 487.91 1209.55 486.792 1209.55 485.668 1209.55 484.542 1209.55 483.404 1209.55 482.273 1209.55 481.138 1209.55 479.995 1209.55 478.855 1209.55 477.713 1209.55 803.443 1209.55 802.295 1209.55 801.136 1209.55 799.98 1209.55 798.818 1209.55 797.656 1209.55 796.489 1209.55 795.319 1209.55 794.149 1209.55 792.974 1209.55 791.79 1209.55 790.612 1209.55 789.428 1209.55 788.245 1209.55 787.053 1209.55 785.861 1209.55 784.662 1209.55 783.465 1209.55 782.265 1209.55 781.059 1209.55 779.854 1209.55 778.641 1209.55 777.432 1209.55 776.219 1209.55 775 1209.55 773.779 1209.55 772.554 1209.55 771.327 1209.55 770.1 1209.55 768.87 1209.55 767.635 1209.55 766.4 1209.55 765.162 1209.55 763.918 1209.55 762.675 1209.55 761.426 1209.55 760.175 1209.55 758.923 1209.55 757.666 1209.55 756.406 1209.55 755.149 1209.55 753.887 1209.55 752.622 1209.55 751.351 1209.55 750.083 1209.55 748.81 1209.55 747.531 1209.55 746.258 1209.55 744.977 1209.55 743.69 1209.55 742.408 1209.55 741.118 1209.55 739.831 1209.55 738.536 1209.55 737.241 1209.55 735.944 1209.55 734.648 1209.55 733.34 1209.55 732.036 1209.55 730.733 1209.55 729.422 1209.55 728.11 1209.55 726.799 1209.55 725.482 1209.55 724.163 1209.55 722.84 1209.55 721.521 1209.55 720.196 1209.55 718.868 1209.55 717.538 1209.55 716.204 1209.55 714.871 1209.55 713.533 1209.55 533.143 1209.55 710.858 1209.55 709.511 1209.55 708.17 1209.55 706.82 1209.55 705.474 1209.55 704.119 1209.55 702.764 1209.55 701.409 1209.55 700.051 1209.55 698.696 1209.55 697.333 1209.55 695.967 1209.55 694.601 1209.55 693.233 1209.55 691.864 1209.55 690.49 1209.55 689.116 1209.55 687.737 1209.55 686.366 1209.55 684.981 1209.55 683.599 1209.55 682.219 1209.55 680.829 1209.55 679.444 1209.55 678.051 1209.55 676.663 1209.55 675.27 1209.55 673.875 1209.55 672.473 1209.55 671.08 1209.55 669.674 1209.55 668.273 1209.55 666.866 1209.55 665.465 1209.55 664.053 1209.55 662.643 1209.55 661.234 1209.55 659.816 1209.55 658.402 1209.55 656.987 1209.55 655.569 1209.55 654.146 1209.55 652.726 1209.55 651.303 1209.55 649.88 1209.55 648.449 1209.55 647.021 1209.55 645.587 1209.55 644.161 1209.55 642.725 1209.55 641.293 1209.55 639.851 1209.55 638.412 1209.55 636.97 1209.55 635.531 1209.55 634.089 1209.55 632.644 1209.55 631.197 1209.55 629.752 1209.55 628.302 1209.55 626.849 1209.55 625.396 1209.55 623.94 1209.55 622.487 1209.55 621.029 1209.55 619.576 1209.55 618.115 1209.55 616.654 1209.55 615.19 1209.55 613.729 1209.55 612.263 1209.55 610.791 1209.55 609.33 1209.55 607.861 1209.55 606.389 1209.55 604.914 1209.55 603.445 1209.55 601.97 1209.55 600.493 1209.55 599.015 1209.55 597.541 1209.55 596.058 1209.55 594.572 1209.55 593.095 1209.55 591.609 1209.55 590.127 1209.55 588.644 1209.55 587.153 1209.55 585.665 1209.55 584.176 1209.55 582.685 1209.55 581.197 1209.55 579.701 1209.55 578.21 1209.55 576.713 1209.55 575.217 1209.55 573.72 1209.55 572.219 1209.55 570.722 1209.55 569.218 1209.55 567.721 1209.55 566.217 1209.55 564.717 1209.55 563.213 1209.55 561.703 1209.55 560.198 1209.55 558.688 1209.55 557.184 1209.55 555.671 1209.55 554.161 1209.55 552.651 1209.55 551.138 1209.55 549.625 1209.55 548.115 1209.55 546.597 1209.55 545.082 1209.55 543.563 1209.55 542.045 1209.55 540.532 1209.55 539.014 1209.55 537.488 1209.55 535.97 1209.55 534.449 1209.55 532.925 1209.55 531.404 1209.55 529.881 1209.55 528.354 1209.55 526.828 1209.55 525.302 1209.55 560.155 1209.55 558.628 1209.55 557.096 1209.55 555.57 1209.55 554.041 1209.55 552.509 1209.55 550.98 1209.55 549.446 1209.55 547.914 1209.55 546.385 1209.55 544.853 1209.55 543.319 1209.55 541.779 1209.55 540.244 1209.55 538.71 1209.55 537.175 1209.55 535.641 1209.55 534.106 1209.55 532.566 1209.55 531.026 1209.55 529.486 1209.55 491.569 1209.55 490.032 1209.55 488.492 1209.55 486.952 1209.55 485.41 1209.55 483.87 1209.55 482.327 1209.55 480.787 1209.55 479.239 1209.55 477.696 1209.55 476.154 1209.55 474.611 1209.55 473.066 1209.55 471.523 1209.55 469.98 1209.55 468.435 1209.55 466.892 1209.55 465.344 1209.55 463.801 1209.55 462.253 1209.55 460.711 1209.55 459.162 1209.55 457.614 1209.55 456.066 1209.55 454.521 1209.55 452.973 1209.55 451.425 1209.55 449.879 1209.55 448.331 1209.55 446.783 1209.55 445.235 1209.55 443.687 1209.55 442.139 1209.55 440.588 1209.55 439.04 1209.55 437.491 1209.55 435.943 1209.55 434.395 1209.55 432.847 1209.55 431.296 1209.55 429.748 1209.55 428.2 1209.55 426.652 1209.55 425.101 1209.55 423.553 1209.55 422.005 1209.55 420.457 1209.55 418.906 1209.55 417.358 1209.55 415.81 1209.55 414.262 1209.55 412.713 1209.55 411.165 1209.55 409.617 1209.55 408.069 1209.55 406.521 1209.55 404.976 1209.55 403.427 1209.55 401.879 1209.55 400.334 1209.55 398.786 1209.55 397.24 1209.55 395.695 1209.55 394.147 1209.55 392.602 1209.55 391.056 1209.55 389.511 1209.55 387.965 1209.55 386.42 1209.55 384.877 1209.55 383.332 1209.55 381.789 1209.55 380.246 1209.55 378.704 1209.55 377.158 1209.55 375.618 1209.55 374.076 1209.55 372.533 1209.55 370.993 1209.55 369.453 1209.55 367.911 1209.55 366.373 1209.55 364.833 1209.55 363.293 1209.55 361.756 1209.55 360.219 1209.55 358.682 1209.55 357.144 1209.55 355.607 1209.55 354.073 1209.55 352.535 1209.55 351.001 1209.55 349.469 1209.55 347.935 1209.55 346.4 1209.55 344.868 1209.55 343.337 1209.55 341.805 1209.55 340.276 1209.55 338.747 1209.55 337.218 1209.55 335.689 1209.55 334.159 1209.55 332.633 1209.55 331.107 1209.55 329.58 1209.55 328.057 1209.55 326.533 1209.55 325.009 1209.55 323.486 1209.55 321.965 1209.55 320.441 1209.55 318.923 1209.55 317.402 1209.55 315.884 1209.55 314.366 1209.55 312.85 1209.55 311.332 1209.55 309.819 1209.55 308.304 1209.55 306.791 1209.55 305.278 1209.55 303.766 1209.55 302.256 1209.55 300.746 1209.55 299.236 1209.55 297.728 1209.55 296.221 1209.55 294.716 1209.55 293.209 1209.55 291.707 1209.55 290.203 1209.55 288.701 1209.55 287.202 1209.55 285.703 1209.55 284.203 1209.55 282.704 1209.55 281.208 1209.55 279.711 1209.55 278.218 1209.55 276.724 1209.55 275.233 1209.55 273.742 1209.55 272.251 1209.55 270.763 1209.55 269.275 1209.55 267.789 1209.55 266.304 1209.55 264.82 1209.55 263.337 1209.55 261.855 1209.55 260.375 1209.55 258.896 1209.55 257.418 1209.55 255.942 1209.55 254.467 1209.55 252.993 1209.55 251.52 1209.55 250.049 1209.55 248.579 1209.55 247.111 1209.55 245.644 1209.55 244.178 1209.55 242.713 1209.55 241.25 1209.55 239.788 1209.55 238.328 1209.55 236.869 1209.55 235.411 1209.55 233.956 1209.55 232.501 1209.55 231.048 1209.55 229.596 1209.55 228.147 1209.55 226.698 1209.55 225.251 1209.55 223.805 1209.55 222.361 1209.55 220.919 1209.55 219.478 1209.55 218.039 1209.55 216.601 1209.55 215.165 1209.55 213.731 1209.55 212.298 1209.55 210.866 1209.55 209.437 1209.55 208.009 1209.55 206.583 1209.55 205.158 1209.55 203.735 1209.55 202.314 1209.55 200.894 1209.55 199.476 1209.55 198.06 1209.55 196.646 1209.55 195.233 1209.55 193.823 1209.55 192.413 1209.55 191.006 1209.55 189.6 1209.55 188.197 1209.55 186.795 1209.55 185.395 1209.55 183.997 1209.55 182.601 1209.55 181.206 1209.55 179.814 1209.55 178.423 1209.55 177.034 1209.55 175.647 1209.55 174.263 1209.55 172.88 1209.55 171.499 1209.55 170.12 1209.55 168.743 1209.55 167.367 1209.55 165.994 1209.55 164.623 1209.55 163.253 1209.55 161.887 1209.55 160.522 1209.55 159.159 1209.55 157.798 1209.55 156.439 1209.55 155.082 1209.55 153.728 1209.55 152.375 1209.55 151.024 1209.55 149.676 1209.55 148.33 1209.55 146.986 1209.55 145.644 1209.55 144.304 1209.55 142.967 1209.55 141.632 1209.55 140.298 1209.55 138.968 1209.55 137.639 1209.55 136.312 1209.55 134.988 1209.55 133.666 1209.55 132.347 1209.55 131.03 1209.55 129.714 1209.55 128.402 1209.55 127.092 1209.55 125.783 1209.55 124.478 1209.55 123.174 1209.55 121.874 1209.55 120.575 1209.55 119.279 1209.55 117.985 1209.55 116.693 1209.55 115.404 1209.55 114.118 1209.55 112.834 1209.55 111.553 1209.55 110.273 1209.55 108.996 1209.55 107.722 1209.55 106.451 1209.55 105.182 1209.55 103.915 1209.55 102.651 1209.55 101.389 1209.55 100.13 1209.55C64.9978 1209.55 36.0135 1193.05 31.2366 1171.59 37.5578 1192.11 66.0401 1207.59 100.22 1207.59L536.62 1207.59 536.62 1207.2 100.22 1207.2C64.627 1207.2 35.2674 1190.26 31.0625 1168.39 37.0177 1189.2 65.7158 1204.98 100.22 1204.98L536.002 1204.98 536.002 1204.59 100.22 1204.59C64.627 1204.59 35.2674 1187.65 31.0625 1165.78 37.0177 1186.59 65.7158 1202.37 100.22 1202.37L536.62 1202.37 536.62 1201.98 100.22 1201.98C65.6772 1201.98 37.0049 1186.02 31.5 1165.09 38.315 1185.2 66.4937 1200.28 100.22 1200.28L536.206 1200.28 536.206 1199.89 100.22 1199.89C61.7402 1199.89 30.5461 1180.08 30.5461 1155.66L30.5461 1045.21C30.5461 1032.78 38.7995 1020.91 53.283 1012.53L482.858 764.006C497.465 755.552 505.796 743.583 505.796 731.035L505.796 728.685 505.796 726.334 505.796 723.983 505.796 721.63 505.796 719.214 505.796 716.8 505.796 714.313 505.796 616.39 505.796 614.039 505.796 611.686 505.796 609.335 505.796 606.984 505.796 604.634 505.796 602.28 505.796 599.93 505.179 599.93ZM504.583 722.563C501.783 732.009 494.22 740.71 482.858 747.286L53.283 995.812C41.3658 1002.71 33.6663 1011.96 31.312 1021.95 34.2433 1012.71 41.7382 1004.22 52.8896 997.777L482.417 749.493C494.652 742.419 502.453 732.858 504.583 722.563ZM482.833 749.781C494.143 743.246 501.688 734.602 504.534 725.213 502.333 735.416 494.568 744.881 482.43 751.901L52.8784 1000.31C41.4721 1006.9 33.8937 1015.64 31.1139 1025.12 33.2075 1014.78 41.0164 1005.17 53.3053 998.065L482.833 749.781ZM504.534 727.629C501.693 737.016 494.146 745.654 482.847 752.192L53.2942 1000.6C41.0115 1007.7 33.2067 1017.31 31.1139 1027.65 33.8929 1018.17 41.4672 1009.43 52.867 1002.84L482.441 754.311C494.571 747.292 502.333 737.829 504.534 727.629ZM482.858 754.6C494.086 748.103 501.604 739.527 504.48 730.208 502.216 740.321 494.481 749.697 482.441 756.662L52.867 1005.19C41.6354 1011.69 34.1171 1020.26 31.2399 1029.58 33.5057 1019.47 41.2411 1010.09 53.283 1003.13L482.858 754.6ZM504.471 732.6C501.582 741.902 494.07 750.464 482.858 756.953L53.283 1005.48C41.2161 1012.46 33.4734 1021.86 31.2257 1032 34.101 1022.64 41.6572 1014.02 52.9157 1007.51L267.653 883.276 482.392 759.043C494.421 752.083 502.186 742.705 504.471 732.6ZM482.806 759.331C494.064 752.818 501.62 744.201 504.496 734.85 502.251 744.985 494.508 754.385 482.441 761.366L52.867 1009.89C41.6506 1016.38 34.1378 1024.94 31.2518 1034.24 33.5392 1024.14 41.304 1014.76 53.3317 1007.8L268.069 883.567 482.806 759.331ZM504.48 737.263C501.604 746.582 494.086 755.158 482.858 761.655L53.283 1010.18C41.2411 1017.15 33.5057 1026.52 31.2399 1036.63 34.1171 1027.32 41.6354 1018.74 52.867 1012.24L482.441 763.717C494.481 756.749 502.216 747.376 504.48 737.263Z" fill="url(#fill1)" fill-rule="evenodd" transform="matrix(1.06122 0 0 1 -523 811)"/><path d="M301.597 0 301.597 2.35121 301.597 4.70244 301.597 7.05365 301.597 9.40488 301.597 11.7561 301.597 14.1073 301.597 16.4586 301.597 114.372C301.597 126.809 296.357 138.671 287.169 147.049L14.557 395.545C5.28422 403.999 0 415.965 0 428.513L0 430.779 0 433.304 0 435.826 0 438.18 0 440.531 0 442.881 0 445.232 0 555.671 0 557.763 0 560.375 0 562.987 0 565.338 0 567.688 0 570.042 0 572.393C0 597.027 19.9716 617 44.6078 617L505.775 617 505.775 616.608 44.6078 616.608C22.3203 616.608 3.88412 600.117 0.834536 578.672 4.85502 599.179 22.9248 614.649 44.6078 614.649L505.775 614.649 505.775 614.257 44.6078 614.257C22.3203 614.257 3.88412 597.767 0.834536 576.321 4.85502 596.825 22.9248 612.298 44.6078 612.298L505.644 612.298 505.644 611.906 44.6078 611.906C22.335 611.906 3.90847 595.438 0.840601 574.012 4.86699 594.496 22.8822 609.945 44.5507 609.945L45.3495 609.945 46.15 609.945 46.9523 609.945 47.7563 609.945 48.5616 609.945 49.3686 609.945 50.1772 609.945 50.9872 609.945 51.7994 609.945 52.6126 609.945 53.4272 609.945 54.2437 609.945 55.0616 609.945 55.8813 609.945 56.7022 609.945 57.5249 609.945 58.3491 609.945 59.1746 609.945 60.0017 609.945 60.8301 609.945 61.6605 609.945 62.492 609.945 63.3248 609.945 64.1595 609.945 64.9956 609.945 65.8328 609.945 66.6716 609.945 67.5121 609.945 68.3539 609.945 69.197 609.945 70.0416 609.945 70.8877 609.945 71.735 609.945 72.5839 609.945 73.4341 609.945 74.2854 609.945 75.1384 609.945 75.9927 609.945 76.8484 609.945 77.7054 609.945 78.5638 609.945 79.4236 609.945 80.2844 609.945 81.1469 609.945 82.0105 609.945 82.8757 609.945 83.7417 609.945 84.6091 609.945 85.4781 609.945 86.3482 609.945 87.2197 609.945 88.0925 609.945 88.9664 609.945 89.8414 609.945 90.7181 609.945 91.5955 609.945 92.4743 609.945 93.3545 609.945 94.2357 609.945 95.1184 609.945 96.0021 609.945 96.8871 609.945 97.773 609.945 98.6603 609.945 99.5486 609.945 100.439 609.945 101.329 609.945 102.221 609.945 103.114 609.945 104.008 609.945 104.904 609.945 105.8 609.945 106.698 609.945 107.596 609.945 108.496 609.945 109.397 609.945 110.299 609.945 111.202 609.945 112.106 609.945 113.011 609.945 113.917 609.945 114.825 609.945 115.733 609.945 116.642 609.945 117.552 609.945 118.464 609.945 119.376 609.945 120.29 609.945 121.204 609.945 122.119 609.945 123.036 609.945 123.953 609.945 124.872 609.945 125.791 609.945 126.711 609.945 127.632 609.945 128.554 609.945 129.477 609.945 130.401 609.945 131.326 609.945 132.252 609.945 133.179 609.945 134.106 609.945 135.034 609.945 135.964 609.945 136.894 609.945 137.825 609.945 138.757 609.945 139.69 609.945 140.624 609.945 141.558 609.945 142.494 609.945 143.43 609.945 144.367 609.945 145.305 609.945 146.243 609.945 147.182 609.945 148.123 609.945 149.064 609.945 150.006 609.945 150.948 609.945 151.891 609.945 152.835 609.945 153.78 609.945 154.726 609.945 155.672 609.945 156.619 609.945 157.567 609.945 158.515 609.945 159.464 609.945 160.414 609.945 161.364 609.945 162.315 609.945 163.267 609.945 164.219 609.945 165.173 609.945 166.127 609.945 167.081 609.945 168.036 609.945 168.992 609.945 169.948 609.945 170.905 609.945 171.863 609.945 172.821 609.945 173.78 609.945 174.739 609.945 175.699 609.945 176.659 609.945 177.62 609.945 178.582 609.945 179.544 609.945 180.507 609.945 181.47 609.945 182.434 609.945 183.398 609.945 184.363 609.945 185.328 609.945 186.294 609.945 187.26 609.945 188.227 609.945 189.194 609.945 190.162 609.945 191.13 609.945 192.099 609.945 193.068 609.945 194.037 609.945 195.007 609.945 195.978 609.945 196.949 609.945 197.92 609.945 198.892 609.945 199.864 609.945 200.836 609.945 201.809 609.945 202.782 609.945 203.756 609.945 204.729 609.945 205.704 609.945 206.678 609.945 207.653 609.945 208.629 609.945 209.604 609.945 210.58 609.945 211.557 609.945 212.533 609.945 213.51 609.945 214.487 609.945 215.464 609.945 216.442 609.945 217.42 609.945 218.398 609.945 219.377 609.945 220.356 609.945 221.335 609.945 222.314 609.945 223.294 609.945 224.273 609.945 225.253 609.945 226.233 609.945 227.213 609.945 228.194 609.945 229.174 609.945 230.155 609.945 231.136 609.945 232.118 609.945 233.099 609.945 234.08 609.945 235.062 609.945 236.044 609.945 237.025 609.945 238.007 609.945 238.989 609.945 239.972 609.945 240.954 609.945 241.936 609.945 242.918 609.945 243.901 609.945 244.884 609.945 245.866 609.945 246.849 609.945 247.832 609.945 248.815 609.945 249.797 609.945 250.78 609.945 251.763 609.945 252.746 609.945 253.729 609.945 254.712 609.945 255.695 609.945 256.677 609.945 257.66 609.945 258.643 609.945 259.626 609.945 260.608 609.945 261.592 609.945 262.574 609.945 263.556 609.945 264.538 609.945 265.521 609.945 266.503 609.945 267.485 609.945 268.468 609.945 269.45 609.945 270.43 609.945 271.412 609.945 272.395 609.945 273.377 609.945 274.357 609.945 275.339 609.945 276.319 609.945 277.301 609.945 278.28 609.945 279.26 609.945 280.239 609.945 281.219 609.945 282.198 609.945 283.178 609.945 284.157 609.945 285.137 609.945 286.119 609.945 287.096 609.945 288.075 609.945 289.052 609.945 290.031 609.945 291.008 609.945 291.985 609.945 292.962 609.945 293.938 609.945 294.915 609.945 295.892 609.945 296.869 609.945 297.843 609.945 298.817 609.945 299.791 609.945 300.765 609.945 301.739 609.945 302.715 609.945 303.69 609.945 304.661 609.945 305.632 609.945 306.603 609.945 307.577 609.945 308.549 609.945 309.52 609.945 310.491 609.945 311.46 609.945 312.431 609.945 313.4 609.945 314.369 609.945 315.337 609.945 316.306 609.945 317.274 609.945 318.24 609.945 319.206 609.945 320.172 609.945 321.138 609.945 322.101 609.945 323.07 609.945 324.033 609.945 324.993 609.945 325.956 609.945 326.919 609.945 327.883 609.945 328.846 609.945 329.803 609.945 330.764 609.945 331.724 609.945 332.682 609.945 333.64 609.945 334.6 609.945 335.555 609.945 336.513 609.945 337.468 609.945 338.426 609.945 339.381 609.945 340.333 609.945 341.288 609.945 342.237 609.945 343.192 609.945 344.142 609.945 345.094 609.945 346.044 609.945 346.993 609.945 347.943 609.945 348.89 609.945 349.839 609.945 350.783 609.945 351.73 609.945 352.674 609.945 353.618 609.945 354.565 609.945 355.507 609.945 356.448 609.945 357.389 609.945 358.328 609.945 359.269 609.945 360.211 609.945 361.147 609.945 362.085 609.945 363.021 609.945 363.957 609.945 364.891 609.945 365.826 609.945 366.76 609.945 367.693 609.945 368.621 609.945 369.554 609.945 370.484 609.945 371.412 609.945 372.34 609.945 373.268 609.945 374.196 609.945 375.118 609.945 376.043 609.945 376.965 609.945 377.888 609.945 378.81 609.945 379.732 609.945 380.652 609.945 381.569 609.945 382.488 609.945 383.405 609.945 384.32 609.945 385.234 609.945 386.148 609.945 387.062 609.945 387.976 609.945 388.885 609.945 389.796 609.945 390.702 609.945 391.611 609.945 392.517 609.945 393.426 609.945 394.329 609.945 395.233 609.945 396.133 609.945 397.036 609.945 397.937 609.945 398.835 609.945 399.733 609.945 400.631 609.945 401.526 609.945 402.421 609.945 403.316 609.945 404.206 609.945 405.098 609.945 405.988 609.945 406.88 609.945 407.764 609.945 408.654 609.945 409.538 609.945 410.423 609.945 411.304 609.945 412.188 609.945 413.067 609.945 413.949 609.945 414.825 609.945 415.701 609.945 416.58 609.945 417.45 609.945 418.326 609.945 419.197 609.945 420.07 609.945 420.938 609.945 421.806 609.945 422.674 609.945 423.539 609.945 424.405 609.945 425.264 609.945 426.127 609.945 426.987 609.945 427.846 609.945 428.706 609.945 429.56 609.945 430.417 609.945 431.269 609.945 432.123 609.945 432.972 609.945 433.821 609.945 434.67 609.945 435.516 609.945 436.362 609.945 437.206 609.945 438.049 609.945 438.89 609.945 439.728 609.945 440.566 609.945 441.404 609.945 442.239 609.945 443.072 609.945 443.904 609.945 444.737 609.945 445.564 609.945 446.391 609.945 447.221 609.945 448.043 609.945 448.867 609.945 449.689 609.945 450.51 609.945 451.327 609.945 452.146 609.945 452.959 609.945 453.775 609.945 454.589 609.945 455.397 609.945 456.208 609.945 457.016 609.945 457.821 609.945 458.626 609.945 459.429 609.945 460.232 609.945 461.029 609.945 461.829 609.945 462.626 609.945 463.42 609.945 464.215 609.945 465.007 609.945 465.796 609.945 466.585 609.945 467.371 609.945 468.155 609.945 468.938 609.945 469.719 609.945 470.497 609.945 471.275 609.945 472.053 609.945 472.829 609.945 473.602 609.945 474.372 609.945 475.139 609.945 475.909 609.945 476.673 609.945 477.438 609.945 478.2 609.945 478.959 609.945 479.721 609.945 480.477 609.945 481.233 609.945 481.984 609.945 482.735 609.945 483.483 609.945 484.234 609.945 484.98 609.945 485.723 609.945 486.465 609.945 487.205 609.945 487.943 609.945 488.68 609.945 489.415 609.945 490.149 609.945 490.878 609.945 491.608 609.945 492.334 609.945 493.058 609.945 493.781 609.945 494.503 609.945 495.221 609.945 495.942 609.945 496.657 609.945 497.37 609.945 498.08 609.945 498.79 609.945 499.498 609.945 500.205 609.945 500.907 609.945 501.606 609.945 502.308 609.945 503.005 609.945 503.699 609.945 504.395 609.945 505.084 609.945 505.775 609.945 505.775 609.553 505.084 609.553 504.395 609.553 503.699 609.553 503.005 609.553 502.308 609.553 501.606 609.553 500.907 609.553 500.205 609.553 499.498 609.553 498.79 609.553 498.08 609.553 497.37 609.553 496.657 609.553 495.942 609.553 495.221 609.553 494.503 609.553 493.781 609.553 493.058 609.553 492.334 609.553 491.608 609.553 490.878 609.553 490.149 609.553 489.415 609.553 488.68 609.553 487.943 609.553 487.205 609.553 486.465 609.553 485.723 609.553 484.98 609.553 484.234 609.553 483.483 609.553 482.735 609.553 481.984 609.553 481.233 609.553 480.477 609.553 479.721 609.553 478.959 609.553 478.2 609.553 477.438 609.553 476.673 609.553 475.909 609.553 475.139 609.553 474.372 609.553 473.602 609.553 472.829 609.553 472.053 609.553 471.275 609.553 470.497 609.553 469.719 609.553 468.938 609.553 468.155 609.553 467.371 609.553 466.585 609.553 465.796 609.553 465.007 609.553 464.215 609.553 463.42 609.553 462.626 609.553 461.829 609.553 461.029 609.553 460.232 609.553 459.429 609.553 458.626 609.553 457.821 609.553 457.016 609.553 456.208 609.553 455.397 609.553 454.589 609.553 453.775 609.553 452.959 609.553 452.146 609.553 451.327 609.553 450.51 609.553 449.689 609.553 448.867 609.553 448.043 609.553 447.221 609.553 446.391 609.553 445.564 609.553 444.737 609.553 443.904 609.553 443.072 609.553 442.239 609.553 441.404 609.553 440.566 609.553 439.728 609.553 438.89 609.553 438.049 609.553 437.206 609.553 436.362 609.553 435.516 609.553 434.67 609.553 433.821 609.553 432.972 609.553 432.123 609.553 431.269 609.553 430.417 609.553 429.56 609.553 428.706 609.553 427.846 609.553 426.987 609.553 426.127 609.553 425.264 609.553 424.405 609.553 423.539 609.553 422.674 609.553 421.806 609.553 420.938 609.553 420.07 609.553 419.197 609.553 418.326 609.553 417.45 609.553 416.58 609.553 415.701 609.553 414.825 609.553 413.949 609.553 413.067 609.553 412.188 609.553 411.304 609.553 410.423 609.553 409.538 609.553 408.654 609.553 407.764 609.553 406.88 609.553 405.988 609.553 405.098 609.553 404.206 609.553 403.316 609.553 402.421 609.553 401.526 609.553 400.631 609.553 399.733 609.553 398.835 609.553 397.937 609.553 397.036 609.553 396.133 609.553 395.233 609.553 394.329 609.553 393.426 609.553 392.517 609.553 391.611 609.553 390.702 609.553 389.796 609.553 388.885 609.553 387.976 609.553 387.062 609.553 386.148 609.553 385.234 609.553 384.32 609.553 383.405 609.553 382.488 609.553 381.569 609.553 380.652 609.553 379.732 609.553 378.81 609.553 377.888 609.553 376.965 609.553 376.043 609.553 375.118 609.553 374.196 609.553 373.268 609.553 372.34 609.553 371.412 609.553 370.484 609.553 369.554 609.553 368.621 609.553 367.693 609.553 366.76 609.553 365.826 609.553 364.891 609.553 363.957 609.553 363.021 609.553 362.085 609.553 361.147 609.553 360.211 609.553 359.269 609.553 358.328 609.553 357.389 609.553 356.448 609.553 355.507 609.553 354.565 609.553 353.618 609.553 352.674 609.553 351.73 609.553 350.783 609.553 349.839 609.553 348.89 609.553 347.943 609.553 346.993 609.553 346.044 609.553 345.094 609.553 344.142 609.553 343.192 609.553 342.237 609.553 341.288 609.553 340.333 609.553 339.381 609.553 338.426 609.553 337.468 609.553 336.513 609.553 335.555 609.553 334.6 609.553 333.64 609.553 332.682 609.553 331.724 609.553 330.764 609.553 329.803 609.553 328.846 609.553 327.883 609.553 326.919 609.553 325.956 609.553 324.993 609.553 324.033 609.553 323.07 609.553 322.101 609.553 321.138 609.553 320.172 609.553 319.206 609.553 318.24 609.553 317.274 609.553 316.306 609.553 315.337 609.553 314.369 609.553 313.4 609.553 312.431 609.553 311.46 609.553 310.491 609.553 309.52 609.553 308.549 609.553 307.577 609.553 306.603 609.553 305.632 609.553 304.661 609.553 303.69 609.553 302.715 609.553 301.739 609.553 300.765 609.553 299.791 609.553 298.817 609.553 297.843 609.553 296.869 609.553 295.892 609.553 294.915 609.553 293.938 609.553 292.962 609.553 291.985 609.553 291.008 609.553 290.031 609.553 289.052 609.553 288.075 609.553 287.096 609.553 286.119 609.553 285.137 609.553 284.157 609.553 283.178 609.553 282.198 609.553 281.219 609.553 280.239 609.553 279.26 609.553 278.28 609.553 277.301 609.553 276.319 609.553 275.339 609.553 274.357 609.553 273.377 609.553 272.395 609.553 271.412 609.553 270.43 609.553 269.45 609.553 268.468 609.553 267.485 609.553 266.503 609.553 265.521 609.553 264.538 609.553 263.556 609.553 262.574 609.553 261.592 609.553 260.608 609.553 259.626 609.553 258.643 609.553 257.66 609.553 256.677 609.553 255.695 609.553 254.712 609.553 253.729 609.553 252.746 609.553 251.763 609.553 250.78 609.553 249.797 609.553 248.815 609.553 247.832 609.553 246.849 609.553 245.866 609.553 244.884 609.553 243.901 609.553 242.918 609.553 241.936 609.553 240.954 609.553 239.972 609.553 238.989 609.553 238.007 609.553 237.025 609.553 236.044 609.553 235.062 609.553 234.08 609.553 233.099 609.553 232.118 609.553 231.136 609.553 230.155 609.553 229.174 609.553 228.194 609.553 227.213 609.553 226.233 609.553 225.253 609.553 224.273 609.553 223.294 609.553 222.314 609.553 221.335 609.553 220.356 609.553 219.377 609.553 218.398 609.553 217.42 609.553 216.442 609.553 215.464 609.553 214.487 609.553 213.51 609.553 212.533 609.553 211.557 609.553 210.58 609.553 209.604 609.553 208.629 609.553 207.653 609.553 206.678 609.553 205.704 609.553 204.729 609.553 203.756 609.553 202.782 609.553 201.809 609.553 200.836 609.553 199.864 609.553 198.892 609.553 197.92 609.553 196.949 609.553 195.978 609.553 195.007 609.553 194.037 609.553 193.068 609.553 192.099 609.553 191.13 609.553 190.162 609.553 189.194 609.553 188.227 609.553 187.26 609.553 186.294 609.553 185.328 609.553 184.363 609.553 183.398 609.553 182.434 609.553 181.47 609.553 180.507 609.553 179.544 609.553 178.582 609.553 177.62 609.553 176.659 609.553 175.699 609.553 174.739 609.553 173.78 609.553 172.821 609.553 171.863 609.553 170.905 609.553 169.948 609.553 168.992 609.553 168.036 609.553 167.081 609.553 166.127 609.553 165.173 609.553 164.219 609.553 163.267 609.553 162.315 609.553 161.364 609.553 160.414 609.553 159.464 609.553 158.515 609.553 157.567 609.553 156.619 609.553 155.672 609.553 154.726 609.553 153.78 609.553 152.835 609.553 151.891 609.553 150.948 609.553 150.006 609.553 149.064 609.553 148.123 609.553 147.182 609.553 146.243 609.553 145.305 609.553 144.367 609.553 143.43 609.553 142.494 609.553 141.558 609.553 140.624 609.553 139.69 609.553 138.757 609.553 137.825 609.553 136.894 609.553 135.964 609.553 135.034 609.553 134.106 609.553 133.179 609.553 132.252 609.553 131.326 609.553 130.401 609.553 129.477 609.553 128.554 609.553 127.632 609.553 126.711 609.553 125.791 609.553 124.872 609.553 123.953 609.553 123.036 609.553 122.119 609.553 121.204 609.553 120.29 609.553 119.376 609.553 118.464 609.553 117.552 609.553 116.642 609.553 115.733 609.553 114.825 609.553 113.917 609.553 113.011 609.553 112.106 609.553 111.202 609.553 110.299 609.553 109.397 609.553 108.496 609.553 107.596 609.553 106.698 609.553 105.8 609.553 104.904 609.553 104.008 609.553 103.114 609.553 102.221 609.553 101.329 609.553 100.439 609.553 99.5486 609.553 98.6603 609.553 97.773 609.553 96.8871 609.553 96.0021 609.553 95.1184 609.553 94.2357 609.553 93.3545 609.553 92.4743 609.553 91.5955 609.553 90.7181 609.553 89.8414 609.553 88.9664 609.553 88.0925 609.553 87.2197 609.553 86.3482 609.553 85.4781 609.553 84.6091 609.553 83.7417 609.553 82.8757 609.553 82.0105 609.553 81.1469 609.553 80.2844 609.553 79.4236 609.553 78.5638 609.553 77.7054 609.553 76.8484 609.553 75.9927 609.553 75.1384 609.553 74.2854 609.553 73.4341 609.553 72.5839 609.553 71.735 609.553 70.8877 609.553 70.0416 609.553 69.197 609.553 68.3539 609.553 67.5121 609.553 66.6716 609.553 65.8328 609.553 64.9956 609.553 64.1595 609.553 63.3248 609.553 62.492 609.553 61.6605 609.553 60.8301 609.553 60.0017 609.553 59.1746 609.553 58.3491 609.553 57.5249 609.553 56.7022 609.553 55.8813 609.553 55.0616 609.553 54.2437 609.553 53.4272 609.553 52.6126 609.553 51.7994 609.553 50.9872 609.553 50.1772 609.553 49.3686 609.553 48.5616 609.553 47.7563 609.553 46.9523 609.553 46.15 609.553 45.3495 609.553 44.5507 609.553C22.2553 609.553 3.86151 593.054 0.830074 571.596 4.84164 592.113 22.9168 607.594 44.6078 607.594L505.905 607.594 505.905 607.202 44.6078 607.202C22.02 607.202 3.38806 590.265 0.71969 568.399 4.49893 589.204 22.7109 604.982 44.6078 604.982L505.513 604.982 505.513 604.59 44.6078 604.59C22.02 604.59 3.38806 587.653 0.71969 565.784 4.49893 586.592 22.7109 602.37 44.6078 602.37L505.905 602.37 505.905 601.978 44.6078 601.978C22.6864 601.978 4.49082 586.026 0.997219 565.096 5.3221 585.205 23.2047 600.281 44.6078 600.281L505.644 600.281 505.644 599.889 44.6078 599.889C20.1881 599.889 0.39187 580.09 0.39187 555.671L0.39187 445.232C0.39187 432.798 5.62968 420.933 14.821 412.556L287.433 164.058C296.703 155.606 301.989 143.639 301.989 131.092L301.989 128.74 301.989 126.389 301.989 124.038 301.989 121.687 301.989 119.271 301.989 116.856 301.989 114.372 301.989 16.4586 301.989 14.1073 301.989 11.7561 301.989 9.40488 301.989 7.05365 301.989 4.70244 301.989 2.35121 301.989 0 301.597 0ZM301.219 122.62C299.442 132.065 294.643 140.765 287.433 147.339L14.821 395.837C7.2582 402.731 2.37205 411.984 0.878014 421.975 2.73829 412.738 7.49452 404.246 14.5713 397.801L287.153 149.546C294.918 142.473 299.867 132.913 301.219 122.62ZM287.417 149.836C294.594 143.299 299.383 134.657 301.189 125.269 299.791 135.47 294.863 144.936 287.161 151.955L14.5641 400.331C7.32578 406.926 2.51646 415.663 0.752238 425.145 2.0809 414.803 7.03651 405.193 14.8351 398.089L287.417 149.836ZM301.189 127.685C299.385 137.069 294.597 145.708 287.425 152.245L14.8281 400.622C7.03341 407.724 2.08049 417.331 0.752238 427.67 2.51587 418.19 7.32257 409.457 14.557 402.862L287.169 154.364C294.866 147.346 299.791 137.883 301.189 127.685ZM287.433 154.653C294.559 148.156 299.328 139.582 301.154 130.265 299.717 140.375 294.809 149.749 287.169 156.715L14.557 405.212C7.42925 411.709 2.65819 420.283 0.832261 429.601 2.27016 419.491 7.1791 410.118 14.821 403.15L287.433 154.653ZM301.148 132.654C299.315 141.957 294.548 150.516 287.433 157.005L14.821 405.503C7.16316 412.482 2.24967 421.882 0.823299 432.017 2.64787 422.666 7.44315 414.047 14.5879 407.536L150.862 283.314 287.136 159.095C294.771 152.137 299.698 142.757 301.148 132.654ZM287.4 159.384C294.545 152.871 299.339 144.255 301.165 134.904 299.739 145.038 294.825 154.437 287.169 161.418L14.557 409.914C7.43902 416.403 2.67128 424.962 0.839784 434.265 2.29145 424.162 7.21907 414.784 14.8519 407.824L151.126 283.605 287.4 159.384ZM301.154 137.318C299.328 146.636 294.559 155.21 287.433 161.707L14.821 410.205C7.1791 417.173 2.27016 426.546 0.832261 436.656 2.65819 427.338 7.42925 418.762 14.557 412.265L287.169 163.769C294.809 156.803 299.717 147.429 301.154 137.318Z" fill="url(#fill2)" fill-rule="evenodd" transform="matrix(1.06122 0 0 1 -523 811)"/></g></svg>