<svg width="1278" height="2208" viewBox="0 0 1278 2208" fill="none" xmlns="http://www.w3.org/2000/svg">
<path fill-rule="evenodd" clip-rule="evenodd" d="M1108.5 -59.77V-51.1283V-42.4865V-33.8448V-25.203V-16.5613V-7.91949V0.722263V360.596C1108.5 406.307 1089.24 449.904 1055.47 480.699L53.5033 1394.03C19.4218 1425.1 0 1469.08 0 1515.2V1523.53V1532.81V1542.08V1550.73V1559.37V1568.01V1576.65V1982.56V1990.25V1999.85V2009.45V2018.09V2026.73V2035.38V2044.02C0 2134.56 73.4044 2207.97 163.953 2207.97H1858.94V2206.53H163.953C82.0366 2206.53 14.2758 2145.92 3.06728 2067.1C17.8443 2142.47 84.2584 2199.33 163.953 2199.33H1858.94V2197.89H163.953C82.0366 2197.89 14.2758 2137.28 3.06728 2058.46C17.8443 2133.82 84.2584 2190.69 163.953 2190.69H1858.46V2189.25H163.953C82.0907 2189.25 14.3653 2128.72 3.08957 2049.97C17.8883 2125.26 84.102 2182.04 163.743 2182.04H166.679H169.621H172.57H175.525H178.485H181.451H184.423H187.4H190.385H193.374H196.368H199.369H202.375H205.388H208.405H211.429H214.458H217.492H220.532H223.577H226.629H229.685H232.746H235.814H238.887H241.964H245.047H248.136H251.23H254.329H257.433H260.543H263.657H266.777H269.902H273.031H276.166H279.306H282.451H285.601H288.756H291.916H295.08H298.25H301.424H304.604H307.787H310.975H314.169H317.367H320.57H323.778H326.99H330.206H333.428H336.653H339.883H343.118H346.357H349.601H352.849H356.102H359.358H362.619H365.884H369.155H372.428H375.706H378.989H382.276H385.566H388.861H392.16H395.463H398.77H402.081H405.396H408.715H412.038H415.365H418.695H422.03H425.368H428.711H432.056H435.406H438.759H442.116H445.478H448.841H452.209H455.581H458.957H462.335H465.717H469.103H472.492H475.885H479.28H482.68H486.082H489.489H492.898H496.31H499.727H503.146H506.568H509.993H513.422H516.854H520.288H523.726H527.167H530.61H534.057H537.507H540.959H544.415H547.874H551.335H554.8H558.266H561.736H565.208H568.683H572.161H575.642H579.125H582.611H586.099H589.589H593.083H596.579H600.078H603.577H607.081H610.587H614.094H617.605H621.117H624.633H628.15H631.669H635.191H638.715H642.241H645.768H649.299H652.831H656.365H659.902H663.44H666.98H670.522H674.066H677.612H681.16H684.71H688.262H691.816H695.37H698.927H702.486H706.046H709.608H713.171H716.736H720.304H723.872H727.441H731.013H734.585H738.159H741.734H745.312H748.89H752.469H756.051H759.632H763.216H766.801H770.386H773.974H777.562H781.151H784.741H788.332H791.925H795.518H799.113H802.708H806.305H809.902H813.501H817.1H820.7H824.3H827.902H831.504H835.107H838.711H842.315H845.92H849.526H853.132H856.739H860.346H863.953H867.562H871.17H874.78H878.389H881.999H885.61H889.22H892.83H896.442H900.053H903.665H907.276H910.889H914.501H918.113H921.726H925.338H928.95H932.563H936.175H939.788H943.4H947.012H950.625H954.236H957.848H961.462H965.073H968.683H972.293H975.904H979.514H983.124H986.735H990.345H993.946H997.556H1001.17H1004.78H1008.38H1011.99H1015.59H1019.2H1022.8H1026.4H1030H1033.6H1037.2H1040.8H1044.4H1048H1051.61H1055.2H1058.8H1062.39H1065.99H1069.58H1073.17H1076.76H1080.35H1083.94H1087.53H1091.12H1094.7H1098.28H1101.86H1105.44H1109.02H1112.61H1116.19H1119.76H1123.33H1126.9H1130.48H1134.05H1137.62H1141.19H1144.75H1148.32H1151.88H1155.44H1159H1162.56H1166.12H1169.67H1173.22H1176.77H1180.32H1183.86H1187.42H1190.96H1194.49H1198.03H1201.57H1205.11H1208.65H1212.17H1215.7H1219.23H1222.75H1226.27H1229.8H1233.31H1236.83H1240.34H1243.86H1247.37H1250.87H1254.38H1257.87H1261.38H1264.87H1268.37H1271.86H1275.35H1278.84H1282.32H1285.81H1289.28H1292.76H1296.23H1299.7H1303.18H1306.64H1310.1H1313.56H1317.01H1320.47H1323.93H1327.37H1330.82H1334.26H1337.7H1341.13H1344.57H1348H1351.43H1354.84H1358.27H1361.69H1365.1H1368.51H1371.92H1375.33H1378.72H1382.12H1385.51H1388.9H1392.29H1395.68H1399.06H1402.43H1405.81H1409.18H1412.54H1415.9H1419.26H1422.62H1425.98H1429.32H1432.67H1436H1439.34H1442.67H1446.01H1449.33H1452.65H1455.96H1459.28H1462.59H1465.89H1469.19H1472.49H1475.78H1479.07H1482.36H1485.63H1488.91H1492.18H1495.46H1498.71H1501.98H1505.23H1508.48H1511.72H1514.97H1518.2H1521.44H1524.66H1527.88H1531.11H1534.31H1537.53H1540.73H1543.94H1547.13H1550.32H1553.51H1556.69H1559.87H1563.03H1566.2H1569.36H1572.52H1575.68H1578.82H1581.97H1585.1H1588.24H1591.36H1594.48H1597.6H1600.71H1603.82H1606.92H1610.02H1613.11H1616.19H1619.27H1622.35H1625.42H1628.48H1631.54H1634.6H1637.64H1640.68H1643.73H1646.75H1649.78H1652.8H1655.82H1658.82H1661.83H1664.82H1667.82H1670.81H1673.78H1676.76H1679.73H1682.69H1685.65H1688.6H1691.55H1694.48H1697.42H1700.35H1703.27H1706.19H1709.1H1712H1714.9H1717.79H1720.67H1723.55H1726.42H1729.28H1732.14H1735H1737.85H1740.69H1743.52H1746.34H1749.17H1751.98H1754.79H1757.59H1760.38H1763.18H1765.96H1768.74H1771.5H1774.26H1777.01H1779.77H1782.51H1785.24H1787.97H1790.69H1793.4H1796.11H1798.81H1801.51H1804.19H1806.87H1809.54H1812.2H1814.86H1817.51H1820.15H1822.8H1825.43H1828.05H1830.66H1833.27H1835.87H1838.47H1841.05H1843.62H1846.2H1848.76H1851.31H1853.87H1856.4H1858.94V2180.6H1856.4H1853.87H1851.31H1848.76H1846.2H1843.62H1841.05H1838.47H1835.87H1833.27H1830.66H1828.05H1825.43H1822.8H1820.15H1817.51H1814.86H1812.2H1809.54H1806.87H1804.19H1801.51H1798.81H1796.11H1793.4H1790.69H1787.97H1785.24H1782.51H1779.77H1777.01H1774.26H1771.5H1768.74H1765.96H1763.18H1760.38H1757.59H1754.79H1751.98H1749.17H1746.34H1743.52H1740.69H1737.85H1735H1732.14H1729.28H1726.42H1723.55H1720.67H1717.79H1714.9H1712H1709.1H1706.19H1703.27H1700.35H1697.42H1694.48H1691.55H1688.6H1685.65H1682.69H1679.73H1676.76H1673.78H1670.81H1667.82H1664.82H1661.83H1658.82H1655.82H1652.8H1649.78H1646.75H1643.73H1640.68H1637.64H1634.6H1631.54H1628.48H1625.42H1622.35H1619.27H1616.19H1613.11H1610.02H1606.92H1603.82H1600.71H1597.6H1594.48H1591.36H1588.24H1585.1H1581.97H1578.82H1575.68H1572.52H1569.36H1566.2H1563.03H1559.87H1556.69H1553.51H1550.32H1547.13H1543.94H1540.73H1537.53H1534.31H1531.11H1527.88H1524.66H1521.44H1518.2H1514.97H1511.72H1508.48H1505.23H1501.98H1498.71H1495.46H1492.18H1488.91H1485.63H1482.36H1479.07H1475.78H1472.49H1469.19H1465.89H1462.59H1459.28H1455.96H1452.65H1449.33H1446.01H1442.67H1439.34H1436H1432.67H1429.32H1425.98H1422.62H1419.26H1415.9H1412.54H1409.18H1405.81H1402.43H1399.06H1395.68H1392.29H1388.9H1385.51H1382.12H1378.72H1375.33H1371.92H1368.51H1365.1H1361.69H1358.27H1354.84H1351.43H1348H1344.57H1341.13H1337.7H1334.26H1330.82H1327.37H1323.93H1320.47H1317.01H1313.56H1310.1H1306.64H1303.18H1299.7H1296.23H1292.76H1289.28H1285.81H1282.32H1278.84H1275.35H1271.86H1268.37H1264.87H1261.38H1257.87H1254.38H1250.87H1247.37H1243.86H1240.34H1236.83H1233.31H1229.8H1226.27H1222.75H1219.23H1215.7H1212.17H1208.65H1205.11H1201.57H1198.03H1194.49H1190.96H1187.42H1183.86H1180.32H1176.77H1173.22H1169.67H1166.12H1162.56H1159H1155.44H1151.88H1148.32H1144.75H1141.19H1137.62H1134.05H1130.48H1126.9H1123.33H1119.76H1116.19H1112.61H1109.02H1105.44H1101.86H1098.28H1094.7H1091.12H1087.53H1083.94H1080.35H1076.76H1073.17H1069.58H1065.99H1062.39H1058.8H1055.2H1051.61H1048H1044.4H1040.8H1037.2H1033.6H1030H1026.4H1022.8H1019.2H1015.59H1011.99H1008.38H1004.78H1001.17H997.556H993.946H990.345H986.735H983.124H979.514H975.904H972.293H968.683H965.073H961.462H957.848H954.236H950.625H947.012H943.4H939.788H936.175H932.563H928.95H925.338H921.726H918.113H914.501H910.889H907.276H903.665H900.053H896.442H892.83H889.22H885.61H881.999H878.389H874.78H871.17H867.562H863.953H860.346H856.739H853.132H849.526H845.92H842.315H838.711H835.107H831.504H827.902H824.3H820.7H817.1H813.501H809.902H806.305H802.708H799.113H795.518H791.925H788.332H784.741H781.151H777.562H773.974H770.386H766.801H763.216H759.632H756.051H752.469H748.89H745.312H741.734H738.159H734.585H731.013H727.441H723.872H720.304H716.736H713.171H709.608H706.046H702.486H698.927H695.37H691.816H688.262H684.71H681.16H677.612H674.066H670.522H666.98H663.44H659.902H656.365H652.831H649.299H645.768H642.241H638.715H635.191H631.669H628.15H624.633H621.117H617.605H614.094H610.587H607.081H603.577H600.078H596.579H593.083H589.589H586.099H582.611H579.125H575.642H572.161H568.683H565.208H561.736H558.266H554.8H551.335H547.874H544.415H540.959H537.507H534.057H530.61H527.167H523.726H520.288H516.854H513.422H509.993H506.568H503.146H499.727H496.31H492.898H489.489H486.082H482.68H479.28H475.885H472.492H469.103H465.717H462.335H458.957H455.581H452.209H448.841H445.478H442.116H438.759H435.406H432.056H428.711H425.368H422.03H418.695H415.365H412.038H408.715H405.396H402.081H398.77H395.463H392.16H388.861H385.566H382.276H378.989H375.706H372.428H369.155H365.884H362.619H359.358H356.102H352.849H349.601H346.357H343.118H339.883H336.653H333.428H330.206H326.99H323.778H320.57H317.367H314.169H310.975H307.787H304.604H301.424H298.25H295.08H291.916H288.756H285.601H282.451H279.306H276.166H273.031H269.902H266.777H263.657H260.543H257.433H254.329H251.23H248.136H245.047H241.964H238.887H235.814H232.746H229.685H226.629H223.577H220.532H217.492H214.458H211.429H208.405H205.388H202.375H199.369H196.368H193.374H190.385H187.4H184.423H181.451H178.485H175.525H172.57H169.621H166.679H163.743C81.798 2180.6 14.1927 2119.96 3.05088 2041.09C17.7951 2116.5 84.229 2173.4 163.953 2173.4H1859.42V2171.96H163.953C80.933 2171.96 12.4526 2109.71 2.64517 2029.34C16.5355 2105.81 83.4724 2163.8 163.953 2163.8H1857.98V2162.36H163.953C80.933 2162.36 12.4526 2100.11 2.64517 2019.73C16.5355 2096.21 83.4724 2154.2 163.953 2154.2H1859.42V2152.76H163.953C83.3822 2152.76 16.5057 2094.13 3.66521 2017.2C19.561 2091.11 85.2871 2146.52 163.953 2146.52H1858.46V2145.08H163.953C74.1998 2145.08 1.44029 2072.31 1.44029 1982.56V1576.65C1.44029 1530.95 20.6915 1487.34 54.4736 1456.55L1056.44 543.215C1090.51 512.148 1109.94 468.164 1109.94 422.048V413.406V404.765V396.123V387.481V378.604V369.726V360.596V0.722263V-7.91949V-16.5613V-25.203V-33.8448V-42.4865V-51.1283V-59.77H1108.5ZM1107.11 390.913C1100.58 425.627 1082.94 457.601 1056.44 481.763L54.4736 1395.1C26.677 1420.44 8.7183 1454.45 3.22708 1491.17C10.0644 1457.22 27.5456 1426.01 53.5557 1402.32L1055.41 489.876C1083.95 463.879 1102.14 428.744 1107.11 390.913ZM1056.38 490.941C1082.76 466.915 1100.36 435.153 1107 400.649C1101.86 438.142 1083.75 472.932 1055.44 498.73L53.5295 1411.62C26.9254 1435.86 9.24907 1467.97 2.7648 1502.82C7.64821 1464.81 25.8622 1429.49 54.5255 1403.38L1056.38 490.941ZM1107 409.527C1100.37 444.019 1082.77 475.771 1056.41 499.795L54.4996 1412.69C25.8508 1438.79 7.64669 1474.1 2.7648 1512.1C9.24689 1477.26 26.9136 1445.16 53.5033 1420.92L1055.47 507.584C1083.76 481.789 1101.86 447.008 1107 409.527ZM1056.44 508.648C1082.63 484.768 1100.16 453.255 1106.87 419.009C1101.59 456.17 1083.55 490.622 1055.47 516.226L53.5033 1429.56C27.3057 1453.44 9.76998 1484.95 3.05892 1519.2C8.34383 1482.04 26.3863 1447.59 54.4736 1421.98L1056.44 508.648ZM1106.85 427.791C1100.11 461.984 1082.59 493.442 1056.44 517.29L54.4736 1430.63C26.3277 1456.28 8.26851 1490.83 3.02598 1528.08C9.73205 1493.71 27.3568 1462.03 53.617 1438.1L554.483 981.532L1055.35 524.971C1083.41 499.398 1101.52 464.925 1106.85 427.791ZM1056.32 526.035C1082.58 502.098 1100.2 470.43 1106.91 436.059C1101.67 473.309 1083.61 507.853 1055.47 533.509L53.5033 1446.84C27.3416 1470.69 9.81809 1502.15 3.08657 1536.34C8.42206 1499.21 26.5332 1464.74 54.5873 1439.16L555.453 982.598L1056.32 526.035ZM1106.87 444.934C1100.16 479.181 1082.63 510.693 1056.44 534.573L54.4736 1447.91C26.3863 1473.52 8.34383 1507.97 3.05892 1545.13C9.76998 1510.88 27.3057 1479.36 53.5033 1455.48L1055.47 542.151C1083.55 516.548 1101.59 482.095 1106.87 444.934Z" fill="url(#paint0_linear_40_3)" style=""/>
<defs>
<linearGradient id="paint0_linear_40_3" x1="929.709" y1="-61.6904" x2="929.709" y2="2128.79" gradientUnits="userSpaceOnUse">
<stop stop-color="white" style="stop-color:white;stop-opacity:1;"/>
<stop offset="0.238809" stop-color="#4B4692" style="stop-color:#4B4692;stop-color:color(display-p3 0.2941 0.2745 0.5725);stop-opacity:1;"/>
<stop offset="0.274296" stop-color="#403A78" stop-opacity="0.8" style="stop-color:#403A78;stop-color:color(display-p3 0.2510 0.2275 0.4706);stop-opacity:0.8;"/>
<stop offset="0.395" stop-color="#131B2E" style="stop-color:#131B2E;stop-color:color(display-p3 0.0745 0.1059 0.1804);stop-opacity:1;"/>
<stop offset="0.582547" stop-color="#ADCCA9" stop-opacity="0.3" style="stop-color:#ADCCA9;stop-color:color(display-p3 0.6784 0.8000 0.6627);stop-opacity:0.3;"/>
<stop offset="0.622905" stop-color="#C1CEAA" style="stop-color:#C1CEAA;stop-color:color(display-p3 0.7569 0.8078 0.6667);stop-opacity:1;"/>
<stop offset="0.67" stop-color="#D9D1AC" style="stop-color:#D9D1AC;stop-color:color(display-p3 0.8510 0.8196 0.6745);stop-opacity:1;"/>
<stop offset="0.86" stop-color="#D4AF37" style="stop-color:#D4AF37;stop-color:color(display-p3 0.8314 0.6863 0.2157);stop-opacity:1;"/>
<stop offset="1" stop-color="#C1B05A" style="stop-color:#C1B05A;stop-color:color(display-p3 0.7569 0.6902 0.3529);stop-opacity:1;"/>
</linearGradient>
</defs>
</svg>
