<svg xmlns="http://www.w3.org/2000/svg" width="112" height="48" viewBox="0 0 112 48" fill="none">
  <mask id="mask0_727_80819" style="mask-type:luminance" maskUnits="userSpaceOnUse" x="0" y="0" width="112" height="48">
    <rect width="112" height="47.1402" fill="white"/>
  </mask>
  <g mask="url(#mask0_727_80819)">
    <path fill-rule="evenodd" clip-rule="evenodd" d="M94.6437 44.5147C95.2318 44.6836 95.8429 44.7699 96.4575 44.7708V44.7861C99.3369 44.7779 101.832 42.8972 102.485 40.2434L103.542 35.9385C104.018 33.9937 105.096 32.2274 106.638 30.8654L110.034 27.8532C111.288 26.7439 111.999 25.1924 111.999 23.5681C111.999 21.9438 111.288 20.3923 110.034 19.283L106.638 16.2739C105.103 14.9191 104.025 13.1645 103.542 11.2312L102.485 6.93854C102.096 5.3574 101.032 3.99956 99.5459 3.18792C98.0601 2.37627 96.2853 2.18334 94.6437 2.65501L90.188 3.9355C88.1705 4.51482 86.0167 4.51482 83.9991 3.9355L79.5435 2.65501C77.9037 2.18389 76.1311 2.37513 74.6454 3.18344C73.1598 3.99175 72.0933 5.34523 71.6986 6.9233L70.6418 11.216C70.1654 13.1599 69.0888 14.9258 67.549 16.2891L64.1501 19.2983C62.898 20.4084 62.1875 21.9596 62.1875 23.5833C62.1875 25.207 62.898 26.7583 64.1501 27.8684L67.549 30.8806C69.0888 32.244 70.1654 34.0099 70.6418 35.9538L71.6986 40.2434C72.0925 41.8219 73.1588 43.176 74.6447 43.9845C76.1306 44.7929 77.9037 44.9837 79.5435 44.5117L83.9991 43.2342C86.0162 42.652 88.1709 42.652 90.188 43.2342L94.6437 44.5147ZM73.0456 7.20698C73.5555 5.1461 75.4933 3.68567 77.73 3.6765C78.207 3.67643 78.6814 3.74321 79.1378 3.87467L83.5935 5.15516C85.8724 5.81063 88.3057 5.81063 90.5846 5.15516L95.0403 3.87467C96.318 3.51071 97.6979 3.66289 98.8529 4.29515C100.008 4.92742 100.835 5.98348 101.139 7.21308L102.196 11.5027C102.735 13.6988 103.952 15.6938 105.691 17.2344L109.09 20.2466C110.064 21.1085 110.617 22.3139 110.617 23.5759C110.617 24.8378 110.064 26.0433 109.09 26.9051L105.691 29.9173C103.952 31.4572 102.736 33.451 102.196 35.646L101.139 39.9387C100.832 41.1655 100.003 42.2178 98.8482 42.8469C97.6936 43.476 96.3157 43.6262 95.0403 43.2618L90.5879 41.9905C88.3094 41.3319 85.8751 41.3319 83.5967 41.9905L79.1411 43.2679C77.8651 43.6311 76.4873 43.4797 75.3333 42.8494C74.1793 42.2191 73.3515 41.1659 73.0456 39.9387L71.9888 35.6399C71.45 33.4445 70.2332 31.4503 68.4933 29.9112L65.0944 26.899C64.1203 26.0372 63.5674 24.8317 63.5674 23.5698C63.5674 22.3078 64.1203 21.1024 65.0944 20.2405L68.4933 17.2283C70.2339 15.6885 71.4508 13.6932 71.9888 11.4966L73.0456 7.20698Z" fill="#46B978"/>
    <g style="mix-blend-mode:multiply" opacity="0.66">
      <mask id="mask1_727_80819" style="mask-type:luminance" maskUnits="userSpaceOnUse" x="71" y="2" width="12" height="8">
        <rect x="71.0903" y="2.36652" width="11.0408" height="7.01524" fill="white"/>
      </mask>
      <g mask="url(#mask1_727_80819)">
        <mask id="mask2_727_80819" style="mask-type:luminance" maskUnits="userSpaceOnUse" x="71" y="2" width="12" height="8">
          <path fill-rule="evenodd" clip-rule="evenodd" d="M77.6918 2.36609C74.8282 2.39634 72.3556 4.2708 71.6994 6.90876L71.0938 9.37827C71.5835 9.25023 72.086 9.14657 72.5919 9.05205L73.0461 7.2045C73.5561 5.14361 75.4938 3.68318 77.7305 3.67401C78.2086 3.67364 78.6842 3.74043 79.1416 3.87218L81.0263 4.41486C81.362 4.03471 81.7329 3.68372 82.1346 3.36608L79.5572 2.62218C78.981 2.45411 78.3818 2.3668 77.7788 2.36304L77.6918 2.36609Z" fill="white"/>
        </mask>
        <g mask="url(#mask2_727_80819)">
          <path d="M69.4624 2.7312L81.5703 0.0732858L83.766 9.03056L71.6581 11.6885L69.4624 2.7312Z" fill="url(#paint0_linear_727_80819)"/>
        </g>
      </g>
    </g>
    <g style="mix-blend-mode:multiply" opacity="0.66">
      <mask id="mask3_727_80819" style="mask-type:luminance" maskUnits="userSpaceOnUse" x="92" y="2" width="12" height="8">
        <rect x="92.4731" y="2.36652" width="10.5318" height="6.64633" fill="white"/>
      </mask>
      <g mask="url(#mask3_727_80819)">
        <mask id="mask4_727_80819" style="mask-type:luminance" maskUnits="userSpaceOnUse" x="92" y="2" width="12" height="7">
          <path fill-rule="evenodd" clip-rule="evenodd" d="M96.4133 2.36673C95.8137 2.37308 95.2181 2.46034 94.6446 2.62588L92.4731 3.23563C92.6628 3.63219 92.8263 4.03948 92.9628 4.45514L95.0441 3.84539C96.3205 3.48226 97.6987 3.63411 98.8528 4.26503C100.007 4.89596 100.834 5.94993 101.14 7.1777L101.539 8.7905C102.031 8.82774 102.521 8.8929 103.005 8.98563L102.486 6.87892C101.833 4.24409 99.3663 2.36988 96.5067 2.33624L96.4133 2.36673Z" fill="white"/>
        </mask>
        <g mask="url(#mask4_727_80819)">
          <path d="M91.0034 8.71008L92.9642 0.277682L104.483 2.67637L102.523 11.1088L91.0034 8.71008Z" fill="url(#paint1_linear_727_80819)"/>
        </g>
      </g>
    </g>
    <g style="mix-blend-mode:multiply" opacity="0.66">
      <mask id="mask5_727_80819" style="mask-type:luminance" maskUnits="userSpaceOnUse" x="62" y="17" width="5" height="13">
        <rect x="62.1855" y="17.4691" width="4.42987" height="12.1067" fill="white"/>
      </mask>
      <g mask="url(#mask5_727_80819)">
        <mask id="mask6_727_80819" style="mask-type:luminance" maskUnits="userSpaceOnUse" x="62" y="17" width="5" height="13">
          <path fill-rule="evenodd" clip-rule="evenodd" d="M64.151 19.2838C62.8989 20.3939 62.1885 21.9451 62.1885 23.5688C62.1885 25.1925 62.8989 26.7437 64.151 27.8539L66.0841 29.5764C66.1953 29.1053 66.3528 28.6449 66.5545 28.2014L65.0853 26.8996C64.1146 26.0354 63.5642 24.8301 63.5642 23.5688C63.5642 22.3075 64.1146 21.1023 65.0853 20.238L66.6189 18.9027C66.461 18.4332 66.316 17.9606 66.2001 17.4819L64.151 19.2838Z" fill="white"/>
        </mask>
        <g mask="url(#mask6_727_80819)">
          <path d="M58.6333 28.5599L62.5637 16.3103L70.175 18.4973L66.2446 30.7469L58.6333 28.5599Z" fill="url(#paint2_linear_727_80819)"/>
        </g>
      </g>
    </g>
    <g style="mix-blend-mode:multiply" opacity="0.66">
      <mask id="mask7_727_80819" style="mask-type:luminance" maskUnits="userSpaceOnUse" x="107" y="17" width="5" height="12">
        <rect x="107.721" y="17.598" width="4.27845" height="11.1067" fill="white"/>
      </mask>
      <g mask="url(#mask7_727_80819)">
        <mask id="mask8_727_80819" style="mask-type:luminance" maskUnits="userSpaceOnUse" x="107" y="17" width="6" height="12">
          <path fill-rule="evenodd" clip-rule="evenodd" d="M107.721 19.0266L109.09 20.2461C110.061 21.1103 110.612 22.3156 110.612 23.5769C110.612 24.8381 110.061 26.0434 109.09 26.9077L108.224 27.6759C108.603 27.941 108.899 28.2996 109.078 28.7125L110.044 27.8619C111.296 26.7518 112.007 25.2006 112.007 23.5769C112.007 21.9532 111.296 20.402 110.044 19.2918L108.137 17.6058C108.027 18.088 107.891 18.5643 107.728 19.0327" fill="white"/>
        </mask>
        <g mask="url(#mask8_727_80819)">
          <path d="M103.273 19.54L111.258 16.0711L116.453 26.78L108.469 30.2488L103.273 19.54Z" fill="url(#paint3_linear_727_80819)"/>
        </g>
      </g>
    </g>
    <g style="mix-blend-mode:multiply" opacity="0.66">
      <mask id="mask9_727_80819" style="mask-type:luminance" maskUnits="userSpaceOnUse" x="71" y="37" width="11" height="8">
        <rect x="71.1426" y="37.9576" width="10.7928" height="6.81402" fill="white"/>
      </mask>
      <g mask="url(#mask9_727_80819)">
        <mask id="mask10_727_80819" style="mask-type:luminance" maskUnits="userSpaceOnUse" x="71" y="37" width="11" height="8">
          <path fill-rule="evenodd" clip-rule="evenodd" d="M72.5569 37.9581L72.1606 37.9795C71.8217 38.0023 71.4815 38.0023 71.1426 37.9795L71.6999 40.2417C72.0931 41.8208 73.1591 43.1756 74.6451 43.9847C76.1311 44.7938 77.9046 44.985 79.5448 44.513L81.9354 43.824C81.8032 43.6509 81.6816 43.4707 81.5713 43.2843C81.3945 43.1062 81.2527 42.8998 81.1525 42.6746L79.1421 43.2508C77.8689 43.6145 76.4935 43.4655 75.3401 42.8389C74.1866 42.2124 73.357 41.1637 73.0466 39.9398L72.5601 37.9642L72.5569 37.9581Z" fill="white"/>
        </mask>
        <g mask="url(#mask10_727_80819)">
          <path d="M67.7129 42.918L73.7906 33.2194L85.0368 39.5307L78.9591 49.2293L67.7129 42.918Z" fill="url(#paint4_linear_727_80819)"/>
        </g>
      </g>
    </g>
    <g style="mix-blend-mode:multiply" opacity="0.66">
      <mask id="mask11_727_80819" style="mask-type:luminance" maskUnits="userSpaceOnUse" x="92" y="38" width="11" height="7">
        <rect x="92.1284" y="38.3414" width="10.8218" height="6.43292" fill="white"/>
      </mask>
      <g mask="url(#mask11_727_80819)">
        <mask id="mask12_727_80819" style="mask-type:luminance" maskUnits="userSpaceOnUse" x="92" y="38" width="11" height="7">
          <path fill-rule="evenodd" clip-rule="evenodd" d="M101.484 38.4815L101.14 39.9388C100.832 41.1656 100.003 42.2179 98.8488 42.847C97.6942 43.4762 96.3163 43.6263 95.0409 43.262L92.9338 42.6522C92.6404 43.0139 92.3714 43.3927 92.1284 43.7864L94.6414 44.5089C95.2111 44.6718 95.8021 44.758 96.3972 44.765H96.5132C99.365 44.7343 101.828 42.8697 102.486 40.2437L102.95 38.3565C102.464 38.4144 101.984 38.4571 101.497 38.4968" fill="white"/>
        </mask>
        <g mask="url(#mask12_727_80819)">
          <path d="M88.8716 40.6467L99.0719 33.4307L106.211 42.4681L96.0108 49.6841L88.8716 40.6467Z" fill="url(#paint5_linear_727_80819)"/>
        </g>
      </g>
    </g>
    <path fill-rule="evenodd" clip-rule="evenodd" d="M82.5664 45.2808C83.7343 46.4721 85.3758 47.1465 87.093 47.1405H87.0994C88.8176 47.1466 90.46 46.4722 91.6292 45.2808L94.8122 42.0643C96.2521 40.6077 98.1169 39.589 100.17 39.1375L104.706 38.1375C106.374 37.7639 107.804 36.7547 108.658 35.3488C109.512 33.9429 109.714 32.2655 109.217 30.7137L107.863 26.4973C107.251 24.588 107.251 22.5498 107.863 20.6406L109.217 16.4241C109.715 14.8727 109.514 13.1952 108.659 11.7896C107.805 10.3839 106.374 9.37541 104.706 9.00338L100.164 8.01253C98.1105 7.56106 96.2456 6.54231 94.8058 5.0857L91.6227 1.86619C90.4496 0.681297 88.8104 0.00897217 87.0946 0.00897217C85.3788 0.00897217 83.7396 0.681297 82.5664 1.86619L79.3834 5.0857C77.9427 6.54283 76.0766 7.56161 74.0224 8.01253L69.4895 9.01253C67.818 9.38036 66.3824 10.3871 65.524 11.7933C64.6657 13.1995 64.4614 14.8793 64.9597 16.4333L66.3129 20.6497C66.9282 22.5585 66.9282 24.5976 66.3129 26.5064L64.9597 30.7229C64.4613 32.2772 64.6656 33.9574 65.5239 35.3641C66.3821 36.7707 67.8178 37.7781 69.4895 38.1466L74.0224 39.1466C76.0766 39.5976 77.9427 40.6163 79.3834 42.0735L82.5664 45.2808ZM83.5752 2.7438C84.4857 1.81915 85.7643 1.29824 87.0998 1.30783L87.0934 1.29868C88.4292 1.29269 89.7064 1.81687 90.6147 2.7438L93.7945 5.96941C95.4208 7.61609 97.5281 8.76759 99.8482 9.27733L104.384 10.2773C105.683 10.5661 106.797 11.3496 107.464 12.4425C108.13 13.5353 108.29 14.8404 107.906 16.0487L106.553 20.2651C105.86 22.4217 105.86 24.7244 106.553 26.881L107.906 31.0974C108.288 32.3049 108.127 33.6083 107.461 34.6997C106.794 35.7912 105.681 36.5738 104.384 36.8627L99.8514 37.8505C97.5303 38.3576 95.4222 39.5095 93.7978 41.1584L90.6147 44.3749C89.7014 45.2935 88.4278 45.8144 87.095 45.8144C85.7622 45.8144 84.4885 45.2935 83.5752 44.3749L80.3922 41.1584C78.7645 39.5164 76.6571 38.3702 74.3386 37.8657L69.8024 36.8657C68.5055 36.5762 67.3926 35.7928 66.7265 34.7008C66.0605 33.6087 65.9004 32.3049 66.2842 31.0974L67.6342 26.8688C68.3301 24.7127 68.3301 22.409 67.6342 20.2529L66.2842 16.0365C65.9004 14.829 66.0605 13.5252 66.7265 12.4331C67.3926 11.3411 68.5055 10.5577 69.8024 10.2682L74.3386 9.26819C76.658 8.75706 78.7649 7.60578 80.3922 5.96026L83.5752 2.7438Z" fill="#46B978"/>
    <path d="M65.9429 27.6522L67.0673 28.6583L67.6343 26.89C68.3302 24.7339 68.3302 22.4303 67.6343 20.2741L67.0673 18.5028L65.9429 19.4998L66.3134 20.6522C66.9287 22.561 66.9287 24.6001 66.3134 26.5089L65.9429 27.6522Z" fill="#46B978"/>
    <path d="M74.3386 9.27744C76.6581 8.76631 78.765 7.61503 80.3922 5.96952L81.7292 4.61891L80.2537 4.19513L79.3838 5.07623C77.9431 6.53335 76.077 7.55214 74.0229 8.00305L72.7825 8.27744L72.4346 9.69512L74.3386 9.27744Z" fill="#46B978"/>
    <path d="M93.7977 5.96952C95.424 7.61619 97.5312 8.7677 99.8513 9.27744L101.755 9.69512L101.404 8.27744L100.164 8.00305C98.1108 7.55158 96.2459 6.53284 94.8061 5.07623L93.933 4.19513L92.4639 4.61891L93.7977 5.96952Z" fill="#46B978"/>
    <path d="M99.8513 37.8631C97.5323 38.3682 95.4248 39.5156 93.7977 41.1588L92.4639 42.5216L93.9362 42.9454L94.8093 42.0643C96.2491 40.6077 98.114 39.5889 100.167 39.1374L101.407 38.8631L101.759 37.4423L99.8513 37.8631Z" fill="#46B978"/>
    <path d="M107.873 26.4972C107.261 24.5879 107.261 22.5497 107.873 20.6405L108.25 19.488L107.126 18.4911L106.559 20.2624C105.866 22.419 105.866 24.7217 106.559 26.8783L107.119 28.6588L108.25 27.6527L107.873 26.4972Z" fill="#46B978"/>
    <g style="mix-blend-mode:multiply" opacity="0.66">
      <mask id="mask13_727_80819" style="mask-type:luminance" maskUnits="userSpaceOnUse" x="102" y="29" width="8" height="10">
        <rect x="102.905" y="29.045" width="6.59165" height="9.48475" fill="white"/>
      </mask>
      <g mask="url(#mask13_727_80819)">
        <mask id="mask14_727_80819" style="mask-type:luminance" maskUnits="userSpaceOnUse" x="102" y="29" width="8" height="10">
          <path fill-rule="evenodd" clip-rule="evenodd" d="M107.566 30.0414L107.905 31.0932C108.288 32.3011 108.128 33.6053 107.461 34.6975C106.795 35.7896 105.681 36.5727 104.383 36.8615L103.249 37.1115L102.901 38.5292L104.696 38.1359C106.363 37.7623 107.794 36.7531 108.648 35.3472C109.502 33.9413 109.704 32.2639 109.206 30.7121L108.671 29.0444L107.566 30.0414Z" fill="white"/>
        </mask>
        <g mask="url(#mask14_727_80819)">
          <path d="M98.7642 36.3625L104.936 26.5145L114.367 31.8073L108.196 41.6553L98.7642 36.3625Z" fill="url(#paint6_linear_727_80819)"/>
        </g>
      </g>
    </g>
    <path d="M80.3922 41.1585C78.7658 39.5119 76.6586 38.3605 74.3386 37.8505L72.4346 37.4298L72.7825 38.8505L74.0229 39.1249C76.0797 39.5818 77.9461 40.6081 79.3838 42.0731L80.2537 42.9542L81.7292 42.5304L80.3922 41.1585Z" fill="#46B978"/>
    <g style="mix-blend-mode:multiply" opacity="0.66">
      <mask id="mask15_727_80819" style="mask-type:luminance" maskUnits="userSpaceOnUse" x="64" y="29" width="8" height="10">
        <rect x="64.689" y="29.045" width="6.59165" height="9.48475" fill="white"/>
      </mask>
      <g mask="url(#mask15_727_80819)">
        <mask id="mask16_727_80819" style="mask-type:luminance" maskUnits="userSpaceOnUse" x="64" y="29" width="8" height="10">
          <path fill-rule="evenodd" clip-rule="evenodd" d="M64.9592 30.713C64.4609 32.2673 64.6651 33.9476 65.5234 35.3542C66.3817 36.7609 67.8173 37.7682 69.489 38.1368L71.2835 38.5301L70.9323 37.1124L69.8015 36.8624C68.5054 36.5728 67.3931 35.7899 66.7271 34.6986C66.0611 33.6073 65.9006 32.3042 66.2834 31.0972L66.6055 30.0454L65.4812 29.0484L64.9592 30.713Z" fill="white"/>
        </mask>
        <g mask="url(#mask16_727_80819)">
          <path d="M63.5234 38.4444L64.5114 28.4423L72.2068 29.123L71.2188 39.1251L63.5234 38.4444Z" fill="url(#paint7_linear_727_80819)"/>
        </g>
      </g>
    </g>
    <g style="mix-blend-mode:multiply" opacity="0.66">
      <mask id="mask17_727_80819" style="mask-type:luminance" maskUnits="userSpaceOnUse" x="81" y="43" width="12" height="5">
        <rect x="81.3066" y="43.5843" width="11.5724" height="3.55488" fill="white"/>
      </mask>
      <g mask="url(#mask17_727_80819)">
        <mask id="mask18_727_80819" style="mask-type:luminance" maskUnits="userSpaceOnUse" x="81" y="43" width="12" height="5">
          <path fill-rule="evenodd" clip-rule="evenodd" d="M81.3066 44.0071L82.5663 45.2784C83.7395 46.4633 85.3787 47.1357 87.0945 47.1357C88.8103 47.1357 90.4495 46.4633 91.6226 45.2784L92.8791 44.0071L91.4067 43.5955L90.6142 44.3973C89.7009 45.316 88.4273 45.8369 87.0945 45.8369C85.7617 45.8369 84.488 45.316 83.5747 44.3973L82.779 43.5955L81.3066 44.0071Z" fill="white"/>
        </mask>
        <g mask="url(#mask18_727_80819)">
          <path d="M80.2124 43.9176L91.7931 40.3821L93.9811 46.8003L82.4004 50.3358L80.2124 43.9176Z" fill="url(#paint8_linear_727_80819)"/>
        </g>
      </g>
    </g>
    <g style="mix-blend-mode:multiply" opacity="0.66">
      <mask id="mask19_727_80819" style="mask-type:luminance" maskUnits="userSpaceOnUse" x="81" y="0" width="12" height="4">
        <rect x="81.3066" width="11.5724" height="3.55488" fill="white"/>
      </mask>
      <g mask="url(#mask19_727_80819)">
        <mask id="mask20_727_80819" style="mask-type:luminance" maskUnits="userSpaceOnUse" x="81" y="-1" width="12" height="5">
          <path fill-rule="evenodd" clip-rule="evenodd" d="M82.5663 1.85593L81.3066 3.13032L82.779 3.5541L83.5747 2.74312C84.488 1.8245 85.7617 1.30359 87.0945 1.30359C88.4273 1.30359 89.7009 1.8245 90.6142 2.74312L91.4067 3.54495L92.8791 3.12117L91.6226 1.84678C90.4495 0.661888 88.8103 -0.010437 87.0945 -0.010437C85.3787 -0.010437 83.7395 0.661888 82.5663 1.84678" fill="white"/>
        </mask>
        <g mask="url(#mask20_727_80819)">
          <path d="M81.0433 3.53436L81.3637 -0.768999L93.1454 0.0164946L92.825 4.31985L81.0433 3.53436Z" fill="url(#paint9_linear_727_80819)"/>
        </g>
      </g>
    </g>
    <g style="mix-blend-mode:multiply" opacity="0.66">
      <mask id="mask21_727_80819" style="mask-type:luminance" maskUnits="userSpaceOnUse" x="64" y="8" width="8" height="11">
        <rect x="64.689" y="8.60754" width="6.59165" height="9.48475" fill="white"/>
      </mask>
      <g mask="url(#mask21_727_80819)">
        <mask id="mask22_727_80819" style="mask-type:luminance" maskUnits="userSpaceOnUse" x="64" y="8" width="8" height="11">
          <path fill-rule="evenodd" clip-rule="evenodd" d="M69.4884 9.00437C67.817 9.37221 66.3814 10.379 65.523 11.7851C64.6647 13.1913 64.4604 14.8712 64.9587 16.4251L65.4935 18.0928L66.6179 17.0989L66.2957 16.0471C65.9119 14.8396 66.0719 13.5358 66.738 12.4437C67.4041 11.3516 68.517 10.5683 69.8138 10.2788L70.9447 10.0288L71.2958 8.60803L69.4884 9.00437Z" fill="white"/>
        </mask>
        <g mask="url(#mask22_727_80819)">
          <path d="M59.4448 13.5358L67.7275 5.37666L76.2844 13.1556L68.0018 21.3147L59.4448 13.5358Z" fill="url(#paint10_linear_727_80819)"/>
        </g>
      </g>
    </g>
    <g style="mix-blend-mode:multiply" opacity="0.66">
      <mask id="mask23_727_80819" style="mask-type:luminance" maskUnits="userSpaceOnUse" x="102" y="8" width="8" height="11">
        <rect x="102.905" y="8.60754" width="6.59165" height="9.48475" fill="white"/>
      </mask>
      <g mask="url(#mask23_727_80819)">
        <mask id="mask24_727_80819" style="mask-type:luminance" maskUnits="userSpaceOnUse" x="102" y="8" width="8" height="11">
          <path fill-rule="evenodd" clip-rule="evenodd" d="M102.905 8.60797L103.253 10.0287L104.387 10.2787C105.684 10.5682 106.797 11.3516 107.463 12.4436C108.129 13.5357 108.289 14.8395 107.905 16.047L107.567 17.0988L108.691 18.0927L109.217 16.425C109.714 14.8737 109.512 13.1966 108.658 11.7912C107.804 10.3858 106.374 9.37715 104.706 9.00431L102.905 8.60797Z" fill="white"/>
        </mask>
        <g mask="url(#mask24_727_80819)">
          <path d="M100.01 9.46936L109.101 6.73523L112.621 17.2157L103.529 19.9498L100.01 9.46936Z" fill="url(#paint11_linear_727_80819)"/>
        </g>
      </g>
    </g>
    <path d="M83.7102 37.0457L96.5487 24.8963C96.9213 24.545 97.1308 24.0678 97.1308 23.5701C97.1308 23.0724 96.9213 22.5951 96.5487 22.2439L92.4281 18.3445L82.7984 27.4603C82.0806 28.1395 81.6773 29.0607 81.6772 30.0213V36.2469C81.6781 36.7038 81.9693 37.1153 82.4154 37.29C82.8615 37.4647 83.3748 37.3683 83.7166 37.0457" fill="#46B978"/>
    <g style="mix-blend-mode:multiply" opacity="0.66">
      <mask id="mask25_727_80819" style="mask-type:luminance" maskUnits="userSpaceOnUse" x="81" y="18" width="17" height="20">
        <rect x="81.6714" y="18.3414" width="15.4578" height="19.0366" fill="white"/>
      </mask>
      <g mask="url(#mask25_727_80819)">
        <mask id="mask26_727_80819" style="mask-type:luminance" maskUnits="userSpaceOnUse" x="81" y="18" width="17" height="20">
          <path fill-rule="evenodd" clip-rule="evenodd" d="M82.7999 27.4601C82.0821 28.1393 81.6788 29.0605 81.6787 30.0211V36.2467C81.6796 36.7036 81.9708 37.1151 82.4169 37.2898C82.8629 37.4645 83.3763 37.3681 83.7181 37.0455L96.5566 24.8961C96.9238 24.5503 97.1322 24.0815 97.1365 23.5912V23.5455C97.1321 23.0562 96.9237 22.5884 96.5566 22.2437L92.4296 18.3443L82.7999 27.4601Z" fill="white"/>
        </mask>
        <g mask="url(#mask26_727_80819)">
          <path d="M71.6362 26.0662L90.9881 11.1889L107.174 30.0438L87.8226 44.9211L71.6362 26.0662Z" fill="url(#paint12_linear_727_80819)"/>
        </g>
      </g>
    </g>
    <path d="M81.6714 10.8931V17.1187C81.673 18.0793 82.0787 18.9998 82.799 19.6766L92.4352 28.7955L96.5557 24.8962C96.9284 24.5449 97.1378 24.0677 97.1378 23.5699C97.1378 23.0722 96.9284 22.595 96.5557 22.2437L83.7107 10.0943C83.3689 9.77171 82.8556 9.67534 82.4095 9.85006C81.9635 10.0248 81.6723 10.4363 81.6714 10.8931" fill="#06675E"/>
  </g>
  <mask id="mask27_727_80819" style="mask-type:luminance" maskUnits="userSpaceOnUse" x="81" y="9" width="17" height="20">
    <path fill-rule="evenodd" clip-rule="evenodd" d="M81.6699 10.8928V17.1153C81.67 18.0759 82.0733 18.9971 82.7911 19.6763L92.4273 28.7952L96.5478 24.8958C96.9205 24.5446 97.1299 24.0673 97.1299 23.5696C97.1299 23.0719 96.9205 22.5947 96.5478 22.2434L83.7093 10.094C83.4907 9.87972 83.1896 9.75867 82.8749 9.75864C82.5556 9.7562 82.2486 9.87471 82.0223 10.0878C81.7959 10.3008 81.6691 10.5907 81.6699 10.8928Z" fill="white"/>
  </mask>
  <g mask="url(#mask27_727_80819)">
    <path d="M73.0088 14.4551L93.4744 3.39048L105.99 24.1208L85.5242 35.1854L73.0088 14.4551Z" fill="url(#paint13_linear_727_80819)"/>
  </g>
  <path d="M7.11034 23.0707C7.11034 21.0951 6.65071 19.5422 5.73145 18.4121C4.90454 17.3959 3.61585 16.6306 1.86538 16.1164C1.79061 16.0946 1.70975 16.102 1.64077 16.1369C1.57179 16.1719 1.52043 16.2314 1.4981 16.3024L1.19204 17.2628C1.14615 17.4092 1.234 17.5632 1.38856 17.6073C2.67725 17.9955 3.63088 18.5717 4.24945 19.3359C4.8938 20.1489 5.23745 21.2333 5.2804 22.589H0.293177C0.215421 22.589 0.140851 22.6182 0.0858695 22.6702C0.0308882 22.7223 0 22.7928 0 22.8664V23.717C0 23.8702 0.13126 23.9945 0.293177 23.9945H6.81717C6.97908 23.9945 7.11034 23.8702 7.11034 23.717V23.0707Z" fill="#009652"/>
  <path fill-rule="evenodd" clip-rule="evenodd" d="M20.3939 23.995H19.8527H9.90402C9.7421 23.995 9.61084 23.8707 9.61084 23.7175V12.87C9.61084 12.7167 9.7421 12.5925 9.90402 12.5925H11.1927C11.3546 12.5925 11.4859 12.7167 11.4859 12.87V22.562H19.8624C20.4086 22.6051 20.9484 22.4267 21.3476 22.0712C21.7191 21.6931 21.9049 21.0437 21.9049 20.123C21.8701 19.1081 22.2616 18.1214 22.9939 17.3791C23.78 16.5844 24.8539 16.187 26.2156 16.187C28.7135 16.187 29.9625 17.4065 29.9625 19.8456V22.5895H34.4535V16.6687C34.4535 16.5155 34.5848 16.3913 34.7467 16.3913H36.0354C36.1973 16.3913 36.3286 16.5155 36.3286 16.6687V22.5956H41.4833C40.4202 22.0956 39.8886 21.2114 39.8886 19.9431C39.85 18.9685 40.2341 18.0212 40.9518 17.3212C41.7336 16.5793 42.8139 16.2084 44.1928 16.2084C44.8473 16.2013 45.4991 16.2887 46.1258 16.4675C46.2707 16.5114 46.3551 16.6539 46.3191 16.7937L46.113 17.6505C46.0955 17.7276 46.0438 17.7939 45.971 17.8324C45.8982 17.871 45.8114 17.878 45.7328 17.8517C45.2162 17.6763 44.6707 17.5895 44.1219 17.5956C43.4901 17.5668 42.874 17.7877 42.4209 18.2053C41.9362 18.7174 41.6983 19.3972 41.7643 20.0819C41.8303 20.7666 42.1942 21.3944 42.7688 21.8151C43.4991 22.3313 44.573 22.5895 45.9905 22.5895H47.0601C47.2221 22.5895 47.3533 22.7137 47.3533 22.8669V23.7297C47.3533 23.8829 47.2221 24.0071 47.0601 24.0071H26.628C24.71 24.0051 23.4213 23.5366 22.7619 22.6017C22.4687 23.4736 21.6826 23.934 20.3939 23.995ZM26.0956 17.608C25.4436 17.5772 24.8124 17.8298 24.3817 18.294C23.9562 18.7924 23.7415 19.4226 23.7792 20.0623C23.7813 21.7473 24.7339 22.5897 26.6369 22.5897H28.1511V20.1324C28.1511 18.4495 27.4659 17.608 26.0956 17.608Z" fill="#009652"/>
  <path d="M36.451 15.0164C36.7208 15.0205 36.9801 14.9177 37.1662 14.7329C37.5524 14.3509 37.5524 13.749 37.1662 13.367C36.9801 13.1822 36.7208 13.0794 36.451 13.0835C36.184 13.0793 35.9276 13.1823 35.7454 13.367C35.5557 13.5473 35.4511 13.7925 35.4555 14.0469C35.4479 14.3063 35.5526 14.5575 35.7454 14.742C35.9309 14.9212 36.186 15.0204 36.451 15.0164Z" fill="#009652"/>
  <path d="M33.8022 15.0158C34.0725 15.0222 34.3327 14.9191 34.5175 14.7323C34.9037 14.3504 34.9037 13.7484 34.5175 13.3665C34.3327 13.1797 34.0725 13.0765 33.8022 13.0829C33.5373 13.0797 33.2834 13.1827 33.1031 13.3665C32.9134 13.5467 32.8088 13.792 32.8132 14.0463C32.8081 14.3053 32.9125 14.5555 33.1031 14.7415C33.2853 14.9215 33.5389 15.021 33.8022 15.0158Z" fill="#009652"/>
  <path d="M51.1771 12.5921H49.8884C49.7265 12.5921 49.5952 12.7163 49.5952 12.8695V23.7171C49.5952 23.8703 49.7265 23.9945 49.8884 23.9945H51.1771C51.339 23.9945 51.4703 23.8703 51.4703 23.7171V12.8695C51.4703 12.7163 51.339 12.5921 51.1771 12.5921" fill="#009652"/>
  <path d="M20.5317 34.4519H23.8404C23.8877 34.4527 23.9332 34.4353 23.9667 34.4037C24.0001 34.372 24.0185 34.3289 24.0176 34.2842V33.7141C24.0202 33.668 24.0028 33.623 23.9692 33.5895C23.9357 33.5561 23.8891 33.5372 23.8404 33.5372H21.4757V31.4793H23.7309C23.8287 31.4793 23.9081 31.4042 23.9081 31.3116V30.7933C23.9081 30.7007 23.8287 30.6257 23.7309 30.6257H21.4757V28.7446H23.8404C23.8877 28.7454 23.9332 28.728 23.9667 28.6964C24.0001 28.6647 24.0185 28.6216 24.0176 28.5769V28.025C24.0176 27.9324 23.9383 27.8574 23.8404 27.8574H20.5317C20.4338 27.8574 20.3545 27.9324 20.3545 28.025V34.2842C20.3545 34.3768 20.4338 34.4519 20.5317 34.4519Z" fill="#46B978"/>
  <path d="M27.8097 33.6504C27.612 33.674 27.4147 33.6045 27.2813 33.4644C27.1659 33.238 27.118 32.9861 27.1428 32.7358V30.4065H28.2994C28.3972 30.4065 28.4766 30.3314 28.4766 30.2388V29.7632C28.4766 29.6706 28.3972 29.5955 28.2994 29.5955H27.1428V28.0498C27.1428 27.9522 27.0591 27.873 26.9559 27.873H26.2278C26.1246 27.873 26.0409 27.9522 26.0409 28.0498V29.6077H25.2387C25.1409 29.6077 25.0615 29.6828 25.0615 29.7754V30.251C25.0615 30.3436 25.1409 30.4187 25.2387 30.4187H26.0409V33.0681C25.9994 33.4719 26.1039 33.8771 26.3373 34.2175C26.6442 34.4741 27.0515 34.5959 27.4585 34.5529C27.7647 34.5534 28.0701 34.5248 28.3702 34.4675C28.46 34.452 28.5219 34.3735 28.512 34.2876L28.4572 33.7785C28.4525 33.7327 28.428 33.6907 28.3897 33.6625C28.3513 33.6342 28.3023 33.6222 28.2543 33.6291C28.1073 33.6521 27.9586 33.6633 27.8097 33.6626" fill="#46B978"/>
  <path d="M30.2134 34.4522H30.9576C31.0554 34.4522 31.1348 34.3771 31.1348 34.2845V29.7631C31.1348 29.6705 31.0554 29.5955 30.9576 29.5955H30.2134C30.1155 29.5955 30.0362 29.6705 30.0362 29.7631V34.2845C30.0353 34.3292 30.0537 34.3723 30.0871 34.404C30.1205 34.4356 30.1661 34.453 30.2134 34.4522Z" fill="#46B978"/>
  <path d="M30.494 27.44C30.3051 27.4365 30.1232 27.5072 29.9914 27.6354C29.8631 27.7568 29.791 27.9215 29.791 28.0933C29.791 28.2651 29.8631 28.4298 29.9914 28.5512C30.1247 28.6766 30.3062 28.7449 30.494 28.7405C30.8762 28.7389 31.1876 28.4493 31.1963 28.0872C31.1995 27.9107 31.122 27.7414 30.9837 27.6232C30.8554 27.4988 30.6773 27.4322 30.494 27.44Z" fill="#46B978"/>
  <path d="M38.5477 29.501C37.7992 29.4627 37.1098 29.8849 36.8401 30.5467C36.7113 29.8485 36.2377 29.501 35.4258 29.501C34.6665 29.4612 33.9677 29.8918 33.699 30.565H33.6764C33.7205 30.3038 33.7442 30.0399 33.7473 29.7754C33.7473 29.6822 33.6685 29.6063 33.5701 29.6046H32.8774C32.7796 29.6046 32.7002 29.6797 32.7002 29.7723V34.2936C32.6993 34.3384 32.7177 34.3815 32.7512 34.4131C32.7846 34.4448 32.8302 34.4622 32.8774 34.4613H33.6216C33.7195 34.4613 33.7988 34.3863 33.7988 34.2936V32.1595C33.7815 31.7081 33.9182 31.2634 34.1887 30.8912C34.3812 30.5766 34.7325 30.3792 35.1165 30.3699C35.6127 30.3699 35.8607 30.6991 35.8607 31.3577V34.2845C35.8599 34.3292 35.8782 34.3724 35.9117 34.404C35.9451 34.4356 35.9907 34.453 36.0379 34.4522H36.7628C36.8607 34.4522 36.94 34.3771 36.94 34.2845V32.1504C36.9199 31.6897 37.0652 31.2362 37.3524 30.8638C37.5496 30.5711 37.8878 30.3905 38.2545 30.3821C38.7474 30.3821 38.9923 30.7113 38.9923 31.3699V34.2967C38.9923 34.3893 39.0716 34.4644 39.1694 34.4644H39.904C39.9513 34.4652 39.9968 34.4478 40.0303 34.4162C40.0637 34.3846 40.0821 34.3414 40.0812 34.2967V31.0985C40.0812 30.0294 39.5743 29.4949 38.5605 29.4949" fill="#46B978"/>
  <path fill-rule="evenodd" clip-rule="evenodd" d="M45.2099 29.9516C45.515 30.3 45.6642 30.7475 45.6255 31.1985L45.6159 33.1132C45.6159 33.3239 45.6219 33.529 45.6277 33.7276C45.6331 33.9139 45.6384 34.0945 45.6384 34.2687C45.6421 34.3141 45.6253 34.3589 45.5921 34.392C45.559 34.4251 45.5126 34.4434 45.4645 34.4424H44.7686C44.7207 34.4433 44.6746 34.4255 44.6411 34.3932C44.6076 34.3609 44.5896 34.3169 44.5914 34.2717C44.5915 34.029 44.6087 33.7866 44.6429 33.5461C44.3551 34.2148 43.7892 34.5491 42.9451 34.5491C42.5568 34.5652 42.1789 34.4283 41.9012 34.1711C41.6371 33.9119 41.4973 33.5613 41.5146 33.2016C41.5061 32.6728 41.8194 32.1865 42.32 31.9516C43.0045 31.6313 43.7645 31.4833 44.5269 31.5217V31.3174C44.5522 31.0468 44.4745 30.7765 44.3079 30.5552C44.0929 30.3722 43.8062 30.2836 43.5185 30.3113C43.0563 30.3155 42.5991 30.4035 42.1718 30.5705C42.1238 30.5898 42.0692 30.588 42.0226 30.5657C41.976 30.5434 41.9422 30.5027 41.9302 30.4546L41.8175 29.9821C41.7956 29.9001 41.8429 29.8157 41.927 29.787C42.4866 29.5945 43.0778 29.4975 43.6732 29.5004C44.3884 29.5004 44.9006 29.6508 45.2099 29.9516ZM44.1828 33.3024C44.4105 33.0337 44.5323 32.6985 44.5276 32.3542L44.5179 32.2231C43.2292 32.2231 42.5849 32.5067 42.5849 33.0737C42.5768 33.2469 42.6444 33.4156 42.7717 33.5402C42.9075 33.6672 43.0933 33.7347 43.284 33.7262C43.6378 33.7284 43.9716 33.571 44.1828 33.3024Z" fill="#46B978"/>
  <path fill-rule="evenodd" clip-rule="evenodd" d="M50.382 29.5552V27.4851C50.382 27.3925 50.4614 27.3174 50.5592 27.3174H51.2938C51.3408 27.3174 51.3858 27.335 51.4191 27.3665C51.4523 27.3979 51.471 27.4406 51.471 27.4851V34.2777C51.4719 34.3225 51.4535 34.3656 51.42 34.3972C51.3866 34.4289 51.341 34.4463 51.2938 34.4454H50.6108C50.5129 34.4454 50.4336 34.3703 50.4336 34.2777C50.4389 34.0304 50.4636 33.7838 50.5077 33.5399H50.4883C50.2196 34.1804 49.5464 34.5851 48.8195 34.543C48.2724 34.5732 47.745 34.3448 47.4116 33.9332C47.066 33.4398 46.8997 32.8533 46.938 32.2625C46.8963 31.5331 47.1537 30.8167 47.6564 30.2625C48.1609 29.7562 48.8744 29.4843 49.6088 29.5186C49.7527 29.5186 50.0105 29.5308 50.382 29.5552ZM50.0593 33.1254C50.2807 32.7671 50.3922 32.3575 50.3814 31.9425L50.3847 30.4212C50.1179 30.3663 49.8458 30.3377 49.5728 30.3358C48.5912 30.3358 48.1005 30.9456 48.1005 32.1651C48.1005 33.1803 48.442 33.6895 49.1185 33.6895C49.5185 33.6816 49.8809 33.4643 50.0593 33.1254Z" fill="#46B978"/>
  <defs>
    <linearGradient id="paint0_linear_727_80819" x1="76.4005" y1="11.0992" x2="85.242" y2="8.93192" gradientUnits="userSpaceOnUse">
      <stop stop-color="white"/>
      <stop offset="1" stop-color="#1F754A"/>
    </linearGradient>
    <linearGradient id="paint1_linear_727_80819" x1="99.8651" y1="8.15106" x2="101.074" y2="2.34662" gradientUnits="userSpaceOnUse">
      <stop stop-color="white"/>
      <stop offset="1" stop-color="#1F754A"/>
    </linearGradient>
    <linearGradient id="paint2_linear_727_80819" x1="67.3716" y1="28.7935" x2="69.9061" y2="19.9726" gradientUnits="userSpaceOnUse">
      <stop stop-color="white"/>
      <stop offset="1" stop-color="#1F754A"/>
    </linearGradient>
    <linearGradient id="paint3_linear_727_80819" x1="113.989" y1="20.6777" x2="111.031" y2="13.8709" gradientUnits="userSpaceOnUse">
      <stop stop-color="white"/>
      <stop offset="1" stop-color="#1F754A"/>
    </linearGradient>
    <linearGradient id="paint4_linear_727_80819" x1="76.6344" y1="46.1502" x2="79.4023" y2="41.218" gradientUnits="userSpaceOnUse">
      <stop stop-color="white"/>
      <stop offset="1" stop-color="#1F754A"/>
    </linearGradient>
    <linearGradient id="paint5_linear_727_80819" x1="99.7039" y1="46.5018" x2="105.14" y2="42.2071" gradientUnits="userSpaceOnUse">
      <stop stop-color="white"/>
      <stop offset="1" stop-color="#1F754A"/>
    </linearGradient>
    <linearGradient id="paint6_linear_727_80819" x1="107.651" y1="38.9873" x2="111.761" y2="31.6644" gradientUnits="userSpaceOnUse">
      <stop stop-color="white"/>
      <stop offset="1" stop-color="#1F754A"/>
    </linearGradient>
    <linearGradient id="paint7_linear_727_80819" x1="72.1634" y1="36.7715" x2="72.9017" y2="28.4253" gradientUnits="userSpaceOnUse">
      <stop stop-color="white"/>
      <stop offset="1" stop-color="#1F754A"/>
    </linearGradient>
    <linearGradient id="paint8_linear_727_80819" x1="84.0418" y1="49.3896" x2="93.7618" y2="46.076" gradientUnits="userSpaceOnUse">
      <stop stop-color="white"/>
      <stop offset="1" stop-color="#1F754A"/>
    </linearGradient>
    <linearGradient id="paint9_linear_727_80819" x1="94.1683" y1="2.25115" x2="94.4418" y2="-1.85056" gradientUnits="userSpaceOnUse">
      <stop stop-color="white"/>
      <stop offset="1" stop-color="#1F754A"/>
    </linearGradient>
    <linearGradient id="paint10_linear_727_80819" x1="69.7577" y1="18.1727" x2="75.9063" y2="11.4091" gradientUnits="userSpaceOnUse">
      <stop stop-color="white"/>
      <stop offset="1" stop-color="#1F754A"/>
    </linearGradient>
    <linearGradient id="paint11_linear_727_80819" x1="113.766" y1="12.996" x2="110.268" y2="1.36686" gradientUnits="userSpaceOnUse">
      <stop stop-color="white"/>
      <stop offset="1" stop-color="#1F754A"/>
    </linearGradient>
    <linearGradient id="paint12_linear_727_80819" x1="90.44" y1="30.7276" x2="94.1489" y2="27.5437" gradientUnits="userSpaceOnUse">
      <stop stop-color="white"/>
      <stop offset="0.66" stop-color="#1F754A"/>
      <stop offset="1" stop-color="#1F754A"/>
    </linearGradient>
    <linearGradient id="paint13_linear_727_80819" x1="56.3272" y1="-2.7613" x2="73.6244" y2="29.2322" gradientUnits="userSpaceOnUse">
      <stop stop-color="white"/>
      <stop offset="1" stop-color="#06675E"/>
    </linearGradient>
  </defs>
</svg>