<?xml version="1.0" encoding="UTF-8" standalone="no"?>
<!DOCTYPE svg PUBLIC "-//W3C//DTD SVG 1.1//EN" "http://www.w3.org/Graphics/SVG/1.1/DTD/svg11.dtd">
<svg width="100%" height="100%" viewBox="0 0 540 192" version="1.1" xmlns="http://www.w3.org/2000/svg" xmlns:xlink="http://www.w3.org/1999/xlink" xml:space="preserve" xmlns:serif="http://www.serif.com/" style="fill-rule:evenodd;clip-rule:evenodd;stroke-linejoin:round;stroke-miterlimit:2;">
    <g transform="matrix(1,0,0,1,-230.296,-91.7259)">
        <g>
            <path d="M497.1,205.8L497.1,216.9L449.2,216.9L449.2,146.4L494.5,146.4L494.5,157L462.5,157L462.5,174.2L490.8,174.2L490.8,185.3L462.5,185.3L462.5,205.9L497.1,205.9L497.1,205.8Z" style="fill:rgb(22,58,129);fill-rule:nonzero;"/>
            <path d="M502.2,216.8L526.7,181.4C519,169.7 511,158 503.3,146.2L519,146.2L534,169.2C539,161.6 544.1,153.9 549,146.2L564,146.2L541.3,181L565.3,216.9L550.9,216.9C545.7,209 539.1,199.9 534,191.9C528.9,199.9 522.4,209 517.3,216.9L502.2,216.9L502.2,216.8Z" style="fill:rgb(22,58,129);fill-rule:nonzero;"/>
            <path d="M588.3,191.8L588.3,216.8L575.8,216.8L575.8,146.9C615.8,141.4 627.5,152.2 627.5,169.9C627.5,186.3 612.9,192.8 588.3,191.8ZM588.7,181C606.8,181.9 613.9,177.4 613.9,168.6C613.9,160.7 608.4,155.1 588.7,156.9L588.7,181Z" style="fill:rgb(22,58,129);fill-rule:nonzero;"/>
            <path d="M675.8,187.8L693.6,216.9L678.5,216.9L662.2,190.3C659,190.3 655.8,190.4 652.1,190.4L652.1,216.9L639.2,216.9L639.2,147C677.4,141.8 689.7,151.5 689.7,168.9C689.8,179.6 682.7,184.4 675.8,187.8ZM652.2,179.8C669.1,180.4 676.4,177.3 676.4,167.5C676.4,160 669.8,154.9 652.2,157L652.2,179.8Z" style="fill:rgb(22,58,129);fill-rule:nonzero;"/>
            <path d="M734.5,144.9C754.5,144.9 768.8,161.4 768.8,181.6C768.8,201.8 754.4,218.3 734.5,218.3C714.4,218.3 700.3,201.8 700.3,181.6C700.3,161.4 714.5,144.9 734.5,144.9ZM734.6,205.9C745.7,205.9 755.9,196.6 755.9,181.6C755.9,166.6 745.7,157.1 734.6,157.1C723.4,157.1 713.4,166.6 713.4,181.6C713.4,196.5 723.4,205.9 734.6,205.9Z" style="fill:rgb(22,58,129);fill-rule:nonzero;"/>
        </g>
        <g>
            <path d="M454.7,245.4L454.7,244.7C454.7,244.6 454.7,244.5 454.8,244.4C454.8,244.3 454.9,244.3 455,244.3L455.9,244.2C456.2,244.2 456.3,244.3 456.3,244.5L456.3,250.6C456.3,251.2 456.4,251.6 456.7,251.9C457,252.2 457.5,252.3 458.2,252.3L458.3,252.3L458.3,254L457.9,254C457.1,254 456.4,253.9 455.9,253.6C455.4,253.3 455,253 454.8,252.5C454.1,252.8 453.3,253 452.4,253C452,253 451.6,253 451.2,252.9C450.8,252.8 450.5,252.7 450.2,252.5C449.9,252.3 449.6,252 449.5,251.7C449.3,251.4 449.2,251 449.2,250.5C449.2,249.5 449.7,248.6 450.6,247.7C451.5,246.8 452.9,246 454.7,245.4ZM454.7,250.9L454.7,246.9C453.5,247.3 452.6,247.8 451.9,248.3C451.2,248.9 450.9,249.5 450.9,250.1C450.9,250.4 451,250.7 451.3,250.9C451.6,251.1 452,251.2 452.6,251.2C453.2,251.3 453.9,251.1 454.7,250.9ZM454.4,241.6C454.2,241.8 454,241.9 453.7,241.9C453.4,241.9 453.2,241.8 453,241.6C452.8,241.4 452.7,241.2 452.7,240.9C452.7,240.6 452.8,240.4 453,240.2C453.2,240 453.4,239.9 453.7,239.9C454,239.9 454.2,240 454.4,240.2C454.6,240.4 454.7,240.6 454.7,240.9C454.7,241.2 454.6,241.5 454.4,241.6ZM457,241.6C456.8,241.8 456.6,241.9 456.3,241.9C456,241.9 455.8,241.8 455.6,241.6C455.4,241.4 455.3,241.2 455.3,240.9C455.3,240.6 455.4,240.4 455.6,240.2C455.8,240 456,239.9 456.3,239.9C456.6,239.9 456.8,240 457,240.2C457.2,240.4 457.3,240.6 457.3,240.9C457.3,241.2 457.2,241.5 457,241.6Z" style="fill:rgb(98,97,99);fill-rule:nonzero;"/>
            <path d="M459,258C458.8,258.2 458.6,258.3 458.3,258.3C458,258.3 457.8,258.2 457.6,258C457.4,257.8 457.3,257.6 457.3,257.3C457.3,257 457.4,256.8 457.6,256.6C457.8,256.4 458,256.3 458.3,256.3C458.6,256.3 458.8,256.4 459,256.6C459.2,256.8 459.3,257 459.3,257.3C459.3,257.6 459.2,257.8 459,258ZM458.1,252.3L459.7,252.3C460.3,252.3 460.6,252.2 460.8,252C461,251.8 461.1,251.4 461.1,250.8L461.1,246C461.1,245.9 461.1,245.8 461.2,245.7C461.3,245.6 461.4,245.6 461.5,245.6L462.3,245.6C462.6,245.6 462.7,245.7 462.7,246L462.7,251.4C463.2,251.9 463.9,252.2 464.7,252.2L464.9,252.2L464.9,253.9L464.7,253.9C463.7,253.9 463,253.5 462.4,252.8C462,253.5 461.2,253.9 460,253.9L458.2,253.9C458,253.9 457.9,253.8 457.8,253.7C457.7,253.6 457.6,253.4 457.6,253C457.6,252.7 457.7,252.4 457.8,252.3C457.7,252.3 457.9,252.3 458.1,252.3ZM461.7,258C461.5,258.2 461.3,258.3 461,258.3C460.7,258.3 460.5,258.2 460.3,258C460.1,257.8 460,257.6 460,257.3C460,257 460.1,256.8 460.3,256.6C460.5,256.4 460.7,256.3 461,256.3C461.3,256.3 461.5,256.4 461.7,256.6C461.9,256.8 462,257 462,257.3C462,257.6 461.9,257.8 461.7,258Z" style="fill:rgb(98,97,99);fill-rule:nonzero;"/>
            <path d="M464.2,252.3L467.2,252.3C466.9,251.9 466.7,251.5 466.6,251C466.5,250.5 466.4,250 466.4,249.5C466.4,248.3 466.7,247.3 467.4,246.6C468.1,245.9 469,245.6 470.1,245.6C471.3,245.6 472.2,246 472.8,246.7C473.5,247.4 473.8,248.4 473.8,249.7C473.8,251.1 473.4,252.1 472.7,252.8C472,253.5 471,253.9 469.6,253.9L464.6,253.9C464.4,253.9 464.3,253.8 464.2,253.7C464.1,253.6 464,253.4 464,253C464,252.7 464.1,252.4 464.2,252.3ZM467.9,249.8C467.9,250.8 468.2,251.6 468.7,252.3L469.8,252.3C470.5,252.3 471.1,252.1 471.5,251.7C471.9,251.3 472.1,250.7 472.1,249.8C472.1,249.5 472.1,249.2 472,248.9C471.9,248.6 471.8,248.4 471.7,248.1C471.5,247.8 471.3,247.7 471,247.5C470.7,247.3 470.4,247.3 470,247.3C469.6,247.3 469.3,247.4 469,247.5C468.7,247.6 468.5,247.8 468.3,248.1C468.1,248.4 468,248.6 468,248.9C468,249.2 467.9,249.5 467.9,249.8Z" style="fill:rgb(98,97,99);fill-rule:nonzero;"/>
            <path d="M478.2,257C479.2,256.5 480,256 480.5,255.5C481,255 481.4,254.5 481.6,253.9L479.9,253.9C478.7,253.9 477.7,253.6 477,252.9C476.3,252.2 476,251.2 476,249.7C476,248.5 476.3,247.5 477,246.7C477.7,246 478.6,245.6 479.7,245.6C480.8,245.6 481.7,245.9 482.4,246.6C483.1,247.3 483.4,248.2 483.4,249.5L483.4,252.2L485.4,252.2L485.4,253.9L483.2,253.9C483,254.9 482.5,255.7 481.8,256.3C481.1,257 480.1,257.6 478.7,258.3C478.5,258.4 478.3,258.3 478.2,258.1L477.8,257.4C477.8,257.3 477.9,257.1 478.2,257ZM481.9,252.4L481.9,249.6C481.9,248.9 481.7,248.4 481.4,248C481.1,247.6 480.6,247.4 479.9,247.4C479.2,247.4 478.6,247.6 478.3,248.1C477.9,248.5 477.7,249.1 477.7,249.9C477.7,250.9 477.9,251.6 478.3,251.9C478.7,252.3 479.4,252.4 480.3,252.4L481.9,252.4Z" style="fill:rgb(98,97,99);fill-rule:nonzero;"/>
            <path d="M485.3,252.3L489.5,252.3C491,252.3 491.7,251.8 491.7,250.9C491.7,250.2 491.2,249.4 490.1,248.7C489,247.9 487.5,247.2 485.4,246.6C485.2,246.5 485,246.4 485,246.2L485,245.4C485,245.2 485.1,245.1 485.2,245L491.2,239.7C491.4,239.5 491.6,239.5 491.7,239.7L492.3,240.4C492.5,240.6 492.5,240.7 492.3,240.9L486.9,245.7C489.1,246.5 490.7,247.3 491.7,248.2C492.8,249.1 493.3,250.1 493.3,251.3L493.3,251.9C493.8,252.3 494.4,252.5 495.2,252.5L495.6,252.5L495.6,254.2L495.2,254.2C494.2,254.2 493.4,253.8 492.9,253C492.3,253.8 491.2,254.2 489.5,254.2L485.4,254.2C485.2,254.2 485.1,254.1 485,254C484.9,253.9 484.8,253.7 484.8,253.3C484.8,253 484.9,252.7 485,252.6C485,252.3 485.1,252.3 485.3,252.3Z" style="fill:rgb(98,97,99);fill-rule:nonzero;"/>
            <path d="M495.3,252.3L503.8,252.3C503.5,252 503.3,251.7 503.1,251.3C502.9,250.9 502.8,250.4 502.6,249.7C502.4,248.7 502.1,247.9 501.6,247.5C501.2,247.1 500.6,246.9 499.8,246.9C499.1,246.9 498.3,247.1 497.4,247.6C497.3,247.7 497.2,247.7 497.1,247.7C497,247.7 497,247.6 496.9,247.5L496.5,246.7C496.4,246.5 496.5,246.4 496.7,246.3C497.6,245.6 498.7,245.3 499.8,245.3C500.4,245.3 501,245.4 501.5,245.6C502,245.8 502.4,246.1 502.7,246.5C503,246.9 503.3,247.3 503.5,247.8C503.7,248.3 503.9,248.9 504,249.5C504.1,250.2 504.3,250.8 504.6,251.2C504.8,251.6 505.2,252 505.7,252.3L506.7,252.3L506.7,254L495.2,254C495,254 494.9,253.9 494.8,253.8C494.7,253.7 494.6,253.5 494.6,253.1C494.6,252.8 494.7,252.5 494.8,252.4C495,252.3 495.1,252.3 495.3,252.3Z" style="fill:rgb(98,97,99);fill-rule:nonzero;"/>
            <path d="M506.6,252.3L508,252.3C508.6,252.3 509,252.2 509.2,252C509.4,251.8 509.5,251.4 509.5,250.8L509.5,240C509.5,239.9 509.5,239.8 509.6,239.7C509.6,239.6 509.7,239.6 509.8,239.6L510.7,239.5C511,239.5 511.1,239.6 511.1,239.8L511.1,251.6C511.1,252.4 510.9,253 510.5,253.3C510.1,253.6 509.4,253.9 508.5,253.9L506.8,253.9C506.6,253.9 506.5,253.8 506.4,253.7C506.3,253.6 506.2,253.4 506.2,253C506.2,252.7 506.3,252.4 506.4,252.3C506.3,252.3 506.4,252.3 506.6,252.3Z" style="fill:rgb(98,97,99);fill-rule:nonzero;"/>
            <path d="M514,253.5L514,240C514,239.9 514,239.8 514.1,239.7C514.1,239.6 514.2,239.6 514.3,239.6L515.2,239.5C515.5,239.5 515.6,239.6 515.6,239.8L515.6,253.5C515.6,253.8 515.5,253.9 515.2,253.9L514.4,253.9C514.1,253.9 514,253.8 514,253.5Z" style="fill:rgb(98,97,99);fill-rule:nonzero;"/>
            <path d="M528,252.3L535.6,252.3C536.2,252.3 536.5,252.2 536.7,252C536.9,251.8 537,251.4 537,250.8L537,246C537,245.9 537,245.8 537.1,245.7C537.2,245.6 537.3,245.6 537.4,245.6L538.2,245.6C538.5,245.6 538.6,245.7 538.6,246L538.6,251.5C538.6,253.1 537.7,253.8 535.9,253.8L527.6,253.8C526.1,253.8 524.9,253.4 524.1,252.7C523.3,252 522.9,250.9 522.9,249.6L522.9,247.3C522.9,247 523,246.9 523.3,246.9L524.1,246.9C524.4,246.9 524.5,247 524.5,247.3L524.5,248.6C524.5,249.9 524.8,250.9 525.3,251.4C525.7,252 526.6,252.3 528,252.3ZM530.2,244.2C530,244.4 529.8,244.5 529.5,244.5C529.2,244.5 529,244.4 528.8,244.2C528.6,244 528.5,243.8 528.5,243.5C528.5,243.2 528.6,243 528.8,242.8C529,242.6 529.2,242.5 529.5,242.5C529.8,242.5 530,242.6 530.2,242.8C530.4,243 530.5,243.2 530.5,243.5C530.5,243.8 530.4,244 530.2,244.2ZM532.9,244.2C532.7,244.4 532.5,244.5 532.2,244.5C531.9,244.5 531.7,244.4 531.5,244.2C531.3,244 531.2,243.8 531.2,243.5C531.2,243.2 531.3,243 531.5,242.8C531.7,242.6 531.9,242.5 532.2,242.5C532.5,242.5 532.7,242.6 532.9,242.8C533.1,243 533.2,243.2 533.2,243.5C533.2,243.8 533.1,244 532.9,244.2Z" style="fill:rgb(98,97,99);fill-rule:nonzero;"/>
            <path d="M543.1,239.8L543.1,250.8C543.1,251.4 543.2,251.8 543.4,252C543.6,252.2 544,252.3 544.6,252.3L545.2,252.3L545.2,254L544.3,254C543.4,254 542.7,253.8 542.3,253.4C541.9,253 541.7,252.4 541.7,251.7L541.7,240C541.7,239.9 541.7,239.8 541.8,239.7C541.8,239.6 541.9,239.6 542,239.6L542.9,239.5C543,239.4 543.1,239.5 543.1,239.8Z" style="fill:rgb(98,97,99);fill-rule:nonzero;"/>
            <path d="M544.9,252.3L548.1,252.3C547.2,251.3 546.7,250.2 546.7,249C546.7,248.4 546.8,247.9 547,247.4C547.2,246.9 547.5,246.5 547.9,246.3C548.3,246 548.7,245.8 549.1,245.6C549.5,245.4 550,245.4 550.5,245.4C551.5,245.4 552.5,245.7 553.3,246.2C553.5,246.3 553.5,246.4 553.5,246.6L553.1,247.4C553.1,247.5 553,247.6 552.9,247.6C552.8,247.6 552.7,247.6 552.6,247.5C551.9,247.2 551.2,247 550.5,247C549.7,247 549.1,247.2 548.8,247.6C548.4,248 548.2,248.5 548.2,249.2C548.2,249.7 548.3,250.2 548.6,250.8C548.9,251.3 549.2,251.9 549.8,252.4L554.3,252.4C554.6,252.4 554.7,252.5 554.7,252.8L554.7,253.7C554.7,254 554.6,254.1 554.3,254.1L544.8,254.1C544.6,254.1 544.5,254 544.4,253.9C544.3,253.8 544.2,253.6 544.2,253.2C544.2,252.9 544.3,252.6 544.4,252.5C544.6,252.3 544.7,252.3 544.9,252.3Z" style="fill:rgb(98,97,99);fill-rule:nonzero;"/>
            <path d="M558.2,257C559.4,256.4 560.2,255.9 560.7,255.4C561.2,254.9 561.6,254.2 561.7,253.4C561.1,253.8 560.4,254 559.6,254C558.5,254 557.6,253.6 557,252.9C556.3,252.1 556,251.1 556,249.8C556,248.6 556.3,247.6 557,246.8C557.7,246.1 558.6,245.7 559.7,245.7C560.8,245.7 561.7,246 562.4,246.7C563.1,247.4 563.4,248.3 563.4,249.6L563.4,251.5C563.4,252.2 563.4,252.9 563.3,253.4C563.2,253.9 563.1,254.4 562.9,254.9C562.7,255.4 562.4,255.8 562.1,256.2C561.7,256.6 561.3,257 560.8,257.3C560.3,257.6 559.6,258 558.8,258.4C558.6,258.5 558.4,258.4 558.3,258.2L557.9,257.5C557.9,257.3 558,257.1 558.2,257ZM562,249.5C562,248.8 561.8,248.3 561.5,247.9C561.2,247.5 560.7,247.3 560,247.3C559.3,247.3 558.7,247.5 558.4,248C558,248.4 557.8,249 557.8,249.8C557.8,250.7 558,251.3 558.4,251.7C558.8,252.1 559.3,252.3 560.1,252.3C560.8,252.3 561.5,252.1 562.1,251.7L562.1,249.5L562,249.5Z" style="fill:rgb(98,97,99);fill-rule:nonzero;"/>
            <path d="M571.2,252.3L571.2,254L569.1,254C568.9,255 568.6,255.8 568,256.5C567.4,257.2 566.6,257.8 565.4,258.4C565.2,258.5 565,258.5 564.9,258.2L564.5,257.5C564.5,257.4 564.4,257.3 564.5,257.2C564.5,257.1 564.6,257.1 564.8,257C565.6,256.6 566.1,256.1 566.5,255.7C566.9,255.3 567.2,254.7 567.4,254.1C567.6,253.4 567.7,252.6 567.7,251.5L567.7,246.1C567.7,246 567.7,245.9 567.8,245.8C567.9,245.7 568,245.7 568.1,245.7L568.9,245.7C569.2,245.7 569.3,245.8 569.3,246.1L569.3,252.3L571.2,252.3Z" style="fill:rgb(98,97,99);fill-rule:nonzero;"/>
            <path d="M571,252.3L573,252.3C574.2,252.3 574.8,251.7 574.8,250.5L574.8,247.9C574.8,247.6 574.9,247.5 575.2,247.5L576,247.5C576.3,247.5 576.4,247.6 576.4,247.9L576.4,251.5C577,252.1 577.7,252.3 578.4,252.3C579.5,252.3 580.1,251.7 580.1,250.5L580.1,247.9C580.1,247.6 580.2,247.5 580.5,247.5L581.3,247.5C581.6,247.5 581.7,247.6 581.7,247.9L581.7,251.4C582.3,251.9 583,252.2 583.7,252.2C584.8,252.2 585.4,251.6 585.4,250.4L585.4,245.9C585.4,245.8 585.4,245.7 585.5,245.6C585.6,245.5 585.7,245.5 585.8,245.5L586.6,245.5C586.9,245.5 587,245.6 587,245.9L587,251.3C587.5,251.8 588.2,252.1 589,252.1L589.2,252.1L589.2,253.8L589,253.8C587.9,253.8 587.1,253.4 586.6,252.5C586.1,253.4 585.3,253.8 584.1,253.8C582.9,253.8 582,253.4 581.4,252.5C580.9,253.4 580.1,253.8 578.8,253.8C577.6,253.8 576.7,253.4 576.1,252.5C575.6,253.4 574.7,253.8 573.5,253.8L571,253.8C570.8,253.8 570.7,253.7 570.6,253.6C570.5,253.5 570.4,253.3 570.4,252.9C570.4,252.6 570.5,252.3 570.6,252.2C570.7,252.3 570.8,252.3 571,252.3ZM580.3,243C580.1,243.2 579.9,243.3 579.6,243.3C579.3,243.3 579.1,243.2 578.9,243C578.7,242.8 578.6,242.6 578.6,242.3C578.6,242 578.7,241.8 578.9,241.6C579.1,241.4 579.3,241.3 579.6,241.3C579.9,241.3 580.1,241.4 580.3,241.6C580.5,241.8 580.6,242 580.6,242.3C580.6,242.6 580.5,242.8 580.3,243ZM581.6,240.6C581.4,240.8 581.2,240.9 580.9,240.9C580.6,240.9 580.4,240.8 580.2,240.6C580,240.4 579.9,240.2 579.9,239.9C579.9,239.6 580,239.4 580.2,239.2C580.4,239 580.6,238.9 580.9,238.9C581.2,238.9 581.4,239 581.6,239.2C581.8,239.4 581.9,239.6 581.9,239.9C581.9,240.2 581.8,240.5 581.6,240.6ZM583,243C582.8,243.2 582.6,243.3 582.3,243.3C582,243.3 581.8,243.2 581.6,243C581.4,242.8 581.3,242.6 581.3,242.3C581.3,242 581.4,241.8 581.6,241.6C581.8,241.4 582,241.3 582.3,241.3C582.6,241.3 582.8,241.4 583,241.6C583.2,241.8 583.3,242 583.3,242.3C583.2,242.6 583.2,242.8 583,243Z" style="fill:rgb(98,97,99);fill-rule:nonzero;"/>
            <path d="M588.9,252.3L590.8,252.3L590.8,251.6C590.8,250.4 591.1,249.4 591.8,248.7C592.5,248 593.4,247.7 594.5,247.7C595.7,247.7 596.6,248.1 597.2,248.8C597.8,249.5 598.2,250.5 598.2,251.8L598.2,252.4L599.9,252.4L599.9,254.1L597.8,254.1C597.5,254.8 597,255.3 596.4,255.6C595.8,255.9 595,256.1 594.1,256.1L592.6,256.1C592.4,256.1 592.3,256.1 592.2,256C592.1,255.9 592,255.8 592,255.7C591.7,255.2 591.4,254.7 591.2,254.1L588.9,254.1C588.7,254.1 588.6,254 588.5,253.9C588.4,253.8 588.3,253.6 588.3,253.2C588.3,252.9 588.4,252.6 588.5,252.5C588.6,252.3 588.7,252.3 588.9,252.3ZM592.3,251.8C592.3,252.7 592.5,253.5 593,254.3L594.2,254.3C594.9,254.3 595.5,254.1 595.9,253.7C596.3,253.3 596.5,252.7 596.5,251.8C596.5,251.5 596.5,251.2 596.4,250.9C596.3,250.6 596.2,250.4 596.1,250.1C595.9,249.8 595.7,249.7 595.4,249.5C595.1,249.4 594.8,249.3 594.4,249.3C594,249.3 593.7,249.4 593.4,249.5C593.1,249.6 592.9,249.8 592.7,250.1C592.5,250.4 592.4,250.6 592.4,250.9C592.4,251.2 592.3,251.5 592.3,251.8Z" style="fill:rgb(98,97,99);fill-rule:nonzero;"/>
            <path d="M599.6,252.3L601,252.3C601.6,252.3 602,252.2 602.2,252C602.4,251.8 602.5,251.4 602.5,250.8L602.5,240C602.5,239.9 602.5,239.8 602.6,239.7C602.6,239.6 602.7,239.6 602.8,239.6L603.7,239.5C604,239.5 604.1,239.6 604.1,239.8L604.1,251.6C604.1,252.4 603.9,253 603.5,253.3C603.1,253.6 602.4,253.9 601.5,253.9L599.8,253.9C599.6,253.9 599.5,253.8 599.4,253.7C599.3,253.6 599.2,253.4 599.2,253C599.2,252.7 599.3,252.4 599.4,252.3C599.3,252.3 599.4,252.3 599.6,252.3Z" style="fill:rgb(98,97,99);fill-rule:nonzero;"/>
            <path d="M607,253.5L607,240C607,239.9 607,239.8 607.1,239.7C607.1,239.6 607.2,239.6 607.3,239.6L608.2,239.5C608.5,239.5 608.6,239.6 608.6,239.8L608.6,253.5C608.6,253.8 608.5,253.9 608.2,253.9L607.4,253.9C607.1,253.9 607,253.8 607,253.5Z" style="fill:rgb(98,97,99);fill-rule:nonzero;"/>
            <path d="M613.3,257C614.5,256.4 615.3,255.9 615.8,255.4C616.3,254.9 616.7,254.2 616.8,253.4C616.2,253.8 615.5,254 614.7,254C613.6,254 612.7,253.6 612.1,252.9C611.4,252.1 611.1,251.1 611.1,249.8C611.1,248.6 611.4,247.6 612.1,246.8C612.8,246.1 613.7,245.7 614.8,245.7C615.9,245.7 616.8,246 617.5,246.7C618.2,247.4 618.5,248.3 618.5,249.6L618.5,251.5C618.5,252.2 618.5,252.9 618.4,253.4C618.3,253.9 618.2,254.4 618,254.9C617.8,255.4 617.5,255.8 617.2,256.2C616.8,256.6 616.4,257 615.9,257.3C615.4,257.6 614.7,258 613.9,258.4C613.7,258.5 613.5,258.4 613.4,258.2L613,257.5C613,257.3 613.1,257.1 613.3,257ZM617,249.5C617,248.8 616.8,248.3 616.5,247.9C616.2,247.5 615.7,247.3 615,247.3C614.3,247.3 613.7,247.5 613.4,248C613,248.4 612.8,249 612.8,249.8C612.8,250.7 613,251.3 613.4,251.7C613.8,252.1 614.3,252.3 615.1,252.3C615.8,252.3 616.5,252.1 617.1,251.7L617.1,249.5L617,249.5Z" style="fill:rgb(98,97,99);fill-rule:nonzero;"/>
            <path d="M628.2,250.2C627.7,251.2 627.5,252.1 627.5,253.1C627.5,255.5 629.3,256.7 632.8,256.7C634.7,256.7 636.1,256.4 637.1,255.8C638,255.2 638.5,254.3 638.5,253.3C637.9,253.8 637.1,254 636.3,254C635.2,254 634.3,253.6 633.7,252.9C633,252.1 632.7,251.1 632.7,249.8C632.7,248.6 633,247.6 633.7,246.8C634.4,246.1 635.3,245.7 636.4,245.7C637.5,245.7 638.4,246 639.1,246.7C639.8,247.4 640.1,248.3 640.1,249.6L640.1,253.2C640.1,254.9 639.5,256.3 638.2,257.1C636.9,258 635.2,258.4 632.9,258.4C632.1,258.4 631.4,258.3 630.8,258.2C630.1,258.1 629.5,257.9 628.9,257.7C628.3,257.5 627.8,257.1 627.4,256.7C627,256.3 626.6,255.8 626.4,255.2C626.1,254.6 626,253.9 626,253.2C626,252 626.3,250.8 626.9,249.6C627,249.4 627,249.3 627.1,249.3L627.4,249.3L628,249.6C628.1,249.7 628.2,249.7 628.2,249.8C628.3,250 628.3,250.1 628.2,250.2ZM634.2,249.7C634.2,250.6 634.4,251.2 634.7,251.6C635.1,252 635.6,252.2 636.4,252.2C637.1,252.2 637.8,252 638.4,251.6L638.4,249.5C638.4,248.8 638.2,248.3 637.9,247.9C637.6,247.5 637.1,247.3 636.4,247.3C635.7,247.3 635.1,247.5 634.8,248C634.4,248.4 634.2,249 634.2,249.7ZM635.9,243.2C635.7,243.4 635.5,243.5 635.2,243.5C634.9,243.5 634.7,243.4 634.5,243.2C634.3,243 634.2,242.8 634.2,242.5C634.2,242.2 634.3,242 634.5,241.8C634.7,241.6 634.9,241.5 635.2,241.5C635.5,241.5 635.7,241.6 635.9,241.8C636.1,242 636.2,242.2 636.2,242.5C636.2,242.8 636.1,243 635.9,243.2ZM638.6,243.2C638.4,243.4 638.2,243.5 637.9,243.5C637.6,243.5 637.4,243.4 637.2,243.2C637,243 636.9,242.8 636.9,242.5C636.9,242.2 637,242 637.2,241.8C637.4,241.6 637.6,241.5 637.9,241.5C638.2,241.5 638.4,241.6 638.6,241.8C638.8,242 638.9,242.2 638.9,242.5C638.9,242.8 638.8,243 638.6,243.2Z" style="fill:rgb(98,97,99);fill-rule:nonzero;"/>
            <path d="M644.6,239.8L644.6,250.8C644.6,251.4 644.7,251.8 644.9,252C645.1,252.2 645.5,252.3 646.1,252.3L646.7,252.3L646.7,254L645.8,254C644.9,254 644.2,253.8 643.8,253.4C643.4,253 643.2,252.4 643.2,251.7L643.2,240C643.2,239.9 643.2,239.8 643.3,239.7C643.3,239.6 643.4,239.6 643.5,239.6L644.4,239.5C644.5,239.4 644.6,239.5 644.6,239.8Z" style="fill:rgb(98,97,99);fill-rule:nonzero;"/>
            <path d="M646.4,252.3L647.8,252.3C648.6,252.3 649.2,252.3 649.7,252.2C649.1,251.7 648.6,251.1 648.2,250.5C647.8,249.9 647.7,249.2 647.7,248.6C647.7,247.7 648.1,246.9 648.8,246.3C649.5,245.7 650.5,245.3 651.7,245.3C652.9,245.3 653.9,245.6 654.6,246.3C655.3,247 655.7,247.7 655.7,248.6C655.7,249.2 655.5,249.8 655.2,250.5C654.8,251.1 654.3,251.7 653.7,252.2C654.2,252.3 654.9,252.3 655.6,252.3L656.8,252.3L656.8,254L655.6,254C654.2,254 652.9,253.8 651.8,253.3C650.6,253.8 649.3,254 648,254L646.6,254C646.4,254 646.3,253.9 646.2,253.8C646.1,253.7 646,253.5 646,253.1C646,252.8 646.1,252.5 646.2,252.4C646,252.3 646.2,252.3 646.4,252.3ZM653.9,248.7C653.9,248.2 653.7,247.8 653.3,247.4C652.9,247.1 652.3,246.9 651.6,246.9C650.9,246.9 650.3,247.1 649.9,247.4C649.5,247.7 649.3,248.2 649.3,248.7C649.3,249.2 649.5,249.7 649.9,250.2C650.3,250.7 650.9,251.2 651.6,251.6C652.4,251.2 653,250.8 653.3,250.2C653.7,249.6 653.9,249.1 653.9,248.7ZM652.3,242.8C652.1,243 651.9,243.1 651.6,243.1C651.3,243.1 651.1,243 650.9,242.8C650.7,242.6 650.6,242.4 650.6,242.1C650.6,241.8 650.7,241.6 650.9,241.4C651.1,241.2 651.3,241.1 651.6,241.1C651.9,241.1 652.1,241.2 652.3,241.4C652.5,241.6 652.6,241.8 652.6,242.1C652.6,242.4 652.5,242.6 652.3,242.8Z" style="fill:rgb(98,97,99);fill-rule:nonzero;"/>
            <path d="M656.5,252.3L657.9,252.3C658.5,252.3 658.8,252.2 659,252C659.2,251.8 659.3,251.4 659.3,250.8L659.3,246C659.3,245.9 659.3,245.8 659.4,245.7C659.5,245.6 659.6,245.6 659.7,245.6L660.5,245.6C660.8,245.6 660.9,245.7 660.9,246L660.9,251.5C660.9,253.1 660,253.8 658.2,253.8L656.6,253.8C656.4,253.8 656.3,253.7 656.2,253.6C656.1,253.5 656,253.3 656,252.9C656,252.6 656.1,252.3 656.2,252.2C656.1,252.3 656.3,252.3 656.5,252.3ZM660.7,243C660.5,243.2 660.3,243.3 660,243.3C659.7,243.3 659.5,243.2 659.3,243C659.1,242.8 659,242.6 659,242.3C659,242 659.1,241.8 659.3,241.6C659.5,241.4 659.7,241.3 660,241.3C660.3,241.3 660.5,241.4 660.7,241.6C660.9,241.8 661,242 661,242.3C661,242.6 660.9,242.8 660.7,243Z" style="fill:rgb(98,97,99);fill-rule:nonzero;"/>
            <path d="M669.9,252.3L670.7,252.3C671.3,252.3 671.6,252.2 671.8,252C672,251.8 672.1,251.4 672.1,250.8L672.1,240C672.1,239.9 672.1,239.8 672.2,239.7C672.2,239.6 672.3,239.6 672.4,239.6L673.3,239.5C673.6,239.5 673.7,239.6 673.7,239.8L673.7,251.6C673.7,253.2 672.8,253.9 671,253.9L663.8,253.9C663.5,253.9 663.4,253.8 663.4,253.5L663.4,252.6C663.4,252.3 663.5,252.2 663.8,252.2L668.3,252.2L665.2,241.1L665.2,240.8C665.2,240.7 665.3,240.7 665.5,240.6L666.2,240.4C666.5,240.3 666.6,240.4 666.7,240.7L669.9,252.3ZM663.9,259.1L664.7,259.1C664.4,258.7 664.3,258.3 664.3,257.9C664.3,257.4 664.5,257 664.8,256.7C665.2,256.4 665.6,256.3 666.1,256.3C666.6,256.3 667.1,256.4 667.5,256.7C667.6,256.8 667.7,256.9 667.6,257L667.5,257.4C667.5,257.5 667.4,257.5 667.4,257.5L667.2,257.5C666.9,257.3 666.5,257.3 666.2,257.3C665.9,257.3 665.7,257.4 665.5,257.6C665.3,257.8 665.2,258 665.2,258.3C665.2,258.7 665.3,259 665.6,259.4L667.8,259.4L667.8,260.1C667.8,260.2 667.7,260.3 667.6,260.3L663.8,260.3C663.7,260.3 663.6,260.2 663.6,260.1L663.6,259.4C663.8,259.1 663.9,259.1 663.9,259.1Z" style="fill:rgb(98,97,99);fill-rule:nonzero;"/>
            <path d="M676.6,253.5L676.6,240C676.6,239.9 676.6,239.8 676.7,239.7C676.7,239.6 676.8,239.6 676.9,239.6L677.8,239.5C678.1,239.5 678.2,239.6 678.2,239.8L678.2,253.5C678.2,253.8 678.1,253.9 677.8,253.9L677,253.9C676.8,253.9 676.6,253.8 676.6,253.5Z" style="fill:rgb(98,97,99);fill-rule:nonzero;"/>
            <path d="M692.3,253C691.6,253.7 690.6,254.1 689.4,254.1C688.2,254.1 687.2,253.7 686.5,253C685.8,252.3 685.4,251.3 685.4,250C685.4,249.5 685.5,249.1 685.6,248.7C685.7,248.3 685.9,247.8 686.1,247.4C686.3,247 686.6,246.6 686.9,246.4C687.2,246.1 687.6,245.9 688,245.7C688.4,245.5 688.9,245.4 689.4,245.4C689.9,245.4 690.4,245.5 690.8,245.7C691.2,245.9 691.6,246.1 691.9,246.4C692.2,246.7 692.5,247 692.7,247.4C692.9,247.8 693.1,248.2 693.2,248.7C693.3,249.1 693.4,249.6 693.4,250C693.4,251.2 693,252.2 692.3,253ZM688.9,242.8C688.7,243 688.5,243.1 688.2,243.1C687.9,243.1 687.7,243 687.5,242.8C687.3,242.6 687.2,242.4 687.2,242.1C687.2,241.8 687.3,241.6 687.5,241.4C687.7,241.2 687.9,241.1 688.2,241.1C688.5,241.1 688.7,241.2 688.9,241.4C689.1,241.6 689.2,241.8 689.2,242.1C689.1,242.4 689,242.6 688.9,242.8ZM687.7,251.7C688.1,252.2 688.7,252.4 689.4,252.4C690.2,252.4 690.7,252.2 691.1,251.7C691.5,251.2 691.7,250.7 691.7,250C691.7,249.6 691.7,249.3 691.6,249C691.5,248.7 691.4,248.3 691.2,248C691,247.7 690.8,247.5 690.5,247.3C690.2,247.1 689.8,247 689.5,247C689.1,247 688.8,247.1 688.5,247.3C688.2,247.5 688,247.7 687.8,248C687.6,248.3 687.5,248.6 687.4,249C687.3,249.4 687.3,249.7 687.3,250C687.2,250.7 687.4,251.3 687.7,251.7ZM691.5,242.8C691.3,243 691.1,243.1 690.8,243.1C690.5,243.1 690.3,243 690.1,242.8C689.9,242.6 689.8,242.4 689.8,242.1C689.8,241.8 689.9,241.6 690.1,241.4C690.3,241.2 690.5,241.1 690.8,241.1C691.1,241.1 691.3,241.2 691.5,241.4C691.7,241.6 691.8,241.8 691.8,242.1C691.8,242.4 691.7,242.6 691.5,242.8Z" style="fill:rgb(98,97,99);fill-rule:nonzero;"/>
            <path d="M699.8,252.4L703.4,252.4C703.5,252.4 703.6,252.4 703.7,252.5C703.8,252.6 703.8,252.6 703.8,252.8L703.8,253.6C703.8,253.8 703.7,254 703.4,254L696.1,254C695.9,254 695.7,253.9 695.7,253.6L695.7,252.8C695.7,252.7 695.7,252.6 695.8,252.5C695.9,252.4 696,252.4 696.1,252.4L698.2,252.4C697.5,251.6 697.2,250.8 697.2,249.9C697.2,249.1 697.5,248.4 698,247.8C698.6,247.3 699.3,247 700.2,247C701,247 701.8,247.2 702.5,247.6C702.7,247.7 702.8,247.9 702.7,248.1L702.4,248.7C702.3,249 702.1,249.1 701.9,248.9C701.3,248.6 700.8,248.5 700.3,248.5C699.8,248.5 699.4,248.6 699.1,248.9C698.8,249.2 698.7,249.5 698.7,250C698.7,250.4 698.8,250.8 699,251.2C699.2,251.7 699.4,252.1 699.8,252.4Z" style="fill:rgb(98,97,99);fill-rule:nonzero;"/>
            <path d="M708,239.8L708,250.8C708,251.4 708.1,251.8 708.3,252C708.5,252.2 708.9,252.3 709.5,252.3L710.1,252.3L710.1,254L709.2,254C708.3,254 707.6,253.8 707.2,253.4C706.8,253 706.6,252.4 706.6,251.7L706.6,240C706.6,239.9 706.6,239.8 706.7,239.7C706.7,239.6 706.8,239.6 706.9,239.6L707.8,239.5C707.9,239.4 708,239.5 708,239.8Z" style="fill:rgb(98,97,99);fill-rule:nonzero;"/>
            <path d="M709.8,252.3L711.2,252.3C712,252.3 712.6,252.3 713.1,252.2C712.5,251.7 712,251.1 711.6,250.5C711.2,249.9 711.1,249.2 711.1,248.6C711.1,247.7 711.5,246.9 712.2,246.3C712.9,245.7 713.9,245.3 715.1,245.3C716.3,245.3 717.3,245.6 718,246.3C718.7,247 719.1,247.7 719.1,248.6C719.1,249.2 718.9,249.8 718.6,250.5C718.2,251.1 717.7,251.7 717.1,252.2C717.6,252.3 718.3,252.3 719,252.3L720.2,252.3L720.2,254L719,254C717.6,254 716.3,253.8 715.2,253.3C714,253.8 712.7,254 711.4,254L710,254C709.8,254 709.7,253.9 709.6,253.8C709.5,253.7 709.4,253.5 709.4,253.1C709.4,252.8 709.5,252.5 709.6,252.4C709.5,252.3 709.6,252.3 709.8,252.3ZM717.4,248.7C717.4,248.2 717.2,247.8 716.8,247.4C716.4,247.1 715.8,246.9 715.1,246.9C714.4,246.9 713.8,247.1 713.4,247.4C713,247.7 712.8,248.2 712.8,248.7C712.8,249.2 713,249.7 713.4,250.2C713.8,250.7 714.4,251.2 715.1,251.6C715.9,251.2 716.5,250.8 716.8,250.2C717.2,249.6 717.4,249.1 717.4,248.7ZM715.8,242.8C715.6,243 715.4,243.1 715.1,243.1C714.8,243.1 714.6,243 714.4,242.8C714.2,242.6 714.1,242.4 714.1,242.1C714.1,241.8 714.2,241.6 714.4,241.4C714.6,241.2 714.8,241.1 715.1,241.1C715.4,241.1 715.6,241.2 715.8,241.4C716,241.6 716.1,241.8 716.1,242.1C716.1,242.4 716,242.6 715.8,242.8Z" style="fill:rgb(98,97,99);fill-rule:nonzero;"/>
            <path d="M719.9,252.3L724.1,252.3C725.6,252.3 726.3,251.8 726.3,250.9C726.3,250.2 725.8,249.4 724.7,248.7C723.6,248 722.1,247.2 720,246.6C719.8,246.5 719.6,246.4 719.6,246.2L719.6,245.4C719.6,245.2 719.7,245.1 719.8,245L725.8,239.7C726,239.5 726.2,239.5 726.3,239.7L726.9,240.4C727.1,240.6 727.1,240.7 726.9,240.9L721.5,245.7C723.7,246.5 725.3,247.3 726.3,248.2C727.4,249.1 727.9,250.1 727.9,251.3C727.9,251.8 727.8,252.2 727.7,252.5C727.5,252.8 727.3,253.1 727.1,253.3C726.9,253.5 726.5,253.7 726.2,253.8C725.8,253.9 725.5,254 725.2,254.1C724.9,254.2 724.5,254.2 724.1,254.2L720.1,254.2C719.9,254.2 719.8,254.1 719.7,254C719.6,253.9 719.5,253.7 719.5,253.3C719.5,253 719.6,252.7 719.7,252.6C719.6,252.3 719.7,252.3 719.9,252.3Z" style="fill:rgb(98,97,99);fill-rule:nonzero;"/>
            <path d="M740.3,245.4L740.3,244.7C740.3,244.6 740.3,244.5 740.4,244.4C740.5,244.3 740.5,244.3 740.6,244.3L741.5,244.2C741.8,244.2 741.9,244.3 741.9,244.5L741.9,250.6C741.9,251.2 742,251.6 742.3,251.9C742.6,252.2 743.1,252.3 743.8,252.3L743.9,252.3L743.9,254L743.5,254C742.7,254 742,253.9 741.5,253.6C741,253.3 740.6,253 740.4,252.5C739.7,252.8 738.9,253 738,253C737.6,253 737.2,253 736.8,252.9C736.4,252.8 736.1,252.7 735.8,252.5C735.5,252.3 735.2,252 735.1,251.7C734.9,251.4 734.8,251 734.8,250.5C734.8,249.5 735.3,248.6 736.2,247.7C737.1,246.7 738.5,246 740.3,245.4ZM740.3,250.9L740.3,246.9C739.1,247.3 738.2,247.8 737.5,248.3C736.8,248.9 736.5,249.5 736.5,250.1C736.5,250.4 736.6,250.7 736.9,250.9C737.2,251.1 737.6,251.2 738.2,251.2C738.9,251.3 739.6,251.1 740.3,250.9ZM740,241.6C739.8,241.8 739.6,241.9 739.3,241.9C739,241.9 738.8,241.8 738.6,241.6C738.4,241.4 738.3,241.2 738.3,240.9C738.3,240.6 738.4,240.4 738.6,240.2C738.8,240 739,239.9 739.3,239.9C739.6,239.9 739.8,240 740,240.2C740.2,240.4 740.3,240.6 740.3,240.9C740.3,241.2 740.2,241.5 740,241.6ZM742.7,241.6C742.5,241.8 742.3,241.9 742,241.9C741.7,241.9 741.5,241.8 741.3,241.6C741.1,241.4 741,241.2 741,240.9C741,240.6 741.1,240.4 741.3,240.2C741.5,240 741.7,239.9 742,239.9C742.3,239.9 742.5,240 742.7,240.2C742.9,240.4 743,240.6 743,240.9C743,241.2 742.9,241.5 742.7,241.6Z" style="fill:rgb(98,97,99);fill-rule:nonzero;"/>
            <path d="M743.4,252.3L745.3,252.3C745.9,252.3 746.2,252.2 746.4,252C746.6,251.8 746.7,251.4 746.7,250.8L746.7,246C746.7,245.9 746.7,245.8 746.8,245.7C746.9,245.6 747,245.6 747.1,245.6L747.9,245.6C748.2,245.6 748.3,245.7 748.3,246L748.3,251.4C748.8,251.9 749.5,252.2 750.3,252.2L750.5,252.2L750.5,253.9L750.3,253.9C749.3,253.9 748.6,253.5 748,252.8C747.6,253.5 746.8,253.9 745.6,253.9L743.8,253.9C743.6,253.9 743.5,253.8 743.4,253.7C743.3,253.6 743.2,253.4 743.2,253C743.2,252.7 743.3,252.4 743.4,252.3ZM745.6,242.4L746.4,242.4C746.1,242 746,241.6 746,241.2C746,240.7 746.2,240.3 746.5,240C746.8,239.7 747.3,239.6 747.8,239.6C748.3,239.6 748.8,239.7 749.2,240C749.3,240.1 749.4,240.2 749.3,240.3L749.2,240.7C749.2,240.8 749.1,240.8 749.1,240.8L748.9,240.8C748.6,240.6 748.2,240.6 747.9,240.6C747.6,240.6 747.4,240.7 747.2,240.9C747,241.1 746.9,241.3 746.9,241.6C746.9,242 747,242.3 747.3,242.7L749.5,242.7L749.5,243.4C749.5,243.6 749.4,243.6 749.3,243.6L745.5,243.6C745.4,243.6 745.3,243.5 745.3,243.4L745.3,242.7C745.3,242.6 745.5,242.4 745.6,242.4Z" style="fill:rgb(98,97,99);fill-rule:nonzero;"/>
            <path d="M751.2,258C751,258.2 750.8,258.3 750.5,258.3C750.2,258.3 750,258.2 749.8,258C749.6,257.8 749.5,257.6 749.5,257.3C749.5,257 749.6,256.8 749.8,256.6C750,256.4 750.2,256.3 750.5,256.3C750.8,256.3 751,256.4 751.2,256.6C751.4,256.8 751.5,257 751.5,257.3C751.5,257.6 751.4,257.8 751.2,258ZM750.3,252.3L751.9,252.3C752.5,252.3 752.8,252.2 753,252C753.2,251.8 753.3,251.4 753.3,250.8L753.3,246C753.3,245.9 753.3,245.8 753.4,245.7C753.5,245.6 753.6,245.6 753.7,245.6L754.5,245.6C754.8,245.6 754.9,245.7 754.9,246L754.9,251.4C755.4,251.9 756.1,252.2 756.9,252.2L757.1,252.2L757.1,253.9L756.9,253.9C755.9,253.9 755.2,253.5 754.6,252.8C754.2,253.5 753.4,253.9 752.2,253.9L750.4,253.9C750.2,253.9 750.1,253.8 750,253.7C749.9,253.6 749.8,253.4 749.8,253C749.8,252.7 749.9,252.4 750,252.3C749.9,252.3 750.1,252.3 750.3,252.3ZM753.9,258C753.7,258.2 753.5,258.3 753.2,258.3C752.9,258.3 752.7,258.2 752.5,258C752.3,257.8 752.2,257.6 752.2,257.3C752.2,257 752.3,256.8 752.5,256.6C752.7,256.4 752.9,256.3 753.2,256.3C753.5,256.3 753.7,256.4 753.9,256.6C754.1,256.8 754.2,257 754.2,257.3C754.2,257.6 754.1,257.8 753.9,258Z" style="fill:rgb(98,97,99);fill-rule:nonzero;"/>
            <path d="M756.8,252.3L757.3,252.3C758.8,252.3 760.2,252.1 761.4,251.8C760.2,250.7 759.6,249.6 759.6,248.5C759.6,247.9 759.8,247.4 760.1,246.9C760.4,246.4 760.8,246.1 761.3,245.9L760.4,245.6C760.1,245.5 760,245.4 760.1,245.2L760.5,244.4C760.6,244.2 760.7,244.1 760.9,244.2C762.1,244.5 763.2,245 764.3,245.5C765.4,246 766.3,246.7 767.1,247.3C767.9,248 768.6,248.7 769,249.5C769.5,250.3 769.7,251.1 769.7,251.8C769.7,252.5 769.5,253.1 769,253.5C768.5,253.9 767.9,254.1 767,254.1C766.4,254.1 765.7,254 765,253.8C764.3,253.6 763.6,253.3 762.9,252.9C761.3,253.6 759.4,254 757.2,254L756.7,254C756.5,254 756.4,253.9 756.3,253.8C756.2,253.7 756.1,253.5 756.1,253.1C756.1,252.8 756.2,252.5 756.3,252.4C756.5,252.3 756.6,252.3 756.8,252.3ZM764.6,249.8C765,249.3 765.1,248.9 765.1,248.4C765.1,247.9 764.9,247.6 764.4,247.2C763.9,246.8 763.4,246.7 762.8,246.7C762.3,246.7 761.9,246.8 761.6,247.1C761.3,247.4 761.1,247.8 761.1,248.2C761.1,248.6 761.3,249.1 761.6,249.5C761.9,250 762.4,250.4 763.1,250.9C763.7,250.7 764.2,250.3 764.6,249.8ZM766.9,252.4C767.8,252.4 768.2,252.1 768.2,251.4C768.2,251 768,250.5 767.7,250C767.4,249.4 766.9,248.9 766.4,248.5L766.4,248.7C766.4,249.2 766.2,249.8 765.9,250.3C765.6,250.9 765.1,251.4 764.6,251.8C765.4,252.2 766.2,252.4 766.9,252.4Z" style="fill:rgb(98,97,99);fill-rule:nonzero;"/>
        </g>
        <g>
            <path d="M450.9,268.3L450.9,272.3L455.2,272.3C455.3,272.3 455.4,272.3 455.5,272.4C455.6,272.5 455.6,272.5 455.6,272.6L455.6,273.3C455.6,273.4 455.6,273.5 455.5,273.5C455.4,273.5 455.4,273.6 455.2,273.6L450.9,273.6L450.9,278.1L455.9,278.1C456,278.1 456.1,278.1 456.2,278.2C456.3,278.2 456.3,278.3 456.3,278.4L456.3,279.1C456.3,279.2 456.3,279.3 456.2,279.3C456.1,279.3 456.1,279.4 455.9,279.4L449.6,279.4C449.3,279.4 449.2,279.3 449.2,279L449.2,267.4C449.2,267.1 449.3,267 449.6,267L455.9,267C456.1,267 456.2,267.1 456.2,267.3L456.1,268C456.1,268.1 456,268.2 456,268.2C456,268.2 455.8,268.3 455.7,268.3L450.9,268.3Z" style="fill:rgb(98,97,99);fill-rule:nonzero;"/>
            <path d="M461.4,273.7L463.3,271C463.4,270.8 463.6,270.8 463.8,270.8L464.8,270.8C464.9,270.8 465,270.8 465,270.9C465,271 465,271.1 464.9,271.2L462.2,274.9L465.1,279.2C465.2,279.3 465.2,279.4 465.2,279.5C465.2,279.6 465.1,279.6 464.9,279.6L463.8,279.6C463.5,279.6 463.3,279.5 463.2,279.3L461.2,276.1L459.1,279.3C459,279.5 458.8,279.6 458.6,279.6L457.6,279.6C457.5,279.6 457.5,279.6 457.4,279.5C457.3,279.4 457.4,279.3 457.5,279.3L460.5,275.1L457.9,271.3C457.8,271.2 457.8,271.1 457.9,271.1C457.9,271 458,271 458.1,271L459.2,271C459.4,271 459.6,271.1 459.7,271.2L461.4,273.7Z" style="fill:rgb(98,97,99);fill-rule:nonzero;"/>
            <path d="M474.5,275C474.5,275.6 474.4,276.2 474.3,276.7C474.1,277.2 473.9,277.7 473.6,278.2C473.3,278.6 472.9,279 472.4,279.2C471.9,279.5 471.3,279.6 470.7,279.6C470.2,279.6 469.8,279.5 469.4,279.3C469,279.1 468.6,278.9 468.4,278.6L468.4,282.9C468.4,283.2 468.3,283.3 468,283.3L467.2,283.3C467,283.3 466.8,283.2 466.8,282.9L466.8,271C466.8,270.9 466.8,270.8 466.9,270.7C467,270.6 467,270.6 467.2,270.6L467.9,270.6C468.1,270.6 468.2,270.7 468.2,270.9L468.2,271.5C468.5,271.2 468.9,270.9 469.4,270.7C469.9,270.5 470.4,270.4 470.9,270.4C471.5,270.4 472.1,270.5 472.6,270.8C473.1,271 473.5,271.4 473.8,271.8C474.1,272.2 474.3,272.7 474.5,273.2L474.5,275ZM472.8,276.2C472.9,275.8 472.9,275.4 472.9,275C472.9,274.6 472.9,274.2 472.8,273.8C472.7,273.4 472.6,273.1 472.4,272.8C472.2,272.5 472,272.2 471.7,272C471.4,271.8 471,271.7 470.5,271.7C470.1,271.7 469.6,271.8 469.2,272C468.8,272.2 468.4,272.5 468.2,272.8L468.2,277C468.4,277.4 468.7,277.7 469.1,277.9C469.5,278.1 469.9,278.3 470.4,278.3C470.8,278.3 471.2,278.2 471.6,278C471.9,277.8 472.2,277.5 472.4,277.2C472.6,276.9 472.7,276.6 472.8,276.2Z" style="fill:rgb(98,97,99);fill-rule:nonzero;"/>
            <path d="M483.1,275.3L477.6,275.3C477.6,276.2 477.9,276.9 478.4,277.5C478.9,278.1 479.6,278.4 480.4,278.4C481.3,278.4 482,278.3 482.6,278C482.8,277.9 482.9,277.9 483,278.1L483.2,278.7L483.2,278.9C483.2,279 483.1,279 483,279.1C482.3,279.4 481.4,279.6 480.1,279.6C478.8,279.6 477.7,279.2 477,278.4C476.3,277.6 475.9,276.5 475.9,275.1C475.9,273.8 476.3,272.7 477,271.8C477.7,271 478.8,270.5 480,270.5C480.6,270.5 481.1,270.6 481.5,270.8C482,271 482.3,271.3 482.6,271.6C482.9,272 483.1,272.4 483.3,272.8C483.4,273.3 483.5,273.8 483.5,274.3L483.5,274.8C483.5,275 483.5,275.1 483.4,275.2C483.5,275.2 483.4,275.3 483.1,275.3ZM477.6,274.2L482.1,274.2L482.1,273.9C482.1,273.3 481.9,272.7 481.6,272.3C481.3,271.9 480.7,271.7 480.1,271.7C479.4,271.7 478.8,271.9 478.4,272.4C478,272.9 477.7,273.5 477.6,274.2Z" style="fill:rgb(98,97,99);fill-rule:nonzero;"/>
            <path d="M487,272.8L487,279C487,279.3 486.9,279.4 486.6,279.4L485.8,279.4C485.6,279.4 485.4,279.3 485.4,279L485.4,271C485.4,270.9 485.4,270.8 485.5,270.7C485.6,270.6 485.6,270.6 485.8,270.6L486.6,270.6C486.8,270.6 486.9,270.7 486.9,270.9L486.9,271.5C487.3,271.2 487.8,270.9 488.3,270.7C488.8,270.5 489.3,270.4 489.9,270.4C491.8,270.4 492.8,271.5 492.8,273.6L492.8,278.9C492.8,279.2 492.7,279.3 492.4,279.3L491.6,279.3C491.4,279.3 491.2,279.2 491.2,278.9L491.2,273.9C491.2,273.6 491.2,273.3 491.1,273C491.1,272.8 491,272.5 490.8,272.3C490.7,272.1 490.5,271.9 490.3,271.8C490.1,271.7 489.8,271.6 489.4,271.6C489,271.6 488.6,271.7 488.1,271.9C487.7,272.3 487.3,272.5 487,272.8Z" style="fill:rgb(98,97,99);fill-rule:nonzero;"/>
            <path d="M501,278.4C500.7,278.7 500.3,279 499.8,279.2C499.3,279.4 498.8,279.5 498.3,279.5C497.7,279.5 497.1,279.4 496.6,279.1C496.1,278.9 495.7,278.5 495.4,278.1C495.1,277.7 494.9,277.2 494.7,276.7C494.6,276.2 494.5,275.6 494.5,275C494.5,273.7 494.9,272.6 495.6,271.7C496.3,270.8 497.3,270.4 498.4,270.4C498.8,270.4 499.3,270.5 499.7,270.7C500.1,270.9 500.5,271.1 500.7,271.4L500.7,267C500.7,266.9 500.7,266.8 500.8,266.7C500.8,266.6 500.9,266.6 501,266.6L501.9,266.5C502.1,266.5 502.3,266.6 502.3,266.8L502.3,279C502.3,279.3 502.2,279.4 501.9,279.4L501.2,279.4C501.1,279.4 501,279.4 500.9,279.3C500.8,279.2 500.8,279.2 500.8,279L501,278.4ZM500.9,277.2L500.9,273C500.7,272.6 500.4,272.4 500,272.1C499.6,271.9 499.2,271.7 498.8,271.7C498,271.7 497.4,272 496.9,272.6C496.4,273.2 496.2,274 496.2,275C496.2,276 496.4,276.8 496.8,277.4C497.2,278 497.8,278.3 498.6,278.3C499,278.3 499.4,278.2 499.9,278C500.4,277.8 500.7,277.5 500.9,277.2Z" style="fill:rgb(98,97,99);fill-rule:nonzero;"/>
            <path d="M505.1,267.9C505.3,267.7 505.5,267.7 505.8,267.7C506.1,267.7 506.3,267.8 506.5,267.9C506.7,268.1 506.8,268.3 506.8,268.5C506.8,268.8 506.7,269 506.5,269.1C506.3,269.3 506.1,269.3 505.8,269.3C505.5,269.3 505.3,269.2 505.1,269.1C504.9,268.9 504.8,268.7 504.8,268.5C504.9,268.3 504.9,268.1 505.1,267.9ZM506.6,271L506.6,279C506.6,279.3 506.5,279.4 506.2,279.4L505.4,279.4C505.2,279.4 505,279.3 505,279L505,271C505,270.8 505.1,270.6 505.4,270.6L506.2,270.6C506.4,270.7 506.6,270.8 506.6,271Z" style="fill:rgb(98,97,99);fill-rule:nonzero;"/>
            <path d="M509.5,270.7L509.5,268.7C509.5,268.6 509.5,268.5 509.6,268.4C509.7,268.3 509.7,268.3 509.8,268.3L510.7,268.2C510.9,268.2 511.1,268.3 511.1,268.5L511.1,270.7L513.2,270.7C513.3,270.7 513.4,270.7 513.4,270.8C513.4,270.8 513.5,270.9 513.5,271L513.5,271.5C513.5,271.6 513.5,271.7 513.4,271.7C513.3,271.7 513.3,271.8 513.2,271.8L511,271.8L511,276.7C511,277.3 511.1,277.8 511.3,278C511.5,278.3 511.8,278.4 512.3,278.4C512.7,278.4 513,278.3 513.4,278.2C513.6,278.1 513.7,278.2 513.8,278.4L514,278.9L514,279.1C514,279.1 513.9,279.2 513.8,279.2C513.2,279.4 512.7,279.5 512.1,279.5C511.6,279.5 511.2,279.4 510.8,279.3C510.4,279.2 510.2,279 510,278.7C509.8,278.4 509.7,278.2 509.6,277.8C509.5,277.5 509.5,277.1 509.5,276.6L509.5,271.6L508.5,271.6C508.4,271.6 508.3,271.6 508.3,271.5C508.3,271.4 508.2,271.4 508.2,271.3L508.2,271C508.2,270.9 508.2,270.8 508.3,270.8C508.3,270.8 508.4,270.7 508.5,270.7L509.5,270.7Z" style="fill:rgb(98,97,99);fill-rule:nonzero;"/>
            <path d="M521,277.2L521,271C521,270.8 521.1,270.6 521.4,270.6L522.2,270.6C522.4,270.6 522.5,270.7 522.5,271L522.5,279C522.5,279.1 522.5,279.2 522.4,279.3C522.3,279.4 522.3,279.4 522.1,279.4L521.3,279.4C521.1,279.4 521,279.3 521,279.1L521,278.5C520.2,279.2 519.2,279.6 518.2,279.6C516.3,279.6 515.4,278.5 515.4,276.3L515.4,271C515.4,270.8 515.5,270.6 515.8,270.6L516.6,270.6C516.8,270.6 516.9,270.7 516.9,271L516.9,276C516.9,276.7 517,277.3 517.3,277.6C517.5,278 518,278.2 518.7,278.2C519.1,278.2 519.5,278.1 519.9,277.9C520.3,277.7 520.7,277.5 521,277.2Z" style="fill:rgb(98,97,99);fill-rule:nonzero;"/>
            <path d="M526.5,272.9L526.5,279C526.5,279.3 526.4,279.4 526.1,279.4L525.3,279.4C525.1,279.4 524.9,279.3 524.9,279L524.9,271C524.9,270.9 524.9,270.8 525,270.7C525.1,270.6 525.1,270.6 525.3,270.6L526.1,270.6C526.3,270.6 526.4,270.7 526.4,270.9L526.4,271.5C526.9,270.7 527.6,270.4 528.5,270.4C528.7,270.4 528.9,270.4 529,270.5C529.1,270.6 529.1,270.6 529.1,270.8L529,271.6C529,271.7 528.9,271.8 528.7,271.8L528.2,271.8C527.9,271.8 527.6,271.9 527.2,272.1C527.1,272.3 526.8,272.5 526.5,272.9Z" style="fill:rgb(98,97,99);fill-rule:nonzero;"/>
            <path d="M537.1,275.3L531.6,275.3C531.6,276.2 531.9,276.9 532.4,277.5C532.9,278.1 533.6,278.4 534.4,278.4C535.3,278.4 536,278.3 536.6,278C536.8,277.9 536.9,277.9 537,278.1L537.2,278.7L537.2,278.9C537.2,279 537.1,279 537,279.1C536.3,279.4 535.4,279.6 534.1,279.6C532.8,279.6 531.7,279.2 531,278.4C530.3,277.6 529.9,276.5 529.9,275.1C529.9,273.8 530.3,272.7 531,271.8C531.7,271 532.8,270.5 534,270.5C534.6,270.5 535.1,270.6 535.5,270.8C536,271 536.3,271.3 536.6,271.6C536.9,272 537.1,272.4 537.3,272.8C537.5,273.3 537.5,273.8 537.5,274.3L537.5,274.8C537.5,275 537.5,275.1 537.4,275.2C537.3,275.3 537.3,275.3 537.1,275.3ZM531.6,274.2L536.1,274.2L536.1,273.9C536.1,273.3 535.9,272.7 535.6,272.3C535.3,271.9 534.7,271.7 534.1,271.7C533.4,271.7 532.8,271.9 532.4,272.4C531.9,272.9 531.7,273.5 531.6,274.2Z" style="fill:rgb(98,97,99);fill-rule:nonzero;"/>
            <path d="M545.5,268.3L545.5,272.3L549.8,272.3C549.9,272.3 550,272.3 550.1,272.4C550.2,272.5 550.2,272.5 550.2,272.6L550.2,273.3C550.2,273.4 550.2,273.5 550.1,273.5C550,273.5 550,273.6 549.8,273.6L545.5,273.6L545.5,278.1L550.5,278.1C550.6,278.1 550.7,278.1 550.8,278.2C550.9,278.3 550.9,278.3 550.9,278.4L550.9,279.1C550.9,279.2 550.9,279.3 550.8,279.3C550.7,279.3 550.7,279.4 550.5,279.4L544.2,279.4C543.9,279.4 543.8,279.3 543.8,279L543.8,267.4C543.8,267.1 543.9,267 544.2,267L550.5,267C550.7,267 550.8,267.1 550.8,267.3L550.7,268C550.7,268.1 550.6,268.2 550.6,268.2C550.5,268.2 550.4,268.3 550.3,268.3L545.5,268.3Z" style="fill:rgb(98,97,99);fill-rule:nonzero;"/>
            <path d="M554.8,270.7L557,270.7C557.1,270.7 557.2,270.7 557.2,270.8C557.2,270.8 557.3,270.9 557.3,271L557.3,271.5C557.3,271.6 557.3,271.7 557.2,271.7C557.1,271.7 557.1,271.8 557,271.8L554.8,271.8L554.8,279C554.8,279.3 554.7,279.4 554.4,279.4L553.6,279.4C553.4,279.4 553.2,279.3 553.2,279L553.2,271.8L552.2,271.8C552.1,271.8 552,271.8 552,271.7C552,271.6 551.9,271.6 551.9,271.5L551.9,271C551.9,270.9 551.9,270.8 552,270.8C552,270.8 552.1,270.7 552.2,270.7L553.2,270.7L553.2,270.4C553.2,269.9 553.2,269.4 553.3,269C553.4,268.2 553.7,267.6 554.2,267.1C554.7,266.6 555.3,266.4 556.2,266.4C556.9,266.4 557.4,266.5 557.9,266.7C558,266.7 558.1,266.8 558.1,266.9L558.1,267.1L557.9,267.7C557.9,267.9 557.7,267.9 557.5,267.9C557.1,267.8 556.7,267.7 556.4,267.7C555.8,267.7 555.4,267.9 555.2,268.3C555,268.7 554.9,269.2 554.9,270L554.9,270.7L554.8,270.7Z" style="fill:rgb(98,97,99);fill-rule:nonzero;"/>
            <path d="M560.8,270.7L565.4,270.7C565.6,270.7 565.7,270.8 565.7,271.1L565.7,279.1C565.7,279.4 565.6,279.5 565.3,279.5L564.5,279.5C564.3,279.5 564.1,279.4 564.1,279.1L564.1,271.9L561,271.9L561,279.1C561,279.4 560.9,279.5 560.6,279.5L559.8,279.5C559.6,279.5 559.4,279.4 559.4,279.1L559.4,271.9L558.4,271.9C558.3,271.9 558.2,271.9 558.2,271.8C558.2,271.7 558.1,271.7 558.1,271.6L558.1,271C558.1,270.9 558.1,270.8 558.2,270.8C558.2,270.8 558.3,270.7 558.4,270.7L559.4,270.7L559.4,270.4C559.4,269.3 559.6,268.4 560.1,267.8C560.7,266.9 561.6,266.5 562.9,266.5C563.8,266.5 564.5,266.6 565,266.8C565.1,266.9 565.2,266.9 565.2,267L565.2,267.2L565,267.8C565,268 564.8,268 564.6,268C564.1,267.8 563.5,267.8 562.9,267.8C561.5,267.8 560.8,268.7 560.8,270.5L560.8,270.7Z" style="fill:rgb(98,97,99);fill-rule:nonzero;"/>
            <path d="M574.5,271.4L574.3,272C574.2,272.2 574.1,272.2 573.9,272.2C573.3,271.9 572.7,271.8 572.1,271.8C571.2,271.8 570.6,272.1 570.1,272.7C569.6,273.3 569.3,274.1 569.3,275.1C569.3,275.6 569.4,276 569.5,276.4C569.6,276.8 569.8,277.2 570,277.5C570.2,277.8 570.5,278.1 570.8,278.3C571.2,278.5 571.6,278.6 572,278.6C572.7,278.6 573.4,278.5 574,278.2C574.2,278.1 574.3,278.2 574.4,278.3L574.6,278.8L574.6,279.1C574.6,279.2 574.5,279.2 574.4,279.3C573.7,279.6 572.9,279.8 572,279.8C571.1,279.8 570.3,279.6 569.7,279.2C569.1,278.8 568.6,278.3 568.3,277.6C568,276.9 567.9,276.1 567.9,275.2C567.9,273.9 568.3,272.8 569.1,271.9C569.9,271.1 570.9,270.6 572.2,270.6C573.1,270.6 573.8,270.8 574.5,271.1C574.5,271.1 574.6,271.2 574.5,271.4Z" style="fill:rgb(98,97,99);fill-rule:nonzero;"/>
            <path d="M576.4,267.9C576.6,267.7 576.8,267.7 577.1,267.7C577.4,267.7 577.6,267.8 577.8,267.9C578,268.1 578.1,268.3 578.1,268.5C578.1,268.8 578,269 577.8,269.1C577.6,269.2 577.4,269.3 577.1,269.3C576.8,269.3 576.6,269.2 576.4,269.1C576.2,268.9 576.1,268.7 576.1,268.5C576.1,268.3 576.2,268.1 576.4,267.9ZM577.8,271L577.8,279C577.8,279.3 577.7,279.4 577.4,279.4L576.6,279.4C576.4,279.4 576.2,279.3 576.2,279L576.2,271C576.2,270.8 576.3,270.6 576.6,270.6L577.4,270.6C577.7,270.7 577.8,270.8 577.8,271Z" style="fill:rgb(98,97,99);fill-rule:nonzero;"/>
            <path d="M587,275.3L581.5,275.3C581.5,276.2 581.8,276.9 582.3,277.5C582.8,278.1 583.5,278.4 584.3,278.4C585.2,278.4 585.9,278.3 586.5,278C586.7,277.9 586.8,277.9 586.9,278.1L587.1,278.7L587.1,278.9C587.1,278.9 587,279 586.9,279.1C586.2,279.4 585.3,279.6 584,279.6C582.7,279.6 581.6,279.2 580.9,278.4C580.2,277.6 579.8,276.5 579.8,275.1C579.8,273.8 580.2,272.7 580.9,271.8C581.6,271 582.7,270.5 583.9,270.5C584.5,270.5 585,270.6 585.4,270.8C585.9,271 586.2,271.3 586.5,271.6C586.8,272 587,272.4 587.2,272.8C587.3,273.3 587.4,273.8 587.4,274.3L587.4,274.8C587.4,275 587.4,275.1 587.3,275.2C587.2,275.3 587.2,275.3 587,275.3ZM581.5,274.2L586,274.2L586,273.9C586,273.3 585.8,272.7 585.5,272.3C585.1,271.9 584.6,271.7 584,271.7C583.3,271.7 582.7,271.9 582.3,272.4C581.9,272.9 581.6,273.5 581.5,274.2Z" style="fill:rgb(98,97,99);fill-rule:nonzero;"/>
            <path d="M590.9,272.8L590.9,279C590.9,279.3 590.8,279.4 590.5,279.4L589.7,279.4C589.5,279.4 589.3,279.3 589.3,279L589.3,271C589.3,270.9 589.3,270.8 589.4,270.7C589.5,270.6 589.5,270.6 589.7,270.6L590.5,270.6C590.7,270.6 590.8,270.7 590.8,270.9L590.8,271.5C591.2,271.2 591.7,270.9 592.2,270.7C592.7,270.5 593.2,270.4 593.8,270.4C595.7,270.4 596.7,271.5 596.7,273.6L596.7,278.9C596.7,279.2 596.6,279.3 596.3,279.3L595.5,279.3C595.3,279.3 595.1,279.2 595.1,278.9L595.1,273.9C595.1,273.6 595.1,273.3 595,273C594.9,272.8 594.9,272.5 594.7,272.3C594.6,272.1 594.4,271.9 594.2,271.8C594,271.7 593.7,271.6 593.3,271.6C592.9,271.6 592.5,271.7 592,271.9C591.5,272.1 591.2,272.5 590.9,272.8Z" style="fill:rgb(98,97,99);fill-rule:nonzero;"/>
            <path d="M605.3,271.4L605.1,272C605,272.2 604.9,272.2 604.7,272.2C604.1,271.9 603.5,271.8 602.9,271.8C602,271.8 601.4,272.1 600.9,272.7C600.4,273.3 600.1,274.1 600.1,275.1C600.1,275.6 600.2,276 600.3,276.4C600.4,276.8 600.6,277.2 600.8,277.5C601,277.8 601.3,278.1 601.6,278.3C602,278.5 602.4,278.6 602.8,278.6C603.5,278.6 604.2,278.5 604.8,278.2C605,278.1 605.1,278.2 605.2,278.3L605.4,278.8L605.4,279.1C605.4,279.2 605.3,279.2 605.2,279.3C604.5,279.6 603.7,279.8 602.8,279.8C601.9,279.8 601.1,279.6 600.5,279.2C599.9,278.8 599.4,278.3 599.1,277.6C598.8,276.9 598.7,276.1 598.7,275.2C598.7,273.9 599.1,272.8 599.9,271.9C600.7,271.1 601.7,270.6 603,270.6C603.9,270.6 604.6,270.8 605.3,271.1C605.4,271.1 605.4,271.2 605.3,271.4Z" style="fill:rgb(98,97,99);fill-rule:nonzero;"/>
            <path d="M610.2,277.7L612.5,271C612.5,270.9 612.6,270.8 612.7,270.8C612.8,270.8 612.9,270.7 613,270.7L613.9,270.7C614.1,270.7 614.2,270.8 614.1,271.1L610.6,280.5C610.2,281.6 609.7,282.3 609.2,282.8C608.7,283.2 607.9,283.5 607,283.5C606.7,283.5 606.5,283.5 606.2,283.4C606,283.4 606,283.3 606,283.1L606.1,282.4C606.1,282.2 606.2,282.2 606.4,282.2C606.7,282.2 607,282.3 607.1,282.3C607.6,282.3 608,282.2 608.3,282C608.6,281.8 608.9,281.4 609.1,281L609.5,279.9L606.3,271.4L606.3,271.2C606.3,271.1 606.4,271.1 606.5,271.1L607.5,271.1C607.7,271.1 607.9,271.2 607.9,271.3L610.2,277.7Z" style="fill:rgb(98,97,99);fill-rule:nonzero;"/>
            <path d="M627,277.9C625.8,279 624.5,279.5 622.9,279.5C621.8,279.5 620.9,279.2 620.2,278.6C619.5,278 619.1,277.1 619.1,276.1C619.1,275.7 619.2,275.4 619.3,275.1C619.4,274.8 619.6,274.5 619.7,274.2C619.9,274 620.1,273.7 620.4,273.4C620.7,273.1 621,272.9 621.2,272.8C621.4,272.6 621.7,272.4 622.1,272.2L621.5,271.5C621.2,271.1 620.9,270.7 620.7,270.4C620.5,270.1 620.4,269.7 620.4,269.2C620.4,268.5 620.7,267.9 621.2,267.4C621.7,266.9 622.4,266.7 623.2,266.7C624,266.7 624.7,266.9 625.2,267.4C625.7,267.9 626,268.5 626,269.2C626,269.5 625.9,269.8 625.8,270.1C625.7,270.4 625.5,270.7 625.3,270.9C625.1,271.2 624.9,271.4 624.6,271.6C624.4,271.8 624.1,272 623.8,272.2L626.9,275.9C627.3,275.4 627.6,274.8 627.8,274.1C628.1,273.4 628.2,272.7 628.3,271.9C628.3,271.8 628.3,271.7 628.4,271.7C628.5,271.7 628.5,271.6 628.6,271.6L629.4,271.6C629.6,271.6 629.6,271.7 629.6,271.8C629.6,272.6 629.4,273.5 629.1,274.4C628.8,275.3 628.3,276.1 627.8,276.7C628.4,277.3 629.2,277.8 630.1,278.1C630.2,278.1 630.3,278.2 630.3,278.3L630.3,278.6L630.1,279.2C630.1,279.3 630,279.4 629.9,279.4L629.6,279.4C629.1,279.3 628.6,279.1 628.1,278.8C627.6,278.5 627.4,278.3 627,277.9ZM626.2,277L622.9,273.1C622.2,273.6 621.7,274 621.4,274.5C621,275 620.9,275.5 620.9,276C620.9,276.7 621.1,277.2 621.6,277.7C622.1,278.1 622.6,278.3 623.3,278.3C624.4,278.3 625.4,277.8 626.2,277ZM623.3,271.4C623.8,271.1 624.1,270.7 624.4,270.4C624.7,270.1 624.8,269.7 624.8,269.3C624.8,268.9 624.7,268.5 624.4,268.3C624.2,268.1 623.8,267.9 623.4,267.9C623,267.9 622.7,268 622.4,268.3C622.1,268.5 622,268.9 622,269.3C622,269.8 622.3,270.3 622.8,270.9L623.3,271.4Z" style="fill:rgb(98,97,99);fill-rule:nonzero;"/>
            <path d="M643.8,270.8C643.8,271.5 643.7,272.1 643.5,272.6C643.3,273.1 642.9,273.5 642.5,273.8C642.1,274.1 641.6,274.3 641,274.5C640.4,274.7 639.8,274.7 639.1,274.7L638,274.7L638,279C638,279.2 637.9,279.4 637.7,279.4L636.7,279.4C636.6,279.4 636.5,279.4 636.4,279.3C636.3,279.2 636.3,279.2 636.3,279L636.3,267.4C636.3,267.1 636.4,267 636.7,267L639,267C639.7,267 640.3,267.1 640.9,267.2C641.5,267.3 642,267.6 642.4,267.8C642.8,268.1 643.2,268.5 643.4,269C643.6,269.5 643.8,270.1 643.8,270.8ZM638,268.2L638,273.4L639.1,273.4C640,273.4 640.8,273.2 641.3,272.8C641.8,272.4 642.1,271.7 642.1,270.8C642.1,269.9 641.8,269.2 641.3,268.8C640.8,268.4 640,268.2 639,268.2L638,268.2Z" style="fill:rgb(98,97,99);fill-rule:nonzero;"/>
            <path d="M647,272.9L647,279C647,279.3 646.9,279.4 646.6,279.4L645.8,279.4C645.6,279.4 645.4,279.3 645.4,279L645.4,271C645.4,270.9 645.4,270.8 645.5,270.7C645.6,270.6 645.6,270.6 645.8,270.6L646.6,270.6C646.8,270.6 646.9,270.7 646.9,270.9L646.9,271.5C647.4,270.7 648.1,270.4 649,270.4C649.2,270.4 649.4,270.4 649.5,270.5C649.6,270.5 649.6,270.6 649.6,270.8L649.5,271.6C649.5,271.7 649.4,271.8 649.2,271.8L648.7,271.8C648.4,271.8 648.1,271.9 647.7,272.1C647.6,272.3 647.3,272.5 647,272.9Z" style="fill:rgb(98,97,99);fill-rule:nonzero;"/>
            <path d="M658.6,275C658.6,275.9 658.4,276.6 658.1,277.3C657.8,278 657.3,278.5 656.7,278.9C656.1,279.3 655.3,279.5 654.4,279.5C653.7,279.5 653.1,279.4 652.6,279.2C652.1,279 651.7,278.6 651.3,278.2C651,277.8 650.7,277.3 650.6,276.8C650.5,276.3 650.4,275.7 650.4,275C650.4,274.1 650.6,273.4 650.9,272.7C651.2,272 651.7,271.5 652.3,271.1C652.9,270.7 653.7,270.5 654.6,270.5C655.5,270.5 656.3,270.7 656.9,271.1C657.5,271.5 658,272 658.3,272.7C658.4,273.3 658.6,274.1 658.6,275ZM656.8,276.3C656.9,275.9 656.9,275.5 656.9,275.1C656.9,274.7 656.9,274.2 656.8,273.9C656.7,273.5 656.6,273.2 656.4,272.8C656.2,272.5 656,272.2 655.6,272C655.3,271.8 654.9,271.7 654.4,271.7C654,271.7 653.7,271.8 653.4,271.9C653.1,272 652.9,272.2 652.7,272.4C652.5,272.6 652.4,272.9 652.2,273.2C652.1,273.5 652,273.8 651.9,274.1C651.9,274.4 651.8,274.7 651.8,275.1C651.8,275.4 651.8,275.8 651.9,276.1C651.9,276.4 652,276.7 652.2,277C652.3,277.3 652.5,277.6 652.7,277.8C652.9,278 653.1,278.2 653.4,278.3C653.7,278.4 654,278.5 654.4,278.5C654.9,278.5 655.2,278.4 655.6,278.2C655.9,278 656.2,277.8 656.4,277.4C656.6,277 656.8,276.7 656.8,276.3Z" style="fill:rgb(98,97,99);fill-rule:nonzero;"/>
            <path d="M662.6,271L662.6,278.9C662.6,279.4 662.6,279.9 662.5,280.4C662.4,280.8 662.3,281.2 662.2,281.6C662,282 661.8,282.3 661.6,282.5C661.4,282.7 661,282.9 660.6,283.1C660.2,283.2 659.7,283.3 659.2,283.3C658.8,283.3 658.5,283.3 658.2,283.2C658.1,283.2 658,283.1 658,283.1L658,282.9L658.1,282.2C658.1,282 658.2,282 658.4,282C658.7,282.1 659,282.1 659.3,282.1C659.6,282.1 659.9,282 660.1,281.9C660.3,281.8 660.5,281.7 660.6,281.5C660.7,281.3 660.8,281.1 660.9,280.8C661,280.5 661,280.3 661,280L661,271C661,270.8 661.1,270.7 661.3,270.7L662.2,270.7C662.5,270.7 662.6,270.8 662.6,271ZM661.2,267.9C661.4,267.7 661.6,267.7 661.9,267.7C662.2,267.7 662.4,267.8 662.6,267.9C662.8,268.1 662.9,268.3 662.9,268.5C662.9,268.8 662.8,269 662.6,269.1C662.4,269.3 662.2,269.3 661.9,269.3C661.6,269.3 661.4,269.2 661.2,269.1C661,268.9 660.9,268.7 660.9,268.5C661,268.3 661,268.1 661.2,267.9Z" style="fill:rgb(98,97,99);fill-rule:nonzero;"/>
            <path d="M671.9,275.3L666.4,275.3C666.4,276.2 666.7,276.9 667.2,277.5C667.7,278.1 668.4,278.4 669.2,278.4C670.1,278.4 670.8,278.3 671.4,278C671.6,277.9 671.7,277.9 671.8,278.1L672,278.7L672,278.9C672,278.9 671.9,279 671.8,279.1C671.1,279.4 670.2,279.6 668.9,279.6C667.6,279.6 666.5,279.2 665.8,278.4C665.1,277.6 664.7,276.5 664.7,275.1C664.7,273.8 665.1,272.7 665.8,271.8C666.5,271 667.6,270.5 668.8,270.5C669.4,270.5 669.9,270.6 670.3,270.8C670.8,271 671.1,271.3 671.4,271.6C671.7,272 671.9,272.4 672.1,272.8C672.2,273.3 672.3,273.8 672.3,274.3L672.3,274.8C672.3,275 672.3,275.1 672.2,275.2C672.1,275.3 672.1,275.3 671.9,275.3ZM666.4,274.2L670.9,274.2L670.9,273.9C670.9,273.3 670.7,272.7 670.4,272.3C670,271.9 669.5,271.7 668.9,271.7C668.2,271.7 667.6,271.9 667.2,272.4C666.8,272.9 666.4,273.5 666.4,274.2Z" style="fill:rgb(98,97,99);fill-rule:nonzero;"/>
            <path d="M680.5,271.4L680.3,272C680.2,272.2 680.1,272.2 679.9,272.2C679.3,271.9 678.7,271.8 678.1,271.8C677.2,271.8 676.6,272.1 676.1,272.7C675.6,273.3 675.3,274.1 675.3,275.1C675.3,275.6 675.4,276 675.5,276.4C675.6,276.8 675.8,277.2 676,277.5C676.2,277.8 676.5,278.1 676.8,278.3C677.2,278.5 677.6,278.6 678,278.6C678.7,278.6 679.4,278.5 680,278.2C680.2,278.1 680.3,278.2 680.4,278.3L680.6,278.8L680.6,279.1C680.6,279.2 680.5,279.2 680.4,279.3C679.7,279.6 678.9,279.8 678,279.8C677.1,279.8 676.3,279.6 675.7,279.2C675.1,278.8 674.6,278.3 674.3,277.6C674,276.9 673.9,276.1 673.9,275.2C673.9,273.9 674.3,272.8 675.1,271.9C675.9,271.1 676.9,270.6 678.2,270.6C679.1,270.6 679.8,270.8 680.5,271.1C680.5,271.1 680.6,271.2 680.5,271.4Z" style="fill:rgb(98,97,99);fill-rule:nonzero;"/>
            <path d="M682.5,270.7L682.5,268.7C682.5,268.6 682.5,268.5 682.6,268.4C682.7,268.3 682.7,268.3 682.8,268.3L683.7,268.2C683.9,268.2 684.1,268.3 684.1,268.5L684.1,270.7L686.2,270.7C686.3,270.7 686.4,270.7 686.4,270.8C686.4,270.8 686.5,270.9 686.5,271L686.5,271.5C686.5,271.6 686.5,271.7 686.4,271.7C686.3,271.7 686.3,271.8 686.2,271.8L684,271.8L684,276.7C684,277.3 684.1,277.8 684.3,278C684.5,278.3 684.8,278.4 685.3,278.4C685.7,278.4 686,278.3 686.4,278.2C686.6,278.1 686.7,278.2 686.8,278.4L687,278.9L687,279.1C687,279.1 686.9,279.2 686.8,279.2C686.2,279.4 685.7,279.5 685.1,279.5C684.6,279.5 684.2,279.4 683.8,279.3C683.5,279.2 683.2,279 683,278.7C682.8,278.4 682.7,278.2 682.6,277.8C682.5,277.5 682.5,277.1 682.5,276.6L682.5,271.6L681.5,271.6C681.4,271.6 681.3,271.6 681.3,271.5C681.3,271.4 681.2,271.4 681.2,271.3L681.2,271C681.2,270.9 681.2,270.8 681.3,270.8C681.3,270.8 681.4,270.7 681.5,270.7L682.5,270.7Z" style="fill:rgb(98,97,99);fill-rule:nonzero;"/>
            <path d="M691,275.6L689.8,275.1C689.2,274.9 688.8,274.6 688.5,274.2C688.2,273.8 688,273.4 688,272.8C688,272 688.3,271.5 688.9,271C689.5,270.5 690.2,270.4 691,270.4C691.8,270.4 692.6,270.6 693.3,270.9C693.5,271 693.5,271.1 693.5,271.2L693.3,271.8C693.2,272 693.1,272 692.9,271.9C692.2,271.6 691.6,271.5 691,271.5C690.5,271.5 690.1,271.6 689.9,271.8C689.6,272 689.5,272.3 689.5,272.6C689.5,272.9 689.6,273.1 689.8,273.3C690,273.5 690.3,273.7 690.7,273.8L692.1,274.4C693.3,274.9 693.9,275.7 693.9,276.7C693.9,277.5 693.6,278.2 693,278.7C692.4,279.2 691.6,279.4 690.6,279.4C690.2,279.4 689.7,279.3 689.3,279.2C688.9,279.1 688.5,279 688.2,278.8C688,278.7 688,278.6 688,278.4L688.2,277.8C688.3,277.6 688.4,277.6 688.5,277.6C689.3,278 690,278.1 690.6,278.1C691.1,278.1 691.6,278 691.9,277.7C692.2,277.5 692.4,277.1 692.4,276.7C692.4,276.4 692.3,276.1 692.1,275.9C691.8,276 691.4,275.8 691,275.6Z" style="fill:rgb(98,97,99);fill-rule:nonzero;"/>
            <path d="M701.7,275.7L700.5,279.1C700.5,279.2 700.4,279.3 700.4,279.3C700.4,279.3 700.2,279.4 700.1,279.4L699.1,279.4C698.9,279.4 698.8,279.3 698.9,279L703.4,267.2C703.5,267 703.6,266.9 703.7,266.9L704.7,266.9C704.9,266.9 705,267 705,267.1L709.5,278.9C709.6,279.1 709.5,279.3 709.3,279.3L708,279.3C707.9,279.3 707.8,279.3 707.7,279.2C707.6,279.1 707.6,279.1 707.6,279L706.4,275.6L701.7,275.6L701.7,275.7ZM702.1,274.5L705.9,274.5L704,269.1L702.1,274.5Z" style="fill:rgb(98,97,99);fill-rule:nonzero;"/>
            <path d="M716.2,277.2L716.2,271C716.2,270.8 716.3,270.6 716.6,270.6L717.4,270.6C717.6,270.6 717.7,270.7 717.7,271L717.7,279C717.7,279.1 717.7,279.2 717.6,279.3C717.5,279.4 717.5,279.4 717.3,279.4L716.5,279.4C716.3,279.4 716.2,279.3 716.2,279.1L716.2,278.5C715.4,279.2 714.4,279.6 713.4,279.6C711.5,279.6 710.6,278.5 710.6,276.3L710.6,271C710.6,270.8 710.7,270.6 711,270.6L711.8,270.6C712,270.6 712.1,270.7 712.1,271L712.1,276C712.1,276.7 712.2,277.3 712.5,277.6C712.7,278 713.2,278.2 713.9,278.2C714.3,278.2 714.7,278.1 715.1,277.9C715.5,277.7 715.9,277.5 716.2,277.2Z" style="fill:rgb(98,97,99);fill-rule:nonzero;"/>
            <path d="M720.6,270.7L720.6,268.7C720.6,268.6 720.6,268.5 720.7,268.4C720.8,268.3 720.8,268.3 720.9,268.3L721.8,268.2C722,268.2 722.2,268.3 722.2,268.5L722.2,270.7L724.3,270.7C724.4,270.7 724.5,270.7 724.5,270.8C724.5,270.8 724.6,270.9 724.6,271L724.6,271.5C724.6,271.6 724.6,271.7 724.5,271.7C724.4,271.7 724.4,271.8 724.3,271.8L722.2,271.8L722.2,276.7C722.2,277.3 722.3,277.8 722.5,278C722.7,278.3 723,278.4 723.5,278.4C723.9,278.4 724.2,278.3 724.6,278.2C724.8,278.1 724.9,278.2 725,278.4L725.2,278.9L725.2,279.1C725.2,279.1 725.1,279.2 725,279.2C724.4,279.4 723.9,279.5 723.3,279.5C722.8,279.5 722.4,279.4 722,279.3C721.7,279.2 721.4,279 721.2,278.7C721,278.4 720.9,278.2 720.8,277.8C720.7,277.5 720.7,277.1 720.7,276.6L720.7,271.6L719.7,271.6C719.6,271.6 719.5,271.6 719.5,271.5C719.5,271.4 719.4,271.4 719.4,271.3L719.4,271C719.4,270.9 719.4,270.8 719.5,270.8C719.5,270.8 719.6,270.7 719.7,270.7L720.6,270.7Z" style="fill:rgb(98,97,99);fill-rule:nonzero;"/>
            <path d="M728,272.8L728,279C728,279.3 727.9,279.4 727.6,279.4L726.8,279.4C726.6,279.4 726.4,279.3 726.4,279L726.4,267.1C726.4,267 726.4,266.9 726.5,266.8C726.5,266.7 726.6,266.7 726.7,266.7L727.6,266.6C727.8,266.6 728,266.7 728,266.9L728,271.6C728.4,271.3 728.8,271 729.4,270.8C729.9,270.6 730.5,270.5 731,270.5C732.9,270.5 733.8,271.6 733.8,273.7L733.8,279C733.8,279.3 733.7,279.4 733.4,279.4L732.6,279.4C732.4,279.4 732.2,279.3 732.2,279L732.2,274C732.2,273.3 732.1,272.8 731.8,272.4C731.5,272 731.1,271.8 730.4,271.8C730,271.8 729.6,271.9 729.1,272.1C728.7,272.3 728.3,272.5 728,272.8Z" style="fill:rgb(98,97,99);fill-rule:nonzero;"/>
            <path d="M743.9,275C743.9,275.9 743.7,276.6 743.4,277.3C743.1,278 742.6,278.5 742,278.9C741.4,279.3 740.6,279.5 739.7,279.5C739,279.5 738.4,279.4 737.9,279.2C737.4,279 737,278.6 736.6,278.2C736.3,277.8 736,277.3 735.9,276.8C735.8,276.3 735.7,275.7 735.7,275C735.7,274.1 735.9,273.4 736.2,272.7C736.5,272 737,271.5 737.6,271.1C738.2,270.7 739,270.5 739.9,270.5C740.8,270.5 741.6,270.7 742.2,271.1C742.8,271.5 743.3,272 743.6,272.7C743.7,273.3 743.9,274.1 743.9,275ZM742.2,276.3C742.3,275.9 742.3,275.5 742.3,275.1C742.3,274.7 742.3,274.2 742.2,273.9C742.1,273.5 742,273.2 741.8,272.8C741.6,272.5 741.4,272.2 741,272C740.7,271.8 740.3,271.7 739.8,271.7C739.4,271.7 739.1,271.8 738.8,271.9C738.5,272 738.3,272.2 738.1,272.4C737.9,272.6 737.8,272.9 737.6,273.2C737.5,273.5 737.4,273.8 737.3,274.1C737.3,274.4 737.2,274.7 737.2,275.1C737.2,275.4 737.2,275.8 737.3,276.1C737.3,276.4 737.4,276.7 737.6,277C737.7,277.3 737.9,277.6 738.1,277.8C738.3,278 738.5,278.2 738.8,278.3C739.1,278.4 739.4,278.5 739.8,278.5C740.3,278.5 740.6,278.4 741,278.2C741.3,278 741.6,277.8 741.8,277.4C741.9,277 742.1,276.7 742.2,276.3Z" style="fill:rgb(98,97,99);fill-rule:nonzero;"/>
            <path d="M747.3,272.9L747.3,279C747.3,279.3 747.2,279.4 746.9,279.4L746.1,279.4C745.9,279.4 745.7,279.3 745.7,279L745.7,271C745.7,270.9 745.7,270.8 745.8,270.7C745.9,270.6 745.9,270.6 746.1,270.6L746.9,270.6C747.1,270.6 747.2,270.7 747.2,270.9L747.2,271.5C747.7,270.7 748.4,270.4 749.3,270.4C749.5,270.4 749.7,270.4 749.8,270.5C749.9,270.5 749.9,270.6 749.9,270.8L749.8,271.6C749.8,271.7 749.7,271.8 749.5,271.8L749,271.8C748.7,271.8 748.4,271.9 748,272.1C747.8,272.3 747.6,272.5 747.3,272.9Z" style="fill:rgb(98,97,99);fill-rule:nonzero;"/>
            <path d="M751.8,267.9C752,267.7 752.2,267.7 752.5,267.7C752.8,267.7 753,267.8 753.2,267.9C753.4,268.1 753.5,268.3 753.5,268.5C753.5,268.8 753.4,269 753.2,269.1C753,269.2 752.8,269.3 752.5,269.3C752.2,269.3 752,269.2 751.8,269.1C751.6,268.9 751.5,268.7 751.5,268.5C751.5,268.3 751.6,268.1 751.8,267.9ZM753.2,271L753.2,279C753.2,279.3 753.1,279.4 752.8,279.4L752,279.4C751.8,279.4 751.6,279.3 751.6,279L751.6,271C751.6,270.8 751.7,270.6 752,270.6L752.8,270.6C753.1,270.7 753.2,270.8 753.2,271Z" style="fill:rgb(98,97,99);fill-rule:nonzero;"/>
            <path d="M756.1,270.7L756.1,268.7C756.1,268.6 756.1,268.5 756.2,268.4C756.3,268.3 756.3,268.3 756.4,268.3L757.3,268.2C757.5,268.2 757.7,268.3 757.7,268.5L757.7,270.7L759.8,270.7C759.9,270.7 760,270.7 760,270.8C760,270.8 760.1,270.9 760.1,271L760.1,271.5C760.1,271.6 760.1,271.7 760,271.7C759.9,271.7 759.9,271.8 759.8,271.8L757.7,271.8L757.7,276.7C757.7,277.3 757.8,277.8 758,278C758.2,278.3 758.5,278.4 759,278.4C759.4,278.4 759.7,278.3 760.1,278.2C760.3,278.1 760.4,278.2 760.5,278.4L760.7,278.9L760.7,279.1C760.7,279.1 760.6,279.2 760.5,279.2C759.9,279.4 759.4,279.5 758.8,279.5C758.3,279.5 757.9,279.4 757.5,279.3C757.2,279.2 756.9,279 756.7,278.7C756.5,278.4 756.4,278.2 756.3,277.8C756.2,277.5 756.2,277.1 756.2,276.6L756.2,271.6L755.2,271.6C755.1,271.6 755,271.6 755,271.5C755,271.4 754.9,271.4 754.9,271.3L754.9,271C754.9,270.9 754.9,270.8 755,270.8C755,270.8 755.1,270.7 755.2,270.7L756.1,270.7Z" style="fill:rgb(98,97,99);fill-rule:nonzero;"/>
            <path d="M765.4,277.7L767.7,271C767.7,270.9 767.8,270.8 767.9,270.8C768,270.8 768.1,270.7 768.2,270.7L769.1,270.7C769.3,270.7 769.4,270.8 769.3,271.1L765.8,280.5C765.4,281.6 764.9,282.3 764.4,282.8C763.9,283.2 763.1,283.5 762.2,283.5C761.9,283.5 761.7,283.5 761.4,283.4C761.2,283.4 761.2,283.3 761.2,283.1L761.3,282.4C761.3,282.2 761.4,282.2 761.6,282.2C761.9,282.2 762.2,282.3 762.3,282.3C762.8,282.3 763.2,282.2 763.5,282C763.8,281.8 764.1,281.4 764.3,281L764.7,279.9L761.5,271.4L761.5,271.2C761.5,271.1 761.6,271.1 761.7,271.1L762.7,271.1C762.9,271.1 763.1,271.2 763.1,271.3L765.4,277.7Z" style="fill:rgb(98,97,99);fill-rule:nonzero;"/>
        </g>
        <g>
            <g>
                <path d="M328.8,148.3L315.8,148.3C313.4,148.3 311.1,147.1 309.7,145.2L306.9,140.3L298.2,125.3C296.1,121.7 297.4,117.1 301,115L301.3,114.8C304.9,112.7 309.5,113.9 311.6,117.6L324.6,140L325.1,140.9L327.9,145.7C328.4,146.6 328.7,147.4 328.8,148.3Z" style="fill:rgb(22,58,128);fill-rule:nonzero;"/>
                <path d="M364.6,99.5C364.6,100.8 364.3,102.1 363.6,103.3L341.6,141.4L340.1,144C338.3,147 335,148.2 332.4,148.2L316.3,148.2C320.1,147.4 321.6,145.3 322.3,144L324.2,140.8L324.7,139.9L350.3,95.6C352.4,91.9 357.1,90.6 360.8,92.8C363.2,94.3 364.6,96.9 364.6,99.5Z" style="fill:rgb(30,77,161);fill-rule:nonzero;"/>
            </g>
            <g>
                <path d="M298.3,161.1L291.8,172.3C290.6,174.4 288.4,175.8 286.1,176L263.1,176C258.9,176 255.6,172.6 255.6,168.5L255.6,168.1C255.6,163.9 259,160.6 263.1,160.6L295.7,160.6C296.6,160.7 297.5,160.8 298.3,161.1Z" style="fill:rgb(2,137,150);fill-rule:nonzero;"/>
                <path d="M274,105.8C275.1,106.5 276.1,107.4 276.8,108.6L298.8,146.7L300.3,149.3C302,152.4 301.4,155.8 300.1,158.1L292,172.1C293.2,168.4 292.1,166.1 291.4,164.8L289.6,161.6L289.1,160.7L263.5,116.4C261.4,112.7 262.6,108 266.3,105.9C268.7,104.4 271.7,104.5 274,105.8Z" style="fill:rgb(17,188,205);fill-rule:nonzero;"/>
            </g>
            <g>
                <path d="M294.2,194L300.7,205.2C301.9,207.3 302,209.8 301,212L298.2,216.9L289.5,231.9C287.4,235.5 282.8,236.7 279.2,234.7L278.9,234.5C275.3,232.4 274.1,227.8 276.1,224.2L289.1,201.8L289.6,200.9L292.4,196.1C292.9,195.3 293.5,194.6 294.2,194Z" style="fill:rgb(153,171,58);fill-rule:nonzero;"/>
                <path d="M234.1,187.4C235.2,186.7 236.6,186.4 237.9,186.4L284.9,186.4C288.4,186.5 291.1,188.7 292.4,191L300.5,205C297.9,202.1 295.4,201.9 293.9,201.9L238,201.9C233.7,201.9 230.3,198.4 230.3,194.2C230.2,191.2 231.8,188.8 234.1,187.4Z" style="fill:rgb(178,210,53);fill-rule:nonzero;"/>
            </g>
            <g>
                <path d="M320.6,214L333.6,214C336,214 338.3,215.2 339.7,217.1L342.5,222L351.2,237C353.3,240.6 352,245.2 348.4,247.3L348.1,247.5C344.5,249.6 339.9,248.4 337.8,244.7L324.8,222.3L324.3,221.4L321.5,216.6C321,215.8 320.7,214.9 320.6,214Z" style="fill:rgb(22,58,128);fill-rule:nonzero;"/>
                <path d="M284.8,262.8C284.8,261.5 285.1,260.2 285.8,259L307.8,220.9L309.3,218.3C311.1,215.3 314.4,214.1 317,214.1L333.1,214.1C329.3,214.9 327.8,217 327.1,218.3L325.2,221.5L324.7,222.4L299.1,266.7C297,270.4 292.3,271.7 288.6,269.5C286.2,268 284.8,265.4 284.8,262.8Z" style="fill:rgb(30,77,161);fill-rule:nonzero;"/>
            </g>
            <g>
                <path d="M351.1,201.2L357.6,190C358.8,187.9 361,186.5 363.3,186.3L386.3,186.3C390.5,186.3 393.8,189.7 393.8,193.8L393.8,194.2C393.8,198.4 390.4,201.7 386.3,201.7L353.7,201.7C352.8,201.7 351.9,201.5 351.1,201.2Z" style="fill:rgb(1,136,149);fill-rule:nonzero;"/>
                <path d="M375.4,256.5C374.3,255.8 373.3,254.9 372.6,253.7L350.6,215.6L349.1,213C347.4,209.9 348,206.5 349.3,204.2L357.4,190.2C356.2,193.9 357.3,196.2 358,197.5L359.8,200.7L360.3,201.6L386,246C388.1,249.7 386.9,254.4 383.2,256.5C380.7,257.9 377.7,257.8 375.4,256.5Z" style="fill:rgb(17,188,205);fill-rule:nonzero;"/>
            </g>
            <g>
                <path d="M355.2,168.3L348.7,157.1C347.5,155 347.4,152.5 348.4,150.3L351.2,145.4L359.9,130.4C362,126.8 366.6,125.6 370.2,127.6L370.5,127.8C374.1,129.9 375.3,134.5 373.3,138.1L360.3,160.5L359.8,161.4L357,166.2C356.5,167.1 355.9,167.8 355.2,168.3Z" style="fill:rgb(153,171,58);fill-rule:nonzero;"/>
                <path d="M415.3,174.9C414.2,175.6 412.8,175.9 411.5,175.9L364.5,175.9C361,175.8 358.3,173.6 357,171.3L348.9,157.3C351.5,160.2 354,160.4 355.5,160.4L411.4,160.4C415.7,160.4 419.1,163.9 419.1,168.1C419.2,171.1 417.6,173.6 415.3,174.9Z" style="fill:rgb(178,210,53);fill-rule:nonzero;"/>
            </g>
        </g>
    </g>
</svg>
