<svg width="5833" height="3378" viewBox="0 0 5833 3378" fill="none" xmlns="http://www.w3.org/2000/svg">
<path d="M3872 2022L3855 2039L3838 2022" stroke="#E6A000" style="stroke:#E6A000;stroke:color(display-p3 0.9000 0.6285 0.0000);stroke-opacity:1;" stroke-width="4"/>
<path d="M3977 2165L3960 2148L3977 2131" stroke="#E6A000" style="stroke:#E6A000;stroke:color(display-p3 0.9000 0.6285 0.0000);stroke-opacity:1;" stroke-width="4"/>
<path d="M3838 2319L3855 2302L3872 2319" stroke="#E6A000" style="stroke:#E6A000;stroke:color(display-p3 0.9000 0.6285 0.0000);stroke-opacity:1;" stroke-width="4"/>
<path d="M5408 2377L5425 2360L5442 2377" stroke="#E6A000" style="stroke:#E6A000;stroke:color(display-p3 0.9000 0.6285 0.0000);stroke-opacity:1;" stroke-width="4"/>
<path d="M5442 1952L5425 1969L5408 1952" stroke="#E6A000" style="stroke:#E6A000;stroke:color(display-p3 0.9000 0.6285 0.0000);stroke-opacity:1;" stroke-width="4"/>
<path d="M1928 1217L1911 1234L1928 1251" stroke="#E6A000" style="stroke:#E6A000;stroke:color(display-p3 0.9000 0.6285 0.0000);stroke-opacity:1;" stroke-width="4"/>
<path d="M1816 3293L1799 3310L1816 3327" stroke="#E6A000" style="stroke:#E6A000;stroke:color(display-p3 0.9000 0.6285 0.0000);stroke-opacity:1;" stroke-width="4"/>
<g clip-path="url(#clip0_459_1066)">
<path d="M1805 3310H3742C3746.42 3310 3750 3306.42 3750 3302V2342" stroke="#E6A000" style="stroke:#E6A000;stroke:color(display-p3 0.9000 0.6285 0.0000);stroke-opacity:1;" stroke-width="4" stroke-dasharray="8 8"/>
<path d="M3733 2359L3750 2342L3767 2359" stroke="#E6A000" style="stroke:#E6A000;stroke:color(display-p3 0.9000 0.6285 0.0000);stroke-opacity:1;" stroke-width="4"/>
</g>
<path d="M5625 2377L5608 2360L5591 2377" stroke="#E6A000" style="stroke:#E6A000;stroke:color(display-p3 0.9000 0.6285 0.0000);stroke-opacity:1;" stroke-width="4"/>
<path d="M5114 2131L5131 2148L5114 2165" stroke="#E6A000" style="stroke:#E6A000;stroke:color(display-p3 0.9000 0.6285 0.0000);stroke-opacity:1;" stroke-width="4"/>
<path d="M1616 1915L1633 1932L1650 1915" stroke="#E6A000" style="stroke:#E6A000;stroke:color(display-p3 0.9000 0.6285 0.0000);stroke-opacity:1;" stroke-width="4"/>
<path d="M1633 1844V1932" stroke="#E6A000" style="stroke:#E6A000;stroke:color(display-p3 0.9000 0.6285 0.0000);stroke-opacity:1;" stroke-width="4" stroke-dasharray="8 8"/>
<path fill-rule="evenodd" clip-rule="evenodd" d="M1649 1844H1617V1848H1649V1844Z" fill="#E6A000" style="fill:#E6A000;fill:color(display-p3 0.9000 0.6285 0.0000);fill-opacity:1;"/>
<path d="M1617 2637L1634 2654L1651 2637" stroke="#E6A000" style="stroke:#E6A000;stroke:color(display-p3 0.9000 0.6285 0.0000);stroke-opacity:1;" stroke-width="4"/>
<path d="M1634 2569V2654" stroke="#E6A000" style="stroke:#E6A000;stroke:color(display-p3 0.9000 0.6285 0.0000);stroke-opacity:1;" stroke-width="4" stroke-dasharray="8 8"/>
<path fill-rule="evenodd" clip-rule="evenodd" d="M1650 2569H1618V2573H1650V2569Z" fill="#E6A000" style="fill:#E6A000;fill:color(display-p3 0.9000 0.6285 0.0000);fill-opacity:1;"/>
<g clip-path="url(#clip1_459_1066)">
<path d="M4417 2518L4434 2535L4451 2518" stroke="#E6A000" style="stroke:#E6A000;stroke:color(display-p3 0.9000 0.6285 0.0000);stroke-opacity:1;" stroke-width="4"/>
<path d="M4434 2413V2535" stroke="#E6A000" style="stroke:#E6A000;stroke:color(display-p3 0.9000 0.6285 0.0000);stroke-opacity:1;" stroke-width="4"/>
<path fill-rule="evenodd" clip-rule="evenodd" d="M4450 2413H4418V2417H4450V2413Z" fill="#E6A000" style="fill:#E6A000;fill:color(display-p3 0.9000 0.6285 0.0000);fill-opacity:1;"/>
</g>
<path d="M3063 2131L3046 2148L3063 2165" stroke="#E6A000" style="stroke:#E6A000;stroke:color(display-p3 0.9000 0.6285 0.0000);stroke-opacity:1;" stroke-width="4"/>
<path d="M3488 2148H3046" stroke="#E6A000" style="stroke:#E6A000;stroke:color(display-p3 0.9000 0.6285 0.0000);stroke-opacity:1;" stroke-width="4"/>
<path fill-rule="evenodd" clip-rule="evenodd" d="M3488 2164V2132H3484V2164H3488Z" fill="#E6A000" style="fill:#E6A000;fill:color(display-p3 0.9000 0.6285 0.0000);fill-opacity:1;"/>
<path d="M4193 2131L4210 2148L4193 2165" stroke="#E6A000" style="stroke:#E6A000;stroke:color(display-p3 0.9000 0.6285 0.0000);stroke-opacity:1;" stroke-width="4"/>
<path d="M3963 2148H4210" stroke="#E6A000" style="stroke:#E6A000;stroke:color(display-p3 0.9000 0.6285 0.0000);stroke-opacity:1;" stroke-width="4"/>
<path d="M4417 1977L4434 1994L4451 1977" stroke="#E6A000" style="stroke:#E6A000;stroke:color(display-p3 0.9000 0.6285 0.0000);stroke-opacity:1;" stroke-width="4"/>
<path d="M4434 1909V1994" stroke="#E6A000" style="stroke:#E6A000;stroke:color(display-p3 0.9000 0.6285 0.0000);stroke-opacity:1;" stroke-width="4"/>
<path fill-rule="evenodd" clip-rule="evenodd" d="M4450 1909H4418V1913H4450V1909Z" fill="#E6A000" style="fill:#E6A000;fill:color(display-p3 0.9000 0.6285 0.0000);fill-opacity:1;"/>
<path d="M1616 1642L1633 1659L1650 1642" stroke="#E6A000" style="stroke:#E6A000;stroke:color(display-p3 0.9000 0.6285 0.0000);stroke-opacity:1;" stroke-width="4"/>
<path d="M1633 1604V1659" stroke="#E6A000" style="stroke:#E6A000;stroke:color(display-p3 0.9000 0.6285 0.0000);stroke-opacity:1;" stroke-width="4" stroke-dasharray="8 8"/>
<path fill-rule="evenodd" clip-rule="evenodd" d="M1649 1604H1617V1608H1649V1604Z" fill="#E6A000" style="fill:#E6A000;fill:color(display-p3 0.9000 0.6285 0.0000);fill-opacity:1;"/>
<path d="M478 2373V3294C478 3298.42 481.582 3302 486 3302H1451" stroke="#E6A000" style="stroke:#E6A000;stroke:color(display-p3 0.9000 0.6285 0.0000);stroke-opacity:1;" stroke-width="4" stroke-dasharray="8 8"/>
<path fill-rule="evenodd" clip-rule="evenodd" d="M462 2373L494 2373L494 2377L462 2377L462 2373Z" fill="#E6A000" style="fill:#E6A000;fill:color(display-p3 0.9000 0.6285 0.0000);fill-opacity:1;"/>
<path d="M1434 3285L1451 3302L1434 3319" stroke="#E6A000" style="stroke:#E6A000;stroke:color(display-p3 0.9000 0.6285 0.0000);stroke-opacity:1;" stroke-width="4"/>
<path d="M3854 2305V2671C3854 2675.42 3857.58 2679 3862 2679H4210" stroke="#E6A000" style="stroke:#E6A000;stroke:color(display-p3 0.9000 0.6285 0.0000);stroke-opacity:1;" stroke-width="4"/>
<path d="M4193 2662L4210 2679L4193 2696" stroke="#E6A000" style="stroke:#E6A000;stroke:color(display-p3 0.9000 0.6285 0.0000);stroke-opacity:1;" stroke-width="4"/>
<path d="M5424 1967V1645C5424 1640.58 5420.42 1637 5416 1637H4670" stroke="#E6A000" style="stroke:#E6A000;stroke:color(display-p3 0.9000 0.6285 0.0000);stroke-opacity:1;" stroke-width="4"/>
<path d="M4687 1654L4670 1637L4687 1620" stroke="#E6A000" style="stroke:#E6A000;stroke:color(display-p3 0.9000 0.6285 0.0000);stroke-opacity:1;" stroke-width="4"/>
<g clip-path="url(#clip2_459_1066)">
<path d="M2996 2630L3013 2647L3030 2630" stroke="#E6A000" style="stroke:#E6A000;stroke:color(display-p3 0.9000 0.6285 0.0000);stroke-opacity:1;" stroke-width="4"/>
<path d="M3013 2413V2647" stroke="#E6A000" style="stroke:#E6A000;stroke:color(display-p3 0.9000 0.6285 0.0000);stroke-opacity:1;" stroke-width="4"/>
<path fill-rule="evenodd" clip-rule="evenodd" d="M3029 2413H2997V2417H3029V2413Z" fill="#E6A000" style="fill:#E6A000;fill:color(display-p3 0.9000 0.6285 0.0000);fill-opacity:1;"/>
</g>
<g clip-path="url(#clip3_459_1066)">
<path d="M5590 2616L5607 2633L5624 2616" stroke="#E6A000" style="stroke:#E6A000;stroke:color(display-p3 0.9000 0.6285 0.0000);stroke-opacity:1;" stroke-width="4"/>
<path d="M5607 2362V2633" stroke="#E6A000" style="stroke:#E6A000;stroke:color(display-p3 0.9000 0.6285 0.0000);stroke-opacity:1;" stroke-width="4"/>
</g>
<path d="M1618 2909L1635 2926L1652 2909" stroke="#E6A000" style="stroke:#E6A000;stroke:color(display-p3 0.9000 0.6285 0.0000);stroke-opacity:1;" stroke-width="4"/>
<path d="M1635 2841V2926" stroke="#E6A000" style="stroke:#E6A000;stroke:color(display-p3 0.9000 0.6285 0.0000);stroke-opacity:1;" stroke-width="4"/>
<path fill-rule="evenodd" clip-rule="evenodd" d="M1651 2841H1619V2845H1651V2841Z" fill="#E6A000" style="fill:#E6A000;fill:color(display-p3 0.9000 0.6285 0.0000);fill-opacity:1;"/>
<path d="M478 2066V1250C478 1245.58 481.582 1242 486 1242H1352" stroke="#E6A000" style="stroke:#E6A000;stroke:color(display-p3 0.9000 0.6285 0.0000);stroke-opacity:1;" stroke-width="4" stroke-dasharray="8 8"/>
<path fill-rule="evenodd" clip-rule="evenodd" d="M462 2066L494 2066L494 2062L462 2062L462 2066Z" fill="#E6A000" style="fill:#E6A000;fill:color(display-p3 0.9000 0.6285 0.0000);fill-opacity:1;"/>
<path d="M1335 1259L1352 1242L1335 1225" stroke="#E6A000" style="stroke:#E6A000;stroke:color(display-p3 0.9000 0.6285 0.0000);stroke-opacity:1;" stroke-width="4"/>
<g clip-path="url(#clip4_459_1066)">
<path d="M1823 1483H2029C2033.42 1483 2037 1486.58 2037 1491V1929" stroke="#E6A000" style="stroke:#E6A000;stroke:color(display-p3 0.9000 0.6285 0.0000);stroke-opacity:1;" stroke-width="4" stroke-dasharray="8 8"/>
<path fill-rule="evenodd" clip-rule="evenodd" d="M1823 1467L1823 1499L1827 1499L1827 1467L1823 1467Z" fill="#E6A000" style="fill:#E6A000;fill:color(display-p3 0.9000 0.6285 0.0000);fill-opacity:1;"/>
<path d="M2020 1912L2037 1929L2054 1912" stroke="#E6A000" style="stroke:#E6A000;stroke:color(display-p3 0.9000 0.6285 0.0000);stroke-opacity:1;" stroke-width="4"/>
</g>
<g clip-path="url(#clip5_459_1066)">
<path d="M1397 1479H1224C1219.58 1479 1216 1482.58 1216 1487V1925" stroke="#E6A000" style="stroke:#E6A000;stroke:color(display-p3 0.9000 0.6285 0.0000);stroke-opacity:1;" stroke-width="4" stroke-dasharray="8 8"/>
<path fill-rule="evenodd" clip-rule="evenodd" d="M1397 1463L1397 1495L1393 1495L1393 1463L1397 1463Z" fill="#E6A000" style="fill:#E6A000;fill:color(display-p3 0.9000 0.6285 0.0000);fill-opacity:1;"/>
<path d="M1233 1908L1216 1925L1199 1908" stroke="#E6A000" style="stroke:#E6A000;stroke:color(display-p3 0.9000 0.6285 0.0000);stroke-opacity:1;" stroke-width="4"/>
</g>
<path d="M1216 2586V2749C1216 2753.42 1219.58 2757 1224 2757H1489" stroke="#E6A000" style="stroke:#E6A000;stroke:color(display-p3 0.9000 0.6285 0.0000);stroke-opacity:1;" stroke-width="4" stroke-dasharray="8 8"/>
<path fill-rule="evenodd" clip-rule="evenodd" d="M1200 2586L1232 2586L1232 2590L1200 2590L1200 2586Z" fill="#E6A000" style="fill:#E6A000;fill:color(display-p3 0.9000 0.6285 0.0000);fill-opacity:1;"/>
<path d="M1472 2740L1489 2757L1472 2774" stroke="#E6A000" style="stroke:#E6A000;stroke:color(display-p3 0.9000 0.6285 0.0000);stroke-opacity:1;" stroke-width="4"/>
<path d="M2045 2586V2749C2045 2753.42 2041.42 2757 2037 2757H1772" stroke="#E6A000" style="stroke:#E6A000;stroke:color(display-p3 0.9000 0.6285 0.0000);stroke-opacity:1;" stroke-width="4" stroke-dasharray="8 8"/>
<path fill-rule="evenodd" clip-rule="evenodd" d="M2061 2586L2029 2586L2029 2590L2061 2590L2061 2586Z" fill="#E6A000" style="fill:#E6A000;fill:color(display-p3 0.9000 0.6285 0.0000);fill-opacity:1;"/>
<path d="M1789 2740L1772 2757L1789 2774" stroke="#E6A000" style="stroke:#E6A000;stroke:color(display-p3 0.9000 0.6285 0.0000);stroke-opacity:1;" stroke-width="4"/>
<g clip-path="url(#clip6_459_1066)">
<path d="M1912 1234H3738C3742.42 1234 3746 1237.58 3746 1242V1983" stroke="#E6A000" style="stroke:#E6A000;stroke:color(display-p3 0.9000 0.6285 0.0000);stroke-opacity:1;" stroke-width="4"/>
<path d="M3729 1966L3746 1983L3763 1966" stroke="#E6A000" style="stroke:#E6A000;stroke:color(display-p3 0.9000 0.6285 0.0000);stroke-opacity:1;" stroke-width="4"/>
</g>
<path d="M2791 1976V1365C2791 1360.58 2787.42 1357 2783 1357H1843" stroke="#E6A000" style="stroke:#E6A000;stroke:color(display-p3 0.9000 0.6285 0.0000);stroke-opacity:1;" stroke-width="4"/>
<path fill-rule="evenodd" clip-rule="evenodd" d="M2807 1976L2775 1976L2775 1972L2807 1972L2807 1976Z" fill="#E6A000" style="fill:#E6A000;fill:color(display-p3 0.9000 0.6285 0.0000);fill-opacity:1;"/>
<path d="M1860 1374L1843 1357L1860 1340" stroke="#E6A000" style="stroke:#E6A000;stroke:color(display-p3 0.9000 0.6285 0.0000);stroke-opacity:1;" stroke-width="4"/>
<path d="M2791 2362V3048C2791 3052.42 2787.42 3056 2783 3056H1843" stroke="#E6A000" style="stroke:#E6A000;stroke:color(display-p3 0.9000 0.6285 0.0000);stroke-opacity:1;" stroke-width="4" stroke-dasharray="8 8"/>
<path fill-rule="evenodd" clip-rule="evenodd" d="M2807 2362L2775 2362L2775 2366L2807 2366L2807 2362Z" fill="#E6A000" style="fill:#E6A000;fill:color(display-p3 0.9000 0.6285 0.0000);fill-opacity:1;"/>
<path d="M1860 3039L1843 3056L1860 3073" stroke="#E6A000" style="stroke:#E6A000;stroke:color(display-p3 0.9000 0.6285 0.0000);stroke-opacity:1;" stroke-width="4"/>
<path d="M4435 2960V3217C4435 3221.42 4431.42 3225 4427 3225H4123" stroke="#E6A000" style="stroke:#E6A000;stroke:color(display-p3 0.9000 0.6285 0.0000);stroke-opacity:1;" stroke-width="4"/>
<path fill-rule="evenodd" clip-rule="evenodd" d="M4451 2960L4419 2960L4419 2964L4451 2964L4451 2960Z" fill="#E6A000" style="fill:#E6A000;fill:color(display-p3 0.9000 0.6285 0.0000);fill-opacity:1;"/>
<path d="M4140 3208L4123 3225L4140 3242" stroke="#E6A000" style="stroke:#E6A000;stroke:color(display-p3 0.9000 0.6285 0.0000);stroke-opacity:1;" stroke-width="4"/>
<g clip-path="url(#clip7_459_1066)">
<path d="M4111 1261H4419C4423.42 1261 4427 1264.58 4427 1269V1495" stroke="#E6A000" style="stroke:#E6A000;stroke:color(display-p3 0.9000 0.6285 0.0000);stroke-opacity:1;" stroke-width="4"/>
<path fill-rule="evenodd" clip-rule="evenodd" d="M4111 1245L4111 1277L4115 1277L4115 1245L4111 1245Z" fill="#E6A000" style="fill:#E6A000;fill:color(display-p3 0.9000 0.6285 0.0000);fill-opacity:1;"/>
<path d="M4410 1478L4427 1495L4444 1478" stroke="#E6A000" style="stroke:#E6A000;stroke:color(display-p3 0.9000 0.6285 0.0000);stroke-opacity:1;" stroke-width="4"/>
</g>
<path d="M3854 2037V1645C3854 1640.58 3857.58 1637 3862 1637H4210" stroke="#E6A000" style="stroke:#E6A000;stroke:color(display-p3 0.9000 0.6285 0.0000);stroke-opacity:1;" stroke-width="4"/>
<path d="M4193 1654L4210 1637L4193 1620" stroke="#E6A000" style="stroke:#E6A000;stroke:color(display-p3 0.9000 0.6285 0.0000);stroke-opacity:1;" stroke-width="4"/>
<path d="M5424 2362V2671C5424 2675.42 5420.42 2679 5416 2679H4661" stroke="#E6A000" style="stroke:#E6A000;stroke:color(display-p3 0.9000 0.6285 0.0000);stroke-opacity:1;" stroke-width="4"/>
<path d="M4678 2662L4661 2679L4678 2696" stroke="#E6A000" style="stroke:#E6A000;stroke:color(display-p3 0.9000 0.6285 0.0000);stroke-opacity:1;" stroke-width="4"/>
<path d="M4687 2131L4670 2148L4687 2165" stroke="#E6A000" style="stroke:#E6A000;stroke:color(display-p3 0.9000 0.6285 0.0000);stroke-opacity:1;" stroke-width="4"/>
<path d="M5131 2148H4670" stroke="#E6A000" style="stroke:#E6A000;stroke:color(display-p3 0.9000 0.6285 0.0000);stroke-opacity:1;" stroke-width="4"/>
<defs>
<clipPath id="clip0_459_1066">
<rect width="1015" height="1997" fill="white" style="fill:white;fill-opacity:1;" transform="matrix(0 -1 1 0 1789 3338)"/>
</clipPath>
<clipPath id="clip1_459_1066">
<rect width="157" height="120" fill="white" style="fill:white;fill-opacity:1;" transform="matrix(0 1 1 0 4374 2397)"/>
</clipPath>
<clipPath id="clip2_459_1066">
<rect width="269" height="120" fill="white" style="fill:white;fill-opacity:1;" transform="matrix(0 1 1 0 2953 2397)"/>
</clipPath>
<clipPath id="clip3_459_1066">
<rect width="306" height="120" fill="white" style="fill:white;fill-opacity:1;" transform="matrix(0 1 1 0 5547 2346)"/>
</clipPath>
<clipPath id="clip4_459_1066">
<rect width="493" height="266" fill="white" style="fill:white;fill-opacity:1;" transform="matrix(0 1 1 0 1807 1455)"/>
</clipPath>
<clipPath id="clip5_459_1066">
<rect width="493" height="233" fill="white" style="fill:white;fill-opacity:1;" transform="matrix(0 1 -1 0 1413 1451)"/>
</clipPath>
<clipPath id="clip6_459_1066">
<rect width="796" height="1886" fill="white" style="fill:white;fill-opacity:1;" transform="matrix(0 1 1 0 1896 1206)"/>
</clipPath>
<clipPath id="clip7_459_1066">
<rect width="281" height="368" fill="white" style="fill:white;fill-opacity:1;" transform="matrix(0 1 1 0 4095 1233)"/>
</clipPath>
</defs>
</svg>
