<svg width="4026" height="1304" xmlns="http://www.w3.org/2000/svg" xmlns:xlink="http://www.w3.org/1999/xlink" xml:space="preserve" overflow="hidden"><defs><clipPath id="clip0"><rect x="188" y="306" width="4026" height="1304"/></clipPath></defs><g clip-path="url(#clip0)" transform="translate(-188 -306)"><path d="M862.636 309C869.464 309 875 314.54 875 321.373L875 760.627C875 767.46 869.464 773 862.636 773L207.364 773C200.535 773 195 767.46 195 760.627L195 321.373C195 314.54 200.535 309 207.364 309Z" stroke="#D2A000" stroke-width="6.1875" stroke-miterlimit="8" fill="#7F7F7F" fill-rule="evenodd"/><path d="M480.54 384.533 517.665 384.533 517.665 396.819 579.54 396.819 579.54 470.533 480.54 470.533ZM486.727 402.962 573.352 402.962M486.727 415.248 573.352 415.248M486.727 427.533 573.352 427.533M486.727 439.819 573.352 439.819" stroke="#D2A000" stroke-width="7.425" stroke-linecap="round" stroke-linejoin="round" stroke-miterlimit="10" fill="none" fill-rule="evenodd"/><text fill="#333333" font-family="Arial,Arial_MSFontService,sans-serif" font-weight="400" font-size="55" transform="matrix(1 0 0 1 358.796 581)">Policy Proposal</text><text fill="#333333" font-family="Arial,Arial_MSFontService,sans-serif" font-weight="400" font-size="41" transform="matrix(1 0 0 1 264.216 659)">Data, analysis, recommendation</text><path d="M870 541 1024 541" stroke="#D2A000" stroke-width="6.1875" stroke-miterlimit="8" fill="none" fill-rule="evenodd"/><path d="M1692.62 309C1699.46 309 1705 314.54 1705 321.373L1705 760.627C1705 767.46 1699.46 773 1692.62 773L1036.38 773C1029.54 773 1024 767.46 1024 760.627L1024 321.373C1024 314.54 1029.54 309 1036.38 309Z" stroke="#D2A000" stroke-width="6.1875" stroke-miterlimit="8" fill="#7F7F7F" fill-rule="evenodd"/><path d="M1365.14 384.533C1337.8 384.533 1315.64 406.695 1315.64 434.033 1315.64 461.371 1337.8 483.533 1365.14 483.533 1392.48 483.533 1414.64 461.371 1414.64 434.033 1414.64 406.695 1392.48 384.533 1365.14 384.533ZM1365.14 396.908 1365.14 471.158M1328.01 434.033 1402.26 434.033M1346.57 415.47 1383.7 452.595M1346.57 452.595 1383.7 415.47" stroke="#D2A000" stroke-width="7.425" stroke-linecap="round" stroke-linejoin="round" stroke-miterlimit="10" fill="none" fill-rule="evenodd"/><text fill="#333333" font-family="Arial,Arial_MSFontService,sans-serif" font-weight="400" font-size="55" transform="matrix(1 0 0 1 1163.84 581)">Cognitive Analysis</text><text fill="#333333" font-family="Arial,Arial_MSFontService,sans-serif" font-weight="400" font-size="41" transform="matrix(1 0 0 1 1144.93 659)">Impact simulation, options,</text><text fill="#333333" font-family="Arial,Arial_MSFontService,sans-serif" font-weight="400" font-size="41" transform="matrix(1 0 0 1 1326.54 720)">risks</text><path d="M1024.5 835.5 1705.5 835.5 1705.5 1021.5 1024.5 1021.5Z" stroke="#CCCCCC" stroke-width="3.09357" stroke-miterlimit="8" fill="#F5F5F5" fill-rule="evenodd"/><path d="M1069.61 920.744 1069.61 934.59 1088.61 934.59 1088.61 920.744ZM1071.98 920.744C1071.98 924.567 1075.17 927.667 1079.11 927.667 1083.04 927.667 1086.23 924.567 1086.23 920.744L1086.23 911.513C1086.23 907.689 1083.04 904.59 1079.11 904.59 1075.17 904.59 1071.98 907.689 1071.98 911.513L1071.98 920.744Z" stroke="#666666" stroke-width="4.64072" stroke-linecap="round" stroke-linejoin="round" stroke-miterlimit="10" fill="none" fill-rule="evenodd"/><text fill="#333333" font-family="Arial,Arial_MSFontService,sans-serif" font-weight="400" font-size="38" transform="matrix(1 0 0 1 1248.75 888)">Who: [Actor]</text><text fill="#333333" font-family="Arial,Arial_MSFontService,sans-serif" font-weight="400" font-size="38" transform="matrix(1 0 0 1 1248.75 934)">When: [Timestamp]</text><text fill="#333333" font-family="Arial,Arial_MSFontService,sans-serif" font-weight="400" font-size="38" transform="matrix(1 0 0 1 1248.75 981)">Why: [Rationale]</text><path d="M1705 541 1860 541" stroke="#D2A000" stroke-width="6.1875" stroke-miterlimit="8" fill="none" fill-rule="evenodd"/><path d="M2527.64 309C2534.46 309 2540 314.54 2540 321.373L2540 760.627C2540 767.46 2534.46 773 2527.64 773L1872.36 773C1865.54 773 1860 767.46 1860 760.627L1860 321.373C1860 314.54 1865.54 309 1872.36 309Z" stroke="#D2A000" stroke-width="6.1875" stroke-miterlimit="8" fill="#262626" fill-rule="evenodd"/><path d="M2200.73 396.53C2187.11 396.53 2176.07 407.611 2176.07 421.28 2176.07 434.949 2187.11 446.03 2200.73 446.03 2214.36 446.03 2225.4 434.949 2225.4 421.28 2225.4 407.611 2214.36 396.53 2200.73 396.53ZM2163.73 470.78 2237.73 470.78 2237.73 495.53 2163.73 495.53Z" stroke="#FFFFFF" stroke-width="7.425" stroke-linecap="round" stroke-linejoin="round" stroke-miterlimit="10" fill="none" fill-rule="evenodd"/><text fill="#FFFFFF" font-family="Arial,Arial_MSFontService,sans-serif" font-weight="400" font-size="55" transform="matrix(1 0 0 1 2029.44 581)">Decision Maker</text><text fill="#FFFFFF" font-family="Arial,Arial_MSFontService,sans-serif" font-weight="400" font-size="41" transform="matrix(1 0 0 1 1998.8 659)">Authority, accountability,</text><text fill="#FFFFFF" font-family="Arial,Arial_MSFontService,sans-serif" font-weight="400" font-size="41" transform="matrix(1 0 0 1 2128.8 718)">approval</text><path d="M1860.5 835.5 2540.5 835.5 2540.5 1021.5 1860.5 1021.5Z" stroke="#CCCCCC" stroke-width="3.09357" stroke-miterlimit="8" fill="#F5F5F5" fill-rule="evenodd"/><path d="M1905.7 920.744 1905.7 934.59 1923.7 934.59 1923.7 920.744ZM1907.95 920.744C1907.95 924.567 1910.97 927.667 1914.7 927.667 1918.42 927.667 1921.45 924.567 1921.45 920.744L1921.45 911.513C1921.45 907.689 1918.42 904.59 1914.7 904.59 1910.97 904.59 1907.95 907.689 1907.95 911.513L1907.95 920.744Z" stroke="#666666" stroke-width="4.64072" stroke-linecap="round" stroke-linejoin="round" stroke-miterlimit="10" fill="none" fill-rule="evenodd"/><text fill="#333333" font-family="Arial,Arial_MSFontService,sans-serif" font-weight="400" font-size="38" transform="matrix(1 0 0 1 2084.06 888)">Who: [Actor]</text><text fill="#333333" font-family="Arial,Arial_MSFontService,sans-serif" font-weight="400" font-size="38" transform="matrix(1 0 0 1 2084.06 934)">When: [Timestamp]</text><text fill="#333333" font-family="Arial,Arial_MSFontService,sans-serif" font-weight="400" font-size="38" transform="matrix(1 0 0 1 2084.06 981)">Why: [Rationale]</text><path d="M2540 541 2695 541" stroke="#D2A000" stroke-width="6.1875" stroke-miterlimit="8" fill="none" fill-rule="evenodd"/><path d="M3363.62 309C3370.46 309 3376 314.54 3376 321.373L3376 760.627C3376 767.46 3370.46 773 3363.62 773L2707.38 773C2700.54 773 2695 767.46 2695 760.627L2695 321.373C2695 314.54 2700.54 309 2707.38 309Z" stroke="#D2A000" stroke-width="6.1875" stroke-miterlimit="8" fill="#7F7F7F" fill-rule="evenodd"/><path d="M3036.33 384.533C3029.5 384.533 3023.96 390.073 3023.96 396.908 3023.96 403.742 3029.5 409.283 3036.33 409.283 3043.17 409.283 3048.71 403.742 3048.71 396.908 3048.71 390.073 3043.17 384.533 3036.33 384.533ZM3036.33 384.533 3036.33 483.533M2986.83 434.033 3085.83 434.033M3048.71 421.658 3023.96 446.408M3023.96 421.658 3048.71 446.408" stroke="#D2A000" stroke-width="7.425" stroke-linecap="round" stroke-linejoin="round" stroke-miterlimit="10" fill="none" fill-rule="evenodd"/><text fill="#333333" font-family="Arial,Arial_MSFontService,sans-serif" font-weight="400" font-size="55" transform="matrix(1 0 0 1 2926.62 581)">Execution</text><text fill="#333333" font-family="Arial,Arial_MSFontService,sans-serif" font-weight="400" font-size="41" transform="matrix(1 0 0 1 2808.35 659)">Actions, resources, timeline</text><path d="M2695.5 835.5 3376.5 835.5 3376.5 1021.5 2695.5 1021.5Z" stroke="#CCCCCC" stroke-width="3.09357" stroke-miterlimit="8" fill="#F5F5F5" fill-rule="evenodd"/><path d="M2740.79 920.744 2740.79 934.59 2758.79 934.59 2758.79 920.744ZM2743.04 920.744C2743.04 924.567 2746.06 927.667 2749.79 927.667 2753.52 927.667 2756.54 924.567 2756.54 920.744L2756.54 911.513C2756.54 907.689 2753.52 904.59 2749.79 904.59 2746.06 904.59 2743.04 907.689 2743.04 911.513L2743.04 920.744Z" stroke="#666666" stroke-width="4.64072" stroke-linecap="round" stroke-linejoin="round" stroke-miterlimit="10" fill="none" fill-rule="evenodd"/><text fill="#333333" font-family="Arial,Arial_MSFontService,sans-serif" font-weight="400" font-size="38" transform="matrix(1 0 0 1 2919.37 888)">Who: [Actor]</text><text fill="#333333" font-family="Arial,Arial_MSFontService,sans-serif" font-weight="400" font-size="38" transform="matrix(1 0 0 1 2919.37 934)">When: [Timestamp]</text><text fill="#333333" font-family="Arial,Arial_MSFontService,sans-serif" font-weight="400" font-size="38" transform="matrix(1 0 0 1 2919.37 981)">Why: [Rationale]</text><path d="M3376 541 3530 541" stroke="#D2A000" stroke-width="6.1875" stroke-miterlimit="8" fill="none" fill-rule="evenodd"/><path d="M4198.62 309C4205.46 309 4211 314.54 4211 321.373L4211 760.627C4211 767.46 4205.46 773 4198.62 773L3542.38 773C3535.54 773 3530 767.46 3530 760.627L3530 321.373C3530 314.54 3535.54 309 3542.38 309Z" stroke="#D2A000" stroke-width="6.1875" stroke-miterlimit="8" fill="#7F7F7F" fill-rule="evenodd"/><path d="M3821.93 458.783 3821.93 483.533 3920.93 483.533 3920.93 458.783ZM3834.3 458.783 3846.68 409.283 3859.05 434.033 3871.43 396.908 3883.8 421.658 3896.18 384.533 3908.55 458.783Z" stroke="#D2A000" stroke-width="7.425" stroke-linecap="round" stroke-linejoin="round" stroke-miterlimit="10" fill="none" fill-rule="evenodd"/><text fill="#333333" font-family="Arial,Arial_MSFontService,sans-serif" font-weight="400" font-size="55" transform="matrix(1 0 0 1 3728.94 581)">Performance</text><text fill="#333333" font-family="Arial,Arial_MSFontService,sans-serif" font-weight="400" font-size="41" transform="matrix(1 0 0 1 3631.25 659)">Results, learning, adjustment</text><path d="M3530.5 835.5 4211.5 835.5 4211.5 1021.5 3530.5 1021.5Z" stroke="#CCCCCC" stroke-width="3.09357" stroke-miterlimit="8" fill="#F5F5F5" fill-rule="evenodd"/><path d="M3575.91 920.744 3575.91 934.59 3594.91 934.59 3594.91 920.744ZM3578.28 920.744C3578.28 924.567 3581.47 927.667 3585.41 927.667 3589.34 927.667 3592.53 924.567 3592.53 920.744L3592.53 911.513C3592.53 907.689 3589.34 904.59 3585.41 904.59 3581.47 904.59 3578.28 907.689 3578.28 911.513L3578.28 920.744Z" stroke="#666666" stroke-width="4.64072" stroke-linecap="round" stroke-linejoin="round" stroke-miterlimit="10" fill="none" fill-rule="evenodd"/><text fill="#333333" font-family="Arial,Arial_MSFontService,sans-serif" font-weight="400" font-size="38" transform="matrix(1 0 0 1 3754.69 888)">Who: [Actor]</text><text fill="#333333" font-family="Arial,Arial_MSFontService,sans-serif" font-weight="400" font-size="38" transform="matrix(1 0 0 1 3754.69 934)">When: [Timestamp]</text><text fill="#333333" font-family="Arial,Arial_MSFontService,sans-serif" font-weight="400" font-size="38" transform="matrix(1 0 0 1 3754.69 981)">Why: [Rationale]</text><path d="M3920 1111.58 3920 1229 579 1229 579 770" stroke="#2D7A3E" stroke-width="6.1875" stroke-miterlimit="8" stroke-dasharray="23.2031 13.9219" fill="none" fill-rule="evenodd"/><text fill="#D2A000" font-family="Arial,Arial_MSFontService,sans-serif" font-weight="400" font-size="48" transform="matrix(1 0 0 1 3670.76 1092)">Continuous Learning</text><path d="M297 1362 4103 1362 4103 1610 297 1610Z" fill="#262626" fill-rule="evenodd"/><text fill="#FFFFFF" font-family="Arial,Arial_MSFontService,sans-serif" font-weight="400" font-size="69" transform="matrix(1 0 0 1 1677.19 1466)">Transparent | Accountable | Traceable</text><text fill="#E6F2FF" font-family="Arial,Arial_MSFontService,sans-serif" font-weight="400" font-size="48" transform="matrix(1 0 0 1 1677.57 1540)">Every decision documented, every outcome measured</text><path d="M189.5 835.5 870.5 835.5 870.5 1021.5 189.5 1021.5Z" stroke="#CCCCCC" stroke-width="3.09357" stroke-miterlimit="8" fill="#F5F5F5" fill-rule="evenodd"/><path d="M234.506 920.744 234.506 934.59 252.506 934.59 252.506 920.744ZM236.756 920.744C236.756 924.567 239.778 927.667 243.506 927.667 247.234 927.667 250.256 924.567 250.256 920.744L250.256 911.513C250.256 907.689 247.234 904.59 243.506 904.59 239.778 904.59 236.756 907.689 236.756 911.513L236.756 920.744Z" stroke="#666666" stroke-width="4.64072" stroke-linecap="round" stroke-linejoin="round" stroke-miterlimit="10" fill="none" fill-rule="evenodd"/><text fill="#333333" font-family="Arial,Arial_MSFontService,sans-serif" font-weight="400" font-size="38" transform="matrix(1 0 0 1 413.436 888)">Who: [Actor]</text><text fill="#333333" font-family="Arial,Arial_MSFontService,sans-serif" font-weight="400" font-size="38" transform="matrix(1 0 0 1 413.436 934)">When: [Timestamp]</text><text fill="#333333" font-family="Arial,Arial_MSFontService,sans-serif" font-weight="400" font-size="38" transform="matrix(1 0 0 1 413.436 981)">Why: [Rationale]</text></g></svg>