<svg width="3271" height="3025" xmlns="http://www.w3.org/2000/svg" xmlns:xlink="http://www.w3.org/1999/xlink" xml:space="preserve" overflow="hidden"><g transform="translate(2144 -3112)"><text fill="#333333" font-family="Arial,Arial_MSFontService,sans-serif" font-weight="700" font-size="103" transform="matrix(1 0 0 1 -1100.49 3243)">Cognitive Partnership</text><text fill="#666666" font-family="Arial,Arial_MSFontService,sans-serif" font-weight="700" font-size="83" transform="matrix(1 0 0 1 -1369.97 3367)">Complementary strengths, shared outcomes</text><path d="M-751.609 3434C-738.017 3434-727 3443.36-727 3454.91L-727 3609.09C-727 3620.64-738.017 3630-751.609 3630L-2117.39 3630C-2130.98 3630-2142 3620.64-2142 3609.09L-2142 3454.91C-2142 3443.36-2130.98 3434-2117.39 3434Z" fill="#262626" fill-rule="evenodd"/><text fill="#FFFFFF" font-family="Arial,Arial_MSFontService,sans-serif" font-weight="400" font-size="103" transform="matrix(1 0 0 1 -1983.73 3581)">Human Intelligence</text><path d="M-751.609 3721C-738.017 3721-727 3730.33-727 3741.84L-727 4169.16C-727 4180.67-738.017 4190-751.609 4190L-2117.39 4190C-2130.98 4190-2142 4180.67-2142 4169.16L-2142 3741.84C-2142 3730.33-2130.98 3721-2117.39 3721Z" stroke="#003366" stroke-width="3.90702" stroke-miterlimit="8" fill="#FBEFBF" fill-rule="evenodd"/><path d="M-1999 3877C-1999 3905.72-2022.28 3929-2051 3929-2079.72 3929-2103 3905.72-2103 3877-2103 3848.28-2079.72 3825-2051 3825-2022.28 3825-1999 3848.28-1999 3877Z" fill="#D2A000" fill-rule="evenodd"/><text font-family="Arial,Arial_MSFontService,sans-serif" font-weight="700" font-size="89" transform="matrix(1 0 0 1 -1946.68 3924)">Contextual Understanding</text><text fill="#4A4A4A" font-family="Arial,Arial_MSFontService,sans-serif" font-weight="400" font-size="69" transform="matrix(1 0 0 1 -1946.68 4046)">cultural, political, social context</text><path d="M-751.609 4281C-738.017 4281-727 4290.33-727 4301.84L-727 4729.16C-727 4740.67-738.017 4750-751.609 4750L-2117.39 4750C-2130.98 4750-2142 4740.67-2142 4729.16L-2142 4301.84C-2142 4290.33-2130.98 4281-2117.39 4281Z" stroke="#003366" stroke-width="3.90702" stroke-miterlimit="8" fill="#FBEFBF" fill-rule="evenodd"/><path d="M-1999 4437C-1999 4465.72-2022.28 4489-2051 4489-2079.72 4489-2103 4465.72-2103 4437-2103 4408.28-2079.72 4385-2051 4385-2022.28 4385-1999 4408.28-1999 4437Z" fill="#D2A000" fill-rule="evenodd"/><text font-family="Arial,Arial_MSFontService,sans-serif" font-weight="700" font-size="89" transform="matrix(1 0 0 1 -1946.68 4484)">Ethical Judgment</text><text fill="#4A4A4A" font-family="Arial,Arial_MSFontService,sans-serif" font-weight="400" font-size="69" transform="matrix(1 0 0 1 -1946.68 4606)">values, priorities, trade</text><text fill="#4A4A4A" font-family="Arial,Arial_MSFontService,sans-serif" font-weight="400" font-size="69" transform="matrix(1 0 0 1 -1254.02 4606)">-</text><text fill="#4A4A4A" font-family="Arial,Arial_MSFontService,sans-serif" font-weight="400" font-size="69" transform="matrix(1 0 0 1 -1231.11 4606)">offs</text><path d="M-751.609 4841C-738.017 4841-727 4850.33-727 4861.84L-727 5289.16C-727 5300.67-738.017 5310-751.609 5310L-2117.39 5310C-2130.98 5310-2142 5300.67-2142 5289.16L-2142 4861.84C-2142 4850.33-2130.98 4841-2117.39 4841Z" stroke="#003366" stroke-width="3.90702" stroke-miterlimit="8" fill="#FBEFBF" fill-rule="evenodd"/><path d="M-1999 4997C-1999 5025.72-2022.28 5049-2051 5049-2079.72 5049-2103 5025.72-2103 4997-2103 4968.28-2079.72 4945-2051 4945-2022.28 4945-1999 4968.28-1999 4997Z" fill="#D2A000" fill-rule="evenodd"/><text font-family="Arial,Arial_MSFontService,sans-serif" font-weight="700" font-size="89" transform="matrix(1 0 0 1 -1946.68 5044)">Strategic Vision</text><text fill="#4A4A4A" font-family="Arial,Arial_MSFontService,sans-serif" font-weight="400" font-size="69" transform="matrix(1 0 0 1 -1946.68 5166)">long</text><text fill="#4A4A4A" font-family="Arial,Arial_MSFontService,sans-serif" font-weight="400" font-size="69" transform="matrix(1 0 0 1 -1816.05 5166)">-</text><text fill="#4A4A4A" font-family="Arial,Arial_MSFontService,sans-serif" font-weight="400" font-size="69" transform="matrix(1 0 0 1 -1793.14 5166)">term goals, national interests</text><path d="M-751.609 5401C-738.017 5401-727 5410.33-727 5421.84L-727 5849.16C-727 5860.67-738.017 5870-751.609 5870L-2117.39 5870C-2130.98 5870-2142 5860.67-2142 5849.16L-2142 5421.84C-2142 5410.33-2130.98 5401-2117.39 5401Z" stroke="#003366" stroke-width="3.90702" stroke-miterlimit="8" fill="#FBEFBF" fill-rule="evenodd"/><path d="M-1999 5557.5C-1999 5586.5-2022.28 5610-2051 5610-2079.72 5610-2103 5586.5-2103 5557.5-2103 5528.51-2079.72 5505-2051 5505-2022.28 5505-1999 5528.51-1999 5557.5Z" fill="#D2A000" fill-rule="evenodd"/><text font-family="Arial,Arial_MSFontService,sans-serif" font-weight="700" font-size="89" transform="matrix(1 0 0 1 -1946.68 5604)">Stakeholder Management</text><text fill="#4A4A4A" font-family="Arial,Arial_MSFontService,sans-serif" font-weight="400" font-size="69" transform="matrix(1 0 0 1 -1946.68 5726)">negotiation, relationships</text><path d="M-726.5 3955.5-213.5 3955.5" stroke="#333333" stroke-width="5.20912" stroke-miterlimit="8" fill="none" fill-rule="evenodd"/><path d="M-726.5 4515.5-213.5 4515.5" stroke="#333333" stroke-width="5.20912" stroke-miterlimit="8" fill="none" fill-rule="evenodd"/><path d="M-726.5 5075.5-213.5 5075.5" stroke="#333333" stroke-width="5.20912" stroke-miterlimit="8" fill="none" fill-rule="evenodd"/><path d="M-726.5 5636.5-213.5 5636.5" stroke="#333333" stroke-width="5.20912" stroke-miterlimit="8" fill="none" fill-rule="evenodd"/><path d="M1096.55 3434C1111.16 3434 1123 3443.36 1123 3454.91L1123 3609.09C1123 3620.64 1111.16 3630 1096.55 3630L-371.548 3630C-386.157 3630-398 3620.64-398 3609.09L-398 3454.91C-398 3443.36-386.157 3434-371.548 3434Z" fill="#262626" fill-rule="evenodd"/><text fill="#FFFFFF" font-family="Arial,Arial_MSFontService,sans-serif" font-weight="400" font-size="103" transform="matrix(1 0 0 1 -104.635 3581)">AI Intelligence</text><path d="M1096.55 3721C1111.16 3721 1123 3730.33 1123 3741.84L1123 4169.16C1123 4180.67 1111.16 4190 1096.55 4190L-371.548 4190C-386.157 4190-398 4180.67-398 4169.16L-398 3741.84C-398 3730.33-386.157 3721-371.548 3721Z" stroke="#D2A000" stroke-width="3.90702" stroke-miterlimit="8" fill="#FFFFFF" fill-rule="evenodd"/><path d="M-260.844 3803.31-187.156 3877-260.844 3950.69-334.532 3877Z" fill="#D2A000" fill-rule="evenodd"/><text font-family="Arial,Arial_MSFontService,sans-serif" font-weight="700" font-size="89" transform="matrix(1 0 0 1 -156.634 3924)">Data Processing</text><text fill="#4A4A4A" font-family="Arial,Arial_MSFontService,sans-serif" font-weight="400" font-size="69" transform="matrix(1 0 0 1 -156.634 3996)">real</text><text fill="#4A4A4A" font-family="Arial,Arial_MSFontService,sans-serif" font-weight="400" font-size="69" transform="matrix(1 0 0 1 -41.4775 3996)">-</text><text fill="#4A4A4A" font-family="Arial,Arial_MSFontService,sans-serif" font-weight="400" font-size="69" transform="matrix(1 0 0 1 -18.5609 3996)">time analysis, pattern recognition</text><path d="M1096.55 4281C1111.16 4281 1123 4290.33 1123 4301.84L1123 4729.16C1123 4740.67 1111.16 4750 1096.55 4750L-371.548 4750C-386.157 4750-398 4740.67-398 4729.16L-398 4301.84C-398 4290.33-386.157 4281-371.548 4281Z" stroke="#D2A000" stroke-width="3.90702" stroke-miterlimit="8" fill="#FFFFFF" fill-rule="evenodd"/><path d="M-260.844 4363.45-187.156 4437.13-260.844 4510.82-334.532 4437.13Z" fill="#D2A000" fill-rule="evenodd"/><text font-family="Arial,Arial_MSFontService,sans-serif" font-weight="700" font-size="89" transform="matrix(1 0 0 1 -156.634 4484)">Simulation</text><text fill="#4A4A4A" font-family="Arial,Arial_MSFontService,sans-serif" font-weight="400" font-size="69" transform="matrix(1 0 0 1 -156.634 4556)">scenario modeling, impact prediction</text><path d="M1096.55 4841C1111.16 4841 1123 4850.33 1123 4861.84L1123 5289.16C1123 5300.67 1111.16 5310 1096.55 5310L-371.548 5310C-386.157 5310-398 5300.67-398 5289.16L-398 4861.84C-398 4850.33-386.157 4841-371.548 4841Z" stroke="#D2A000" stroke-width="3.90702" stroke-miterlimit="8" fill="#FFFFFF" fill-rule="evenodd"/><path d="M-260.844 4923.58-187.156 4997.27-260.844 5070.95-334.532 4997.27Z" fill="#D2A000" fill-rule="evenodd"/><text font-family="Arial,Arial_MSFontService,sans-serif" font-weight="700" font-size="89" transform="matrix(1 0 0 1 -156.634 5044)">Optimization</text><text fill="#4A4A4A" font-family="Arial,Arial_MSFontService,sans-serif" font-weight="400" font-size="69" transform="matrix(1 0 0 1 -156.634 5116)">resource allocation, efficiency</text><path d="M1096.55 5401C1111.16 5401 1123 5410.33 1123 5421.84L1123 5849.16C1123 5860.67 1111.16 5870 1096.55 5870L-371.548 5870C-386.157 5870-398 5860.67-398 5849.16L-398 5421.84C-398 5410.33-386.157 5401-371.548 5401Z" stroke="#D2A000" stroke-width="3.90702" stroke-miterlimit="8" fill="#FFFFFF" fill-rule="evenodd"/><path d="M-260.845 5483.71-187.157 5557.4-260.845 5631.09-334.533 5557.4Z" fill="#D2A000" fill-rule="evenodd"/><text font-family="Arial,Arial_MSFontService,sans-serif" font-weight="700" font-size="89" transform="matrix(1 0 0 1 -156.634 5604)">Continuous Learning</text><text fill="#4A4A4A" font-family="Arial,Arial_MSFontService,sans-serif" font-weight="400" font-size="69" transform="matrix(1 0 0 1 -156.634 5676)">adaptation, improvement</text><path d="M1105.21 5922C1117.24 5922 1127 5936 1127 5953.27L1127 6105.73C1127 6123 1117.24 6137 1105.21 6137L-2120.21 6137C-2132.24 6137-2142 6123-2142 6105.73L-2142 5953.27C-2142 5936-2132.24 5922-2120.21 5922Z" fill="#D2A000" fill-rule="evenodd"/><text fill="#FFFFFF" font-family="Arial,Arial_MSFontService,sans-serif" font-weight="400" font-size="83" transform="matrix(1 0 0 1 -1551.47 6060)">Enhanced Decision Quality + Accelerated Transformation</text></g></svg>