<svg width="3581" height="1873" xmlns="http://www.w3.org/2000/svg" xmlns:xlink="http://www.w3.org/1999/xlink" xml:space="preserve" overflow="hidden"><g transform="translate(-4986 -928)"><path d="M4989 931 8564 931 8564 1537 4989 1537Z" stroke="#333333" stroke-width="5.5" stroke-miterlimit="8" fill="#E6E6E6" fill-rule="evenodd"/><text font-family="Arial,Arial_MSFontService,sans-serif" font-weight="700" font-size="73" transform="matrix(1 0 0 1 5071.85 1065)">Digital Infrastructure Foundation</text><path d="M6146.49 1145C6155.61 1145 6163 1152.37 6163 1161.47L6163 1462.53C6163 1471.63 6155.61 1479 6146.49 1479L5060.51 1479C5051.39 1479 5044 1471.63 5044 1462.53L5044 1161.47C5044 1152.37 5051.39 1145 5060.51 1145Z" stroke="#666666" stroke-width="4.125" stroke-miterlimit="8" fill="#FFFFFF" fill-rule="evenodd"/><text font-family="Arial,Arial_MSFontService,sans-serif" font-weight="400" font-size="64" transform="matrix(1 0 0 1 5165.85 1314)">DGA Standards &amp; Frameworks</text><path d="M7319.5 1145C7328.61 1145 7336 1152.37 7336 1161.47L7336 1462.53C7336 1471.63 7328.61 1479 7319.5 1479L6234.5 1479C6225.38 1479 6218 1471.63 6218 1462.53L6218 1161.47C6218 1152.37 6225.38 1145 6234.5 1145Z" stroke="#666666" stroke-width="4.125" stroke-miterlimit="8" fill="#FFFFFF" fill-rule="evenodd"/><text font-family="Arial,Arial_MSFontService,sans-serif" font-weight="400" font-size="64" transform="matrix(1 0 0 1 6330.26 1314)">DEEM Cloud (Launching Soon)</text><path d="M8492.5 1145C8501.62 1145 8509 1152.37 8509 1161.47L8509 1462.53C8509 1471.63 8501.62 1479 8492.5 1479L7407.5 1479C7398.39 1479 7391 1471.63 7391 1462.53L7391 1161.47C7391 1152.37 7398.39 1145 7407.5 1145Z" stroke="#666666" stroke-width="4.125" stroke-miterlimit="8" fill="#FFFFFF" fill-rule="evenodd"/><text font-family="Arial,Arial_MSFontService,sans-serif" font-weight="400" font-size="64" transform="matrix(1 0 0 1 7634.88 1314)">SDAIA AI Governance</text><path d="M6736 1540 6818 1540 6777 1609Z" fill="#643301" fill-rule="evenodd"/><path d="M4989 1595 8564 1595 8564 2167 4989 2167Z" stroke="#333333" stroke-width="5.5" stroke-miterlimit="8" fill="#D2A000" fill-rule="evenodd"/><text font-family="Arial,Arial_MSFontService,sans-serif" font-weight="700" font-size="73" transform="matrix(1 0 0 1 5071.85 1729)">Cognitive Platform Layer</text><path d="M5852.5 1788C5861.61 1788 5869 1795.4 5869 1804.52L5869 2106.48C5869 2115.6 5861.61 2123 5852.5 2123L5060.5 2123C5051.39 2123 5044 2115.6 5044 2106.48L5044 1804.52C5044 1795.4 5051.39 1788 5060.5 1788Z" stroke="#666666" stroke-width="4.125" stroke-miterlimit="8" fill="#FBEFBF" fill-rule="evenodd"/><text font-family="Arial,Arial_MSFontService,sans-serif" font-weight="400" font-size="64" transform="matrix(1 0 0 1 5293.62 1938)">Digital Twin </text><text font-family="Arial,Arial_MSFontService,sans-serif" font-weight="400" font-size="64" transform="matrix(1 0 0 1 5172.39 2015)">Architecture (DTDL)</text><path d="M6732.5 1788C6741.61 1788 6749 1795.4 6749 1804.52L6749 2106.48C6749 2115.6 6741.61 2123 6732.5 2123L5940.5 2123C5931.39 2123 5924 2115.6 5924 2106.48L5924 1804.52C5924 1795.4 5931.39 1788 5940.5 1788Z" stroke="#666666" stroke-width="4.125" stroke-miterlimit="8" fill="#FBEFBF" fill-rule="evenodd"/><text font-family="Arial,Arial_MSFontService,sans-serif" font-weight="400" font-size="64" transform="matrix(1 0 0 1 6036.06 1949)">Semantic Knowledge </text><text font-family="Arial,Arial_MSFontService,sans-serif" font-weight="400" font-size="64" transform="matrix(1 0 0 1 6232 2026)">Graphs</text><path d="M7612.5 1788C7621.61 1788 7629 1795.4 7629 1804.52L7629 2106.48C7629 2115.6 7621.61 2123 7612.5 2123L6820.5 2123C6811.39 2123 6804 2115.6 6804 2106.48L6804 1804.52C6804 1795.4 6811.39 1788 6820.5 1788Z" stroke="#666666" stroke-width="4.125" stroke-miterlimit="8" fill="#FBEFBF" fill-rule="evenodd"/><path d="M8492.5 1788C8501.61 1788 8509 1795.4 8509 1804.52L8509 2106.48C8509 2115.6 8501.61 2123 8492.5 2123L7700.5 2123C7691.39 2123 7684 2115.6 7684 2106.48L7684 1804.52C7684 1795.4 7691.39 1788 7700.5 1788Z" stroke="#666666" stroke-width="4.125" stroke-miterlimit="8" fill="#FBEFBF" fill-rule="evenodd"/><text font-family="Arial,Arial_MSFontService,sans-serif" font-weight="400" font-size="64" transform="matrix(1 0 0 1 7796.06 1949)">AI Reasoning Engine</text><path d="M6736 2172 6818 2172 6777 2240Z" fill="#643301" fill-rule="evenodd"/><path d="M4989 2227 8564 2227 8564 2798 4989 2798Z" stroke="#333333" stroke-width="5.5" stroke-miterlimit="8" fill="#A6A6A6" fill-rule="evenodd"/><text font-family="Arial,Arial_MSFontService,sans-serif" font-weight="700" font-size="73" transform="matrix(1 0 0 1 5071.85 2360)">Cognitive Services</text><path d="M5852.5 2419C5861.61 2419 5869 2426.4 5869 2435.52L5869 2737.48C5869 2746.6 5861.61 2754 5852.5 2754L5060.5 2754C5051.39 2754 5044 2746.6 5044 2737.48L5044 2435.52C5044 2426.4 5051.39 2419 5060.5 2419Z" stroke="#666666" stroke-width="4.125" stroke-miterlimit="8" fill="#262626" fill-rule="evenodd"/><text fill="#FFFFFF" font-family="Arial,Arial_MSFontService,sans-serif" font-weight="400" font-size="64" transform="matrix(1 0 0 1 5212.78 2565)">Policy Simulation</text><path d="M6732.5 2419C6741.61 2419 6749 2426.4 6749 2435.52L6749 2737.48C6749 2746.6 6741.61 2754 6732.5 2754L5940.5 2754C5931.39 2754 5924 2746.6 5924 2737.48L5924 2435.52C5924 2426.4 5931.39 2419 5940.5 2419Z" stroke="#666666" stroke-width="4.125" stroke-miterlimit="8" fill="#262626" fill-rule="evenodd"/><text fill="#FFFFFF" font-family="Arial,Arial_MSFontService,sans-serif" font-weight="400" font-size="64" transform="matrix(1 0 0 1 6153.8 2565)">Performance</text><text fill="#FFFFFF" font-family="Arial,Arial_MSFontService,sans-serif" font-weight="400" font-size="64" transform="matrix(1 0 0 1 6175 2642)">Intelligence</text><path d="M7612.5 2419C7621.61 2419 7629 2426.4 7629 2435.52L7629 2737.48C7629 2746.6 7621.61 2754 7612.5 2754L6820.5 2754C6811.39 2754 6804 2746.6 6804 2737.48L6804 2435.52C6804 2426.4 6811.39 2419 6820.5 2419Z" stroke="#666666" stroke-width="4.125" stroke-miterlimit="8" fill="#262626" fill-rule="evenodd"/><text fill="#FFFFFF" font-family="Arial,Arial_MSFontService,sans-serif" font-weight="400" font-size="64" transform="matrix(1 0 0 1 6973.07 2565)">Decision Support</text><path d="M8492.5 2419C8501.61 2419 8509 2426.4 8509 2435.52L8509 2737.48C8509 2746.6 8501.61 2754 8492.5 2754L7700.5 2754C7691.39 2754 7684 2746.6 7684 2737.48L7684 2435.52C7684 2426.4 7691.39 2419 7700.5 2419Z" stroke="#666666" stroke-width="4.125" stroke-miterlimit="8" fill="#262626" fill-rule="evenodd"/><text fill="#FFFFFF" font-family="Arial,Arial_MSFontService,sans-serif" font-weight="400" font-size="64" transform="matrix(1 0 0 1 7892.31 2565)">Cross</text><text fill="#FFFFFF" font-family="Arial,Arial_MSFontService,sans-serif" font-weight="400" font-size="64" transform="matrix(1 0 0 1 8059.61 2565)">-</text><text fill="#FFFFFF" font-family="Arial,Arial_MSFontService,sans-serif" font-weight="400" font-size="64" transform="matrix(1 0 0 1 8080.8 2565)">Ministry </text><text fill="#FFFFFF" font-family="Arial,Arial_MSFontService,sans-serif" font-weight="400" font-size="64" transform="matrix(1 0 0 1 7908.36 2642)">Collaboration</text><text font-family="Arial,Arial_MSFontService,sans-serif" font-weight="400" font-size="64" transform="matrix(1 0 0 1 7003.43 1949)">Real</text><text font-family="Arial,Arial_MSFontService,sans-serif" font-weight="400" font-size="64" transform="matrix(1 0 0 1 7135.21 1949)">-</text><text font-family="Arial,Arial_MSFontService,sans-serif" font-weight="400" font-size="64" transform="matrix(1 0 0 1 7156.4 1949)">time Data </text><text font-family="Arial,Arial_MSFontService,sans-serif" font-weight="400" font-size="64" transform="matrix(1 0 0 1 7065.88 2026)">Integration</text></g></svg>