<svg width="2030" height="2072" xmlns="http://www.w3.org/2000/svg" xmlns:xlink="http://www.w3.org/1999/xlink" xml:space="preserve" overflow="hidden"><defs><clipPath id="clip0"><rect x="1332" y="0" width="2030" height="2072"/></clipPath></defs><g clip-path="url(#clip0)" transform="translate(-1332 0)"><path d="M0 66C-8.40268e-15 29.5492 29.5492-8.40268e-15 66-1.68054e-14 102.451-3.36107e-14 132 29.5492 132 66 132 102.451 102.451 132 66 132 29.5492 132-4.20134e-14 102.451 0 66Z" stroke="#BFBFBF" stroke-width="2.29167" stroke-linejoin="round" stroke-miterlimit="10" fill="#616161" fill-rule="evenodd" transform="matrix(-1 0 0 1 2425 486)"/><text fill="#FFFFFF" font-family="Calibri,Calibri_MSFontService,sans-serif" font-weight="400" font-size="23" transform="matrix(1 0 0 1 2318.43 560)">Business</text><path d="M0 66C-8.40268e-15 29.5492 29.5492-8.40268e-15 66-1.68054e-14 102.451-3.36107e-14 132 29.5492 132 66 132 102.451 102.451 132 66 132 29.5492 132-4.20134e-14 102.451 0 66Z" stroke="#BFBFBF" stroke-width="2.29167" stroke-linejoin="round" stroke-miterlimit="10" fill="#616161" fill-rule="evenodd" transform="matrix(-1 0 0 1 2425 317)"/><text fill="#FFFFFF" font-family="Calibri,Calibri_MSFontService,sans-serif" font-weight="400" font-size="23" transform="matrix(1 0 0 1 2327.6 390)">Citizen</text><path d="M0 66C-8.40268e-15 29.5492 29.5492-8.40268e-15 66-1.68054e-14 102.451-3.36107e-14 132 29.5492 132 66 132 102.451 102.451 132 66 132 29.5492 132-4.20134e-14 102.451 0 66Z" stroke="#BFBFBF" stroke-width="2.29167" stroke-linejoin="round" stroke-miterlimit="10" fill="#616161" fill-rule="evenodd" transform="matrix(-1 0 0 1 2425 647)"/><text fill="#FFFFFF" font-family="Calibri,Calibri_MSFontService,sans-serif" font-weight="400" font-size="23" transform="matrix(1 0 0 1 2337.64 707)">Gov. </text><text fill="#FFFFFF" font-family="Calibri,Calibri_MSFontService,sans-serif" font-weight="400" font-size="23" transform="matrix(1 0 0 1 2324.16 735)">Entities</text><path d="M0 86.0001C-1.11399e-14 38.5036 39.1751-1.0949e-14 87.5-2.18979e-14 135.825-4.37958e-14 175 38.5036 175 86.0001 175 133.497 135.825 172 87.5 172 39.1751 172-5.56996e-14 133.497 0 86.0001Z" stroke="#BFBFBF" stroke-width="2.29167" stroke-miterlimit="8" fill="#616161" fill-rule="evenodd" transform="matrix(-1 0 0 1 2441 29.9999)"/><text fill="#FFFFFF" font-family="Calibri,Calibri_MSFontService,sans-serif" font-weight="400" font-size="28" transform="matrix(1 0 0 1 2295.1 125)">Objectives</text><path d="M0 82.5C-1.05034e-14 36.9365 36.9365-1.05034e-14 82.5-2.10067e-14 128.063-4.20134e-14 165 36.9365 165 82.5 165 128.063 128.063 165 82.5 165 36.9365 165-5.25168e-14 128.063 0 82.5Z" stroke="#BFBFBF" stroke-width="6.875" stroke-miterlimit="8" fill="#616161" fill-rule="evenodd" transform="matrix(-1 0 0 1 1711.5 1378.5)"/><text fill="#FFFFFF" font-family="Calibri,Calibri_MSFontService,sans-serif" font-weight="400" font-size="28" transform="matrix(1 0 0 1 1587.38 1454)">Culture </text><text fill="#FFFFFF" font-family="Calibri,Calibri_MSFontService,sans-serif" font-weight="400" font-size="28" transform="matrix(1 0 0 1 1591.69 1487)">Health</text><path d="M0 99C-1.32406e-14 44.3238 46.5624-1.2604e-14 104-2.5208e-14 161.438-5.04161e-14 208 44.3238 208 99 208 153.676 161.438 198 104 198 46.5624 198-6.62029e-14 153.676 0 99Z" stroke="#BFBFBF" stroke-width="3.4375" stroke-linejoin="round" stroke-miterlimit="10" fill="#616161" fill-rule="evenodd" transform="matrix(-1 0 0 1 2094.5 1362.5)"/><text fill="#FFFFFF" font-family="Calibri,Calibri_MSFontService,sans-serif" font-weight="400" font-size="28" transform="matrix(1 0 0 1 1918.16 1470)">Organization</text><path d="M0 99C-1.31769e-14 44.3238 46.3385-1.2604e-14 103.5-2.5208e-14 160.661-5.04161e-14 207 44.3238 207 99 207 153.676 160.661 198 103.5 198 46.3385 198-6.58846e-14 153.676 0 99Z" stroke="#BFBFBF" stroke-width="3.4375" stroke-linejoin="round" stroke-miterlimit="10" fill="#616161" fill-rule="evenodd" transform="matrix(-1 0 0 1 2821.5 1362.5)"/><text fill="#FFFFFF" font-family="Calibri,Calibri_MSFontService,sans-serif" font-weight="400" font-size="28" transform="matrix(1 0 0 1 2658.29 1470)">IT Systems </text><path d="M0 82.5C-1.05034e-14 36.9365 36.9365-1.05034e-14 82.5-2.10067e-14 128.063-4.20134e-14 165 36.9365 165 82.5 165 128.063 128.063 165 82.5 165 36.9365 165-5.25168e-14 128.063 0 82.5Z" stroke="#BFBFBF" stroke-width="6.875" stroke-miterlimit="8" fill="#595959" fill-rule="evenodd" transform="matrix(-1 0 0 1 3166.5 1378.5)"/><text fill="#FFFFFF" font-family="Calibri,Calibri_MSFontService,sans-serif" font-weight="400" font-size="28" transform="matrix(1 0 0 1 3042.7 1454)">Vendor </text><text fill="#FFFFFF" font-family="Calibri,Calibri_MSFontService,sans-serif" font-weight="400" font-size="28" transform="matrix(1 0 0 1 3063.6 1487)">SLA</text><path d="M0 99C-1.31769e-14 44.3238 46.3385-1.2604e-14 103.5-2.5208e-14 160.661-5.04161e-14 207 44.3238 207 99 207 153.676 160.661 198 103.5 198 46.3385 198-6.58846e-14 153.676 0 99Z" stroke="#BFBFBF" stroke-width="3.4375" stroke-linejoin="round" stroke-miterlimit="10" fill="#616161" fill-rule="evenodd" transform="matrix(-1 0 0 1 2457.5 1362.5)"/><text fill="#FFFFFF" font-family="Calibri,Calibri_MSFontService,sans-serif" font-weight="400" font-size="28" transform="matrix(1 0 0 1 2298.54 1470)">Processes</text><path d="M0 82.5C-1.05034e-14 36.9365 36.9365-1.05034e-14 82.5-2.10067e-14 128.063-4.20134e-14 165 36.9365 165 82.5 165 128.063 128.063 165 82.5 165 36.9365 165-5.25168e-14 128.063 0 82.5Z" stroke="#BFBFBF" stroke-width="2.29167" stroke-miterlimit="8" fill="#616161" fill-rule="evenodd" transform="matrix(-1 0 0 1 2436 834)"/><text fill="#FFFFFF" font-family="Calibri,Calibri_MSFontService,sans-serif" font-weight="400" font-size="28" transform="matrix(1 0 0 1 2325.75 926)">Risks</text><path d="M0 82.5C-1.05034e-14 36.9365 36.9365-1.05034e-14 82.5-2.10067e-14 128.063-4.20134e-14 165 36.9365 165 82.5 165 128.063 128.063 165 82.5 165 36.9365 165-5.25168e-14 128.063 0 82.5Z" stroke="#BFBFBF" stroke-width="2.29167" stroke-miterlimit="8" fill="#616161" fill-rule="evenodd" transform="matrix(-1 0 0 1 2436 1084)"/><text fill="#FFFFFF" font-family="Calibri,Calibri_MSFontService,sans-serif" font-weight="400" font-size="28" transform="matrix(1 0 0 1 2298.25 1176)">Capability</text><path d="M0 108.5C-1.45774e-14 48.5771 51.2634-1.38135e-14 114.5-2.7627e-14 177.737-5.5254e-14 229 48.5771 229 108.5 229 168.423 177.737 217 114.5 217 51.2634 217-7.28869e-14 168.423 0 108.5Z" stroke="#BFBFBF" stroke-width="2.29167" stroke-miterlimit="8" fill="#616161" fill-rule="evenodd" transform="matrix(-1 0 0 1 1835 444)"/><text fill="#FFFFFF" font-family="Calibri,Calibri_MSFontService,sans-serif" font-weight="400" font-size="28" transform="matrix(1 0 0 1 1655.26 562)">Policy Tools</text><path d="M0 108.5C-1.4641e-14 48.5771 51.4872-1.38135e-14 115-2.7627e-14 178.513-5.5254e-14 230 48.5771 230 108.5 230 168.423 178.513 217 115 217 51.4872 217-7.32052e-14 168.423 0 108.5Z" stroke="#BFBFBF" stroke-width="2.29167" stroke-miterlimit="8" fill="#616161" fill-rule="evenodd" transform="matrix(-1 0 0 1 3113 444)"/><text fill="#FFFFFF" font-family="Calibri,Calibri_MSFontService,sans-serif" font-weight="400" font-size="28" transform="matrix(1 0 0 1 2925.58 562)">Performance</text><path d="M0 82.5C-1.05034e-14 36.9365 36.9365-1.05034e-14 82.5-2.10067e-14 128.063-4.20134e-14 165 36.9365 165 82.5 165 128.063 128.063 165 82.5 165 36.9365 165-5.25168e-14 128.063 0 82.5Z" stroke="#BFBFBF" stroke-width="2.29167" stroke-linejoin="round" stroke-miterlimit="10" fill="#616161" fill-rule="evenodd" transform="matrix(-1 0 0 1 2125 470)"/><text fill="#FFFFFF" font-family="Calibri,Calibri_MSFontService,sans-serif" font-weight="400" font-size="23" transform="matrix(1 0 0 1 2011.7 546)">Admin </text><text fill="#FFFFFF" font-family="Calibri,Calibri_MSFontService,sans-serif" font-weight="400" font-size="23" transform="matrix(1 0 0 1 2004.55 574)">Records</text><path d="M0 82.5C-1.05034e-14 36.9365 36.9365-1.05034e-14 82.5-2.10067e-14 128.063-4.20134e-14 165 36.9365 165 82.5 165 128.063 128.063 165 82.5 165 36.9365 165-5.25168e-14 128.063 0 82.5Z" stroke="#BFBFBF" stroke-width="2.29167" stroke-linejoin="round" stroke-miterlimit="10" fill="#616161" fill-rule="evenodd" transform="matrix(-1 0 0 1 2765 470)"/><text fill="#FFFFFF" font-family="Calibri,Calibri_MSFontService,sans-serif" font-weight="400" font-size="23" transform="matrix(1 0 0 1 2661.12 546)">Data </text><text fill="#FFFFFF" font-family="Calibri,Calibri_MSFontService,sans-serif" font-weight="400" font-size="23" transform="matrix(1 0 0 1 2628.76 574)">Transaction</text><path d="M0 82.5C-1.05034e-14 36.9365 36.9365-1.05034e-14 82.5-2.10067e-14 128.063-4.20134e-14 165 36.9365 165 82.5 165 128.063 128.063 165 82.5 165 36.9365 165-5.25168e-14 128.063 0 82.5Z" stroke="#BFBFBF" stroke-width="2.29167" stroke-miterlimit="8" fill="#616161" fill-rule="evenodd" transform="matrix(-1 0 0 1 2438 1647)"/><text fill="#FFFFFF" font-family="Calibri,Calibri_MSFontService,sans-serif" font-weight="400" font-size="28" transform="matrix(1 0 0 1 2310.59 1722)">Projects </text><text fill="#FFFFFF" font-family="Calibri,Calibri_MSFontService,sans-serif" font-weight="400" font-size="28" transform="matrix(1 0 0 1 2310.29 1755)">Outputs</text><path d="M0 82.5C-1.05034e-14 36.9365 36.9365-1.05034e-14 82.5-2.10067e-14 128.063-4.20134e-14 165 36.9365 165 82.5 165 128.063 128.063 165 82.5 165 36.9365 165-5.25168e-14 128.063 0 82.5Z" stroke="#BFBFBF" stroke-width="6.875" stroke-miterlimit="8" fill="#616161" fill-rule="evenodd" transform="matrix(-1 0 0 1 2438.5 1890.5)"/><text fill="#FFFFFF" font-family="Calibri,Calibri_MSFontService,sans-serif" font-weight="400" font-size="23" transform="matrix(1 0 0 1 2320.72 1966)">Change </text><text fill="#FFFFFF" font-family="Calibri,Calibri_MSFontService,sans-serif" font-weight="400" font-size="23" transform="matrix(1 0 0 1 2297.51 1994)">Architecture </text><rect x="0" y="0" width="2024" height="1050" fill="#111827" transform="matrix(-1 0 0 1 3362 1022)"/><text fill="#FFFFFF" font-family="Calibri,Calibri_MSFontService,sans-serif" font-weight="700" font-size="64" transform="matrix(1 0 0 1 1370.73 1923)">Entity</text><rect x="0" y="0" width="2024" height="1024" fill="#111827" transform="matrix(-1 0 0 1 3362 0)"/><text fill="#FFFFFF" font-family="Calibri,Calibri_MSFontService,sans-serif" font-weight="700" font-size="64" transform="matrix(1 0 0 1 1370.73 192)">Sector</text><path d="M0 55.5008C-8.95172e-15 24.8486 24.8485-8.95174e-15 55.5007-1.79035e-14L1069.5 0C1100.15-1.79035e-14 1125 24.8486 1125 55.5008L1125 277.499C1125 308.152 1100.15 333 1069.5 333L55.5007 333C24.8485 333 0 308.152 0 277.499Z" fill="#1F2937" fill-rule="evenodd" transform="matrix(-1 0 0 1 2916 1285)"/><text fill="#FFFFFF" font-family="Calibri,Calibri_MSFontService,sans-serif" font-weight="400" font-size="28" transform="matrix(1 0 0 1 2789.9 1553)">Depends </text><text fill="#FFFFFF" font-family="Calibri,Calibri_MSFontService,sans-serif" font-weight="400" font-size="28" transform="matrix(1 0 0 1 2789.9 1586)">On</text><text fill="#FFFFFF" font-family="Calibri,Calibri_MSFontService,sans-serif" font-weight="400" font-size="28" transform="matrix(1 0 0 1 1812.6 1553)">Monitors </text><text fill="#FFFFFF" font-family="Calibri,Calibri_MSFontService,sans-serif" font-weight="400" font-size="28" transform="matrix(1 0 0 1 1812.6 1586)">For</text><text fill="#FFFFFF" font-family="Calibri,Calibri_MSFontService,sans-serif" font-weight="400" font-size="28" transform="matrix(1 0 0 1 2199.69 1553)">Apply</text><text fill="#FFFFFF" font-family="Calibri,Calibri_MSFontService,sans-serif" font-weight="400" font-size="28" transform="matrix(1 0 0 1 2567.92 1553)">Utilize</text><text fill="#FFFFFF" font-family="Calibri,Calibri_MSFontService,sans-serif" font-weight="400" font-size="28" transform="matrix(1 0 0 1 1840.49 1341)">Roles Gap</text><text fill="#FFFFFF" font-family="Calibri,Calibri_MSFontService,sans-serif" font-weight="400" font-size="28" transform="matrix(1 0 0 1 2137.93 1341)">Knowledge Gaps</text><text fill="#FFFFFF" font-family="Calibri,Calibri_MSFontService,sans-serif" font-weight="400" font-size="28" transform="matrix(1 0 0 1 2494.06 1341)">Automation Gaps</text><path d="M0 84.668C-1.46729e-14 37.9072 37.9071 0 84.6679 0L837.332 0C884.093-1.46729e-14 922 37.9072 922 84.668L922 423.332C922 470.093 884.093 508 837.332 508L84.6679 508C37.9071 508 0 470.093 0 423.332Z" fill="#1F2937" fill-rule="evenodd" transform="matrix(-1 0 0 1 2821 292)"/><path d="M13.7498-2.29167 545.398-2.29167C546.664-2.29167 547.69-1.26565 547.69 0L547.69 314.135C547.69 315.4 546.664 316.426 545.398 316.426 544.133 316.426 543.107 315.4 543.107 314.135L543.107 0 545.398 2.29167 13.7498 2.29167C12.4841 2.29167 11.4581 1.26565 11.4581 0 11.4581-1.26565 12.4841-2.29167 13.7498-2.29167ZM18.3333 13.75 0 0 18.3333-13.75ZM559.148 309.551 545.398 327.884 531.648 309.551Z" fill="#FFFFFF" transform="matrix(-1 0 0 1 2266.9 116.5)"/><path d="M2455.25 114.208 2998.45 114.208C2999.72 114.208 3000.75 115.234 3000.75 116.5L3000.75 430.635C3000.75 431.9 2999.72 432.926 2998.45 432.926 2997.19 432.926 2996.16 431.9 2996.16 430.635L2996.16 116.5 2998.45 118.792 2455.25 118.792C2453.98 118.792 2452.96 117.766 2452.96 116.5 2452.96 115.234 2453.98 114.208 2455.25 114.208ZM2459.83 130.25 2441.5 116.5 2459.83 102.75ZM3012.2 426.051 2998.45 444.384 2984.7 426.051Z" fill="#FFFFFF"/><path d="M1592.75 554.792 1524 554.792 1526.29 552.5 1526.29 1166.52 1524 1164.23 2258.08 1164.23C2259.35 1164.23 2260.37 1165.25 2260.37 1166.52 2260.37 1167.78 2259.35 1168.81 2258.08 1168.81L1524 1168.81C1522.73 1168.81 1521.71 1167.78 1521.71 1166.52L1521.71 552.5C1521.71 551.234 1522.73 550.208 1524 550.208L1592.75 550.208C1594.02 550.208 1595.04 551.234 1595.04 552.5 1595.04 553.766 1594.02 554.792 1592.75 554.792ZM1588.17 538.75 1606.5 552.5 1588.17 566.25ZM2253.5 1152.77 2271.83 1166.52 2253.5 1180.27Z" fill="#FFFFFF"/><path d="M2356.79 1013.25 2356.79 1070.2C2356.79 1071.46 2355.77 1072.49 2354.5 1072.49 2353.23 1072.49 2352.21 1071.46 2352.21 1070.2L2352.21 1013.25C2352.21 1011.98 2353.23 1010.96 2354.5 1010.96 2355.77 1010.96 2356.79 1011.98 2356.79 1013.25ZM2340.75 1017.83 2354.5 999.5 2368.25 1017.83ZM2368.25 1065.61 2354.5 1083.95 2340.75 1065.61Z" fill="#FFFFFF"/><path d="M13.75-2.29167 258.268-2.29167 258.268 536.714 253.685 536.714 253.685 0 255.977 2.29167 13.75 2.29167ZM18.3333 13.75 0 0 18.3333-13.75ZM269.727 532.13 255.977 550.463 242.227 532.13Z" fill="#FFFFFF" transform="matrix(1.83697e-16 1 1 -1.83697e-16 1721.5 661.5)"/><path d="M13.7498-2.29167 564.31-2.29167 564.31 242.227 559.727 242.227 559.727 0 562.018 2.29167 13.7498 2.29167ZM18.3333 13.75 0 0 18.3333-13.75ZM575.768 237.643 562.018 255.977 548.268 237.643Z" fill="#FFFFFF" transform="matrix(1 -1.22465e-16 -1.22465e-16 -1 2436.5 917.477)"/><path d="M13.75-1.71872 168.247-1.71839C169.197-1.71839 169.966-0.948875 169.966 0.000364579 169.966 0.949604 169.197 1.71911 168.247 1.71911L13.75 1.71878C12.8008 1.71878 12.0313 0.949265 12.0313 2.58072e-05 12.0313-0.949214 12.8008-1.71872 13.75-1.71872ZM18.3333 13.75 0 0 18.3334-13.75Z" fill="#FFFFFF" transform="matrix(-1 0 0 1 2293.75 552.5)"/><path d="M13.75-1.71872 175.578-1.71839C176.527-1.71839 177.297-0.948875 177.297 0.000364425 177.297 0.949604 176.527 1.71911 175.578 1.71911L13.75 1.71878C12.8008 1.71878 12.0313 0.949264 12.0313 2.47297e-05 12.0313-0.949215 12.8008-1.71872 13.75-1.71872ZM18.3333 13.75 0 0 18.3334-13.75Z" fill="#FFFFFF" transform="matrix(-1 0 0 1 2601.08 552.5)"/><path d="M13.75-1.71871 117.787-1.71839C118.736-1.71839 119.506-0.948873 119.506 0.000366159 119.506 0.949606 118.736 1.71911 117.787 1.71911L13.75 1.71879C12.8008 1.71879 12.0313 0.949276 12.0313 3.68631e-05 12.0313-0.949203 12.8008-1.71871 13.75-1.71871ZM18.3333 13.7501 0 0 18.3334-13.7499Z" fill="#FFFFFF" transform="matrix(-1 0 0 1 2883.29 552.5)"/><path d="M2279.5 715.678 2042.5 715.678C2041.55 715.678 2040.78 714.908 2040.78 713.959L2040.78 635.5C2040.78 634.551 2041.55 633.781 2042.5 633.781 2043.45 633.781 2044.22 634.551 2044.22 635.5L2044.22 713.959 2042.5 712.24 2279.5 712.24C2280.45 712.24 2281.22 713.01 2281.22 713.959 2281.22 714.908 2280.45 715.678 2279.5 715.678ZM2274.91 700.209 2293.25 713.959 2274.91 727.709Z" fill="#FFFFFF"/><path d="M13.75-1.71875 250.747-1.71875C251.697-1.71875 252.466-0.949239 252.466 0L252.466 86.7087C252.466 87.658 251.697 88.4275 250.747 88.4275 249.798 88.4275 249.029 87.658 249.029 86.7087L249.029 0 250.747 1.71875 13.75 1.71875C12.8008 1.71875 12.0313 0.949239 12.0313 0 12.0313-0.949239 12.8008-1.71875 13.75-1.71875ZM18.3333 13.75 0 0 18.3333-13.75Z" fill="#FFFFFF" transform="matrix(-1 1.22465e-16 1.22465e-16 1 2293.25 383.5)"/><path d="M2685.3 649.25 2685.3 713.959C2685.3 714.908 2684.53 715.678 2683.58 715.678L2425.5 715.678C2424.55 715.678 2423.78 714.908 2423.78 713.959 2423.78 713.01 2424.55 712.24 2425.5 712.24L2683.58 712.24 2681.86 713.959 2681.86 649.25C2681.86 648.301 2682.63 647.531 2683.58 647.531 2684.53 647.531 2685.3 648.301 2685.3 649.25ZM2669.83 653.833 2683.58 635.5 2697.33 653.833Z" fill="#FFFFFF"/><path d="M13.75-1.71875 86.7087-1.71875C87.658-1.71875 88.4275-0.949239 88.4275 0L88.4275 258.078C88.4275 259.027 87.658 259.797 86.7087 259.797 85.7595 259.797 84.99 259.027 84.99 258.078L84.99 0 86.7087 1.71875 13.75 1.71875C12.8007 1.71875 12.0312 0.949239 12.0312 0 12.0312-0.949239 12.8007-1.71875 13.75-1.71875ZM18.3333 13.75 0 0 18.3333-13.75Z" fill="#FFFFFF" transform="matrix(-1.83697e-16 -1 -1 1.83697e-16 2683.58 470.209)"/><path d="M2.32413 13.7445 2.44433 64.6463C2.44732 65.912 1.42373 66.9404 0.15808 66.9434-1.10757 66.9464-2.136 65.9228-2.13899 64.6572L-2.25919 13.7554C-2.26218 12.4897-1.23859 11.4613 0.0270576 11.4583 1.29271 11.4553 2.32114 12.4789 2.32413 13.7445ZM-13.7067 18.3658 0 0 13.7933 18.3008ZM13.8918 60.036 0.185138 78.4017-13.6081 60.1009Z" fill="#FFFFFF" transform="matrix(1 0 0 -1 2355.5 1890.9)"/><text fill="#FFFFFF" font-family="Calibri,Calibri_MSFontService,sans-serif" font-weight="400" font-size="28" transform="matrix(1 0 0 1 2842.03 190)">Aggregates </text><text fill="#FFFFFF" font-family="Calibri,Calibri_MSFontService,sans-serif" font-weight="400" font-size="28" transform="matrix(1 0 0 1 2842.03 223)">To</text><text fill="#FFFFFF" font-family="Calibri,Calibri_MSFontService,sans-serif" font-weight="400" font-size="28" transform="matrix(1 0 0 1 1746.18 188)">Governed </text><text fill="#FFFFFF" font-family="Calibri,Calibri_MSFontService,sans-serif" font-weight="400" font-size="28" transform="matrix(1 0 0 1 1746.18 221)">By</text><text fill="#FFFFFF" font-family="Calibri,Calibri_MSFontService,sans-serif" font-weight="400" font-size="28" transform="matrix(1 0 0 1 1844.42 463)">Refers To</text><text fill="#FFFFFF" font-family="Calibri,Calibri_MSFontService,sans-serif" font-weight="400" font-size="28" transform="matrix(1 0 0 1 2119.02 464)">Applied On</text><text fill="#FFFFFF" font-family="Calibri,Calibri_MSFontService,sans-serif" font-weight="400" font-size="28" transform="matrix(1 0 0 1 2446.98 467)">Triggers Event</text><text fill="#FFFFFF" font-family="Calibri,Calibri_MSFontService,sans-serif" font-weight="400" font-size="28" transform="matrix(1 0 0 1 2744.07 461)">Measured By</text><text fill="#FFFFFF" font-family="Calibri,Calibri_MSFontService,sans-serif" font-weight="400" font-size="28" transform="matrix(1 0 0 1 3118.35 517)">Targets</text><text fill="#FFFFFF" font-family="Calibri,Calibri_MSFontService,sans-serif" font-weight="400" font-size="28" transform="matrix(1 0 0 1 2507.79 1130)">Reports</text><text fill="#FFFFFF" font-family="Calibri,Calibri_MSFontService,sans-serif" font-weight="400" font-size="28" transform="matrix(1 0 0 1 1469.82 537)">Prioritizes</text><text fill="#FFFFFF" font-family="Calibri,Calibri_MSFontService,sans-serif" font-weight="400" font-size="28" transform="matrix(1 0 0 1 2870.5 883)">Informs</text><text fill="#FFFFFF" font-family="Calibri,Calibri_MSFontService,sans-serif" font-weight="400" font-size="28" transform="matrix(1 0 0 1 1774.1 886)">Informs</text><text fill="#FFFFFF" font-family="Calibri,Calibri_MSFontService,sans-serif" font-weight="400" font-size="28" transform="matrix(1 0 0 1 2230.62 1051)">Monitor</text><text font-family="Calibri,Calibri_MSFontService,sans-serif" font-weight="400" font-size="28" transform="matrix(1 0 0 1 1596.25 782)">Defines</text><path d="M2298.21 1239.25 2298.21 1294.01C2298.21 1295.28 2297.19 1296.31 2295.92 1296.31L1990.5 1296.31 1992.79 1294.01 1992.79 1348.78C1992.79 1350.04 1991.77 1351.07 1990.5 1351.07 1989.23 1351.07 1988.21 1350.04 1988.21 1348.78L1988.21 1294.01C1988.21 1292.75 1989.23 1291.72 1990.5 1291.72L2295.92 1291.72 2293.63 1294.01 2293.63 1239.25C2293.63 1237.98 2294.66 1236.96 2295.92 1236.96 2297.19 1236.96 2298.21 1237.98 2298.21 1239.25ZM2282.17 1243.83 2295.92 1225.5 2309.67 1243.83ZM2004.25 1344.19 1990.5 1362.53 1976.75 1344.19Z" fill="#FFFFFF"/><path d="M13.75-2.29167 68.5136-2.29167C69.7793-2.29167 70.8053-1.26565 70.8053 0L70.8053 305.423 68.5136 303.132 123.277 303.132C124.543 303.132 125.569 304.158 125.569 305.423 125.569 306.689 124.543 307.715 123.277 307.715L68.5136 307.715C67.2479 307.715 66.2219 306.689 66.2219 305.423L66.2219 0 68.5136 2.29167 13.75 2.29167C12.4843 2.29167 11.4583 1.26565 11.4583 0 11.4583-1.26565 12.4843-2.29167 13.75-2.29167ZM18.3333 13.75 0 0 18.3333-13.75ZM118.694 291.673 137.027 305.423 118.694 319.173Z" fill="#FFFFFF" transform="matrix(-1.83697e-16 -1 -1 1.83697e-16 2717.92 1362.53)"/><path d="M2.29171 13.75 2.29198 99.1133C2.29199 100.379 1.26598 101.405 0.000324253 101.405-1.26533 101.405-2.29135 100.379-2.29135 99.1133L-2.29162 13.75C-2.29163 12.4844-1.26562 11.4583 3.66393e-05 11.4583 1.26569 11.4583 2.29171 12.4843 2.29171 13.75ZM-13.7499 18.3334 0 0 13.7501 18.3333ZM13.7503 94.5299 0.000360892 112.863-13.7497 94.53Z" fill="#FFFFFF" transform="matrix(-1 0 0 1 2354.5 1249.5)"/><path d="M2260.03 1732.52 1990.5 1732.52C1989.23 1732.52 1988.21 1731.49 1988.21 1730.23L1988.21 1574.25C1988.21 1572.98 1989.23 1571.96 1990.5 1571.96 1991.77 1571.96 1992.79 1572.98 1992.79 1574.25L1992.79 1730.23 1990.5 1727.94 2260.03 1727.94C2261.29 1727.94 2262.32 1728.96 2262.32 1730.23 2262.32 1731.49 2261.29 1732.52 2260.03 1732.52ZM2255.45 1716.48 2273.78 1730.23 2255.45 1743.98ZM1976.75 1578.83 1990.5 1560.5 2004.25 1578.83Z" fill="#FFFFFF"/><path d="M2720.03 1574.25 2720.03 1730.23C2720.03 1731.5 2719.01 1732.52 2717.74 1732.52L2452.25 1732.52C2450.98 1732.52 2449.96 1731.5 2449.96 1730.23 2449.96 1728.96 2450.98 1727.94 2452.25 1727.94L2717.74 1727.94 2715.45 1730.23 2715.45 1574.25C2715.45 1572.98 2716.48 1571.96 2717.74 1571.96 2719.01 1571.96 2720.03 1572.98 2720.03 1574.25ZM2703.99 1578.83 2717.74 1560.5 2731.49 1578.83ZM2456.83 1743.98 2438.5 1730.23 2456.83 1716.48Z" fill="#FFFFFF"/><path d="M2353.91 1634.04 2352.53 1574.3C2352.5 1573.03 2353.5 1571.98 2354.76 1571.96 2356.03 1571.93 2357.08 1572.93 2357.11 1574.19L2358.49 1633.93C2358.52 1635.2 2357.52 1636.24 2356.25 1636.27 2354.99 1636.3 2353.94 1635.3 2353.91 1634.04ZM2369.84 1629.08 2356.52 1647.73 2342.35 1629.72ZM2341.18 1579.15 2354.5 1560.5 2368.67 1578.51Z" fill="#FFFFFF"/><text fill="#FFFFFF" font-family="Calibri,Calibri_MSFontService,sans-serif" font-weight="400" font-size="28" transform="matrix(1 0 0 1 2474.99 1792)">Close Gaps</text><text fill="#FFFFFF" font-family="Calibri,Calibri_MSFontService,sans-serif" font-weight="400" font-size="28" transform="matrix(1 0 0 1 2019.59 1792)">Increase Adoption</text><text fill="#FFFFFF" font-family="Calibri,Calibri_MSFontService,sans-serif" font-weight="400" font-size="28" transform="matrix(1 0 0 1 2062.47 1133)">Executes</text><path d="M13.75-1.71872 156.3-1.71839C157.249-1.71839 158.018-0.948875 158.018 0.000364861 158.018 0.949604 157.249 1.71911 156.3 1.71911L13.75 1.71878C12.8008 1.71878 12.0313 0.949267 12.0313 2.77799e-05 12.0313-0.949212 12.8008-1.71872 13.75-1.71872ZM18.3333 13.75 0 0 18.3334-13.75Z" fill="#FFFFFF" transform="matrix(-1 0 0 1 2250.8 1461.5)"/><path d="M13.75-1.71872 156.3-1.71839C157.249-1.71839 158.019-0.948875 158.019 0.000364861 158.019 0.949604 157.249 1.71911 156.3 1.71911L13.75 1.71878C12.8008 1.71878 12.0313 0.949267 12.0313 2.77799e-05 12.0313-0.949212 12.8008-1.71872 13.75-1.71872ZM18.3333 13.75 0 0 18.3334-13.75Z" fill="#FFFFFF" transform="matrix(-1 0 0 1 2613.8 1461.5)"/><path d="M13.75-1.71872 180.139-1.71839C181.089-1.71839 181.858-0.948875 181.858 0.000364336 181.858 0.949604 181.089 1.71911 180.139 1.71911L13.75 1.71878C12.8008 1.71878 12.0313 0.949264 12.0313 2.41035e-05 12.0313-0.949215 12.8008-1.71872 13.75-1.71872ZM18.3333 13.75 0 0 18.3334-13.75Z" fill="#FFFFFF" transform="matrix(-1 0 0 1 3001.64 1461.5)"/><path d="M13.75-1.71872 174.92-1.71839C175.869-1.71839 176.639-0.948875 176.639 0.000364438 176.639 0.949604 175.869 1.71911 174.92 1.71911L13.75 1.71878C12.8008 1.71878 12.0313 0.949264 12.0313 2.48227e-05 12.0313-0.949215 12.8008-1.71872 13.75-1.71872ZM18.3333 13.75 0 0 18.3334-13.75Z" fill="#FFFFFF" transform="matrix(-1 0 0 1 1886.42 1461.5)"/><path d="M13.75-1.71871 124.133-1.71839C125.083-1.71839 125.852-0.948874 125.852 0.000365889 125.852 0.949605 125.083 1.71911 124.133 1.71911L13.75 1.71879C12.8007 1.71879 12.0312 0.949274 12.0312 3.49784e-05 12.0312-0.949205 12.8007-1.71871 13.75-1.71871ZM18.3333 13.7501 0 0 18.3334-13.7499Z" fill="#FFFFFF" transform="matrix(-1 0 0 1 1959.63 552.5)"/><path d="M-13.75 2.29167-82.4989 2.29167-80.2072 0-80.2072 614.019-82.4989 611.727 663.137 611.727C664.402 611.727 665.428 612.753 665.428 614.019 665.428 615.284 664.402 616.31 663.137 616.31L-82.4989 616.31C-83.7645 616.31-84.7905 615.284-84.7905 614.019L-84.7905 0C-84.7905-1.26565-83.7645-2.29167-82.4989-2.29167L-13.75-2.29167C-12.4843-2.29167-11.4583-1.26565-11.4583 0-11.4583 1.26565-12.4843 2.29167-13.75 2.29167ZM-18.3333-13.75 0 0-18.3333 13.75ZM658.553 600.269 676.887 614.019 658.553 627.769Z" fill="#FFFFFF" transform="matrix(-1 0 0 1 3113.39 552.5)"/><text fill="#FFFFFF" font-family="Calibri,Calibri_MSFontService,sans-serif" font-weight="400" font-size="28" transform="matrix(1 0 0 1 2022.46 80)">Realized Via</text><text fill="#FFFFFF" font-family="Calibri,Calibri_MSFontService,sans-serif" font-weight="400" font-size="28" transform="matrix(1 0 0 1 2524.16 80)">Cascaded Via</text></g></svg>