<svg width="2030" height="2072" xmlns="http://www.w3.org/2000/svg" xmlns:xlink="http://www.w3.org/1999/xlink" xml:space="preserve" overflow="hidden"><g transform="translate(-1243 -112)"><rect x="0" y="0" width="2024" height="1050" fill="#111827" transform="matrix(-1 0 0 1 3273 1134)"/><text fill="#FFFFFF" font-family="Calibri,Calibri_MSFontService,sans-serif" font-weight="700" font-size="64" transform="matrix(1 0 0 1 1281.89 2035)">Entity</text><rect x="0" y="0" width="2024" height="1023" fill="#111827" transform="matrix(-1 0 0 1 3273 112)"/><text fill="#FFFFFF" font-family="Calibri,Calibri_MSFontService,sans-serif" font-weight="700" font-size="64" transform="matrix(1 0 0 1 1281.89 304)">Sector</text><path d="M0 55.6681C-1.79034e-14 24.9235 24.9234-8.95173e-15 55.6681 0L1069.33 0C1100.08-8.95173e-15 1125 24.9235 1125 55.6681L1125 278.332C1125 309.077 1100.08 334 1069.33 334L55.6681 334C24.9234 334-8.95172e-15 309.077 0 278.332Z" fill="#1F2937" fill-rule="evenodd" transform="matrix(-1 0 0 1 2827 1396)"/><text fill="#FFFFFF" font-family="Calibri,Calibri_MSFontService,sans-serif" font-weight="400" font-size="28" transform="matrix(1 0 0 1 2701.05 1664)">Depends </text><text fill="#FFFFFF" font-family="Calibri,Calibri_MSFontService,sans-serif" font-weight="400" font-size="28" transform="matrix(1 0 0 1 2701.05 1697)">On</text><text fill="#FFFFFF" font-family="Calibri,Calibri_MSFontService,sans-serif" font-weight="400" font-size="28" transform="matrix(1 0 0 1 1723.75 1664)">Monitors </text><text fill="#FFFFFF" font-family="Calibri,Calibri_MSFontService,sans-serif" font-weight="400" font-size="28" transform="matrix(1 0 0 1 1723.75 1697)">For</text><text fill="#FFFFFF" font-family="Calibri,Calibri_MSFontService,sans-serif" font-weight="400" font-size="28" transform="matrix(1 0 0 1 2110.85 1664)">Apply</text><text fill="#FFFFFF" font-family="Calibri,Calibri_MSFontService,sans-serif" font-weight="400" font-size="28" transform="matrix(1 0 0 1 2479.07 1664)">Utilize</text><text fill="#FFFFFF" font-family="Calibri,Calibri_MSFontService,sans-serif" font-weight="400" font-size="28" transform="matrix(1 0 0 1 1751.65 1452)">Roles Gap</text><text fill="#FFFFFF" font-family="Calibri,Calibri_MSFontService,sans-serif" font-weight="400" font-size="28" transform="matrix(1 0 0 1 2049.09 1452)">Knowledge Gaps</text><text fill="#FFFFFF" font-family="Calibri,Calibri_MSFontService,sans-serif" font-weight="400" font-size="28" transform="matrix(1 0 0 1 2405.21 1452)">Automation Gaps</text><path d="M0 84.668C-1.46729e-14 37.9072 37.9071 0 84.6679 0L837.332 0C884.093-1.46729e-14 922 37.9072 922 84.668L922 423.332C922 470.093 884.093 508 837.332 508L84.6679 508C37.9071 508 0 470.093 0 423.332Z" fill="#1F2937" fill-rule="evenodd" transform="matrix(-1 0 0 1 2732 404)"/><path d="M13.7498-2.29167 545.398-2.29167C546.664-2.29167 547.69-1.26565 547.69 0L547.69 314.135C547.69 315.4 546.664 316.426 545.398 316.426 544.133 316.426 543.107 315.4 543.107 314.135L543.107 0 545.398 2.29167 13.7498 2.29167C12.4841 2.29167 11.4581 1.26565 11.4581 0 11.4581-1.26565 12.4841-2.29167 13.7498-2.29167ZM18.3333 13.75 0 0 18.3333-13.75ZM559.148 309.551 545.398 327.884 531.648 309.551Z" fill="#FFFFFF" transform="matrix(-1 0 0 1 2177.9 228.5)"/><path d="M2366.25 226.208 2909.45 226.208C2910.72 226.208 2911.75 227.234 2911.75 228.5L2911.75 542.635C2911.75 543.9 2910.72 544.926 2909.45 544.926 2908.19 544.926 2907.16 543.9 2907.16 542.635L2907.16 228.5 2909.45 230.792 2366.25 230.792C2364.98 230.792 2363.96 229.766 2363.96 228.5 2363.96 227.234 2364.98 226.208 2366.25 226.208ZM2370.83 242.25 2352.5 228.5 2370.83 214.75ZM2923.2 538.051 2909.45 556.385 2895.7 538.051Z" fill="#FFFFFF"/><path d="M1503.75 666.792 1435 666.792 1437.29 664.5 1437.29 1278.52 1435 1276.23 2169.08 1276.23C2170.35 1276.23 2171.37 1277.25 2171.37 1278.52 2171.37 1279.78 2170.35 1280.81 2169.08 1280.81L1435 1280.81C1433.73 1280.81 1432.71 1279.78 1432.71 1278.52L1432.71 664.5C1432.71 663.234 1433.73 662.208 1435 662.208L1503.75 662.208C1505.02 662.208 1506.04 663.234 1506.04 664.5 1506.04 665.766 1505.02 666.792 1503.75 666.792ZM1499.17 650.75 1517.5 664.5 1499.17 678.25ZM2164.5 1264.77 2182.83 1278.52 2164.5 1292.27Z" fill="#FFFFFF"/><path d="M2267.79 1125.25 2267.79 1182.2C2267.79 1183.46 2266.77 1184.49 2265.5 1184.49 2264.23 1184.49 2263.21 1183.46 2263.21 1182.2L2263.21 1125.25C2263.21 1123.98 2264.23 1122.96 2265.5 1122.96 2266.77 1122.96 2267.79 1123.98 2267.79 1125.25ZM2251.75 1129.83 2265.5 1111.5 2279.25 1129.83ZM2279.25 1177.61 2265.5 1195.95 2251.75 1177.61Z" fill="#FFFFFF"/><path d="M13.75-2.29167 258.268-2.29167 258.268 536.714 253.685 536.714 253.685 0 255.977 2.29167 13.75 2.29167ZM18.3333 13.75 0 0 18.3333-13.75ZM269.727 532.13 255.977 550.463 242.227 532.13Z" fill="#FFFFFF" transform="matrix(1.83697e-16 1 1 -1.83697e-16 1632.5 773.5)"/><path d="M13.7498-2.29167 564.31-2.29167 564.31 242.227 559.727 242.227 559.727 0 562.018 2.29167 13.7498 2.29167ZM18.3333 13.75 0 0 18.3333-13.75ZM575.768 237.643 562.018 255.977 548.268 237.643Z" fill="#FFFFFF" transform="matrix(1 -1.22465e-16 -1.22465e-16 -1 2347.5 1029.48)"/><path d="M13.75-1.71872 168.247-1.71839C169.197-1.71839 169.966-0.948875 169.966 0.000364579 169.966 0.949604 169.197 1.71911 168.247 1.71911L13.75 1.71878C12.8008 1.71878 12.0313 0.949265 12.0313 2.58072e-05 12.0313-0.949214 12.8008-1.71872 13.75-1.71872ZM18.3333 13.75 0 0 18.3334-13.75Z" fill="#FFFFFF" transform="matrix(-1 0 0 1 2204.75 664.5)"/><path d="M13.75-1.71872 175.578-1.71839C176.527-1.71839 177.297-0.948875 177.297 0.000364425 177.297 0.949604 176.527 1.71911 175.578 1.71911L13.75 1.71878C12.8008 1.71878 12.0313 0.949264 12.0313 2.47297e-05 12.0313-0.949215 12.8008-1.71872 13.75-1.71872ZM18.3333 13.75 0 0 18.3334-13.75Z" fill="#FFFFFF" transform="matrix(-1 0 0 1 2512.08 664.5)"/><path d="M13.75-1.71871 117.787-1.71839C118.736-1.71839 119.506-0.948873 119.506 0.000366159 119.506 0.949606 118.736 1.71911 117.787 1.71911L13.75 1.71879C12.8008 1.71879 12.0313 0.949276 12.0313 3.68631e-05 12.0313-0.949203 12.8008-1.71871 13.75-1.71871ZM18.3333 13.7501 0 0 18.3334-13.7499Z" fill="#FFFFFF" transform="matrix(-1 0 0 1 2795.29 664.5)"/><path d="M2190.5 816.678 1953.5 816.678C1952.55 816.678 1951.78 815.908 1951.78 814.959L1951.78 747.5C1951.78 746.551 1952.55 745.781 1953.5 745.781 1954.45 745.781 1955.22 746.551 1955.22 747.5L1955.22 814.959 1953.5 813.24 2190.5 813.24C2191.45 813.24 2192.22 814.01 2192.22 814.959 2192.22 815.908 2191.45 816.678 2190.5 816.678ZM2185.91 801.209 2204.25 814.959 2185.91 828.709Z" fill="#FFFFFF"/><path d="M13.75-1.71875 250.747-1.71875C251.697-1.71875 252.466-0.949239 252.466 0L252.466 86.7087C252.466 87.658 251.697 88.4275 250.747 88.4275 249.798 88.4275 249.029 87.658 249.029 86.7087L249.029 0 250.747 1.71875 13.75 1.71875C12.8008 1.71875 12.0313 0.949239 12.0313 0 12.0313-0.949239 12.8008-1.71875 13.75-1.71875ZM18.3333 13.75 0 0 18.3333-13.75Z" fill="#FFFFFF" transform="matrix(-1 1.22465e-16 1.22465e-16 1 2204.25 495.5)"/><path d="M2596.3 761.25 2596.3 814.959C2596.3 815.908 2595.53 816.678 2594.58 816.678L2336.5 816.678C2335.55 816.678 2334.78 815.908 2334.78 814.959 2334.78 814.01 2335.55 813.24 2336.5 813.24L2594.58 813.24 2592.86 814.959 2592.86 761.25C2592.86 760.301 2593.63 759.531 2594.58 759.531 2595.53 759.531 2596.3 760.301 2596.3 761.25ZM2580.83 765.833 2594.58 747.5 2608.33 765.833Z" fill="#FFFFFF"/><path d="M13.75-1.71875 86.7087-1.71875C87.658-1.71875 88.4275-0.949239 88.4275 0L88.4275 258.078C88.4275 259.027 87.658 259.797 86.7087 259.797 85.7595 259.797 84.99 259.027 84.99 258.078L84.99 0 86.7087 1.71875 13.75 1.71875C12.8007 1.71875 12.0312 0.949239 12.0312 0 12.0312-0.949239 12.8007-1.71875 13.75-1.71875ZM18.3333 13.75 0 0 18.3333-13.75Z" fill="#FFFFFF" transform="matrix(-1.83697e-16 -1 -1 1.83697e-16 2594.58 582.209)"/><path d="M2.32413 13.7445 2.44433 64.6463C2.44732 65.912 1.42373 66.9404 0.15808 66.9434-1.10757 66.9464-2.136 65.9228-2.13899 64.6572L-2.25919 13.7554C-2.26218 12.4897-1.23859 11.4613 0.0270576 11.4583 1.29271 11.4553 2.32114 12.4789 2.32413 13.7445ZM-13.7067 18.3658 0 0 13.7933 18.3008ZM13.8918 60.036 0.185138 78.4017-13.6081 60.1009Z" fill="#FFFFFF" transform="matrix(1 0 0 -1 2267.5 2002.9)"/><text font-family="Calibri,Calibri_MSFontService,sans-serif" font-weight="400" font-size="28" transform="matrix(1 0 0 1 2177.91 1537)">Cascaded  Via</text><text fill="#FFFFFF" font-family="Calibri,Calibri_MSFontService,sans-serif" font-weight="400" font-size="28" transform="matrix(1 0 0 1 2753.18 302)">Aggregates </text><text fill="#FFFFFF" font-family="Calibri,Calibri_MSFontService,sans-serif" font-weight="400" font-size="28" transform="matrix(1 0 0 1 2753.18 335)">To</text><text fill="#FFFFFF" font-family="Calibri,Calibri_MSFontService,sans-serif" font-weight="400" font-size="28" transform="matrix(1 0 0 1 1657.34 300)">Governed </text><text fill="#FFFFFF" font-family="Calibri,Calibri_MSFontService,sans-serif" font-weight="400" font-size="28" transform="matrix(1 0 0 1 1657.34 333)">By</text><text fill="#FFFFFF" font-family="Calibri,Calibri_MSFontService,sans-serif" font-weight="400" font-size="28" transform="matrix(1 0 0 1 1755.57 575)">Refers To</text><text fill="#FFFFFF" font-family="Calibri,Calibri_MSFontService,sans-serif" font-weight="400" font-size="28" transform="matrix(1 0 0 1 2030.18 576)">Applied On</text><text fill="#FFFFFF" font-family="Calibri,Calibri_MSFontService,sans-serif" font-weight="400" font-size="28" transform="matrix(1 0 0 1 2358.13 579)">Triggers Event</text><text fill="#FFFFFF" font-family="Calibri,Calibri_MSFontService,sans-serif" font-weight="400" font-size="28" transform="matrix(1 0 0 1 2655.22 573)">Measured By</text><text fill="#FFFFFF" font-family="Calibri,Calibri_MSFontService,sans-serif" font-weight="400" font-size="28" transform="matrix(1 0 0 1 3029.51 629)">Targets</text><text fill="#FFFFFF" font-family="Calibri,Calibri_MSFontService,sans-serif" font-weight="400" font-size="28" transform="matrix(1 0 0 1 2418.94 1242)">Reports</text><text fill="#FFFFFF" font-family="Calibri,Calibri_MSFontService,sans-serif" font-weight="400" font-size="28" transform="matrix(1 0 0 1 1380.97 649)">Prioritizes</text><text fill="#FFFFFF" font-family="Calibri,Calibri_MSFontService,sans-serif" font-weight="400" font-size="28" transform="matrix(1 0 0 1 2781.65 995)">Informs</text><text fill="#FFFFFF" font-family="Calibri,Calibri_MSFontService,sans-serif" font-weight="400" font-size="28" transform="matrix(1 0 0 1 1685.25 998)">Informs</text><text fill="#FFFFFF" font-family="Calibri,Calibri_MSFontService,sans-serif" font-weight="400" font-size="28" transform="matrix(1 0 0 1 2141.77 1163)">Monitor</text><text font-family="Calibri,Calibri_MSFontService,sans-serif" font-weight="400" font-size="28" transform="matrix(1 0 0 1 1507.4 894)">Defines</text><path d="M2209.21 1350.25 2209.21 1405.01C2209.21 1406.28 2208.19 1407.31 2206.92 1407.31L1901.5 1407.31 1903.79 1405.01 1903.79 1459.78C1903.79 1461.04 1902.77 1462.07 1901.5 1462.07 1900.23 1462.07 1899.21 1461.04 1899.21 1459.78L1899.21 1405.01C1899.21 1403.75 1900.23 1402.72 1901.5 1402.72L2206.92 1402.72 2204.63 1405.01 2204.63 1350.25C2204.63 1348.98 2205.66 1347.96 2206.92 1347.96 2208.19 1347.96 2209.21 1348.98 2209.21 1350.25ZM2193.17 1354.83 2206.92 1336.5 2220.67 1354.83ZM1915.25 1455.19 1901.5 1473.53 1887.75 1455.19Z" fill="#FFFFFF"/><path d="M13.75-2.29167 68.5136-2.29167C69.7793-2.29167 70.8053-1.26565 70.8053 0L70.8053 305.423 68.5136 303.132 123.277 303.132C124.543 303.132 125.569 304.158 125.569 305.423 125.569 306.689 124.543 307.715 123.277 307.715L68.5136 307.715C67.2479 307.715 66.2219 306.689 66.2219 305.423L66.2219 0 68.5136 2.29167 13.75 2.29167C12.4843 2.29167 11.4583 1.26565 11.4583 0 11.4583-1.26565 12.4843-2.29167 13.75-2.29167ZM18.3333 13.75 0 0 18.3333-13.75ZM118.694 291.673 137.027 305.423 118.694 319.173Z" fill="#FFFFFF" transform="matrix(-1.83697e-16 -1 -1 1.83697e-16 2628.92 1473.53)"/><path d="M2.29171 13.75 2.29198 99.1133C2.29199 100.379 1.26598 101.405 0.000324253 101.405-1.26533 101.405-2.29135 100.379-2.29135 99.1133L-2.29162 13.75C-2.29163 12.4844-1.26562 11.4583 3.66393e-05 11.4583 1.26569 11.4583 2.29171 12.4843 2.29171 13.75ZM-13.7499 18.3334 0 0 13.7501 18.3333ZM13.7503 94.5299 0.000360892 112.863-13.7497 94.53Z" fill="#FFFFFF" transform="matrix(-1 0 0 1 2265.5 1361.5)"/><path d="M2171.03 1843.52 1901.5 1843.52C1900.23 1843.52 1899.21 1842.49 1899.21 1841.23L1899.21 1685.25C1899.21 1683.98 1900.23 1682.96 1901.5 1682.96 1902.77 1682.96 1903.79 1683.98 1903.79 1685.25L1903.79 1841.23 1901.5 1838.94 2171.03 1838.94C2172.29 1838.94 2173.32 1839.96 2173.32 1841.23 2173.32 1842.49 2172.29 1843.52 2171.03 1843.52ZM2166.45 1827.48 2184.78 1841.23 2166.45 1854.98ZM1887.75 1689.83 1901.5 1671.5 1915.25 1689.83Z" fill="#FFFFFF"/><path d="M2631.03 1685.25 2631.03 1841.23C2631.03 1842.5 2630.01 1843.52 2628.74 1843.52L2363.25 1843.52C2361.98 1843.52 2360.96 1842.5 2360.96 1841.23 2360.96 1839.96 2361.98 1838.94 2363.25 1838.94L2628.74 1838.94 2626.45 1841.23 2626.45 1685.25C2626.45 1683.98 2627.48 1682.96 2628.74 1682.96 2630.01 1682.96 2631.03 1683.98 2631.03 1685.25ZM2614.99 1689.83 2628.74 1671.5 2642.49 1689.83ZM2367.83 1854.98 2349.5 1841.23 2367.83 1827.48Z" fill="#FFFFFF"/><path d="M2264.91 1745.04 2263.53 1685.3C2263.5 1684.03 2264.5 1682.98 2265.77 1682.96 2267.03 1682.93 2268.08 1683.93 2268.11 1685.19L2269.49 1744.93C2269.52 1746.2 2268.52 1747.24 2267.25 1747.27 2265.99 1747.3 2264.94 1746.3 2264.91 1745.04ZM2280.84 1740.08 2267.52 1758.73 2253.35 1740.72ZM2252.18 1690.15 2265.5 1671.5 2279.67 1689.51Z" fill="#FFFFFF"/><text fill="#FFFFFF" font-family="Calibri,Calibri_MSFontService,sans-serif" font-weight="400" font-size="28" transform="matrix(1 0 0 1 2386.14 1904)">Close Gaps</text><text fill="#FFFFFF" font-family="Calibri,Calibri_MSFontService,sans-serif" font-weight="400" font-size="28" transform="matrix(1 0 0 1 1930.74 1904)">Increase Adoption</text><text fill="#FFFFFF" font-family="Calibri,Calibri_MSFontService,sans-serif" font-weight="400" font-size="28" transform="matrix(1 0 0 1 1973.63 1245)">Executes</text><path d="M0 82.5C-1.05034e-14 36.9365 36.9365-1.05034e-14 82.5-2.10067e-14 128.063-4.20134e-14 165 36.9365 165 82.5 165 128.063 128.063 165 82.5 165 36.9365 165-5.25168e-14 128.063 0 82.5Z" stroke="#BFBFBF" stroke-width="2.29167" stroke-miterlimit="8" fill="#616161" fill-rule="evenodd" transform="matrix(-1 0 0 1 2349 1759)"/><text fill="#FFFFFF" font-family="Calibri,Calibri_MSFontService,sans-serif" font-weight="400" font-size="28" transform="matrix(1 0 0 1 2221.75 1834)">Projects </text><text fill="#FFFFFF" font-family="Calibri,Calibri_MSFontService,sans-serif" font-weight="400" font-size="28" transform="matrix(1 0 0 1 2221.45 1867)">Outputs</text><path d="M0 82.5C-1.05034e-14 36.9365 36.9365-1.05034e-14 82.5-2.10067e-14 128.063-4.20134e-14 165 36.9365 165 82.5 165 128.063 128.063 165 82.5 165 36.9365 165-5.25168e-14 128.063 0 82.5Z" stroke="#BFBFBF" stroke-width="6.875" stroke-miterlimit="8" fill="#616161" fill-rule="evenodd" transform="matrix(-1 0 0 1 2349.5 2002.5)"/><text fill="#FFFFFF" font-family="Calibri,Calibri_MSFontService,sans-serif" font-weight="400" font-size="23" transform="matrix(1 0 0 1 2231.87 2078)">Change </text><text fill="#FFFFFF" font-family="Calibri,Calibri_MSFontService,sans-serif" font-weight="400" font-size="23" transform="matrix(1 0 0 1 2208.66 2106)">Architecture </text><path d="M0 85.5001C-1.11399e-14 38.2797 39.1751-1.08853e-14 87.5-2.17706e-14 135.825-4.35412e-14 175 38.2797 175 85.5001 175 132.72 135.825 171 87.5 171 39.1751 171-5.56996e-14 132.72 0 85.5001Z" stroke="#BFBFBF" stroke-width="2.29167" stroke-miterlimit="8" fill="#616161" fill-rule="evenodd" transform="matrix(-1 0 0 1 2352 142)"/><text fill="#FFFFFF" font-family="Calibri,Calibri_MSFontService,sans-serif" font-weight="400" font-size="28" transform="matrix(1 0 0 1 2206.25 237)">Objectives</text><path d="M0 82.5C-1.05034e-14 36.9365 36.9365-1.05034e-14 82.5-2.10067e-14 128.063-4.20134e-14 165 36.9365 165 82.5 165 128.063 128.063 165 82.5 165 36.9365 165-5.25168e-14 128.063 0 82.5Z" stroke="#BFBFBF" stroke-width="6.875" stroke-miterlimit="8" fill="#616161" fill-rule="evenodd" transform="matrix(-1 0 0 1 1622.5 1490.5)"/><text fill="#FFFFFF" font-family="Calibri,Calibri_MSFontService,sans-serif" font-weight="400" font-size="28" transform="matrix(1 0 0 1 1498.53 1565)">Culture </text><text fill="#FFFFFF" font-family="Calibri,Calibri_MSFontService,sans-serif" font-weight="400" font-size="28" transform="matrix(1 0 0 1 1502.84 1598)">Health</text><path d="M0 99C-1.32406e-14 44.3238 46.5624-1.2604e-14 104-2.5208e-14 161.438-5.04161e-14 208 44.3238 208 99 208 153.676 161.438 198 104 198 46.5624 198-6.62029e-14 153.676 0 99Z" stroke="#BFBFBF" stroke-width="3.4375" stroke-linejoin="round" stroke-miterlimit="10" fill="#616161" fill-rule="evenodd" transform="matrix(-1 0 0 1 2005.5 1473.5)"/><text fill="#FFFFFF" font-family="Calibri,Calibri_MSFontService,sans-serif" font-weight="400" font-size="28" transform="matrix(1 0 0 1 1829.32 1582)">Organization</text><path d="M0 99C-1.31769e-14 44.3238 46.3385-1.2604e-14 103.5-2.5208e-14 160.661-5.04161e-14 207 44.3238 207 99 207 153.676 160.661 198 103.5 198 46.3385 198-6.58846e-14 153.676 0 99Z" stroke="#BFBFBF" stroke-width="3.4375" stroke-linejoin="round" stroke-miterlimit="10" fill="#616161" fill-rule="evenodd" transform="matrix(-1 0 0 1 2732.5 1473.5)"/><text fill="#FFFFFF" font-family="Calibri,Calibri_MSFontService,sans-serif" font-weight="400" font-size="28" transform="matrix(1 0 0 1 2569.44 1582)">IT Systems </text><path d="M0 82.5C-1.05034e-14 36.9365 36.9365-1.05034e-14 82.5-2.10067e-14 128.063-4.20134e-14 165 36.9365 165 82.5 165 128.063 128.063 165 82.5 165 36.9365 165-5.25168e-14 128.063 0 82.5Z" stroke="#BFBFBF" stroke-width="6.875" stroke-miterlimit="8" fill="#595959" fill-rule="evenodd" transform="matrix(-1 0 0 1 3077.5 1490.5)"/><text fill="#FFFFFF" font-family="Calibri,Calibri_MSFontService,sans-serif" font-weight="400" font-size="28" transform="matrix(1 0 0 1 2953.86 1565)">Vendor </text><text fill="#FFFFFF" font-family="Calibri,Calibri_MSFontService,sans-serif" font-weight="400" font-size="28" transform="matrix(1 0 0 1 2974.76 1598)">SLA</text><path d="M0 99C-1.31769e-14 44.3238 46.3385-1.2604e-14 103.5-2.5208e-14 160.661-5.04161e-14 207 44.3238 207 99 207 153.676 160.661 198 103.5 198 46.3385 198-6.58846e-14 153.676 0 99Z" stroke="#BFBFBF" stroke-width="3.4375" stroke-linejoin="round" stroke-miterlimit="10" fill="#616161" fill-rule="evenodd" transform="matrix(-1 0 0 1 2368.5 1473.5)"/><text fill="#FFFFFF" font-family="Calibri,Calibri_MSFontService,sans-serif" font-weight="400" font-size="28" transform="matrix(1 0 0 1 2209.69 1582)">Processes</text><path d="M13.75-1.71872 156.3-1.71839C157.249-1.71839 158.018-0.948875 158.018 0.000364861 158.018 0.949604 157.249 1.71911 156.3 1.71911L13.75 1.71878C12.8008 1.71878 12.0313 0.949267 12.0313 2.77799e-05 12.0313-0.949212 12.8008-1.71872 13.75-1.71872ZM18.3333 13.75 0 0 18.3334-13.75Z" fill="#FFFFFF" transform="matrix(-1 0 0 1 2161.8 1572.5)"/><path d="M13.75-1.71872 156.3-1.71839C157.249-1.71839 158.019-0.948875 158.019 0.000364861 158.019 0.949604 157.249 1.71911 156.3 1.71911L13.75 1.71878C12.8008 1.71878 12.0313 0.949267 12.0313 2.77799e-05 12.0313-0.949212 12.8008-1.71872 13.75-1.71872ZM18.3333 13.75 0 0 18.3334-13.75Z" fill="#FFFFFF" transform="matrix(-1 0 0 1 2524.8 1572.5)"/><path d="M13.75-1.71872 180.139-1.71839C181.089-1.71839 181.858-0.948875 181.858 0.000364336 181.858 0.949604 181.089 1.71911 180.139 1.71911L13.75 1.71878C12.8008 1.71878 12.0313 0.949264 12.0313 2.41035e-05 12.0313-0.949215 12.8008-1.71872 13.75-1.71872ZM18.3333 13.75 0 0 18.3334-13.75Z" fill="#FFFFFF" transform="matrix(-1 0 0 1 2912.64 1572.5)"/><path d="M13.75-1.71872 174.92-1.71839C175.869-1.71839 176.639-0.948875 176.639 0.000364438 176.639 0.949604 175.869 1.71911 174.92 1.71911L13.75 1.71878C12.8008 1.71878 12.0313 0.949264 12.0313 2.48227e-05 12.0313-0.949215 12.8008-1.71872 13.75-1.71872ZM18.3333 13.75 0 0 18.3334-13.75Z" fill="#FFFFFF" transform="matrix(-1 0 0 1 1797.42 1572.5)"/><path d="M0 82.5C-1.05034e-14 36.9365 36.9365-1.05034e-14 82.5-2.10067e-14 128.063-4.20134e-14 165 36.9365 165 82.5 165 128.063 128.063 165 82.5 165 36.9365 165-5.25168e-14 128.063 0 82.5Z" stroke="#BFBFBF" stroke-width="2.29167" stroke-miterlimit="8" fill="#616161" fill-rule="evenodd" transform="matrix(-1 0 0 1 2347 946)"/><text fill="#FFFFFF" font-family="Calibri,Calibri_MSFontService,sans-serif" font-weight="400" font-size="28" transform="matrix(1 0 0 1 2236.9 1038)">Risks</text><path d="M0 82.5C-1.05034e-14 36.9365 36.9365-1.05034e-14 82.5-2.10067e-14 128.063-4.20134e-14 165 36.9365 165 82.5 165 128.063 128.063 165 82.5 165 36.9365 165-5.25168e-14 128.063 0 82.5Z" stroke="#BFBFBF" stroke-width="2.29167" stroke-miterlimit="8" fill="#616161" fill-rule="evenodd" transform="matrix(-1 0 0 1 2347 1196)"/><text fill="#FFFFFF" font-family="Calibri,Calibri_MSFontService,sans-serif" font-weight="400" font-size="28" transform="matrix(1 0 0 1 2209.4 1288)">Capability</text><path d="M0 109C-1.4641e-14 48.8009 51.4872-1.38771e-14 115-2.77543e-14 178.513-5.55086e-14 230 48.8009 230 109 230 169.199 178.513 218 115 218 51.4872 218-7.32052e-14 169.199 0 109Z" stroke="#BFBFBF" stroke-width="2.29167" stroke-miterlimit="8" fill="#616161" fill-rule="evenodd" transform="matrix(-1 0 0 1 1747 555)"/><text fill="#FFFFFF" font-family="Calibri,Calibri_MSFontService,sans-serif" font-weight="400" font-size="28" transform="matrix(1 0 0 1 1566.41 674)">Policy Tools</text><path d="M0 109C-1.4641e-14 48.8009 51.4872-1.38771e-14 115-2.77543e-14 178.513-5.55086e-14 230 48.8009 230 109 230 169.199 178.513 218 115 218 51.4872 218-7.32052e-14 169.199 0 109Z" stroke="#BFBFBF" stroke-width="2.29167" stroke-miterlimit="8" fill="#616161" fill-rule="evenodd" transform="matrix(-1 0 0 1 3024 555)"/><text fill="#FFFFFF" font-family="Calibri,Calibri_MSFontService,sans-serif" font-weight="400" font-size="28" transform="matrix(1 0 0 1 2836.73 674)">Performance</text><path d="M0 82.5C-1.05034e-14 36.9365 36.9365-1.05034e-14 82.5-2.10067e-14 128.063-4.20134e-14 165 36.9365 165 82.5 165 128.063 128.063 165 82.5 165 36.9365 165-5.25168e-14 128.063 0 82.5Z" stroke="#BFBFBF" stroke-width="2.29167" stroke-linejoin="round" stroke-miterlimit="10" fill="#616161" fill-rule="evenodd" transform="matrix(-1 0 0 1 2036 582)"/><text fill="#FFFFFF" font-family="Calibri,Calibri_MSFontService,sans-serif" font-weight="400" font-size="23" transform="matrix(1 0 0 1 1922.85 658)">Admin </text><text fill="#FFFFFF" font-family="Calibri,Calibri_MSFontService,sans-serif" font-weight="400" font-size="23" transform="matrix(1 0 0 1 1915.7 686)">Records</text><path d="M0 82.5C-1.05034e-14 36.9365 36.9365-1.05034e-14 82.5-2.10067e-14 128.063-4.20134e-14 165 36.9365 165 82.5 165 128.063 128.063 165 82.5 165 36.9365 165-5.25168e-14 128.063 0 82.5Z" stroke="#BFBFBF" stroke-width="2.29167" stroke-linejoin="round" stroke-miterlimit="10" fill="#616161" fill-rule="evenodd" transform="matrix(-1 0 0 1 2677 582)"/><text fill="#FFFFFF" font-family="Calibri,Calibri_MSFontService,sans-serif" font-weight="400" font-size="23" transform="matrix(1 0 0 1 2572.27 658)">Data </text><text fill="#FFFFFF" font-family="Calibri,Calibri_MSFontService,sans-serif" font-weight="400" font-size="23" transform="matrix(1 0 0 1 2539.91 686)">Transaction</text><path d="M0 66C-8.40268e-15 29.5492 29.5492-8.40268e-15 66-1.68054e-14 102.451-3.36107e-14 132 29.5492 132 66 132 102.451 102.451 132 66 132 29.5492 132-4.20134e-14 102.451 0 66Z" stroke="#BFBFBF" stroke-width="2.29167" stroke-linejoin="round" stroke-miterlimit="10" fill="#616161" fill-rule="evenodd" transform="matrix(-1 0 0 1 2336 598)"/><text fill="#FFFFFF" font-family="Calibri,Calibri_MSFontService,sans-serif" font-weight="400" font-size="23" transform="matrix(1 0 0 1 2229.58 671)">Business</text><path d="M0 66C-8.40268e-15 29.5492 29.5492-8.40268e-15 66-1.68054e-14 102.451-3.36107e-14 132 29.5492 132 66 132 102.451 102.451 132 66 132 29.5492 132-4.20134e-14 102.451 0 66Z" stroke="#BFBFBF" stroke-width="2.29167" stroke-linejoin="round" stroke-miterlimit="10" fill="#616161" fill-rule="evenodd" transform="matrix(-1 0 0 1 2336 748)"/><text fill="#FFFFFF" font-family="Calibri,Calibri_MSFontService,sans-serif" font-weight="400" font-size="23" transform="matrix(1 0 0 1 2248.79 808)">Gov. </text><text fill="#FFFFFF" font-family="Calibri,Calibri_MSFontService,sans-serif" font-weight="400" font-size="23" transform="matrix(1 0 0 1 2235.31 836)">Entities</text><path d="M0 66C-8.40268e-15 29.5492 29.5492-8.40268e-15 66-1.68054e-14 102.451-3.36107e-14 132 29.5492 132 66 132 102.451 102.451 132 66 132 29.5492 132-4.20134e-14 102.451 0 66Z" stroke="#BFBFBF" stroke-width="2.29167" stroke-linejoin="round" stroke-miterlimit="10" fill="#616161" fill-rule="evenodd" transform="matrix(-1 0 0 1 2336 429)"/><text fill="#FFFFFF" font-family="Calibri,Calibri_MSFontService,sans-serif" font-weight="400" font-size="23" transform="matrix(1 0 0 1 2238.75 502)">Citizen</text><path d="M13.75-1.71871 124.133-1.71839C125.083-1.71839 125.852-0.948874 125.852 0.000365889 125.852 0.949605 125.083 1.71911 124.133 1.71911L13.75 1.71879C12.8007 1.71879 12.0312 0.949274 12.0312 3.49784e-05 12.0312-0.949205 12.8007-1.71871 13.75-1.71871ZM18.3333 13.7501 0 0 18.3334-13.7499Z" fill="#FFFFFF" transform="matrix(-1 0 0 1 1871.63 664.5)"/><path d="M-13.75 2.29167-82.4989 2.29167-80.2072 0-80.2072 614.019-82.4989 611.727 663.137 611.727C664.402 611.727 665.428 612.753 665.428 614.019 665.428 615.284 664.402 616.31 663.137 616.31L-82.4989 616.31C-83.7645 616.31-84.7905 615.284-84.7905 614.019L-84.7905 0C-84.7905-1.26565-83.7645-2.29167-82.4989-2.29167L-13.75-2.29167C-12.4843-2.29167-11.4583-1.26565-11.4583 0-11.4583 1.26565-12.4843 2.29167-13.75 2.29167ZM-18.3333-13.75 0 0-18.3333 13.75ZM658.553 600.269 676.887 614.019 658.553 627.769Z" fill="#FFFFFF" transform="matrix(-1 0 0 1 3024.39 664.5)"/><text fill="#FFFFFF" font-family="Calibri,Calibri_MSFontService,sans-serif" font-weight="400" font-size="28" transform="matrix(1 0 0 1 1933.62 192)">Realized Via</text><text fill="#FFFFFF" font-family="Calibri,Calibri_MSFontService,sans-serif" font-weight="400" font-size="28" transform="matrix(1 0 0 1 2435.31 192)">Cascaded Via</text></g></svg>