<svg width="123" height="176" viewBox="0 0 123 176" fill="none" xmlns="http://www.w3.org/2000/svg">
<path d="M58.4736 6.35254C86.7559 5.5723 110.15 24.3883 115.139 52.4375C116.24 58.6319 116.24 63.3964 115.4 67.9727C114.555 72.579 112.849 77.0654 110.433 82.7314C98.8699 109.847 78.0477 140.894 61.1016 165.193C55.5851 157.171 50.3519 148.948 45.0156 140.747C39.6046 132.432 30.3227 118.473 22.1865 104.121C18.1192 96.9465 14.3535 89.6997 11.5088 83.0352C8.65279 76.3442 6.77337 70.35 6.39062 65.6504C3.8189 34.0755 27.5347 8.88213 58.4736 6.35254Z" fill="white" stroke="black" style="fill:white;fill-opacity:1;stroke:black;stroke-opacity:1;" stroke-width="3"/>
<path d="M57.2793 11.5244C70.8731 11.1874 81.2752 14.1941 92.0107 22.7715C126.849 50.6094 109.52 105.611 64.4365 110.432C38.3104 111.763 15.4347 93.2991 11.9248 67.1465C8.68477 43.0046 24.3263 19.7597 47.6709 13.2373C50.8089 12.3606 54.008 11.9578 57.2793 11.5244ZM105.095 58.2041C103.429 34.5676 82.0057 14.8322 58.04 16.7178L58.0117 16.7207C44.2088 18.607 34.1145 23.3565 25.4873 34.6748C2.22852 65.1903 27.1899 107.684 64.5127 105.112C88.0954 103.609 106.745 81.6325 105.095 58.2041Z" fill="black" stroke="#9A7A1C" style="fill:black;fill-opacity:1;stroke:#9A7A1C;stroke:color(display-p3 0.6039 0.4784 0.1098);stroke-opacity:1;" stroke-linejoin="round"/>
</svg>
