<svg width="123" height="176" viewBox="0 0 123 176" fill="none" xmlns="http://www.w3.org/2000/svg">
<g filter="url(#filter0_i_372_94)">
<path d="M58.3894 4.85418C26.6849 7.42733 2.24935 33.2826 4.89585 65.7726C6.50635 85.5471 32.9588 124.968 43.7589 141.565C49.4714 150.344 55.0968 159.2 61.0788 167.799C61.4873 167.238 61.9904 166.652 62.3319 166.052C79.2699 141.765 100.18 110.598 111.812 83.3196C116.654 71.9651 118.87 64.8516 116.616 52.1746C111.493 23.3736 87.4269 4.03338 58.3894 4.85418Z" fill="#FFB400" style="fill:#FFB400;fill:color(display-p3 1.0000 0.7048 0.0000);fill-opacity:1;"/>
</g>
<path d="M58.7129 10.8486C84.7351 10.1832 106.121 27.4273 110.709 53.2256C111.734 58.9877 111.7 63.2019 110.974 67.1602C110.225 71.2391 108.695 75.3328 106.293 80.9658C95.7607 105.665 77.3097 133.858 61.1484 157.233C56.9951 151.011 52.9476 144.685 48.7881 138.293C43.3439 129.926 34.1525 116.105 26.1006 101.901C22.0775 94.8048 18.401 87.7194 15.6475 81.2686C12.8489 74.7122 11.1991 69.2525 10.876 65.2852C8.52806 36.4587 30.0785 13.2532 58.7129 10.8486Z" stroke="#D4AF37" stroke-opacity="0.6" style="stroke:#D4AF37;stroke:color(display-p3 0.8314 0.6863 0.2157);stroke-opacity:0.6;" stroke-width="12"/>
<path d="M57.2793 11.5244C70.8731 11.1874 81.2752 14.1941 92.0107 22.7715C126.849 50.6094 109.52 105.611 64.4365 110.432C38.3104 111.763 15.4347 93.2991 11.9248 67.1465C8.68477 43.0046 24.3263 19.7597 47.6709 13.2373C50.8089 12.3606 54.008 11.9578 57.2793 11.5244ZM105.095 58.2041C103.429 34.5676 82.0057 14.8322 58.04 16.7178L58.0117 16.7207C44.2088 18.607 34.1145 23.3565 25.4873 34.6748C2.22852 65.1903 27.1899 107.684 64.5127 105.112C88.0954 103.609 106.745 81.6325 105.095 58.2041Z" fill="#FFB400" stroke="#9A7A1C" style="fill:#FFB400;fill:color(display-p3 1.0000 0.7048 0.0000);fill-opacity:1;stroke:#9A7A1C;stroke:color(display-p3 0.6039 0.4784 0.1098);stroke-opacity:1;" stroke-linejoin="round"/>
<defs>
<filter id="filter0_i_372_94" x="0" y="0" width="122.405" height="179.983" filterUnits="userSpaceOnUse" color-interpolation-filters="sRGB">
<feFlood flood-opacity="0" result="BackgroundImageFix"/>
<feBlend mode="normal" in="SourceGraphic" in2="BackgroundImageFix" result="shape"/>
<feColorMatrix in="SourceAlpha" type="matrix" values="0 0 0 0 0 0 0 0 0 0 0 0 0 0 0 0 0 0 127 0" result="hardAlpha"/>
<feMorphology radius="1" operator="erode" in="SourceAlpha" result="effect1_innerShadow_372_94"/>
<feOffset dy="4"/>
<feGaussianBlur stdDeviation="6"/>
<feComposite in2="hardAlpha" operator="arithmetic" k2="-1" k3="1"/>
<feColorMatrix type="matrix" values="0 0 0 0 1 0 0 0 0 0.704819 0 0 0 0 0 0 0 0 1 0"/>
<feBlend mode="normal" in2="shape" result="effect1_innerShadow_372_94"/>
</filter>
</defs>
</svg>
